M48
; DRILL file {KiCad 5.99.0-unknown-1973153~101~ubuntu20.04.1} date Thu Jun 25 18:43:13 2020
; FORMAT={-:-/ absolute / inch / decimal}
; #@! TF.CreationDate,2020-06-25T18:43:13-04:00
; #@! TF.GenerationSoftware,Kicad,Pcbnew,5.99.0-unknown-1973153~101~ubuntu20.04.1
; #@! TF.FileFunction,NonPlated,1,4,NPTH
FMAT,2
INCH
T1C0.0620
T2C0.1280
%
G90
G05
T1
X5.3295Y-8.4131
X5.3295Y-8.7431
X7.8295Y-8.4131
X7.8295Y-8.7431
X11.561Y-8.4135
X11.561Y-8.7435
X14.061Y-8.4135
X14.061Y-8.7435
X8.4449Y-8.4124
X8.4449Y-8.7424
X10.9449Y-8.4124
X10.9449Y-8.7424
X2.2134Y-8.4131
X2.2134Y-8.7431
X4.7134Y-8.4131
X4.7134Y-8.7431
T2
X5.3995Y-9.0231
X7.7608Y-9.0231
X11.631Y-9.0235
X13.9923Y-9.0235
X8.5149Y-9.0224
X10.8762Y-9.0224
X2.2834Y-9.0231
X4.6447Y-9.0231
T0
M30
