M48
; DRILL file {KiCad 5.99.0-unknown-1973153~101~ubuntu20.04.1} date Thu Jun 25 18:43:13 2020
; FORMAT={-:-/ absolute / inch / decimal}
; #@! TF.CreationDate,2020-06-25T18:43:13-04:00
; #@! TF.GenerationSoftware,Kicad,Pcbnew,5.99.0-unknown-1973153~101~ubuntu20.04.1
; #@! TF.FileFunction,Plated,1,4,PTH
FMAT,2
INCH
T1C0.0080
T2C0.0157
T3C0.0315
T4C0.0350
T5C0.0394
T6C0.0402
T7C0.1693
T8C0.1693
%
G90
G05
T1
X1.7944Y-6.1115
X1.7944Y-7.2453
X1.7944Y-8.5052
X1.9598Y-6.1115
X1.9598Y-7.2453
X1.9598Y-8.5052
X2.1714Y-5.7719
X2.2624Y-5.6469
X2.2884Y-5.0779
X2.2984Y-6.0949
X2.3284Y-7.2949
X2.3754Y-4.9779
X2.4034Y-7.5289
X2.4044Y-7.1989
X2.4194Y-6.4629
X2.4204Y-1.1311
X2.4284Y-6.02
X2.4494Y-6.5109
X2.4494Y-7.5309
X2.4534Y-7.2009
X2.4744Y-4.9369
X2.4744Y-5.0239
X2.4744Y-6.021
X2.4794Y-7.2939
X2.4834Y-6.0929
X2.4904Y-6.4729
X2.4994Y-7.1959
X2.5244Y-6.021
X2.5264Y-7.5289
X2.5364Y-6.4739
X2.5414Y-7.1929
X2.5704Y-6.024
X2.5764Y-7.5289
X2.6055Y-7.1245
X2.6174Y-6.1009
X2.6274Y-7.3005
X2.6358Y-6.0103
X2.6874Y-5.0239
X2.6894Y-5.0649
X2.6904Y-4.9379
X2.6904Y-4.9829
X2.7034Y-5.2249
X2.7474Y-5.3449
X2.7754Y-6.1009
X2.7798Y-7.2889
X2.7944Y-1.1311
X2.8974Y-5.6239
X2.9514Y-5.6969
X2.9859Y-5.5134
X2.9874Y-5.0839
X2.9894Y-5.1229
X2.9894Y-5.1609
X2.9894Y-5.2009
X3.0384Y-6.1119
X3.0634Y-7.2949
X3.0734Y-4.6319
X3.0734Y-5.5379
X3.0754Y-5.5009
X3.0825Y-1.2565
X3.1122Y-5.2623
X3.1124Y-4.8679
X3.1124Y-5.0249
X3.1125Y-5.3016
X3.1133Y-5.5367
X3.1134Y-5.0639
X3.1304Y-7.5169
X3.1324Y-7.2019
X3.1464Y-6.1529
X3.1515Y-5.3008
X3.1519Y-5.2611
X3.1523Y-5.2217
X3.1524Y-4.8289
X3.1524Y-5.4989
X3.1784Y-7.2079
X3.1844Y-7.5209
X3.1854Y-6.0099
X3.1854Y-6.3859
X3.1889Y-5.2201
X3.1894Y-5.0619
X3.1894Y-5.1019
X3.1894Y-5.1409
X3.1894Y-5.3019
X3.1904Y-5.0249
X3.1904Y-5.3399
X3.1904Y-5.3799
X3.191Y-4.7103
X3.1914Y-4.7499
X3.1914Y-5.4579
X3.1924Y-5.1819
X3.2164Y-7.3089
X3.2224Y-6.3839
X3.2254Y-6.0099
X3.2294Y-5.3009
X3.2302Y-4.7101
X3.2304Y-4.7889
X3.2304Y-5.3409
X3.2304Y-7.1989
X3.2304Y-7.4999
X3.2324Y-5.4979
X3.2344Y-5.2419
X3.2354Y-5.2029
X3.2364Y-5.1219
X3.2374Y-5.0829
X3.2394Y-5.0451
X3.2404Y-5.0029
X3.2522Y-5.4433
X3.2534Y-5.4079
X3.2625Y-5.0992
X3.2625Y-4.8626
X3.2627Y-5.2239
X3.2654Y-6.3859
X3.2692Y-5.4979
X3.2699Y-4.7104
X3.2794Y-6.0139
X3.2795Y-4.9481
X3.2824Y-7.4979
X3.2844Y-7.1849
X3.2864Y-5.0349
X3.2914Y-5.2749
X3.3072Y-5.4959
X3.3094Y-4.6739
X3.3124Y-6.3889
X3.3214Y-6.0159
X3.3467Y-4.673
X3.3474Y-5.4589
X3.3474Y-5.4969
X3.3484Y-4.7548
X3.3484Y-4.986
X3.3484Y-5.025
X3.3484Y-5.065
X3.3484Y-5.104
X3.3491Y-5.3516
X3.3494Y-4.7099
X3.3622Y-7.1197
X3.3624Y-7.3029
X3.3794Y-6.1529
X3.3846Y-5.2615
X3.3862Y-4.8233
X3.3864Y-4.9469
X3.3864Y-4.9869
X3.3864Y-5.0259
X3.3864Y-5.0659
X3.3864Y-5.1049
X3.3864Y-5.1449
X3.3864Y-5.1839
X3.3864Y-5.2239
X3.3874Y-4.7089
X3.3893Y-6.028
X3.4007Y-2.3595
X3.4007Y-2.5603
X3.424Y-5.3497
X3.4244Y-5.4559
X3.4251Y-4.9469
X3.4254Y-5.4959
X3.4271Y-4.7102
X3.4272Y-4.9857
X3.4272Y-5.0251
X3.4272Y-5.0644
X3.4272Y-5.1038
X3.4272Y-5.1432
X3.4272Y-5.1826
X3.4272Y-5.2219
X3.4272Y-5.2613
X3.4274Y-4.7499
X3.4293Y-4.673
X3.4474Y-6.1529
X3.4598Y-2.6666
X3.4622Y-4.8717
X3.4629Y-4.8237
X3.4648Y-4.673
X3.4654Y-4.9455
X3.4664Y-4.7499
X3.4664Y-5.4589
X3.4664Y-5.4989
X3.4664Y-5.5369
X3.4665Y-4.9857
X3.4665Y-5.0251
X3.4665Y-5.0644
X3.4665Y-5.1038
X3.4665Y-5.1432
X3.4665Y-5.1826
X3.4665Y-5.2219
X3.4665Y-5.2613
X3.4678Y-4.7094
X3.5041Y-4.9455
X3.5043Y-5.35
X3.5044Y-4.7119
X3.5044Y-5.4599
X3.5044Y-5.4959
X3.5059Y-4.9857
X3.5059Y-5.0251
X3.5059Y-5.0644
X3.5059Y-5.1038
X3.5059Y-5.1432
X3.5059Y-5.1826
X3.5059Y-5.2219
X3.5059Y-5.2613
X3.5064Y-4.7499
X3.5144Y-7.3019
X3.5188Y-2.6548
X3.5417Y-4.8737
X3.5437Y-4.8237
X3.5442Y-4.7091
X3.5444Y-4.7489
X3.545Y-5.4975
X3.5453Y-4.9857
X3.5453Y-5.0251
X3.5453Y-5.0644
X3.5453Y-5.1038
X3.5453Y-5.1432
X3.5453Y-5.1826
X3.5453Y-5.2219
X3.5453Y-5.2613
X3.5454Y-4.9459
X3.546Y-5.4585
X3.546Y-5.5375
X3.5474Y-4.673
X3.5503Y-2.7453
X3.5829Y-4.673
X3.5841Y-4.9459
X3.5846Y-4.9857
X3.5846Y-5.0251
X3.5846Y-5.0644
X3.5846Y-5.1038
X3.5846Y-5.1432
X3.5846Y-5.1826
X3.5846Y-5.2219
X3.5846Y-5.2613
X3.5854Y-4.7099
X3.5854Y-4.7489
X3.5874Y-5.4989
X3.5874Y-5.4603
X3.6015Y-2.4107
X3.6015Y-2.4422
X3.6051Y-5.3516
X3.6204Y-4.8737
X3.622Y-4.8233
X3.6224Y-5.4989
X3.6224Y-5.4603
X3.6234Y-4.7489
X3.624Y-4.9857
X3.624Y-5.0251
X3.624Y-5.0644
X3.624Y-5.1038
X3.624Y-5.1432
X3.624Y-5.1826
X3.624Y-5.2219
X3.624Y-5.2613
X3.6244Y-4.9445
X3.6261Y-4.673
X3.6291Y-2.8595
X3.6409Y-2.4107
X3.6409Y-2.4422
X3.6624Y-4.6729
X3.6624Y-5.4589
X3.6624Y-5.5369
X3.6631Y-4.9445
X3.6634Y-4.7489
X3.6634Y-5.4969
X3.6634Y-4.9857
X3.6634Y-5.0251
X3.6634Y-5.0644
X3.6634Y-5.1038
X3.6634Y-5.1432
X3.6634Y-5.1826
X3.6634Y-5.2219
X3.6634Y-5.2613
X3.6654Y-4.7089
X3.6724Y-2.8595
X3.6818Y-5.3508
X3.7004Y-4.9449
X3.7004Y-5.5369
X3.7015Y-4.8725
X3.7024Y-4.7479
X3.7024Y-5.4599
X3.7028Y-4.9857
X3.7028Y-5.0251
X3.7028Y-5.0644
X3.7028Y-5.1038
X3.7028Y-5.1432
X3.7028Y-5.1826
X3.7028Y-5.2219
X3.7028Y-5.2613
X3.7034Y-5.4969
X3.7391Y-4.9449
X3.7393Y-2.6902
X3.7404Y-6.1489
X3.7414Y-4.7109
X3.7421Y-4.9857
X3.7421Y-5.0251
X3.7421Y-5.0644
X3.7421Y-5.1038
X3.7421Y-5.1432
X3.7421Y-5.1826
X3.7421Y-5.2219
X3.7421Y-5.2613
X3.7424Y-4.6739
X3.7424Y-4.7499
X3.7433Y-2.7965
X3.7452Y-5.3449
X3.7472Y-2.4461
X3.7814Y-4.7489
X3.7814Y-4.9429
X3.7814Y-4.9829
X3.7814Y-5.0229
X3.7814Y-5.0629
X3.7814Y-5.1029
X3.7814Y-5.1429
X3.7814Y-5.1829
X3.7814Y-5.2229
X3.7814Y-5.2629
X3.7814Y-5.4979
X3.7824Y-5.4589
X3.7824Y-5.5379
X3.8064Y-6.3929
X3.8084Y-7.2739
X3.8094Y-5.3315
X3.8134Y-6.0729
X3.82Y-4.8233
X3.8209Y-4.7103
X3.821Y-4.9845
X3.821Y-5.0245
X3.821Y-5.0645
X3.821Y-5.1045
X3.821Y-5.1445
X3.821Y-5.1845
X3.821Y-5.2245
X3.8224Y-5.4979
X3.8534Y-6.3879
X3.8564Y-6.0689
X3.8585Y-4.673
X3.8594Y-5.4589
X3.8604Y-4.7109
X3.8604Y-8.8939
X3.8614Y-5.4969
X3.8637Y-5.352
X3.8645Y-4.7539
X3.8952Y-5.1575
X3.8954Y-6.3839
X3.8957Y-4.7539
X3.8984Y-6.0659
X3.9014Y-5.4989
X3.9017Y-4.673
X3.9084Y-6.1139
X3.9144Y-5.0459
X3.9144Y-5.3979
X3.9164Y-5.3609
X3.9174Y-5.2419
X3.9174Y-5.2809
X3.9184Y-5.1869
X3.9245Y-1.1395
X3.9259Y-6.0642
X3.9295Y-5.1556
X3.9338Y-4.9071
X3.9362Y-2.4776
X3.9364Y-6.3819
X3.9373Y-4.673
X3.9384Y-4.7509
X3.9394Y-5.4969
X3.9404Y-4.7869
X3.9414Y-5.3379
X3.9555Y-1.2805
X3.9594Y-7.2719
X3.9673Y-6.1654
X3.9755Y-1.1775
X3.9764Y-5.3379
X3.9766Y-4.9841
X3.977Y-5.0244
X3.9774Y-5.5369
X3.9783Y-5.1056
X3.9784Y-4.7109
X3.9784Y-4.7899
X3.9784Y-5.4229
X3.9794Y-5.0649
X3.9794Y-5.4969
X3.9804Y-5.1849
X3.9804Y-4.673
X3.9924Y-7.5079
X3.9944Y-7.1699
X4.0145Y-4.9497
X4.0154Y-5.3379
X4.0154Y-5.4159
X4.0154Y-5.4959
X4.0159Y-5.1046
X4.016Y-5.0234
X4.0174Y-4.7509
X4.0184Y-5.5769
X4.0194Y-5.1839
X4.0198Y-4.9841
X4.0344Y-7.5079
X4.0404Y-7.1699
X4.0543Y-2.4776
X4.0553Y-5.1042
X4.0554Y-5.2609
X4.0554Y-5.3379
X4.0564Y-5.1819
X4.0574Y-5.5769
X4.0745Y-1.0875
X4.0754Y-7.5079
X4.0834Y-6.1069
X4.0897Y-2.2099
X4.0904Y-7.1719
X4.0954Y-5.2599
X4.0964Y-5.5769
X4.0974Y-4.6309
X4.1074Y-7.2719
X4.1153Y-5.2394
X4.1155Y-1.0875
X4.1344Y-7.5129
X4.1424Y-7.1509
X4.1545Y-1.1745
X4.1754Y-5.2619
X4.1784Y-5.3269
X4.2234Y-6.1089
X4.2325Y-1.4425
X4.2433Y-7.1233
X4.2584Y-7.2699
X4.3035Y-1.2245
X4.3035Y-1.2665
X4.3424Y-5.1299
X4.3514Y-5.2939
X4.3732Y-4.7276
X4.3885Y-1.2625
X4.4224Y-5.2659
X4.4574Y-5.1919
X4.4575Y-1.2046
X4.5384Y-6.3979
X4.5401Y-5.1222
X4.5434Y-7.2929
X4.5454Y-6.0819
X4.5486Y-5.2287
X4.5547Y-6.1819
X4.5834Y-6.3949
X4.5924Y-6.0849
X4.6224Y-6.3949
X4.6294Y-6.0829
X4.6674Y-6.0819
X4.6674Y-6.3909
X4.7014Y-7.2749
X4.7024Y-5.3029
X4.7124Y-5.1509
X4.7124Y-8.3229
X4.7134Y-6.1789
X4.7194Y-5.2009
X4.7264Y-7.5079
X4.7318Y-6.1548
X4.7414Y-7.1739
X4.7464Y-5.5129
X4.7744Y-7.5099
X4.7914Y-7.1769
X4.8014Y-5.3539
X4.8254Y-7.5129
X4.8364Y-6.1029
X4.8414Y-7.1769
X4.8854Y-7.5169
X4.8874Y-7.1769
X4.9304Y-7.2829
X4.9404Y-6.1079
X4.9933Y-4.5386
X4.9986Y-7.2997
X4.9992Y-7.143
X5.0794Y-5.4489
X5.2874Y-5.772
X5.3784Y-5.647
X5.4044Y-5.078
X5.4144Y-6.095
X5.4444Y-7.295
X5.4914Y-4.978
X5.5194Y-7.529
X5.5204Y-7.199
X5.5354Y-6.463
X5.5444Y-6.0201
X5.5654Y-6.511
X5.5654Y-7.531
X5.5694Y-7.201
X5.5904Y-4.937
X5.5904Y-5.024
X5.5904Y-6.0211
X5.5905Y-1.7755
X5.5955Y-7.294
X5.5994Y-6.093
X5.6064Y-6.473
X5.6154Y-7.196
X5.6404Y-6.0211
X5.6424Y-7.529
X5.6524Y-6.474
X5.6574Y-7.193
X5.6864Y-6.0241
X5.6924Y-7.529
X5.7259Y-7.1339
X5.7334Y-6.101
X5.7437Y-6.0091
X5.7465Y-7.291
X5.7865Y-1.2285
X5.8034Y-5.024
X5.8054Y-5.065
X5.8064Y-4.938
X5.8064Y-4.983
X5.8194Y-5.225
X5.8634Y-5.345
X5.8914Y-6.101
X5.8958Y-7.289
X5.9925Y-1.2285
X6.0134Y-5.624
X6.0674Y-5.697
X6.1019Y-5.5135
X6.1054Y-5.123
X6.1054Y-5.161
X6.1054Y-5.201
X6.1064Y-5.084
X6.1225Y-1.4075
X6.1544Y-6.112
X6.1794Y-7.295
X6.1894Y-4.632
X6.1894Y-5.538
X6.1914Y-5.501
X6.2275Y-5.5367
X6.2282Y-5.2623
X6.2284Y-4.868
X6.2284Y-5.025
X6.2286Y-5.3017
X6.2294Y-5.064
X6.2464Y-7.517
X6.2484Y-7.202
X6.2624Y-6.153
X6.2676Y-5.3009
X6.268Y-5.2611
X6.2684Y-5.2218
X6.2684Y-4.829
X6.2684Y-5.499
X6.2944Y-7.208
X6.3004Y-7.521
X6.3014Y-6.01
X6.3014Y-6.386
X6.305Y-5.2202
X6.3054Y-5.062
X6.3054Y-5.102
X6.3054Y-5.141
X6.3054Y-5.302
X6.3064Y-5.025
X6.3064Y-5.34
X6.3064Y-5.38
X6.3071Y-4.7103
X6.3074Y-4.75
X6.3074Y-5.458
X6.3084Y-5.182
X6.3324Y-7.309
X6.3384Y-6.384
X6.3414Y-6.01
X6.3454Y-5.301
X6.3462Y-4.7102
X6.3464Y-4.789
X6.3464Y-5.341
X6.3464Y-7.199
X6.3464Y-7.5
X6.3484Y-5.498
X6.3504Y-5.242
X6.3514Y-5.203
X6.3524Y-5.122
X6.3534Y-5.083
X6.3554Y-5.0452
X6.3564Y-5.003
X6.3683Y-5.4434
X6.3694Y-5.408
X6.3785Y-5.0993
X6.3786Y-4.8627
X6.3788Y-5.224
X6.3814Y-6.386
X6.3852Y-5.498
X6.3859Y-4.7105
X6.3954Y-6.014
X6.3956Y-4.9481
X6.3984Y-7.498
X6.4004Y-7.185
X6.4024Y-5.035
X6.4074Y-5.275
X6.4232Y-5.496
X6.4254Y-4.674
X6.4284Y-6.389
X6.4374Y-6.016
X6.4628Y-4.673
X6.4634Y-5.459
X6.4634Y-5.497
X6.4644Y-4.7548
X6.4644Y-4.986
X6.4644Y-5.025
X6.4644Y-5.065
X6.4644Y-5.104
X6.4652Y-5.3517
X6.4654Y-4.71
X6.4954Y-6.153
X6.4969Y-7.313
X6.4992Y-7.1469
X6.5007Y-5.2615
X6.5022Y-4.8233
X6.5024Y-4.947
X6.5024Y-4.987
X6.5024Y-5.026
X6.5024Y-5.066
X6.5024Y-5.105
X6.5024Y-5.145
X6.5024Y-5.184
X6.5024Y-5.224
X6.5034Y-4.709
X6.5059Y-5.9449
X6.54Y-5.3497
X6.5404Y-5.456
X6.5411Y-4.947
X6.5414Y-5.496
X6.5432Y-4.7102
X6.5432Y-4.9858
X6.5432Y-5.0251
X6.5432Y-5.0645
X6.5432Y-5.1039
X6.5432Y-5.1432
X6.5432Y-5.1826
X6.5432Y-5.222
X6.5432Y-5.2614
X6.5434Y-4.75
X6.5453Y-4.673
X6.5634Y-6.153
X6.5782Y-4.8718
X6.579Y-4.8237
X6.5809Y-4.673
X6.5814Y-4.9455
X6.5824Y-4.75
X6.5824Y-5.459
X6.5824Y-5.499
X6.5824Y-5.537
X6.5826Y-4.9858
X6.5826Y-5.0251
X6.5826Y-5.0645
X6.5826Y-5.1039
X6.5826Y-5.1432
X6.5826Y-5.1826
X6.5826Y-5.222
X6.5826Y-5.2614
X6.5839Y-4.7094
X6.6201Y-4.9455
X6.6204Y-5.3501
X6.6204Y-4.712
X6.6204Y-5.46
X6.6204Y-5.496
X6.622Y-4.9858
X6.622Y-5.0251
X6.622Y-5.0645
X6.622Y-5.1039
X6.622Y-5.1432
X6.622Y-5.1826
X6.622Y-5.222
X6.622Y-5.2614
X6.6224Y-4.75
X6.6304Y-7.302
X6.6315Y-1.7755
X6.6578Y-4.8737
X6.6597Y-4.8237
X6.6602Y-4.7092
X6.6604Y-4.749
X6.6606Y-0.9461
X6.661Y-5.4976
X6.6613Y-4.9858
X6.6613Y-5.0251
X6.6613Y-5.0645
X6.6613Y-5.1039
X6.6613Y-5.1432
X6.6613Y-5.1826
X6.6613Y-5.222
X6.6613Y-5.2614
X6.6614Y-4.946
X6.662Y-5.4586
X6.662Y-5.5376
X6.6634Y-4.673
X6.699Y-4.673
X6.7001Y-4.946
X6.7007Y-4.9858
X6.7007Y-5.0251
X6.7007Y-5.0645
X6.7007Y-5.1039
X6.7007Y-5.1432
X6.7007Y-5.1826
X6.7007Y-5.222
X6.7007Y-5.2614
X6.7014Y-4.71
X6.7014Y-4.749
X6.7034Y-5.499
X6.7035Y-5.4603
X6.7211Y-5.3517
X6.7365Y-4.8737
X6.7374Y-3.5504
X6.7381Y-4.8233
X6.7384Y-5.499
X6.7385Y-5.4603
X6.7394Y-4.749
X6.7401Y-4.9858
X6.7401Y-5.0251
X6.7401Y-5.0645
X6.7401Y-5.1039
X6.7401Y-5.1432
X6.7401Y-5.1826
X6.7401Y-5.222
X6.7401Y-5.2614
X6.7404Y-4.9445
X6.7422Y-4.673
X6.7784Y-4.673
X6.7784Y-5.459
X6.7784Y-5.537
X6.7791Y-4.9445
X6.7794Y-4.749
X6.7794Y-5.497
X6.7795Y-4.9858
X6.7795Y-5.0251
X6.7795Y-5.0645
X6.7795Y-5.1039
X6.7795Y-5.1432
X6.7795Y-5.1826
X6.7795Y-5.222
X6.7795Y-5.2614
X6.7814Y-4.709
X6.7979Y-5.3509
X6.8164Y-4.945
X6.8164Y-5.537
X6.8176Y-4.8725
X6.8184Y-4.748
X6.8184Y-5.46
X6.8188Y-4.9858
X6.8188Y-5.0251
X6.8188Y-5.0645
X6.8188Y-5.1039
X6.8188Y-5.1432
X6.8188Y-5.1826
X6.8188Y-5.222
X6.8188Y-5.2614
X6.8194Y-5.497
X6.8275Y-1.2285
X6.8279Y-3.5819
X6.8405Y-1.4825
X6.8551Y-4.945
X6.8564Y-6.149
X6.8574Y-4.711
X6.8582Y-4.9858
X6.8582Y-5.0251
X6.8582Y-5.0645
X6.8582Y-5.1039
X6.8582Y-5.1432
X6.8582Y-5.1826
X6.8582Y-5.222
X6.8582Y-5.2614
X6.8584Y-4.674
X6.8584Y-4.75
X6.8613Y-5.345
X6.8974Y-4.749
X6.8974Y-4.943
X6.8974Y-4.983
X6.8974Y-5.023
X6.8974Y-5.063
X6.8974Y-5.103
X6.8974Y-5.143
X6.8974Y-5.183
X6.8974Y-5.223
X6.8974Y-5.263
X6.8974Y-5.498
X6.8984Y-5.459
X6.8984Y-5.538
X6.9224Y-6.393
X6.9244Y-7.274
X6.9254Y-5.3316
X6.9294Y-6.073
X6.9361Y-4.8233
X6.937Y-4.7104
X6.9371Y-4.9845
X6.9371Y-5.0245
X6.9371Y-5.0645
X6.9371Y-5.1045
X6.9371Y-5.1445
X6.9371Y-5.1845
X6.9371Y-5.2245
X6.9384Y-5.498
X6.9694Y-6.388
X6.9724Y-6.069
X6.9746Y-4.673
X6.9754Y-5.459
X6.9764Y-4.711
X6.9764Y-8.894
X6.9774Y-5.497
X6.9798Y-5.3521
X6.9806Y-4.754
X7.0019Y-6.0689
X7.0113Y-5.1576
X7.0114Y-6.384
X7.0118Y-4.754
X7.0174Y-5.499
X7.0178Y-4.673
X7.0244Y-6.114
X7.0304Y-5.046
X7.0304Y-5.398
X7.0324Y-5.361
X7.0334Y-5.242
X7.0334Y-5.281
X7.0335Y-1.2285
X7.0338Y-6.0701
X7.0344Y-5.187
X7.0456Y-5.1556
X7.0499Y-4.9072
X7.0524Y-6.382
X7.0533Y-4.673
X7.0535Y-1.3585
X7.0544Y-4.751
X7.0554Y-5.497
X7.0564Y-4.787
X7.0574Y-5.338
X7.0754Y-7.272
X7.0838Y-6.0465
X7.0924Y-5.338
X7.0927Y-4.9842
X7.0931Y-5.0244
X7.0934Y-5.537
X7.0944Y-5.1056
X7.0944Y-4.711
X7.0944Y-4.79
X7.0944Y-5.423
X7.0954Y-5.065
X7.0954Y-5.497
X7.0964Y-5.185
X7.0965Y-4.673
X7.1084Y-7.508
X7.1104Y-7.17
X7.1306Y-4.9497
X7.1314Y-5.338
X7.1314Y-5.416
X7.1314Y-5.496
X7.132Y-5.1047
X7.1321Y-5.0234
X7.1334Y-4.751
X7.1344Y-5.577
X7.1354Y-5.184
X7.1359Y-4.9842
X7.1504Y-7.508
X7.1564Y-7.17
X7.1635Y-1.4075
X7.1685Y-0.95
X7.1714Y-5.1043
X7.1714Y-5.261
X7.1714Y-5.338
X7.1724Y-5.182
X7.1734Y-5.577
X7.1914Y-7.508
X7.1994Y-6.107
X7.2064Y-7.172
X7.2114Y-5.26
X7.2124Y-5.577
X7.2134Y-4.631
X7.2234Y-7.272
X7.2295Y-5.2394
X7.2504Y-7.513
X7.2547Y-7.1508
X7.2914Y-5.262
X7.2944Y-5.327
X7.3354Y-7.1229
X7.3377Y-1.4304
X7.3394Y-6.109
X7.3417Y-1.7178
X7.3708Y-4.7772
X7.3744Y-7.27
X7.4584Y-5.13
X7.4674Y-5.294
X7.5267Y-3.8733
X7.5384Y-5.266
X7.5734Y-5.192
X7.6094Y-4.0386
X7.6232Y-3.8241
X7.6311Y-2.6685
X7.6311Y-2.7158
X7.6311Y-3.3454
X7.6311Y-3.3926
X7.6311Y-3.4438
X7.6311Y-3.491
X7.6311Y-3.5386
X7.6311Y-3.5859
X7.6316Y-2.9792
X7.6316Y-3.0265
X7.6316Y-3.2124
X7.6316Y-3.2596
X7.632Y-2.7826
X7.632Y-2.8299
X7.6327Y-2.8811
X7.6327Y-2.9284
X7.6527Y-2.6812
X7.6527Y-2.7032
X7.6527Y-3.358
X7.6527Y-3.38
X7.6527Y-3.4564
X7.6527Y-3.4784
X7.6527Y-3.5513
X7.6527Y-3.5733
X7.6532Y-2.9919
X7.6532Y-3.0139
X7.6532Y-3.225
X7.6532Y-3.247
X7.6536Y-2.7953
X7.6536Y-2.8173
X7.6539Y-3.8725
X7.6543Y-2.8938
X7.6543Y-2.9158
X7.6544Y-6.398
X7.6561Y-5.1223
X7.6586Y-3.702
X7.6586Y-3.7493
X7.6594Y-7.293
X7.6614Y-6.082
X7.6646Y-5.2288
X7.6708Y-6.182
X7.6744Y-2.6685
X7.6744Y-2.7158
X7.6744Y-3.3454
X7.6744Y-3.3926
X7.6744Y-3.4438
X7.6744Y-3.491
X7.6744Y-3.5386
X7.6744Y-3.5859
X7.6749Y-2.9792
X7.6749Y-3.0265
X7.6749Y-3.2124
X7.6749Y-3.2596
X7.6753Y-2.7826
X7.6753Y-2.8299
X7.676Y-2.8811
X7.676Y-2.9284
X7.6803Y-3.7146
X7.6803Y-3.7366
X7.6881Y-3.8792
X7.6994Y-6.395
X7.7019Y-3.702
X7.7019Y-3.7493
X7.7019Y-4.4756
X7.7039Y-3.1469
X7.7084Y-6.085
X7.7384Y-6.395
X7.7454Y-6.083
X7.7471Y-3.7669
X7.7495Y-1.7755
X7.7724Y-6.0827
X7.7834Y-6.391
X7.8003Y-4.4815
X7.8174Y-7.275
X7.8184Y-5.303
X7.8259Y-2.6115
X7.8279Y-3.8103
X7.8284Y-5.151
X7.8284Y-8.323
X7.8294Y-6.179
X7.8295Y-6.0445
X7.8354Y-5.201
X7.8424Y-7.508
X7.8515Y-3.8575
X7.8574Y-7.174
X7.8624Y-5.513
X7.8634Y-3.7533
X7.8692Y-3.1705
X7.8732Y-3.7886
X7.8904Y-7.51
X7.9047Y-3.7768
X7.9074Y-7.177
X7.9174Y-5.354
X7.9414Y-7.513
X7.9455Y-1.2285
X7.9524Y-6.103
X7.9574Y-7.177
X7.9585Y-1.4825
X7.9736Y-3.7748
X7.9834Y-2.6115
X7.9893Y-2.9276
X7.9893Y-2.9748
X8.0014Y-7.517
X8.0031Y-3.7591
X8.0034Y-7.177
X8.011Y-2.9402
X8.011Y-2.9622
X8.0188Y-3.5189
X8.0228Y-2.6784
X8.0228Y-2.8319
X8.0326Y-2.9276
X8.0326Y-2.9748
X8.0346Y-3.0091
X8.0464Y-7.283
X8.0564Y-6.108
X8.0622Y-3.6311
X8.0811Y-7.1441
X8.0815Y-2.4291
X8.0815Y-2.4724
X8.0941Y-2.4507
X8.0956Y-3.33
X8.1011Y-2.9028
X8.1117Y-3.5486
X8.1161Y-2.4507
X8.1173Y-7.2973
X8.1287Y-2.4291
X8.1287Y-2.4724
X8.1302Y-3.6027
X8.1331Y-3.5761
X8.1401Y-2.9808
X8.1409Y-3.137
X8.1409Y-3.3398
X8.1437Y-3.2914
X8.1441Y-3.0544
X8.1468Y-3.4166
X8.1484Y-4.0275
X8.1484Y-4.0708
X8.1515Y-1.2285
X8.1611Y-4.0492
X8.1715Y-1.3585
X8.1763Y-3.5583
X8.1765Y-2.9463
X8.1787Y-3.2593
X8.1791Y-3.3347
X8.1799Y-3.2937
X8.1803Y-2.9827
X8.1822Y-3.3733
X8.1831Y-4.0492
X8.1842Y-2.4264
X8.1842Y-2.4697
X8.1954Y-5.449
X8.1957Y-4.0275
X8.1957Y-4.0708
X8.1968Y-2.4481
X8.2157Y-3.452
X8.217Y-3.0225
X8.2177Y-3.0623
X8.2188Y-2.4481
X8.2192Y-3.2593
X8.2196Y-3.1083
X8.2196Y-3.3713
X8.2196Y-3.4914
X8.2204Y-3.1371
X8.2208Y-3.1843
X8.2216Y-3.2945
X8.2314Y-2.4264
X8.2314Y-2.4697
X8.2494Y-4.0275
X8.2494Y-4.0708
X8.2551Y-3.4107
X8.2562Y-3.0571
X8.257Y-3.3339
X8.2574Y-3.0197
X8.2586Y-3.1371
X8.2586Y-3.1819
X8.2587Y-2.7952
X8.2587Y-2.8385
X8.259Y-3.1033
X8.259Y-3.2524
X8.259Y-3.4934
X8.2602Y-3.2193
X8.261Y-3.2985
X8.2621Y-4.0492
X8.2649Y-2.9835
X8.2713Y-2.8169
X8.2815Y-1.4075
X8.2823Y-2.4251
X8.2823Y-2.4684
X8.2841Y-4.0492
X8.2933Y-2.8169
X8.2949Y-2.4468
X8.2964Y-3.3378
X8.2967Y-4.0275
X8.2967Y-4.0708
X8.2968Y-3.0611
X8.2972Y-3.1
X8.2976Y-3.1402
X8.2984Y-2.9028
X8.2984Y-2.98
X8.2984Y-3.1784
X8.2984Y-3.2178
X8.2984Y-3.2571
X8.2984Y-3.4146
X8.2996Y-2.9422
X8.2996Y-3.0209
X8.3023Y-3.2985
X8.3023Y-3.3733
X8.3059Y-2.7952
X8.3059Y-2.8385
X8.3141Y-2.0406
X8.3141Y-2.1981
X8.3141Y-3.5445
X8.3169Y-2.4468
X8.3295Y-2.4251
X8.3295Y-2.4684
X8.3338Y-3.3772
X8.3338Y-3.4914
X8.3351Y-3.4173
X8.3358Y-3.4579
X8.3368Y-3.143
X8.3374Y-3.0217
X8.3377Y-3.0563
X8.3377Y-3.1784
X8.3397Y-3.3359
X8.3492Y-4.0275
X8.3492Y-4.0708
X8.3618Y-4.0492
X8.3692Y-3.2962
X8.3751Y-3.0193
X8.3755Y-2.9811
X8.3771Y-3.0603
X8.3771Y-3.0997
X8.3771Y-3.139
X8.3771Y-3.33
X8.3771Y-3.3792
X8.3791Y-2.9441
X8.3811Y-2.4264
X8.3811Y-2.4697
X8.3823Y-3.4146
X8.3823Y-3.4934
X8.3838Y-4.0492
X8.3937Y-2.4481
X8.3965Y-4.0275
X8.3965Y-4.0708
X8.3968Y-3.8319
X8.3981Y-3.6823
X8.4007Y-3.5386
X8.4028Y-5.7713
X8.4125Y-3.0957
X8.4125Y-3.3792
X8.4145Y-2.0189
X8.4157Y-2.4481
X8.4165Y-3.0209
X8.4165Y-3.0603
X8.4165Y-3.139
X8.4165Y-3.1784
X8.4165Y-3.2178
X8.4165Y-3.2962
X8.4185Y-3.4126
X8.4251Y-2.9815
X8.4283Y-2.4264
X8.4283Y-2.4697
X8.4476Y-4.0275
X8.4476Y-4.0708
X8.4519Y-3.2962
X8.4519Y-3.3354
X8.4519Y-3.4166
X8.4559Y-2.6666
X8.4559Y-2.9835
X8.4559Y-3.0997
X8.4559Y-3.2571
X8.4568Y-3.138
X8.4571Y-3.4921
X8.46Y-3.452
X8.4603Y-4.0492
X8.4823Y-4.0492
X8.4913Y-3.452
X8.4933Y-3.0997
X8.4938Y-5.6463
X8.4949Y-4.0275
X8.4949Y-4.0708
X8.4952Y-3.0209
X8.4952Y-3.139
X8.4952Y-3.1784
X8.4952Y-3.2178
X8.4952Y-3.2571
X8.4952Y-3.3359
X8.4992Y-3.2965
X8.4992Y-3.3752
X8.507Y-3.6233
X8.509Y-3.4953
X8.509Y-2.9382
X8.5198Y-5.0773
X8.5208Y-2.7709
X8.5298Y-6.0943
X8.5326Y-3.0229
X8.5343Y-3.2583
X8.5346Y-2.9835
X8.5346Y-3.0603
X8.5346Y-3.1784
X8.5346Y-3.3752
X8.5346Y-3.4107
X8.5346Y-4.2591
X8.5366Y-3.2138
X8.5366Y-3.3339
X8.5598Y-7.2943
X8.5661Y-4.2847
X8.572Y-3.2158
X8.572Y-3.3772
X8.5738Y-3.0562
X8.574Y-3.3359
X8.5779Y-4.0268
X8.5779Y-4.0701
X8.5787Y-3.1736
X8.5821Y-2.7061
X8.5877Y-2.0071
X8.5905Y-4.0485
X8.6024Y-3.452
X8.6068Y-4.9773
X8.6094Y-3.4126
X8.6114Y-3.2158
X8.6114Y-3.2532
X8.6125Y-4.0485
X8.6133Y-2.9382
X8.6133Y-3.1036
X8.6133Y-3.139
X8.6133Y-3.3024
X8.6134Y-3.3751
X8.6174Y-3.0644
X8.6251Y-4.0268
X8.6251Y-4.0701
X8.6252Y-3.4934
X8.6348Y-7.5283
X8.6358Y-7.1983
X8.6447Y-3.3361
X8.647Y-2.4263
X8.647Y-2.4696
X8.6477Y-2.6666
X8.6488Y-3.3024
X8.6507Y-3.1764
X8.6508Y-6.4623
X8.6527Y-3.139
X8.6527Y-3.4166
X8.6531Y-3.2079
X8.6547Y-3.0229
X8.6547Y-3.0583
X8.6578Y-3.454
X8.6596Y-2.4479
X8.6598Y-6.0193
X8.6738Y-4.0254
X8.6738Y-4.0687
X8.6808Y-6.5103
X8.6808Y-7.5303
X8.6816Y-2.4479
X8.6831Y-3.1795
X8.6848Y-7.2003
X8.6864Y-4.047
X8.6901Y-3.0189
X8.6901Y-3.3241
X8.6901Y-3.3721
X8.6942Y-2.4263
X8.6942Y-2.4696
X8.7058Y-4.9363
X8.7058Y-5.0233
X8.7058Y-6.0203
X8.7084Y-4.047
X8.7109Y-7.2933
X8.7148Y-6.0923
X8.7196Y-4.4422
X8.7196Y-4.6469
X8.721Y-4.0254
X8.721Y-4.0687
X8.7218Y-6.4723
X8.7295Y-3.3327
X8.7308Y-7.1953
X8.7314Y-2.9343
X8.7314Y-3.5367
X8.7334Y-3.1795
X8.7374Y-3.3044
X8.7393Y-3.1193
X8.7558Y-6.0203
X8.7578Y-7.5283
X8.7678Y-6.4733
X8.7728Y-7.1923
X8.7964Y-3.2847
X8.8018Y-6.0233
X8.8063Y-2.8595
X8.8078Y-7.5283
X8.8259Y-3.139
X8.8354Y-7.1343
X8.8488Y-6.1003
X8.8649Y-6.0119
X8.8716Y-7.2995
X8.8889Y-3.6233
X8.8889Y-3.7926
X8.9079Y-2.5957
X8.9188Y-5.0233
X8.9208Y-5.0643
X8.9218Y-4.9373
X8.9218Y-4.9823
X8.9348Y-5.2243
X8.9401Y-2.7256
X8.948Y-2.3949
X8.948Y-2.4422
X8.9598Y-3.4185
X8.9696Y-2.4075
X8.9696Y-2.4295
X8.9755Y-3.139
X8.9788Y-5.3443
X8.9913Y-2.3949
X8.9913Y-2.4422
X9.0068Y-6.1003
X9.0112Y-7.2883
X9.0123Y-4.0639
X9.0123Y-4.1111
X9.0339Y-4.0765
X9.0339Y-4.0985
X9.0556Y-4.0639
X9.0556Y-4.1111
X9.0582Y-2.4934
X9.0582Y-2.5406
X9.0622Y-2.5957
X9.074Y-2.6233
X9.0799Y-2.506
X9.0799Y-2.528
X9.1015Y-2.4934
X9.1015Y-2.5406
X9.1288Y-5.6233
X9.1685Y-3.1548
X9.1685Y-3.202
X9.1685Y-3.2729
X9.1685Y-3.3201
X9.1685Y-3.3713
X9.1685Y-3.4185
X9.1685Y-3.4658
X9.1685Y-3.513
X9.1685Y-3.6036
X9.1685Y-3.6508
X9.169Y-2.8423
X9.169Y-2.8895
X9.169Y-2.9436
X9.169Y-2.9909
X9.1697Y-3.0403
X9.1697Y-3.0875
X9.1828Y-5.6963
X9.1901Y-3.1674
X9.1901Y-3.1894
X9.1901Y-3.2855
X9.1901Y-3.3075
X9.1901Y-3.3839
X9.1901Y-3.4059
X9.1901Y-3.4784
X9.1901Y-3.5004
X9.1901Y-3.6162
X9.1901Y-3.6382
X9.1906Y-2.8549
X9.1906Y-2.8769
X9.1906Y-2.9563
X9.1906Y-2.9783
X9.1914Y-3.0529
X9.1914Y-3.0749
X9.2118Y-3.1548
X9.2118Y-3.202
X9.2118Y-3.2729
X9.2118Y-3.3201
X9.2118Y-3.3713
X9.2118Y-3.4185
X9.2118Y-3.4658
X9.2118Y-3.513
X9.2118Y-3.6036
X9.2118Y-3.6508
X9.2123Y-2.8423
X9.2123Y-2.8895
X9.2123Y-2.9436
X9.2123Y-2.9909
X9.213Y-3.0403
X9.213Y-3.0875
X9.2173Y-5.5127
X9.2208Y-5.1223
X9.2208Y-5.1603
X9.2208Y-5.2003
X9.2218Y-5.0833
X9.2452Y-2.7197
X9.2698Y-6.1113
X9.2948Y-7.2943
X9.3048Y-4.6313
X9.3048Y-5.5373
X9.3068Y-5.5003
X9.3436Y-5.2616
X9.3438Y-4.8673
X9.3438Y-5.0243
X9.344Y-5.301
X9.3448Y-5.0633
X9.3456Y-5.5367
X9.3618Y-7.5163
X9.3638Y-7.2013
X9.3778Y-6.1523
X9.383Y-5.3002
X9.3834Y-5.2604
X9.3838Y-5.221
X9.3838Y-4.8283
X9.3838Y-5.4983
X9.4098Y-7.2073
X9.4158Y-7.5203
X9.4168Y-6.0093
X9.4168Y-6.3853
X9.4204Y-5.2195
X9.4208Y-5.0613
X9.4208Y-5.1013
X9.4208Y-5.1403
X9.4208Y-5.3013
X9.4218Y-5.0243
X9.4218Y-5.3393
X9.4218Y-5.3793
X9.4225Y-4.7096
X9.4228Y-4.7493
X9.4228Y-5.4573
X9.4238Y-5.1813
X9.4283Y-2.7886
X9.4478Y-7.3083
X9.4538Y-6.3833
X9.4568Y-6.0093
X9.4608Y-5.3003
X9.4616Y-4.7094
X9.4618Y-4.7883
X9.4618Y-5.3403
X9.4618Y-7.1983
X9.4618Y-7.4993
X9.4638Y-5.4973
X9.4658Y-5.2413
X9.4668Y-5.2023
X9.4678Y-5.1213
X9.4688Y-5.0823
X9.4708Y-5.0445
X9.4718Y-5.0023
X9.4837Y-5.4427
X9.4848Y-5.4073
X9.4939Y-5.0986
X9.494Y-4.862
X9.4942Y-5.2233
X9.4968Y-6.3853
X9.5006Y-5.4973
X9.5013Y-4.7098
X9.5108Y-6.0133
X9.511Y-4.9474
X9.5138Y-7.4973
X9.5158Y-7.1843
X9.5178Y-5.0343
X9.5228Y-5.2743
X9.5386Y-5.4953
X9.5408Y-4.6733
X9.5438Y-6.3883
X9.5528Y-6.0153
X9.5782Y-4.6723
X9.5788Y-5.4583
X9.5788Y-5.4963
X9.5798Y-4.7541
X9.5798Y-4.9853
X9.5798Y-5.0243
X9.5798Y-5.0643
X9.5798Y-5.1033
X9.5806Y-5.351
X9.5808Y-4.7093
X9.5905Y-7.1343
X9.6094Y-7.3083
X9.6108Y-6.1523
X9.6161Y-5.2608
X9.6176Y-4.8226
X9.6178Y-4.9463
X9.6178Y-4.9863
X9.6178Y-5.0253
X9.6178Y-5.0653
X9.6178Y-5.1043
X9.6178Y-5.1443
X9.6178Y-5.1833
X9.6178Y-5.2233
X9.6188Y-4.7083
X9.6216Y-5.9477
X9.6554Y-5.349
X9.6558Y-5.4553
X9.6565Y-4.9463
X9.6568Y-5.4953
X9.6586Y-4.7095
X9.6586Y-4.985
X9.6586Y-5.0244
X9.6586Y-5.0638
X9.6586Y-5.1032
X9.6586Y-5.1425
X9.6586Y-5.1819
X9.6586Y-5.2213
X9.6586Y-5.2606
X9.6588Y-4.7493
X9.6607Y-4.6723
X9.6788Y-6.1523
X9.6936Y-4.871
X9.6944Y-4.823
X9.6963Y-4.6723
X9.6968Y-4.9448
X9.6978Y-4.7493
X9.6978Y-5.4583
X9.6978Y-5.4983
X9.6978Y-5.5363
X9.698Y-4.985
X9.698Y-5.0244
X9.698Y-5.0638
X9.698Y-5.1032
X9.698Y-5.1425
X9.698Y-5.1819
X9.698Y-5.2213
X9.698Y-5.2606
X9.6993Y-4.7087
X9.7355Y-4.9448
X9.7358Y-5.3494
X9.7358Y-4.7113
X9.7358Y-5.4593
X9.7358Y-5.4953
X9.7374Y-4.985
X9.7374Y-5.0244
X9.7374Y-5.0638
X9.7374Y-5.1032
X9.7374Y-5.1425
X9.7374Y-5.1819
X9.7374Y-5.2213
X9.7374Y-5.2606
X9.7378Y-4.7493
X9.7458Y-7.3013
X9.7732Y-4.873
X9.7751Y-4.823
X9.7756Y-4.7085
X9.7758Y-4.7483
X9.7764Y-5.4968
X9.7767Y-4.985
X9.7767Y-5.0244
X9.7767Y-5.0638
X9.7767Y-5.1032
X9.7767Y-5.1425
X9.7767Y-5.1819
X9.7767Y-5.2213
X9.7767Y-5.2606
X9.7768Y-4.9453
X9.7774Y-5.4578
X9.7774Y-5.5368
X9.7788Y-4.6723
X9.8144Y-4.6723
X9.8155Y-4.9453
X9.8161Y-4.985
X9.8161Y-5.0244
X9.8161Y-5.0638
X9.8161Y-5.1032
X9.8161Y-5.1425
X9.8161Y-5.1819
X9.8161Y-5.2213
X9.8161Y-5.2606
X9.8168Y-4.7092
X9.8168Y-4.7483
X9.8188Y-5.4983
X9.8189Y-5.4596
X9.8365Y-5.351
X9.8519Y-4.873
X9.8535Y-4.8226
X9.8538Y-5.4983
X9.8539Y-5.4596
X9.8548Y-4.7483
X9.8555Y-4.985
X9.8555Y-5.0244
X9.8555Y-5.0638
X9.8555Y-5.1032
X9.8555Y-5.1425
X9.8555Y-5.1819
X9.8555Y-5.2213
X9.8555Y-5.2606
X9.8558Y-4.9438
X9.8576Y-4.6723
X9.8938Y-4.6723
X9.8938Y-5.4583
X9.8938Y-5.5363
X9.8945Y-4.9438
X9.8948Y-4.7483
X9.8948Y-5.4963
X9.8949Y-4.985
X9.8949Y-5.0244
X9.8949Y-5.0638
X9.8949Y-5.1032
X9.8949Y-5.1425
X9.8949Y-5.1819
X9.8949Y-5.2213
X9.8949Y-5.2606
X9.8968Y-4.7083
X9.9133Y-5.3502
X9.9318Y-4.9443
X9.9318Y-5.5363
X9.933Y-4.8718
X9.9338Y-4.7473
X9.9338Y-5.4593
X9.9342Y-4.985
X9.9342Y-5.0244
X9.9342Y-5.0638
X9.9342Y-5.1032
X9.9342Y-5.1425
X9.9342Y-5.1819
X9.9342Y-5.2213
X9.9342Y-5.2606
X9.9348Y-5.4963
X9.95Y-3.3752
X9.9705Y-4.9443
X9.9718Y-6.1483
X9.9728Y-4.7103
X9.9736Y-4.985
X9.9736Y-5.0244
X9.9736Y-5.0638
X9.9736Y-5.1032
X9.9736Y-5.1425
X9.9736Y-5.1819
X9.9736Y-5.2213
X9.9736Y-5.2606
X9.9738Y-4.6733
X9.9738Y-4.7493
X9.9755Y-3.393
X9.9767Y-5.3443
X10.0128Y-4.7483
X10.0128Y-4.9423
X10.0128Y-4.9823
X10.0128Y-5.0223
X10.0128Y-5.0623
X10.0128Y-5.1023
X10.0128Y-5.1423
X10.0128Y-5.1823
X10.0128Y-5.2223
X10.0128Y-5.2623
X10.0128Y-5.4973
X10.0138Y-5.4583
X10.0138Y-5.5373
X10.0326Y-3.4146
X10.0378Y-6.3923
X10.0398Y-7.2733
X10.0408Y-5.3309
X10.0448Y-6.0723
X10.0515Y-4.8226
X10.0524Y-4.7097
X10.0525Y-4.9838
X10.0525Y-5.0238
X10.0525Y-5.0638
X10.0525Y-5.1038
X10.0525Y-5.1438
X10.0525Y-5.1838
X10.0525Y-5.2238
X10.0538Y-5.4973
X10.072Y-3.3378
X10.0848Y-6.3873
X10.0878Y-6.0683
X10.09Y-4.6723
X10.0908Y-5.4583
X10.0918Y-4.7103
X10.0918Y-8.8933
X10.0928Y-5.4963
X10.0952Y-5.3514
X10.096Y-4.7533
X10.1129Y-6.0693
X10.1267Y-5.1569
X10.1268Y-6.3833
X10.1272Y-4.7533
X10.1328Y-5.4983
X10.1332Y-4.6723
X10.1398Y-6.1133
X10.1413Y-6.0682
X10.1458Y-5.0453
X10.1458Y-5.3973
X10.1478Y-5.3603
X10.1488Y-3.4363
X10.1488Y-5.2413
X10.1488Y-5.2803
X10.1498Y-5.1863
X10.161Y-5.1549
X10.1653Y-4.9065
X10.1678Y-6.3813
X10.1687Y-4.6723
X10.1698Y-4.7503
X10.1708Y-5.4963
X10.1718Y-4.7863
X10.1728Y-5.3373
X10.1803Y-3.517
X10.1862Y-3.3378
X10.1908Y-7.2713
X10.1956Y-6.0437
X10.2078Y-5.3373
X10.2081Y-4.9835
X10.2085Y-5.0237
X10.2088Y-5.5363
X10.2098Y-5.1049
X10.2098Y-4.7103
X10.2098Y-4.7893
X10.2098Y-5.4223
X10.2108Y-5.0643
X10.2108Y-5.4963
X10.2118Y-5.1843
X10.2119Y-4.6723
X10.2238Y-7.5073
X10.2258Y-7.1693
X10.246Y-4.949
X10.2468Y-5.3373
X10.2468Y-5.4153
X10.2468Y-5.4953
X10.2474Y-5.104
X10.2488Y-4.7503
X10.2498Y-5.5763
X10.2508Y-5.1833
X10.2511Y-5.0248
X10.2513Y-4.9835
X10.2658Y-7.5073
X10.2718Y-7.1693
X10.2868Y-5.1036
X10.2868Y-5.2603
X10.2868Y-5.3373
X10.2878Y-5.1813
X10.2888Y-5.5763
X10.3063Y-3.6095
X10.3068Y-7.5073
X10.3148Y-6.1063
X10.3218Y-7.1713
X10.3268Y-5.2593
X10.3278Y-5.5763
X10.3288Y-4.6303
X10.3388Y-7.2713
X10.3456Y-5.2385
X10.3658Y-7.5123
X10.3738Y-7.1503
X10.4068Y-5.2613
X10.4098Y-5.3263
X10.4548Y-6.1083
X10.4559Y-7.1233
X10.4898Y-7.2693
X10.5169Y-3.3398
X10.5248Y-3.5445
X10.5738Y-5.1293
X10.5828Y-5.2933
X10.6004Y-4.9079
X10.635Y-3.3378
X10.6538Y-5.2653
X10.6665Y-3.6745
X10.6888Y-5.1913
X10.7567Y-6.08
X10.7698Y-6.3973
X10.7715Y-5.1216
X10.7748Y-7.2923
X10.78Y-5.2281
X10.7862Y-6.1813
X10.8037Y-6.083
X10.8148Y-6.3943
X10.8407Y-6.081
X10.8538Y-6.3943
X10.8787Y-6.08
X10.8988Y-6.3903
X10.9328Y-7.2743
X10.9338Y-5.3023
X10.9438Y-5.1503
X10.9438Y-8.3223
X10.9448Y-6.1783
X10.9496Y-6.0434
X10.9508Y-5.2003
X10.9578Y-7.5073
X10.9728Y-7.1733
X10.9778Y-5.5123
X11.0058Y-7.5093
X11.0228Y-7.1763
X11.0328Y-5.3533
X11.0568Y-7.5123
X11.0678Y-6.1023
X11.07Y-3.6233
X11.0728Y-7.1763
X11.1168Y-7.5163
X11.1188Y-7.1763
X11.1618Y-7.2823
X11.1718Y-6.1073
X11.196Y-7.143
X11.2486Y-7.2965
X11.3108Y-5.4483
X11.5189Y-5.7724
X11.6099Y-5.6474
X11.6359Y-5.0784
X11.6459Y-6.0954
X11.6759Y-7.2954
X11.7229Y-4.9784
X11.7509Y-7.5294
X11.7519Y-7.1994
X11.7669Y-6.4634
X11.7759Y-6.0205
X11.7969Y-6.5114
X11.7969Y-7.5314
X11.8009Y-7.2014
X11.8219Y-4.9374
X11.8219Y-5.0244
X11.8219Y-6.0215
X11.827Y-7.2944
X11.8309Y-6.0934
X11.8379Y-6.4734
X11.8469Y-7.1964
X11.8719Y-6.0215
X11.8739Y-7.5294
X11.8839Y-6.4744
X11.8889Y-7.1934
X11.9179Y-6.0245
X11.9239Y-7.5294
X11.9559Y-7.1154
X11.9649Y-6.1014
X11.978Y-7.2914
X11.9822Y-6.0091
X12.0349Y-5.0244
X12.0369Y-5.0654
X12.0379Y-4.9384
X12.0379Y-4.9834
X12.0509Y-5.2254
X12.0949Y-5.3454
X12.1229Y-6.1014
X12.1273Y-7.2894
X12.2449Y-5.6244
X12.2989Y-5.6974
X12.3334Y-5.5139
X12.3369Y-5.1234
X12.3369Y-5.1614
X12.3369Y-5.2014
X12.3379Y-5.0844
X12.3859Y-6.1124
X12.4109Y-7.2954
X12.4209Y-4.6324
X12.4209Y-5.5384
X12.4229Y-5.5014
X12.4597Y-5.2627
X12.4598Y-5.5367
X12.4599Y-4.8684
X12.4599Y-5.0254
X12.4601Y-5.3021
X12.4609Y-5.0644
X12.4779Y-7.5174
X12.4799Y-7.2024
X12.4939Y-6.1534
X12.4991Y-5.3013
X12.4995Y-5.2615
X12.4999Y-5.2222
X12.4999Y-4.8294
X12.4999Y-5.4994
X12.5259Y-7.2084
X12.5319Y-7.5214
X12.5329Y-6.0104
X12.5329Y-6.3864
X12.5365Y-5.2206
X12.5369Y-5.0624
X12.5369Y-5.1024
X12.5369Y-5.1414
X12.5369Y-5.3024
X12.5379Y-5.0254
X12.5379Y-5.3404
X12.5379Y-5.3804
X12.5386Y-4.7107
X12.5389Y-4.7504
X12.5389Y-5.4584
X12.5399Y-5.1824
X12.5639Y-7.3094
X12.5699Y-6.3844
X12.5729Y-6.0104
X12.5769Y-5.3014
X12.5777Y-4.7106
X12.5779Y-4.7894
X12.5779Y-5.3414
X12.5779Y-7.1994
X12.5779Y-7.5004
X12.5799Y-5.4984
X12.5819Y-5.2424
X12.5829Y-5.2034
X12.5839Y-5.1224
X12.5849Y-5.0834
X12.5869Y-5.0456
X12.5879Y-5.0034
X12.5998Y-5.4438
X12.6009Y-5.4084
X12.61Y-5.0997
X12.6101Y-4.8631
X12.6103Y-5.2244
X12.6129Y-6.3864
X12.6167Y-5.4984
X12.6174Y-4.7109
X12.6269Y-6.0144
X12.627Y-4.9485
X12.6299Y-7.4984
X12.6319Y-7.1854
X12.6339Y-5.0354
X12.6389Y-5.2754
X12.6547Y-5.4964
X12.6569Y-4.6744
X12.6599Y-6.3894
X12.6689Y-6.0164
X12.6943Y-4.6734
X12.6949Y-5.4594
X12.6949Y-5.4974
X12.6959Y-4.7552
X12.6959Y-4.9864
X12.6959Y-5.0254
X12.6959Y-5.0654
X12.6959Y-5.1044
X12.6967Y-5.3521
X12.6969Y-4.7104
X12.7039Y-7.1115
X12.7099Y-7.3034
X12.7269Y-6.1534
X12.7322Y-5.2619
X12.7337Y-4.8237
X12.7339Y-4.9474
X12.7339Y-4.9874
X12.7339Y-5.0264
X12.7339Y-5.0664
X12.7339Y-5.1054
X12.7339Y-5.1454
X12.7339Y-5.1844
X12.7339Y-5.2244
X12.7349Y-4.7094
X12.7397Y-5.9516
X12.7715Y-5.3501
X12.7719Y-5.4564
X12.7726Y-4.9474
X12.7729Y-5.4964
X12.7747Y-4.7106
X12.7747Y-4.9862
X12.7747Y-5.0255
X12.7747Y-5.0649
X12.7747Y-5.1043
X12.7747Y-5.1436
X12.7747Y-5.183
X12.7747Y-5.2224
X12.7747Y-5.2617
X12.7749Y-4.7504
X12.7768Y-4.6734
X12.7949Y-6.1534
X12.8097Y-4.8722
X12.8105Y-4.8241
X12.8124Y-4.6734
X12.8129Y-4.9459
X12.8139Y-4.7504
X12.8139Y-5.4594
X12.8139Y-5.4994
X12.8139Y-5.5374
X12.8141Y-4.9862
X12.8141Y-5.0255
X12.8141Y-5.0649
X12.8141Y-5.1043
X12.8141Y-5.1436
X12.8141Y-5.183
X12.8141Y-5.2224
X12.8141Y-5.2617
X12.8154Y-4.7098
X12.8516Y-4.9459
X12.8519Y-5.3505
X12.8519Y-4.7124
X12.8519Y-5.4604
X12.8519Y-5.4964
X12.8535Y-4.9862
X12.8535Y-5.0255
X12.8535Y-5.0649
X12.8535Y-5.1043
X12.8535Y-5.1436
X12.8535Y-5.183
X12.8535Y-5.2224
X12.8535Y-5.2617
X12.8539Y-4.7504
X12.8619Y-7.3024
X12.8893Y-4.8741
X12.8912Y-4.8241
X12.8917Y-4.7096
X12.8919Y-4.7494
X12.8925Y-5.4979
X12.8928Y-4.9862
X12.8928Y-5.0255
X12.8928Y-5.0649
X12.8928Y-5.1043
X12.8928Y-5.1436
X12.8928Y-5.183
X12.8928Y-5.2224
X12.8928Y-5.2617
X12.8929Y-4.9464
X12.8935Y-5.4589
X12.8935Y-5.5379
X12.8949Y-4.6734
X12.9305Y-4.6734
X12.9316Y-4.9464
X12.9322Y-4.9862
X12.9322Y-5.0255
X12.9322Y-5.0649
X12.9322Y-5.1043
X12.9322Y-5.1436
X12.9322Y-5.183
X12.9322Y-5.2224
X12.9322Y-5.2617
X12.9329Y-4.7104
X12.9329Y-4.7494
X12.9349Y-5.4994
X12.935Y-5.4607
X12.9526Y-5.3521
X12.968Y-4.8741
X12.9696Y-4.8237
X12.9699Y-5.4994
X12.97Y-5.4607
X12.9709Y-4.7494
X12.9716Y-4.9862
X12.9716Y-5.0255
X12.9716Y-5.0649
X12.9716Y-5.1043
X12.9716Y-5.1436
X12.9716Y-5.183
X12.9716Y-5.2224
X12.9716Y-5.2617
X12.9719Y-4.9449
X12.9737Y-4.6734
X13.0099Y-4.6734
X13.0099Y-5.4594
X13.0099Y-5.5374
X13.0106Y-4.9449
X13.0109Y-4.7494
X13.0109Y-5.4974
X13.011Y-4.9862
X13.011Y-5.0255
X13.011Y-5.0649
X13.011Y-5.1043
X13.011Y-5.1436
X13.011Y-5.183
X13.011Y-5.2224
X13.011Y-5.2617
X13.0129Y-4.7094
X13.0294Y-5.3513
X13.0479Y-4.9454
X13.0479Y-5.5374
X13.0491Y-4.8729
X13.0499Y-4.7484
X13.0499Y-5.4604
X13.0503Y-4.9862
X13.0503Y-5.0255
X13.0503Y-5.0649
X13.0503Y-5.1043
X13.0503Y-5.1436
X13.0503Y-5.183
X13.0503Y-5.2224
X13.0503Y-5.2617
X13.0509Y-5.4974
X13.0866Y-4.9454
X13.0879Y-6.1494
X13.0889Y-4.7114
X13.0897Y-4.9862
X13.0897Y-5.0255
X13.0897Y-5.0649
X13.0897Y-5.1043
X13.0897Y-5.1436
X13.0897Y-5.183
X13.0897Y-5.2224
X13.0897Y-5.2617
X13.0899Y-4.6744
X13.0899Y-4.7504
X13.0928Y-5.3454
X13.1289Y-4.7494
X13.1289Y-4.9434
X13.1289Y-4.9834
X13.1289Y-5.0234
X13.1289Y-5.0634
X13.1289Y-5.1034
X13.1289Y-5.1434
X13.1289Y-5.1834
X13.1289Y-5.2234
X13.1289Y-5.2634
X13.1289Y-5.4984
X13.1299Y-5.4594
X13.1299Y-5.5384
X13.1539Y-6.3934
X13.1559Y-7.2744
X13.1569Y-5.332
X13.1609Y-6.0734
X13.1676Y-4.8237
X13.1685Y-4.7108
X13.1686Y-4.9849
X13.1686Y-5.0249
X13.1686Y-5.0649
X13.1686Y-5.1049
X13.1686Y-5.1449
X13.1686Y-5.1849
X13.1686Y-5.2249
X13.1699Y-5.4984
X13.2009Y-6.3884
X13.2039Y-6.0694
X13.2061Y-4.6734
X13.2069Y-5.4594
X13.2079Y-4.7114
X13.2079Y-8.8944
X13.2089Y-5.4974
X13.2113Y-5.3525
X13.2121Y-4.7544
X13.2428Y-5.158
X13.2429Y-6.3844
X13.2433Y-4.7544
X13.2459Y-6.0664
X13.2489Y-5.4994
X13.2493Y-4.6734
X13.2559Y-6.1144
X13.2619Y-5.0464
X13.2619Y-5.3984
X13.2639Y-5.3614
X13.2649Y-5.2424
X13.2649Y-5.2814
X13.2659Y-5.1874
X13.277Y-5.156
X13.2814Y-4.9076
X13.2839Y-6.3824
X13.2848Y-4.6734
X13.2859Y-4.7514
X13.2869Y-5.4974
X13.2879Y-4.7874
X13.2879Y-6.0684
X13.2889Y-5.3384
X13.3069Y-7.2724
X13.3239Y-5.3384
X13.3242Y-4.9846
X13.3246Y-5.0248
X13.3249Y-5.5374
X13.3259Y-5.106
X13.3259Y-4.7114
X13.3259Y-4.7904
X13.3259Y-5.4234
X13.3269Y-5.0654
X13.3269Y-5.4974
X13.3279Y-5.1854
X13.328Y-4.6734
X13.3399Y-7.5084
X13.3419Y-7.1704
X13.3621Y-4.9501
X13.3629Y-5.3384
X13.3629Y-5.4164
X13.3629Y-5.4964
X13.3629Y-6.0804
X13.3635Y-5.1051
X13.3636Y-5.0238
X13.3649Y-4.7514
X13.3659Y-5.5774
X13.3669Y-5.1844
X13.3674Y-4.9846
X13.3819Y-7.5084
X13.3879Y-7.1704
X13.4029Y-5.1047
X13.4029Y-5.2614
X13.4029Y-5.3384
X13.4039Y-5.1824
X13.4049Y-5.5774
X13.4229Y-7.5084
X13.4379Y-7.1724
X13.4429Y-5.2604
X13.4439Y-5.5774
X13.4449Y-4.6314
X13.4549Y-7.2724
X13.4578Y-5.2414
X13.4596Y-6.1157
X13.4648Y-4.9096
X13.4819Y-7.5134
X13.4899Y-7.1514
X13.5229Y-5.2624
X13.5259Y-5.3274
X13.5709Y-6.1094
X13.5897Y-7.1272
X13.6059Y-7.2704
X13.6899Y-5.1304
X13.6989Y-5.2944
X13.7699Y-5.2664
X13.8049Y-5.1924
X13.8859Y-6.3984
X13.8876Y-5.1227
X13.8909Y-7.2934
X13.8929Y-6.0824
X13.8961Y-5.2292
X13.9023Y-6.1824
X13.9309Y-6.3954
X13.9399Y-6.0854
X13.9699Y-6.3954
X13.9769Y-6.0834
X14.0149Y-6.0824
X14.0149Y-6.3914
X14.0489Y-7.2754
X14.0499Y-5.3034
X14.0599Y-5.1514
X14.0599Y-8.3234
X14.0609Y-6.1794
X14.0669Y-5.2014
X14.0739Y-7.5084
X14.0811Y-6.0394
X14.0889Y-7.1744
X14.0939Y-5.5134
X14.1219Y-7.5104
X14.1389Y-7.1774
X14.1489Y-5.3544
X14.1729Y-7.5134
X14.1839Y-6.1034
X14.1889Y-7.1774
X14.2329Y-7.5174
X14.2349Y-7.1774
X14.2779Y-7.2834
X14.2879Y-6.1084
X14.3141Y-7.1272
X14.3469Y-7.2854
X14.4269Y-5.4494
X14.5661Y-6.3201
X14.5661Y-6.4855
X14.5661Y-7.2886
X14.5661Y-7.454
X14.5661Y-8.4934
X14.5661Y-8.6587
T2
X1.9716Y-4.9107
X1.9716Y-4.9776
X1.9716Y-5.4619
X1.9716Y-5.5288
X1.9716Y-5.5997
X1.9716Y-5.6666
X2.0346Y-4.9107
X2.0346Y-4.9776
X2.0346Y-5.4619
X2.0346Y-5.5288
X2.0346Y-5.5997
X2.0346Y-5.6666
X2.1488Y-4.9107
X2.1488Y-4.9776
X2.1488Y-5.4619
X2.1488Y-5.5288
X2.1488Y-5.5997
X2.1488Y-5.6666
X2.2039Y-4.9107
X2.2039Y-4.9776
X2.2039Y-5.4619
X2.2039Y-5.5288
X2.2039Y-5.5997
X2.3515Y-1.8385
X2.3515Y-1.9385
X2.4409Y-1.3579
X2.4409Y-1.4579
X2.4515Y-1.8385
X2.4515Y-1.9385
X2.5409Y-1.3579
X2.5409Y-1.4579
X2.5515Y-1.8385
X2.5515Y-1.9385
X2.637Y-4.6548
X2.637Y-4.7138
X2.637Y-4.7808
X2.6409Y-1.3579
X2.6409Y-1.4579
X2.6515Y-1.8385
X2.6515Y-1.9385
X2.7Y-4.6508
X2.7Y-4.7847
X2.7409Y-1.3579
X2.7409Y-1.4579
X2.7515Y-1.8385
X2.7515Y-1.9385
X2.8024Y-4.6557
X2.8024Y-4.7738
X2.8409Y-1.3579
X2.8409Y-1.4579
X2.8515Y-1.8385
X2.8515Y-1.9385
X2.8693Y-4.6557
X2.8693Y-4.7108
X2.8693Y-4.7738
X2.9409Y-1.3579
X2.9409Y-1.4579
X2.9515Y-1.8385
X2.9515Y-1.9385
X3.0409Y-1.3579
X3.0409Y-1.4579
X3.0515Y-1.8385
X3.0515Y-1.9385
X3.1409Y-1.3579
X3.1409Y-1.4579
X3.9715Y-1.5285
X3.9715Y-1.6215
X3.9715Y-1.7235
X5.0669Y-1.5878
X5.0679Y-1.5308
X5.0682Y-1.4637
X5.0692Y-1.4067
X5.1669Y-1.5878
X5.1679Y-1.5308
X5.1682Y-1.4637
X5.1692Y-1.4067
X5.2669Y-1.5878
X5.2679Y-1.5308
X5.2682Y-1.4637
X5.2692Y-1.4067
X5.3669Y-1.5878
X5.3679Y-1.5308
X5.3682Y-1.4637
X5.3692Y-1.4067
X5.4669Y-1.5878
X5.4679Y-1.5308
X5.4682Y-1.4637
X5.4692Y-1.4067
X5.5695Y-1.1025
X5.5705Y-1.0455
X5.6695Y-1.1025
X5.6705Y-1.0455
X5.7511Y-4.6548
X5.7511Y-4.7138
X5.7511Y-4.7808
X5.7695Y-1.1025
X5.7705Y-1.0455
X5.8141Y-4.6508
X5.8141Y-4.7847
X5.8695Y-1.1025
X5.8705Y-1.0455
X5.9238Y-4.6515
X5.9238Y-4.7696
X5.9695Y-1.1025
X5.9705Y-1.0455
X5.9908Y-4.6515
X5.9908Y-4.7066
X5.9908Y-4.7696
X6.4155Y-1.3123
X6.4155Y-1.4123
X6.4155Y-1.5123
X6.4155Y-1.6123
X6.4155Y-1.7123
X6.4795Y-1.3123
X6.4795Y-1.4123
X6.4795Y-1.5123
X6.4795Y-1.6123
X6.4795Y-1.7123
X6.6115Y-1.0455
X6.6115Y-1.1095
X6.7115Y-1.0455
X6.7115Y-1.1095
X6.8115Y-1.0455
X6.8115Y-1.1095
X6.8496Y-3.2965
X6.8535Y-2.5839
X6.9115Y-1.0455
X6.9115Y-1.1095
X7.0115Y-1.0455
X7.0115Y-1.1095
X7.0779Y-2.5839
X7.0818Y-3.2965
X7.5307Y-2.5406
X7.5336Y-1.328
X7.5336Y-1.428
X7.5336Y-1.528
X7.5336Y-1.628
X7.5336Y-1.728
X7.5976Y-1.328
X7.5976Y-1.428
X7.5976Y-1.528
X7.5976Y-1.628
X7.5976Y-1.728
X7.7295Y-1.0455
X7.7295Y-1.1095
X7.7629Y-2.5406
X7.8295Y-1.0455
X7.8295Y-1.1095
X7.8732Y-2.076
X7.9295Y-1.0455
X7.9295Y-1.1095
X8.0295Y-1.0455
X8.0295Y-1.1095
X8.1094Y-2.076
X8.1295Y-1.0455
X8.1295Y-1.1095
X8.3574Y-1.6626
X8.4677Y-2.3241
X8.4716Y-2.0957
X8.5858Y-1.6666
X8.7275Y-2.1115
X8.8666Y-4.6548
X8.8666Y-4.7138
X8.8666Y-4.7808
X8.9296Y-4.6508
X8.9296Y-4.7847
X8.9598Y-2.1115
X9.0188Y-3.8201
X9.0385Y-4.6548
X9.0385Y-4.7729
X9.1055Y-4.7099
X9.1055Y-4.7729
X9.2393Y-3.8201
X11.9828Y-4.6548
X11.9828Y-4.7138
X11.9828Y-4.7808
X12.0458Y-4.6508
X12.0458Y-4.7847
X12.1527Y-4.6548
X12.1527Y-4.7729
X12.2196Y-4.6548
X12.2196Y-4.7099
X12.2196Y-4.7729
T3
X8.1271Y-4.4402
X8.1271Y-4.5189
X8.2059Y-4.4402
X8.2059Y-4.5189
X8.2846Y-4.4402
X8.2846Y-4.5189
X8.3633Y-4.4402
X8.3633Y-4.5189
X8.4421Y-4.4402
X8.4421Y-4.5189
X8.5208Y-4.4402
X8.5208Y-4.5189
X8.5996Y-4.4402
X8.5996Y-4.5189
T4
X5.3794Y-8.1983
X5.3794Y-8.8582
X5.4745Y-8.453
X5.4745Y-8.6983
X5.4794Y-8.1983
X5.4794Y-8.8582
X5.5245Y-8.353
X5.5245Y-8.5983
X5.5745Y-8.453
X5.5745Y-8.6983
X5.6245Y-8.353
X5.6245Y-8.5983
X5.6745Y-8.453
X5.6745Y-8.6983
X5.7245Y-8.353
X5.7245Y-8.5983
X5.7745Y-8.453
X5.7745Y-8.6983
X5.8195Y-8.1983
X5.8195Y-8.8582
X5.8245Y-8.353
X5.8245Y-8.5983
X5.9195Y-8.1983
X5.9195Y-8.8582
X5.9987Y-8.1983
X5.9987Y-8.8582
X6.0938Y-8.453
X6.0938Y-8.6983
X6.0987Y-8.1983
X6.0987Y-8.8582
X6.1438Y-8.353
X6.1438Y-8.5983
X6.1938Y-8.453
X6.1938Y-8.6983
X6.2438Y-8.353
X6.2438Y-8.5983
X6.2938Y-8.453
X6.2938Y-8.6983
X6.3438Y-8.353
X6.3438Y-8.5983
X6.3938Y-8.453
X6.3938Y-8.6983
X6.4388Y-8.1983
X6.4388Y-8.8582
X6.4438Y-8.353
X6.4438Y-8.5983
X6.5388Y-8.1983
X6.5388Y-8.8582
X6.6202Y-8.1985
X6.6202Y-8.8583
X6.7153Y-8.4532
X6.7153Y-8.6985
X6.7202Y-8.1985
X6.7202Y-8.8583
X6.7653Y-8.3532
X6.7653Y-8.5985
X6.8153Y-8.4532
X6.8153Y-8.6985
X6.8653Y-8.3532
X6.8653Y-8.5985
X6.9153Y-8.4532
X6.9153Y-8.6985
X6.9653Y-8.3532
X6.9653Y-8.5985
X7.0153Y-8.4532
X7.0153Y-8.6985
X7.0604Y-8.1985
X7.0604Y-8.8583
X7.0653Y-8.3532
X7.0653Y-8.5985
X7.1604Y-8.1985
X7.1604Y-8.8583
X7.2407Y-8.1983
X7.2407Y-8.8582
X7.3358Y-8.453
X7.3358Y-8.6983
X7.3407Y-8.1983
X7.3407Y-8.8582
X7.3858Y-8.353
X7.3858Y-8.5983
X7.4358Y-8.453
X7.4358Y-8.6983
X7.4858Y-8.353
X7.4858Y-8.5983
X7.5358Y-8.453
X7.5358Y-8.6983
X7.5858Y-8.353
X7.5858Y-8.5983
X7.6358Y-8.453
X7.6358Y-8.6983
X7.6809Y-8.1983
X7.6809Y-8.8582
X7.6858Y-8.353
X7.6858Y-8.5983
X7.7809Y-8.1983
X7.7809Y-8.8582
X11.6109Y-8.1987
X11.6109Y-8.8585
X11.706Y-8.4534
X11.706Y-8.6987
X11.7109Y-8.1987
X11.7109Y-8.8585
X11.756Y-8.3534
X11.756Y-8.5987
X11.806Y-8.4534
X11.806Y-8.6987
X11.856Y-8.3534
X11.856Y-8.5987
X11.906Y-8.4534
X11.906Y-8.6987
X11.956Y-8.3534
X11.956Y-8.5987
X12.006Y-8.4534
X12.006Y-8.6987
X12.051Y-8.1987
X12.051Y-8.8585
X12.056Y-8.3534
X12.056Y-8.5987
X12.151Y-8.1987
X12.151Y-8.8585
X12.2302Y-8.1987
X12.2302Y-8.8585
X12.3253Y-8.4534
X12.3253Y-8.6987
X12.3302Y-8.1987
X12.3302Y-8.8585
X12.3753Y-8.3534
X12.3753Y-8.5987
X12.4253Y-8.4534
X12.4253Y-8.6987
X12.4753Y-8.3534
X12.4753Y-8.5987
X12.5253Y-8.4534
X12.5253Y-8.6987
X12.5753Y-8.3534
X12.5753Y-8.5987
X12.6253Y-8.4534
X12.6253Y-8.6987
X12.6703Y-8.1987
X12.6703Y-8.8585
X12.6753Y-8.3534
X12.6753Y-8.5987
X12.7703Y-8.1987
X12.7703Y-8.8585
X12.8517Y-8.1989
X12.8517Y-8.8587
X12.9468Y-8.4536
X12.9468Y-8.6989
X12.9517Y-8.1989
X12.9517Y-8.8587
X12.9968Y-8.3536
X12.9968Y-8.5989
X13.0468Y-8.4536
X13.0468Y-8.6989
X13.0968Y-8.3536
X13.0968Y-8.5989
X13.1468Y-8.4536
X13.1468Y-8.6989
X13.1968Y-8.3536
X13.1968Y-8.5989
X13.2468Y-8.4536
X13.2468Y-8.6989
X13.2919Y-8.1989
X13.2919Y-8.8587
X13.2968Y-8.3536
X13.2968Y-8.5989
X13.3919Y-8.1989
X13.3919Y-8.8587
X13.4722Y-8.1987
X13.4722Y-8.8585
X13.5673Y-8.4534
X13.5673Y-8.6987
X13.5722Y-8.1987
X13.5722Y-8.8585
X13.6173Y-8.3534
X13.6173Y-8.5987
X13.6673Y-8.4534
X13.6673Y-8.6987
X13.7173Y-8.3534
X13.7173Y-8.5987
X13.7673Y-8.4534
X13.7673Y-8.6987
X13.8173Y-8.3534
X13.8173Y-8.5987
X13.8673Y-8.4534
X13.8673Y-8.6987
X13.9124Y-8.1987
X13.9124Y-8.8585
X13.9173Y-8.3534
X13.9173Y-8.5987
X14.0124Y-8.1987
X14.0124Y-8.8585
X8.4948Y-8.1976
X8.4948Y-8.8574
X8.5899Y-8.4523
X8.5899Y-8.6976
X8.5948Y-8.1976
X8.5948Y-8.8574
X8.6399Y-8.3523
X8.6399Y-8.5976
X8.6899Y-8.4523
X8.6899Y-8.6976
X8.7399Y-8.3523
X8.7399Y-8.5976
X8.7899Y-8.4523
X8.7899Y-8.6976
X8.8399Y-8.3523
X8.8399Y-8.5976
X8.8899Y-8.4523
X8.8899Y-8.6976
X8.9349Y-8.1976
X8.9349Y-8.8574
X8.9399Y-8.3523
X8.9399Y-8.5976
X9.0349Y-8.1976
X9.0349Y-8.8574
X9.1141Y-8.1976
X9.1141Y-8.8574
X9.2092Y-8.4523
X9.2092Y-8.6976
X9.2141Y-8.1976
X9.2141Y-8.8574
X9.2592Y-8.3523
X9.2592Y-8.5976
X9.3092Y-8.4523
X9.3092Y-8.6976
X9.3592Y-8.3523
X9.3592Y-8.5976
X9.4092Y-8.4523
X9.4092Y-8.6976
X9.4592Y-8.3523
X9.4592Y-8.5976
X9.5092Y-8.4523
X9.5092Y-8.6976
X9.5542Y-8.1976
X9.5542Y-8.8574
X9.5592Y-8.3523
X9.5592Y-8.5976
X9.6542Y-8.1976
X9.6542Y-8.8574
X9.7356Y-8.1977
X9.7356Y-8.8576
X9.8307Y-8.4525
X9.8307Y-8.6977
X9.8356Y-8.1977
X9.8356Y-8.8576
X9.8807Y-8.3525
X9.8807Y-8.5977
X9.9307Y-8.4525
X9.9307Y-8.6977
X9.9807Y-8.3525
X9.9807Y-8.5977
X10.0307Y-8.4525
X10.0307Y-8.6977
X10.0807Y-8.3525
X10.0807Y-8.5977
X10.1307Y-8.4525
X10.1307Y-8.6977
X10.1758Y-8.1977
X10.1758Y-8.8576
X10.1807Y-8.3525
X10.1807Y-8.5977
X10.2758Y-8.1977
X10.2758Y-8.8576
X10.3561Y-8.1976
X10.3561Y-8.8574
X10.4512Y-8.4523
X10.4512Y-8.6976
X10.4561Y-8.1976
X10.4561Y-8.8574
X10.5012Y-8.3523
X10.5012Y-8.5976
X10.5512Y-8.4523
X10.5512Y-8.6976
X10.6012Y-8.3523
X10.6012Y-8.5976
X10.6512Y-8.4523
X10.6512Y-8.6976
X10.7012Y-8.3523
X10.7012Y-8.5976
X10.7512Y-8.4523
X10.7512Y-8.6976
X10.7963Y-8.1976
X10.7963Y-8.8574
X10.8012Y-8.3523
X10.8012Y-8.5976
X10.8963Y-8.1976
X10.8963Y-8.8574
X2.2633Y-8.1983
X2.2633Y-8.8581
X2.3584Y-8.453
X2.3584Y-8.6983
X2.3633Y-8.1983
X2.3633Y-8.8581
X2.4084Y-8.353
X2.4084Y-8.5983
X2.4584Y-8.453
X2.4584Y-8.6983
X2.5084Y-8.353
X2.5084Y-8.5983
X2.5584Y-8.453
X2.5584Y-8.6983
X2.6084Y-8.353
X2.6084Y-8.5983
X2.6584Y-8.453
X2.6584Y-8.6983
X2.7035Y-8.1983
X2.7035Y-8.8581
X2.7084Y-8.353
X2.7084Y-8.5983
X2.8035Y-8.1983
X2.8035Y-8.8581
X2.8826Y-8.1983
X2.8826Y-8.8581
X2.9777Y-8.453
X2.9777Y-8.6983
X2.9826Y-8.1983
X2.9826Y-8.8581
X3.0277Y-8.353
X3.0277Y-8.5983
X3.0777Y-8.453
X3.0777Y-8.6983
X3.1277Y-8.353
X3.1277Y-8.5983
X3.1777Y-8.453
X3.1777Y-8.6983
X3.2277Y-8.353
X3.2277Y-8.5983
X3.2777Y-8.453
X3.2777Y-8.6983
X3.3228Y-8.1983
X3.3228Y-8.8581
X3.3277Y-8.353
X3.3277Y-8.5983
X3.4228Y-8.1983
X3.4228Y-8.8581
X3.5042Y-8.1984
X3.5042Y-8.8582
X3.5992Y-8.4531
X3.5992Y-8.6984
X3.6042Y-8.1984
X3.6042Y-8.8582
X3.6492Y-8.3531
X3.6492Y-8.5984
X3.6992Y-8.4531
X3.6992Y-8.6984
X3.7492Y-8.3531
X3.7492Y-8.5984
X3.7992Y-8.4531
X3.7992Y-8.6984
X3.8492Y-8.3531
X3.8492Y-8.5984
X3.8992Y-8.4531
X3.8992Y-8.6984
X3.9443Y-8.1984
X3.9443Y-8.8582
X3.9492Y-8.3531
X3.9492Y-8.5984
X4.0443Y-8.1984
X4.0443Y-8.8582
X4.1246Y-8.1983
X4.1246Y-8.8581
X4.2197Y-8.453
X4.2197Y-8.6983
X4.2246Y-8.1983
X4.2246Y-8.8581
X4.2697Y-8.353
X4.2697Y-8.5983
X4.3197Y-8.453
X4.3197Y-8.6983
X4.3697Y-8.353
X4.3697Y-8.5983
X4.4197Y-8.453
X4.4197Y-8.6983
X4.4697Y-8.353
X4.4697Y-8.5983
X4.5197Y-8.453
X4.5197Y-8.6983
X4.5648Y-8.1983
X4.5648Y-8.8581
X4.5697Y-8.353
X4.5697Y-8.5983
X4.6648Y-8.1983
X4.6648Y-8.8581
T5
X5.0195Y-4.7238
X5.0195Y-4.8238
X5.0195Y-4.9238
X5.0195Y-5.0238
X5.0195Y-5.1238
X5.0195Y-5.2238
X5.0195Y-5.3238
X11.251Y-4.7232
X11.251Y-4.8232
X11.251Y-4.9232
X11.251Y-5.0232
X11.251Y-5.1232
X11.251Y-5.2232
X11.251Y-5.3232
X7.4677Y-3.9678
X7.5677Y-3.9678
X7.6677Y-3.9678
X7.7677Y-3.9678
X7.8677Y-3.9678
X7.9677Y-3.9678
X14.3671Y-4.7243
X14.3671Y-4.8243
X14.3671Y-4.9243
X14.3671Y-5.0243
X14.3671Y-5.1243
X14.3671Y-5.2243
X14.3671Y-5.3243
X8.1356Y-4.7239
X8.1356Y-4.8239
X8.1356Y-4.9239
X8.1356Y-5.0239
X8.1356Y-5.1239
X8.1356Y-5.2239
X8.1356Y-5.3239
T6
X4.7511Y-1.8713
X4.7511Y-1.9713
X4.7511Y-2.0713
X9.1527Y-1.8162
X9.1527Y-1.9162
X9.1527Y-2.0162
T7
X14.4007Y-8.8871
X11.2511Y-8.8871
X5.0307Y-8.8871
X8.1409Y-8.8871
X1.8811Y-8.8871
T8
X1.8811Y-1.0524
X14.4007Y-1.0524
T5
G00X9.8276Y-0.935
M15
G01X9.8276Y-1.0138
M16
G05
G00X10.0599Y-0.8563
M15
G01X9.9811Y-0.8563
M16
G05
G00X10.0697Y-1.0925
M15
G01X9.9713Y-1.0925
M16
G05
T0
M30
