G04 #@! TF.GenerationSoftware,KiCad,Pcbnew,5.99.0-unknown-1973153~101~ubuntu20.04.1*
G04 #@! TF.CreationDate,2020-07-01T19:51:02-04:00*
G04 #@! TF.ProjectId,L1Switch,4c315377-6974-4636-982e-6b696361645f,rev?*
G04 #@! TF.SameCoordinates,Original*
G04 #@! TF.FileFunction,Legend,Bot*
G04 #@! TF.FilePolarity,Positive*
%FSLAX46Y46*%
G04 Gerber Fmt 4.6, Leading zero omitted, Abs format (unit mm)*
G04 Created by KiCad (PCBNEW 5.99.0-unknown-1973153~101~ubuntu20.04.1) date 2020-07-01 19:51:02*
%MOMM*%
%LPD*%
G01*
G04 APERTURE LIST*
%ADD10C,0.150000*%
%ADD11C,0.120000*%
G04 APERTURE END LIST*
D10*
X218197797Y-81288307D02*
X218245416Y-81335926D01*
X218388273Y-81383545D01*
X218483511Y-81383545D01*
X218626369Y-81335926D01*
X218721607Y-81240688D01*
X218769226Y-81145450D01*
X218816845Y-80954974D01*
X218816845Y-80812117D01*
X218769226Y-80621641D01*
X218721607Y-80526403D01*
X218626369Y-80431165D01*
X218483511Y-80383545D01*
X218388273Y-80383545D01*
X218245416Y-80431165D01*
X218197797Y-80478784D01*
X217340654Y-80716879D02*
X217340654Y-81383545D01*
X217578750Y-80335926D02*
X217816845Y-81050212D01*
X217197797Y-81050212D01*
X216864464Y-80478784D02*
X216816845Y-80431165D01*
X216721607Y-80383545D01*
X216483511Y-80383545D01*
X216388273Y-80431165D01*
X216340654Y-80478784D01*
X216293035Y-80574022D01*
X216293035Y-80669260D01*
X216340654Y-80812117D01*
X216912083Y-81383545D01*
X216293035Y-81383545D01*
X215340654Y-81383545D02*
X215912083Y-81383545D01*
X215626369Y-81383545D02*
X215626369Y-80383545D01*
X215721607Y-80526403D01*
X215816845Y-80621641D01*
X215912083Y-80669260D01*
X213635892Y-68512117D02*
X213683511Y-68464498D01*
X213731130Y-68321641D01*
X213731130Y-68226403D01*
X213683511Y-68083545D01*
X213588273Y-67988307D01*
X213493035Y-67940688D01*
X213302559Y-67893069D01*
X213159702Y-67893069D01*
X212969226Y-67940688D01*
X212873988Y-67988307D01*
X212778750Y-68083545D01*
X212731130Y-68226403D01*
X212731130Y-68321641D01*
X212778750Y-68464498D01*
X212826369Y-68512117D01*
X213064464Y-69369260D02*
X213731130Y-69369260D01*
X212683511Y-69131165D02*
X213397797Y-68893069D01*
X213397797Y-69512117D01*
X212826369Y-69845450D02*
X212778750Y-69893069D01*
X212731130Y-69988307D01*
X212731130Y-70226403D01*
X212778750Y-70321641D01*
X212826369Y-70369260D01*
X212921607Y-70416879D01*
X213016845Y-70416879D01*
X213159702Y-70369260D01*
X213731130Y-69797831D01*
X213731130Y-70416879D01*
X212731130Y-71035926D02*
X212731130Y-71131165D01*
X212778750Y-71226403D01*
X212826369Y-71274022D01*
X212921607Y-71321641D01*
X213112083Y-71369260D01*
X213350178Y-71369260D01*
X213540654Y-71321641D01*
X213635892Y-71274022D01*
X213683511Y-71226403D01*
X213731130Y-71131165D01*
X213731130Y-71035926D01*
X213683511Y-70940688D01*
X213635892Y-70893069D01*
X213540654Y-70845450D01*
X213350178Y-70797831D01*
X213112083Y-70797831D01*
X212921607Y-70845450D01*
X212826369Y-70893069D01*
X212778750Y-70940688D01*
X212731130Y-71035926D01*
X213997797Y-84488307D02*
X214045416Y-84535926D01*
X214188273Y-84583545D01*
X214283511Y-84583545D01*
X214426369Y-84535926D01*
X214521607Y-84440688D01*
X214569226Y-84345450D01*
X214616845Y-84154974D01*
X214616845Y-84012117D01*
X214569226Y-83821641D01*
X214521607Y-83726403D01*
X214426369Y-83631165D01*
X214283511Y-83583545D01*
X214188273Y-83583545D01*
X214045416Y-83631165D01*
X213997797Y-83678784D01*
X213140654Y-83916879D02*
X213140654Y-84583545D01*
X213378750Y-83535926D02*
X213616845Y-84250212D01*
X212997797Y-84250212D01*
X212093035Y-84583545D02*
X212664464Y-84583545D01*
X212378750Y-84583545D02*
X212378750Y-83583545D01*
X212473988Y-83726403D01*
X212569226Y-83821641D01*
X212664464Y-83869260D01*
X211616845Y-84583545D02*
X211426369Y-84583545D01*
X211331130Y-84535926D01*
X211283511Y-84488307D01*
X211188273Y-84345450D01*
X211140654Y-84154974D01*
X211140654Y-83774022D01*
X211188273Y-83678784D01*
X211235892Y-83631165D01*
X211331130Y-83583545D01*
X211521607Y-83583545D01*
X211616845Y-83631165D01*
X211664464Y-83678784D01*
X211712083Y-83774022D01*
X211712083Y-84012117D01*
X211664464Y-84107355D01*
X211616845Y-84154974D01*
X211521607Y-84202593D01*
X211331130Y-84202593D01*
X211235892Y-84154974D01*
X211188273Y-84107355D01*
X211140654Y-84012117D01*
X212935892Y-80942117D02*
X212983511Y-80894498D01*
X213031130Y-80751641D01*
X213031130Y-80656403D01*
X212983511Y-80513545D01*
X212888273Y-80418307D01*
X212793035Y-80370688D01*
X212602559Y-80323069D01*
X212459702Y-80323069D01*
X212269226Y-80370688D01*
X212173988Y-80418307D01*
X212078750Y-80513545D01*
X212031130Y-80656403D01*
X212031130Y-80751641D01*
X212078750Y-80894498D01*
X212126369Y-80942117D01*
X212364464Y-81799260D02*
X213031130Y-81799260D01*
X211983511Y-81561165D02*
X212697797Y-81323069D01*
X212697797Y-81942117D01*
X213031130Y-82846879D02*
X213031130Y-82275450D01*
X213031130Y-82561165D02*
X212031130Y-82561165D01*
X212173988Y-82465926D01*
X212269226Y-82370688D01*
X212316845Y-82275450D01*
X212031130Y-83180212D02*
X212031130Y-83846879D01*
X213031130Y-83418307D01*
X215635892Y-85412117D02*
X215683511Y-85364498D01*
X215731130Y-85221641D01*
X215731130Y-85126403D01*
X215683511Y-84983545D01*
X215588273Y-84888307D01*
X215493035Y-84840688D01*
X215302559Y-84793069D01*
X215159702Y-84793069D01*
X214969226Y-84840688D01*
X214873988Y-84888307D01*
X214778750Y-84983545D01*
X214731130Y-85126403D01*
X214731130Y-85221641D01*
X214778750Y-85364498D01*
X214826369Y-85412117D01*
X215064464Y-86269260D02*
X215731130Y-86269260D01*
X214683511Y-86031165D02*
X215397797Y-85793069D01*
X215397797Y-86412117D01*
X215731130Y-87316879D02*
X215731130Y-86745450D01*
X215731130Y-87031165D02*
X214731130Y-87031165D01*
X214873988Y-86935926D01*
X214969226Y-86840688D01*
X215016845Y-86745450D01*
X215064464Y-88174022D02*
X215731130Y-88174022D01*
X214683511Y-87935926D02*
X215397797Y-87697831D01*
X215397797Y-88316879D01*
X216997797Y-82588307D02*
X217045416Y-82635926D01*
X217188273Y-82683545D01*
X217283511Y-82683545D01*
X217426369Y-82635926D01*
X217521607Y-82540688D01*
X217569226Y-82445450D01*
X217616845Y-82254974D01*
X217616845Y-82112117D01*
X217569226Y-81921641D01*
X217521607Y-81826403D01*
X217426369Y-81731165D01*
X217283511Y-81683545D01*
X217188273Y-81683545D01*
X217045416Y-81731165D01*
X216997797Y-81778784D01*
X216140654Y-82016879D02*
X216140654Y-82683545D01*
X216378750Y-81635926D02*
X216616845Y-82350212D01*
X215997797Y-82350212D01*
X215093035Y-82683545D02*
X215664464Y-82683545D01*
X215378750Y-82683545D02*
X215378750Y-81683545D01*
X215473988Y-81826403D01*
X215569226Y-81921641D01*
X215664464Y-81969260D01*
X214140654Y-82683545D02*
X214712083Y-82683545D01*
X214426369Y-82683545D02*
X214426369Y-81683545D01*
X214521607Y-81826403D01*
X214616845Y-81921641D01*
X214712083Y-81969260D01*
X215797797Y-79488307D02*
X215845416Y-79535926D01*
X215988273Y-79583545D01*
X216083511Y-79583545D01*
X216226369Y-79535926D01*
X216321607Y-79440688D01*
X216369226Y-79345450D01*
X216416845Y-79154974D01*
X216416845Y-79012117D01*
X216369226Y-78821641D01*
X216321607Y-78726403D01*
X216226369Y-78631165D01*
X216083511Y-78583545D01*
X215988273Y-78583545D01*
X215845416Y-78631165D01*
X215797797Y-78678784D01*
X214940654Y-78916879D02*
X214940654Y-79583545D01*
X215178750Y-78535926D02*
X215416845Y-79250212D01*
X214797797Y-79250212D01*
X214226369Y-78583545D02*
X214131130Y-78583545D01*
X214035892Y-78631165D01*
X213988273Y-78678784D01*
X213940654Y-78774022D01*
X213893035Y-78964498D01*
X213893035Y-79202593D01*
X213940654Y-79393069D01*
X213988273Y-79488307D01*
X214035892Y-79535926D01*
X214131130Y-79583545D01*
X214226369Y-79583545D01*
X214321607Y-79535926D01*
X214369226Y-79488307D01*
X214416845Y-79393069D01*
X214464464Y-79202593D01*
X214464464Y-78964498D01*
X214416845Y-78774022D01*
X214369226Y-78678784D01*
X214321607Y-78631165D01*
X214226369Y-78583545D01*
X213416845Y-79583545D02*
X213226369Y-79583545D01*
X213131130Y-79535926D01*
X213083511Y-79488307D01*
X212988273Y-79345450D01*
X212940654Y-79154974D01*
X212940654Y-78774022D01*
X212988273Y-78678784D01*
X213035892Y-78631165D01*
X213131130Y-78583545D01*
X213321607Y-78583545D01*
X213416845Y-78631165D01*
X213464464Y-78678784D01*
X213512083Y-78774022D01*
X213512083Y-79012117D01*
X213464464Y-79107355D01*
X213416845Y-79154974D01*
X213321607Y-79202593D01*
X213131130Y-79202593D01*
X213035892Y-79154974D01*
X212988273Y-79107355D01*
X212940654Y-79012117D01*
X211597797Y-80988307D02*
X211645416Y-81035926D01*
X211788273Y-81083545D01*
X211883511Y-81083545D01*
X212026369Y-81035926D01*
X212121607Y-80940688D01*
X212169226Y-80845450D01*
X212216845Y-80654974D01*
X212216845Y-80512117D01*
X212169226Y-80321641D01*
X212121607Y-80226403D01*
X212026369Y-80131165D01*
X211883511Y-80083545D01*
X211788273Y-80083545D01*
X211645416Y-80131165D01*
X211597797Y-80178784D01*
X210740654Y-80416879D02*
X210740654Y-81083545D01*
X210978750Y-80035926D02*
X211216845Y-80750212D01*
X210597797Y-80750212D01*
X210026369Y-80083545D02*
X209931130Y-80083545D01*
X209835892Y-80131165D01*
X209788273Y-80178784D01*
X209740654Y-80274022D01*
X209693035Y-80464498D01*
X209693035Y-80702593D01*
X209740654Y-80893069D01*
X209788273Y-80988307D01*
X209835892Y-81035926D01*
X209931130Y-81083545D01*
X210026369Y-81083545D01*
X210121607Y-81035926D01*
X210169226Y-80988307D01*
X210216845Y-80893069D01*
X210264464Y-80702593D01*
X210264464Y-80464498D01*
X210216845Y-80274022D01*
X210169226Y-80178784D01*
X210121607Y-80131165D01*
X210026369Y-80083545D01*
X209121607Y-80512117D02*
X209216845Y-80464498D01*
X209264464Y-80416879D01*
X209312083Y-80321641D01*
X209312083Y-80274022D01*
X209264464Y-80178784D01*
X209216845Y-80131165D01*
X209121607Y-80083545D01*
X208931130Y-80083545D01*
X208835892Y-80131165D01*
X208788273Y-80178784D01*
X208740654Y-80274022D01*
X208740654Y-80321641D01*
X208788273Y-80416879D01*
X208835892Y-80464498D01*
X208931130Y-80512117D01*
X209121607Y-80512117D01*
X209216845Y-80559736D01*
X209264464Y-80607355D01*
X209312083Y-80702593D01*
X209312083Y-80893069D01*
X209264464Y-80988307D01*
X209216845Y-81035926D01*
X209121607Y-81083545D01*
X208931130Y-81083545D01*
X208835892Y-81035926D01*
X208788273Y-80988307D01*
X208740654Y-80893069D01*
X208740654Y-80702593D01*
X208788273Y-80607355D01*
X208835892Y-80559736D01*
X208931130Y-80512117D01*
X218997797Y-69738307D02*
X219045416Y-69785926D01*
X219188273Y-69833545D01*
X219283511Y-69833545D01*
X219426369Y-69785926D01*
X219521607Y-69690688D01*
X219569226Y-69595450D01*
X219616845Y-69404974D01*
X219616845Y-69262117D01*
X219569226Y-69071641D01*
X219521607Y-68976403D01*
X219426369Y-68881165D01*
X219283511Y-68833545D01*
X219188273Y-68833545D01*
X219045416Y-68881165D01*
X218997797Y-68928784D01*
X218140654Y-69166879D02*
X218140654Y-69833545D01*
X218378750Y-68785926D02*
X218616845Y-69500212D01*
X217997797Y-69500212D01*
X217426369Y-68833545D02*
X217331130Y-68833545D01*
X217235892Y-68881165D01*
X217188273Y-68928784D01*
X217140654Y-69024022D01*
X217093035Y-69214498D01*
X217093035Y-69452593D01*
X217140654Y-69643069D01*
X217188273Y-69738307D01*
X217235892Y-69785926D01*
X217331130Y-69833545D01*
X217426369Y-69833545D01*
X217521607Y-69785926D01*
X217569226Y-69738307D01*
X217616845Y-69643069D01*
X217664464Y-69452593D01*
X217664464Y-69214498D01*
X217616845Y-69024022D01*
X217569226Y-68928784D01*
X217521607Y-68881165D01*
X217426369Y-68833545D01*
X216759702Y-68833545D02*
X216093035Y-68833545D01*
X216521607Y-69833545D01*
X222797797Y-81558307D02*
X222845416Y-81605926D01*
X222988273Y-81653545D01*
X223083511Y-81653545D01*
X223226369Y-81605926D01*
X223321607Y-81510688D01*
X223369226Y-81415450D01*
X223416845Y-81224974D01*
X223416845Y-81082117D01*
X223369226Y-80891641D01*
X223321607Y-80796403D01*
X223226369Y-80701165D01*
X223083511Y-80653545D01*
X222988273Y-80653545D01*
X222845416Y-80701165D01*
X222797797Y-80748784D01*
X221940654Y-80986879D02*
X221940654Y-81653545D01*
X222178750Y-80605926D02*
X222416845Y-81320212D01*
X221797797Y-81320212D01*
X221226369Y-80653545D02*
X221131130Y-80653545D01*
X221035892Y-80701165D01*
X220988273Y-80748784D01*
X220940654Y-80844022D01*
X220893035Y-81034498D01*
X220893035Y-81272593D01*
X220940654Y-81463069D01*
X220988273Y-81558307D01*
X221035892Y-81605926D01*
X221131130Y-81653545D01*
X221226369Y-81653545D01*
X221321607Y-81605926D01*
X221369226Y-81558307D01*
X221416845Y-81463069D01*
X221464464Y-81272593D01*
X221464464Y-81034498D01*
X221416845Y-80844022D01*
X221369226Y-80748784D01*
X221321607Y-80701165D01*
X221226369Y-80653545D01*
X220035892Y-80653545D02*
X220226369Y-80653545D01*
X220321607Y-80701165D01*
X220369226Y-80748784D01*
X220464464Y-80891641D01*
X220512083Y-81082117D01*
X220512083Y-81463069D01*
X220464464Y-81558307D01*
X220416845Y-81605926D01*
X220321607Y-81653545D01*
X220131130Y-81653545D01*
X220035892Y-81605926D01*
X219988273Y-81558307D01*
X219940654Y-81463069D01*
X219940654Y-81224974D01*
X219988273Y-81129736D01*
X220035892Y-81082117D01*
X220131130Y-81034498D01*
X220321607Y-81034498D01*
X220416845Y-81082117D01*
X220464464Y-81129736D01*
X220512083Y-81224974D01*
X229235297Y-67938307D02*
X229282916Y-67985926D01*
X229425773Y-68033545D01*
X229521011Y-68033545D01*
X229663869Y-67985926D01*
X229759107Y-67890688D01*
X229806726Y-67795450D01*
X229854345Y-67604974D01*
X229854345Y-67462117D01*
X229806726Y-67271641D01*
X229759107Y-67176403D01*
X229663869Y-67081165D01*
X229521011Y-67033545D01*
X229425773Y-67033545D01*
X229282916Y-67081165D01*
X229235297Y-67128784D01*
X228378154Y-67366879D02*
X228378154Y-68033545D01*
X228616250Y-66985926D02*
X228854345Y-67700212D01*
X228235297Y-67700212D01*
X227663869Y-67033545D02*
X227568630Y-67033545D01*
X227473392Y-67081165D01*
X227425773Y-67128784D01*
X227378154Y-67224022D01*
X227330535Y-67414498D01*
X227330535Y-67652593D01*
X227378154Y-67843069D01*
X227425773Y-67938307D01*
X227473392Y-67985926D01*
X227568630Y-68033545D01*
X227663869Y-68033545D01*
X227759107Y-67985926D01*
X227806726Y-67938307D01*
X227854345Y-67843069D01*
X227901964Y-67652593D01*
X227901964Y-67414498D01*
X227854345Y-67224022D01*
X227806726Y-67128784D01*
X227759107Y-67081165D01*
X227663869Y-67033545D01*
X226425773Y-67033545D02*
X226901964Y-67033545D01*
X226949583Y-67509736D01*
X226901964Y-67462117D01*
X226806726Y-67414498D01*
X226568630Y-67414498D01*
X226473392Y-67462117D01*
X226425773Y-67509736D01*
X226378154Y-67604974D01*
X226378154Y-67843069D01*
X226425773Y-67938307D01*
X226473392Y-67985926D01*
X226568630Y-68033545D01*
X226806726Y-68033545D01*
X226901964Y-67985926D01*
X226949583Y-67938307D01*
X219335892Y-77612117D02*
X219383511Y-77564498D01*
X219431130Y-77421641D01*
X219431130Y-77326403D01*
X219383511Y-77183545D01*
X219288273Y-77088307D01*
X219193035Y-77040688D01*
X219002559Y-76993069D01*
X218859702Y-76993069D01*
X218669226Y-77040688D01*
X218573988Y-77088307D01*
X218478750Y-77183545D01*
X218431130Y-77326403D01*
X218431130Y-77421641D01*
X218478750Y-77564498D01*
X218526369Y-77612117D01*
X218764464Y-78469260D02*
X219431130Y-78469260D01*
X218383511Y-78231165D02*
X219097797Y-77993069D01*
X219097797Y-78612117D01*
X218431130Y-79183545D02*
X218431130Y-79278784D01*
X218478750Y-79374022D01*
X218526369Y-79421641D01*
X218621607Y-79469260D01*
X218812083Y-79516879D01*
X219050178Y-79516879D01*
X219240654Y-79469260D01*
X219335892Y-79421641D01*
X219383511Y-79374022D01*
X219431130Y-79278784D01*
X219431130Y-79183545D01*
X219383511Y-79088307D01*
X219335892Y-79040688D01*
X219240654Y-78993069D01*
X219050178Y-78945450D01*
X218812083Y-78945450D01*
X218621607Y-78993069D01*
X218526369Y-79040688D01*
X218478750Y-79088307D01*
X218431130Y-79183545D01*
X218764464Y-80374022D02*
X219431130Y-80374022D01*
X218383511Y-80135926D02*
X219097797Y-79897831D01*
X219097797Y-80516879D01*
X227197797Y-81738307D02*
X227245416Y-81785926D01*
X227388273Y-81833545D01*
X227483511Y-81833545D01*
X227626369Y-81785926D01*
X227721607Y-81690688D01*
X227769226Y-81595450D01*
X227816845Y-81404974D01*
X227816845Y-81262117D01*
X227769226Y-81071641D01*
X227721607Y-80976403D01*
X227626369Y-80881165D01*
X227483511Y-80833545D01*
X227388273Y-80833545D01*
X227245416Y-80881165D01*
X227197797Y-80928784D01*
X226340654Y-81166879D02*
X226340654Y-81833545D01*
X226578750Y-80785926D02*
X226816845Y-81500212D01*
X226197797Y-81500212D01*
X225626369Y-80833545D02*
X225531130Y-80833545D01*
X225435892Y-80881165D01*
X225388273Y-80928784D01*
X225340654Y-81024022D01*
X225293035Y-81214498D01*
X225293035Y-81452593D01*
X225340654Y-81643069D01*
X225388273Y-81738307D01*
X225435892Y-81785926D01*
X225531130Y-81833545D01*
X225626369Y-81833545D01*
X225721607Y-81785926D01*
X225769226Y-81738307D01*
X225816845Y-81643069D01*
X225864464Y-81452593D01*
X225864464Y-81214498D01*
X225816845Y-81024022D01*
X225769226Y-80928784D01*
X225721607Y-80881165D01*
X225626369Y-80833545D01*
X224959702Y-80833545D02*
X224340654Y-80833545D01*
X224673988Y-81214498D01*
X224531130Y-81214498D01*
X224435892Y-81262117D01*
X224388273Y-81309736D01*
X224340654Y-81404974D01*
X224340654Y-81643069D01*
X224388273Y-81738307D01*
X224435892Y-81785926D01*
X224531130Y-81833545D01*
X224816845Y-81833545D01*
X224912083Y-81785926D01*
X224959702Y-81738307D01*
X216697797Y-76818307D02*
X216745416Y-76865926D01*
X216888273Y-76913545D01*
X216983511Y-76913545D01*
X217126369Y-76865926D01*
X217221607Y-76770688D01*
X217269226Y-76675450D01*
X217316845Y-76484974D01*
X217316845Y-76342117D01*
X217269226Y-76151641D01*
X217221607Y-76056403D01*
X217126369Y-75961165D01*
X216983511Y-75913545D01*
X216888273Y-75913545D01*
X216745416Y-75961165D01*
X216697797Y-76008784D01*
X215840654Y-76246879D02*
X215840654Y-76913545D01*
X216078750Y-75865926D02*
X216316845Y-76580212D01*
X215697797Y-76580212D01*
X215126369Y-75913545D02*
X215031130Y-75913545D01*
X214935892Y-75961165D01*
X214888273Y-76008784D01*
X214840654Y-76104022D01*
X214793035Y-76294498D01*
X214793035Y-76532593D01*
X214840654Y-76723069D01*
X214888273Y-76818307D01*
X214935892Y-76865926D01*
X215031130Y-76913545D01*
X215126369Y-76913545D01*
X215221607Y-76865926D01*
X215269226Y-76818307D01*
X215316845Y-76723069D01*
X215364464Y-76532593D01*
X215364464Y-76294498D01*
X215316845Y-76104022D01*
X215269226Y-76008784D01*
X215221607Y-75961165D01*
X215126369Y-75913545D01*
X214412083Y-76008784D02*
X214364464Y-75961165D01*
X214269226Y-75913545D01*
X214031130Y-75913545D01*
X213935892Y-75961165D01*
X213888273Y-76008784D01*
X213840654Y-76104022D01*
X213840654Y-76199260D01*
X213888273Y-76342117D01*
X214459702Y-76913545D01*
X213840654Y-76913545D01*
X223512797Y-74958307D02*
X223560416Y-75005926D01*
X223703273Y-75053545D01*
X223798511Y-75053545D01*
X223941369Y-75005926D01*
X224036607Y-74910688D01*
X224084226Y-74815450D01*
X224131845Y-74624974D01*
X224131845Y-74482117D01*
X224084226Y-74291641D01*
X224036607Y-74196403D01*
X223941369Y-74101165D01*
X223798511Y-74053545D01*
X223703273Y-74053545D01*
X223560416Y-74101165D01*
X223512797Y-74148784D01*
X222655654Y-74386879D02*
X222655654Y-75053545D01*
X222893750Y-74005926D02*
X223131845Y-74720212D01*
X222512797Y-74720212D01*
X221941369Y-74053545D02*
X221846130Y-74053545D01*
X221750892Y-74101165D01*
X221703273Y-74148784D01*
X221655654Y-74244022D01*
X221608035Y-74434498D01*
X221608035Y-74672593D01*
X221655654Y-74863069D01*
X221703273Y-74958307D01*
X221750892Y-75005926D01*
X221846130Y-75053545D01*
X221941369Y-75053545D01*
X222036607Y-75005926D01*
X222084226Y-74958307D01*
X222131845Y-74863069D01*
X222179464Y-74672593D01*
X222179464Y-74434498D01*
X222131845Y-74244022D01*
X222084226Y-74148784D01*
X222036607Y-74101165D01*
X221941369Y-74053545D01*
X220988988Y-74053545D02*
X220893750Y-74053545D01*
X220798511Y-74101165D01*
X220750892Y-74148784D01*
X220703273Y-74244022D01*
X220655654Y-74434498D01*
X220655654Y-74672593D01*
X220703273Y-74863069D01*
X220750892Y-74958307D01*
X220798511Y-75005926D01*
X220893750Y-75053545D01*
X220988988Y-75053545D01*
X221084226Y-75005926D01*
X221131845Y-74958307D01*
X221179464Y-74863069D01*
X221227083Y-74672593D01*
X221227083Y-74434498D01*
X221179464Y-74244022D01*
X221131845Y-74148784D01*
X221084226Y-74101165D01*
X220988988Y-74053545D01*
X221512797Y-90558307D02*
X221560416Y-90605926D01*
X221703273Y-90653545D01*
X221798511Y-90653545D01*
X221941369Y-90605926D01*
X222036607Y-90510688D01*
X222084226Y-90415450D01*
X222131845Y-90224974D01*
X222131845Y-90082117D01*
X222084226Y-89891641D01*
X222036607Y-89796403D01*
X221941369Y-89701165D01*
X221798511Y-89653545D01*
X221703273Y-89653545D01*
X221560416Y-89701165D01*
X221512797Y-89748784D01*
X221179464Y-89653545D02*
X220560416Y-89653545D01*
X220893750Y-90034498D01*
X220750892Y-90034498D01*
X220655654Y-90082117D01*
X220608035Y-90129736D01*
X220560416Y-90224974D01*
X220560416Y-90463069D01*
X220608035Y-90558307D01*
X220655654Y-90605926D01*
X220750892Y-90653545D01*
X221036607Y-90653545D01*
X221131845Y-90605926D01*
X221179464Y-90558307D01*
X220084226Y-90653545D02*
X219893750Y-90653545D01*
X219798511Y-90605926D01*
X219750892Y-90558307D01*
X219655654Y-90415450D01*
X219608035Y-90224974D01*
X219608035Y-89844022D01*
X219655654Y-89748784D01*
X219703273Y-89701165D01*
X219798511Y-89653545D01*
X219988988Y-89653545D01*
X220084226Y-89701165D01*
X220131845Y-89748784D01*
X220179464Y-89844022D01*
X220179464Y-90082117D01*
X220131845Y-90177355D01*
X220084226Y-90224974D01*
X219988988Y-90272593D01*
X219798511Y-90272593D01*
X219703273Y-90224974D01*
X219655654Y-90177355D01*
X219608035Y-90082117D01*
X219131845Y-90653545D02*
X218941369Y-90653545D01*
X218846130Y-90605926D01*
X218798511Y-90558307D01*
X218703273Y-90415450D01*
X218655654Y-90224974D01*
X218655654Y-89844022D01*
X218703273Y-89748784D01*
X218750892Y-89701165D01*
X218846130Y-89653545D01*
X219036607Y-89653545D01*
X219131845Y-89701165D01*
X219179464Y-89748784D01*
X219227083Y-89844022D01*
X219227083Y-90082117D01*
X219179464Y-90177355D01*
X219131845Y-90224974D01*
X219036607Y-90272593D01*
X218846130Y-90272593D01*
X218750892Y-90224974D01*
X218703273Y-90177355D01*
X218655654Y-90082117D01*
X224485892Y-93112117D02*
X224533511Y-93064498D01*
X224581130Y-92921641D01*
X224581130Y-92826403D01*
X224533511Y-92683545D01*
X224438273Y-92588307D01*
X224343035Y-92540688D01*
X224152559Y-92493069D01*
X224009702Y-92493069D01*
X223819226Y-92540688D01*
X223723988Y-92588307D01*
X223628750Y-92683545D01*
X223581130Y-92826403D01*
X223581130Y-92921641D01*
X223628750Y-93064498D01*
X223676369Y-93112117D01*
X223581130Y-93445450D02*
X223581130Y-94064498D01*
X223962083Y-93731165D01*
X223962083Y-93874022D01*
X224009702Y-93969260D01*
X224057321Y-94016879D01*
X224152559Y-94064498D01*
X224390654Y-94064498D01*
X224485892Y-94016879D01*
X224533511Y-93969260D01*
X224581130Y-93874022D01*
X224581130Y-93588307D01*
X224533511Y-93493069D01*
X224485892Y-93445450D01*
X224581130Y-94540688D02*
X224581130Y-94731165D01*
X224533511Y-94826403D01*
X224485892Y-94874022D01*
X224343035Y-94969260D01*
X224152559Y-95016879D01*
X223771607Y-95016879D01*
X223676369Y-94969260D01*
X223628750Y-94921641D01*
X223581130Y-94826403D01*
X223581130Y-94635926D01*
X223628750Y-94540688D01*
X223676369Y-94493069D01*
X223771607Y-94445450D01*
X224009702Y-94445450D01*
X224104940Y-94493069D01*
X224152559Y-94540688D01*
X224200178Y-94635926D01*
X224200178Y-94826403D01*
X224152559Y-94921641D01*
X224104940Y-94969260D01*
X224009702Y-95016879D01*
X224009702Y-95588307D02*
X223962083Y-95493069D01*
X223914464Y-95445450D01*
X223819226Y-95397831D01*
X223771607Y-95397831D01*
X223676369Y-95445450D01*
X223628750Y-95493069D01*
X223581130Y-95588307D01*
X223581130Y-95778784D01*
X223628750Y-95874022D01*
X223676369Y-95921641D01*
X223771607Y-95969260D01*
X223819226Y-95969260D01*
X223914464Y-95921641D01*
X223962083Y-95874022D01*
X224009702Y-95778784D01*
X224009702Y-95588307D01*
X224057321Y-95493069D01*
X224104940Y-95445450D01*
X224200178Y-95397831D01*
X224390654Y-95397831D01*
X224485892Y-95445450D01*
X224533511Y-95493069D01*
X224581130Y-95588307D01*
X224581130Y-95778784D01*
X224533511Y-95874022D01*
X224485892Y-95921641D01*
X224390654Y-95969260D01*
X224200178Y-95969260D01*
X224104940Y-95921641D01*
X224057321Y-95874022D01*
X224009702Y-95778784D01*
X211797797Y-86518307D02*
X211845416Y-86565926D01*
X211988273Y-86613545D01*
X212083511Y-86613545D01*
X212226369Y-86565926D01*
X212321607Y-86470688D01*
X212369226Y-86375450D01*
X212416845Y-86184974D01*
X212416845Y-86042117D01*
X212369226Y-85851641D01*
X212321607Y-85756403D01*
X212226369Y-85661165D01*
X212083511Y-85613545D01*
X211988273Y-85613545D01*
X211845416Y-85661165D01*
X211797797Y-85708784D01*
X211464464Y-85613545D02*
X210845416Y-85613545D01*
X211178750Y-85994498D01*
X211035892Y-85994498D01*
X210940654Y-86042117D01*
X210893035Y-86089736D01*
X210845416Y-86184974D01*
X210845416Y-86423069D01*
X210893035Y-86518307D01*
X210940654Y-86565926D01*
X211035892Y-86613545D01*
X211321607Y-86613545D01*
X211416845Y-86565926D01*
X211464464Y-86518307D01*
X210369226Y-86613545D02*
X210178750Y-86613545D01*
X210083511Y-86565926D01*
X210035892Y-86518307D01*
X209940654Y-86375450D01*
X209893035Y-86184974D01*
X209893035Y-85804022D01*
X209940654Y-85708784D01*
X209988273Y-85661165D01*
X210083511Y-85613545D01*
X210273988Y-85613545D01*
X210369226Y-85661165D01*
X210416845Y-85708784D01*
X210464464Y-85804022D01*
X210464464Y-86042117D01*
X210416845Y-86137355D01*
X210369226Y-86184974D01*
X210273988Y-86232593D01*
X210083511Y-86232593D01*
X209988273Y-86184974D01*
X209940654Y-86137355D01*
X209893035Y-86042117D01*
X209559702Y-85613545D02*
X208893035Y-85613545D01*
X209321607Y-86613545D01*
X211871607Y-96350212D02*
X211823988Y-96397831D01*
X211776369Y-96540688D01*
X211776369Y-96635926D01*
X211823988Y-96778784D01*
X211919226Y-96874022D01*
X212014464Y-96921641D01*
X212204940Y-96969260D01*
X212347797Y-96969260D01*
X212538273Y-96921641D01*
X212633511Y-96874022D01*
X212728750Y-96778784D01*
X212776369Y-96635926D01*
X212776369Y-96540688D01*
X212728750Y-96397831D01*
X212681130Y-96350212D01*
X212776369Y-96016879D02*
X212776369Y-95397831D01*
X212395416Y-95731165D01*
X212395416Y-95588307D01*
X212347797Y-95493069D01*
X212300178Y-95445450D01*
X212204940Y-95397831D01*
X211966845Y-95397831D01*
X211871607Y-95445450D01*
X211823988Y-95493069D01*
X211776369Y-95588307D01*
X211776369Y-95874022D01*
X211823988Y-95969260D01*
X211871607Y-96016879D01*
X211776369Y-94921641D02*
X211776369Y-94731165D01*
X211823988Y-94635926D01*
X211871607Y-94588307D01*
X212014464Y-94493069D01*
X212204940Y-94445450D01*
X212585892Y-94445450D01*
X212681130Y-94493069D01*
X212728750Y-94540688D01*
X212776369Y-94635926D01*
X212776369Y-94826403D01*
X212728750Y-94921641D01*
X212681130Y-94969260D01*
X212585892Y-95016879D01*
X212347797Y-95016879D01*
X212252559Y-94969260D01*
X212204940Y-94921641D01*
X212157321Y-94826403D01*
X212157321Y-94635926D01*
X212204940Y-94540688D01*
X212252559Y-94493069D01*
X212347797Y-94445450D01*
X212776369Y-93588307D02*
X212776369Y-93778784D01*
X212728750Y-93874022D01*
X212681130Y-93921641D01*
X212538273Y-94016879D01*
X212347797Y-94064498D01*
X211966845Y-94064498D01*
X211871607Y-94016879D01*
X211823988Y-93969260D01*
X211776369Y-93874022D01*
X211776369Y-93683545D01*
X211823988Y-93588307D01*
X211871607Y-93540688D01*
X211966845Y-93493069D01*
X212204940Y-93493069D01*
X212300178Y-93540688D01*
X212347797Y-93588307D01*
X212395416Y-93683545D01*
X212395416Y-93874022D01*
X212347797Y-93969260D01*
X212300178Y-94016879D01*
X212204940Y-94064498D01*
X215265892Y-89197117D02*
X215313511Y-89149498D01*
X215361130Y-89006641D01*
X215361130Y-88911403D01*
X215313511Y-88768545D01*
X215218273Y-88673307D01*
X215123035Y-88625688D01*
X214932559Y-88578069D01*
X214789702Y-88578069D01*
X214599226Y-88625688D01*
X214503988Y-88673307D01*
X214408750Y-88768545D01*
X214361130Y-88911403D01*
X214361130Y-89006641D01*
X214408750Y-89149498D01*
X214456369Y-89197117D01*
X214361130Y-89530450D02*
X214361130Y-90149498D01*
X214742083Y-89816165D01*
X214742083Y-89959022D01*
X214789702Y-90054260D01*
X214837321Y-90101879D01*
X214932559Y-90149498D01*
X215170654Y-90149498D01*
X215265892Y-90101879D01*
X215313511Y-90054260D01*
X215361130Y-89959022D01*
X215361130Y-89673307D01*
X215313511Y-89578069D01*
X215265892Y-89530450D01*
X215361130Y-90625688D02*
X215361130Y-90816165D01*
X215313511Y-90911403D01*
X215265892Y-90959022D01*
X215123035Y-91054260D01*
X214932559Y-91101879D01*
X214551607Y-91101879D01*
X214456369Y-91054260D01*
X214408750Y-91006641D01*
X214361130Y-90911403D01*
X214361130Y-90720926D01*
X214408750Y-90625688D01*
X214456369Y-90578069D01*
X214551607Y-90530450D01*
X214789702Y-90530450D01*
X214884940Y-90578069D01*
X214932559Y-90625688D01*
X214980178Y-90720926D01*
X214980178Y-90911403D01*
X214932559Y-91006641D01*
X214884940Y-91054260D01*
X214789702Y-91101879D01*
X214361130Y-92006641D02*
X214361130Y-91530450D01*
X214837321Y-91482831D01*
X214789702Y-91530450D01*
X214742083Y-91625688D01*
X214742083Y-91863784D01*
X214789702Y-91959022D01*
X214837321Y-92006641D01*
X214932559Y-92054260D01*
X215170654Y-92054260D01*
X215265892Y-92006641D01*
X215313511Y-91959022D01*
X215361130Y-91863784D01*
X215361130Y-91625688D01*
X215313511Y-91530450D01*
X215265892Y-91482831D01*
X219097797Y-85488307D02*
X219145416Y-85535926D01*
X219288273Y-85583545D01*
X219383511Y-85583545D01*
X219526369Y-85535926D01*
X219621607Y-85440688D01*
X219669226Y-85345450D01*
X219716845Y-85154974D01*
X219716845Y-85012117D01*
X219669226Y-84821641D01*
X219621607Y-84726403D01*
X219526369Y-84631165D01*
X219383511Y-84583545D01*
X219288273Y-84583545D01*
X219145416Y-84631165D01*
X219097797Y-84678784D01*
X218764464Y-84583545D02*
X218145416Y-84583545D01*
X218478750Y-84964498D01*
X218335892Y-84964498D01*
X218240654Y-85012117D01*
X218193035Y-85059736D01*
X218145416Y-85154974D01*
X218145416Y-85393069D01*
X218193035Y-85488307D01*
X218240654Y-85535926D01*
X218335892Y-85583545D01*
X218621607Y-85583545D01*
X218716845Y-85535926D01*
X218764464Y-85488307D01*
X217669226Y-85583545D02*
X217478750Y-85583545D01*
X217383511Y-85535926D01*
X217335892Y-85488307D01*
X217240654Y-85345450D01*
X217193035Y-85154974D01*
X217193035Y-84774022D01*
X217240654Y-84678784D01*
X217288273Y-84631165D01*
X217383511Y-84583545D01*
X217573988Y-84583545D01*
X217669226Y-84631165D01*
X217716845Y-84678784D01*
X217764464Y-84774022D01*
X217764464Y-85012117D01*
X217716845Y-85107355D01*
X217669226Y-85154974D01*
X217573988Y-85202593D01*
X217383511Y-85202593D01*
X217288273Y-85154974D01*
X217240654Y-85107355D01*
X217193035Y-85012117D01*
X216859702Y-84583545D02*
X216240654Y-84583545D01*
X216573988Y-84964498D01*
X216431130Y-84964498D01*
X216335892Y-85012117D01*
X216288273Y-85059736D01*
X216240654Y-85154974D01*
X216240654Y-85393069D01*
X216288273Y-85488307D01*
X216335892Y-85535926D01*
X216431130Y-85583545D01*
X216716845Y-85583545D01*
X216812083Y-85535926D01*
X216859702Y-85488307D01*
X212882797Y-77418307D02*
X212930416Y-77465926D01*
X213073273Y-77513545D01*
X213168511Y-77513545D01*
X213311369Y-77465926D01*
X213406607Y-77370688D01*
X213454226Y-77275450D01*
X213501845Y-77084974D01*
X213501845Y-76942117D01*
X213454226Y-76751641D01*
X213406607Y-76656403D01*
X213311369Y-76561165D01*
X213168511Y-76513545D01*
X213073273Y-76513545D01*
X212930416Y-76561165D01*
X212882797Y-76608784D01*
X212549464Y-76513545D02*
X211930416Y-76513545D01*
X212263750Y-76894498D01*
X212120892Y-76894498D01*
X212025654Y-76942117D01*
X211978035Y-76989736D01*
X211930416Y-77084974D01*
X211930416Y-77323069D01*
X211978035Y-77418307D01*
X212025654Y-77465926D01*
X212120892Y-77513545D01*
X212406607Y-77513545D01*
X212501845Y-77465926D01*
X212549464Y-77418307D01*
X211454226Y-77513545D02*
X211263750Y-77513545D01*
X211168511Y-77465926D01*
X211120892Y-77418307D01*
X211025654Y-77275450D01*
X210978035Y-77084974D01*
X210978035Y-76704022D01*
X211025654Y-76608784D01*
X211073273Y-76561165D01*
X211168511Y-76513545D01*
X211358988Y-76513545D01*
X211454226Y-76561165D01*
X211501845Y-76608784D01*
X211549464Y-76704022D01*
X211549464Y-76942117D01*
X211501845Y-77037355D01*
X211454226Y-77084974D01*
X211358988Y-77132593D01*
X211168511Y-77132593D01*
X211073273Y-77084974D01*
X211025654Y-77037355D01*
X210978035Y-76942117D01*
X210597083Y-76608784D02*
X210549464Y-76561165D01*
X210454226Y-76513545D01*
X210216130Y-76513545D01*
X210120892Y-76561165D01*
X210073273Y-76608784D01*
X210025654Y-76704022D01*
X210025654Y-76799260D01*
X210073273Y-76942117D01*
X210644702Y-77513545D01*
X210025654Y-77513545D01*
X206797797Y-78858307D02*
X206845416Y-78905926D01*
X206988273Y-78953545D01*
X207083511Y-78953545D01*
X207226369Y-78905926D01*
X207321607Y-78810688D01*
X207369226Y-78715450D01*
X207416845Y-78524974D01*
X207416845Y-78382117D01*
X207369226Y-78191641D01*
X207321607Y-78096403D01*
X207226369Y-78001165D01*
X207083511Y-77953545D01*
X206988273Y-77953545D01*
X206845416Y-78001165D01*
X206797797Y-78048784D01*
X206464464Y-77953545D02*
X205845416Y-77953545D01*
X206178750Y-78334498D01*
X206035892Y-78334498D01*
X205940654Y-78382117D01*
X205893035Y-78429736D01*
X205845416Y-78524974D01*
X205845416Y-78763069D01*
X205893035Y-78858307D01*
X205940654Y-78905926D01*
X206035892Y-78953545D01*
X206321607Y-78953545D01*
X206416845Y-78905926D01*
X206464464Y-78858307D01*
X205369226Y-78953545D02*
X205178750Y-78953545D01*
X205083511Y-78905926D01*
X205035892Y-78858307D01*
X204940654Y-78715450D01*
X204893035Y-78524974D01*
X204893035Y-78144022D01*
X204940654Y-78048784D01*
X204988273Y-78001165D01*
X205083511Y-77953545D01*
X205273988Y-77953545D01*
X205369226Y-78001165D01*
X205416845Y-78048784D01*
X205464464Y-78144022D01*
X205464464Y-78382117D01*
X205416845Y-78477355D01*
X205369226Y-78524974D01*
X205273988Y-78572593D01*
X205083511Y-78572593D01*
X204988273Y-78524974D01*
X204940654Y-78477355D01*
X204893035Y-78382117D01*
X204273988Y-77953545D02*
X204178750Y-77953545D01*
X204083511Y-78001165D01*
X204035892Y-78048784D01*
X203988273Y-78144022D01*
X203940654Y-78334498D01*
X203940654Y-78572593D01*
X203988273Y-78763069D01*
X204035892Y-78858307D01*
X204083511Y-78905926D01*
X204178750Y-78953545D01*
X204273988Y-78953545D01*
X204369226Y-78905926D01*
X204416845Y-78858307D01*
X204464464Y-78763069D01*
X204512083Y-78572593D01*
X204512083Y-78334498D01*
X204464464Y-78144022D01*
X204416845Y-78048784D01*
X204369226Y-78001165D01*
X204273988Y-77953545D01*
X205785892Y-68912117D02*
X205833511Y-68864498D01*
X205881130Y-68721641D01*
X205881130Y-68626403D01*
X205833511Y-68483545D01*
X205738273Y-68388307D01*
X205643035Y-68340688D01*
X205452559Y-68293069D01*
X205309702Y-68293069D01*
X205119226Y-68340688D01*
X205023988Y-68388307D01*
X204928750Y-68483545D01*
X204881130Y-68626403D01*
X204881130Y-68721641D01*
X204928750Y-68864498D01*
X204976369Y-68912117D01*
X204881130Y-69245450D02*
X204881130Y-69864498D01*
X205262083Y-69531165D01*
X205262083Y-69674022D01*
X205309702Y-69769260D01*
X205357321Y-69816879D01*
X205452559Y-69864498D01*
X205690654Y-69864498D01*
X205785892Y-69816879D01*
X205833511Y-69769260D01*
X205881130Y-69674022D01*
X205881130Y-69388307D01*
X205833511Y-69293069D01*
X205785892Y-69245450D01*
X205309702Y-70435926D02*
X205262083Y-70340688D01*
X205214464Y-70293069D01*
X205119226Y-70245450D01*
X205071607Y-70245450D01*
X204976369Y-70293069D01*
X204928750Y-70340688D01*
X204881130Y-70435926D01*
X204881130Y-70626403D01*
X204928750Y-70721641D01*
X204976369Y-70769260D01*
X205071607Y-70816879D01*
X205119226Y-70816879D01*
X205214464Y-70769260D01*
X205262083Y-70721641D01*
X205309702Y-70626403D01*
X205309702Y-70435926D01*
X205357321Y-70340688D01*
X205404940Y-70293069D01*
X205500178Y-70245450D01*
X205690654Y-70245450D01*
X205785892Y-70293069D01*
X205833511Y-70340688D01*
X205881130Y-70435926D01*
X205881130Y-70626403D01*
X205833511Y-70721641D01*
X205785892Y-70769260D01*
X205690654Y-70816879D01*
X205500178Y-70816879D01*
X205404940Y-70769260D01*
X205357321Y-70721641D01*
X205309702Y-70626403D01*
X205881130Y-71293069D02*
X205881130Y-71483545D01*
X205833511Y-71578784D01*
X205785892Y-71626403D01*
X205643035Y-71721641D01*
X205452559Y-71769260D01*
X205071607Y-71769260D01*
X204976369Y-71721641D01*
X204928750Y-71674022D01*
X204881130Y-71578784D01*
X204881130Y-71388307D01*
X204928750Y-71293069D01*
X204976369Y-71245450D01*
X205071607Y-71197831D01*
X205309702Y-71197831D01*
X205404940Y-71245450D01*
X205452559Y-71293069D01*
X205500178Y-71388307D01*
X205500178Y-71578784D01*
X205452559Y-71674022D01*
X205404940Y-71721641D01*
X205309702Y-71769260D01*
X209265892Y-73412117D02*
X209313511Y-73364498D01*
X209361130Y-73221641D01*
X209361130Y-73126403D01*
X209313511Y-72983545D01*
X209218273Y-72888307D01*
X209123035Y-72840688D01*
X208932559Y-72793069D01*
X208789702Y-72793069D01*
X208599226Y-72840688D01*
X208503988Y-72888307D01*
X208408750Y-72983545D01*
X208361130Y-73126403D01*
X208361130Y-73221641D01*
X208408750Y-73364498D01*
X208456369Y-73412117D01*
X208361130Y-73745450D02*
X208361130Y-74364498D01*
X208742083Y-74031165D01*
X208742083Y-74174022D01*
X208789702Y-74269260D01*
X208837321Y-74316879D01*
X208932559Y-74364498D01*
X209170654Y-74364498D01*
X209265892Y-74316879D01*
X209313511Y-74269260D01*
X209361130Y-74174022D01*
X209361130Y-73888307D01*
X209313511Y-73793069D01*
X209265892Y-73745450D01*
X208789702Y-74935926D02*
X208742083Y-74840688D01*
X208694464Y-74793069D01*
X208599226Y-74745450D01*
X208551607Y-74745450D01*
X208456369Y-74793069D01*
X208408750Y-74840688D01*
X208361130Y-74935926D01*
X208361130Y-75126403D01*
X208408750Y-75221641D01*
X208456369Y-75269260D01*
X208551607Y-75316879D01*
X208599226Y-75316879D01*
X208694464Y-75269260D01*
X208742083Y-75221641D01*
X208789702Y-75126403D01*
X208789702Y-74935926D01*
X208837321Y-74840688D01*
X208884940Y-74793069D01*
X208980178Y-74745450D01*
X209170654Y-74745450D01*
X209265892Y-74793069D01*
X209313511Y-74840688D01*
X209361130Y-74935926D01*
X209361130Y-75126403D01*
X209313511Y-75221641D01*
X209265892Y-75269260D01*
X209170654Y-75316879D01*
X208980178Y-75316879D01*
X208884940Y-75269260D01*
X208837321Y-75221641D01*
X208789702Y-75126403D01*
X208789702Y-75888307D02*
X208742083Y-75793069D01*
X208694464Y-75745450D01*
X208599226Y-75697831D01*
X208551607Y-75697831D01*
X208456369Y-75745450D01*
X208408750Y-75793069D01*
X208361130Y-75888307D01*
X208361130Y-76078784D01*
X208408750Y-76174022D01*
X208456369Y-76221641D01*
X208551607Y-76269260D01*
X208599226Y-76269260D01*
X208694464Y-76221641D01*
X208742083Y-76174022D01*
X208789702Y-76078784D01*
X208789702Y-75888307D01*
X208837321Y-75793069D01*
X208884940Y-75745450D01*
X208980178Y-75697831D01*
X209170654Y-75697831D01*
X209265892Y-75745450D01*
X209313511Y-75793069D01*
X209361130Y-75888307D01*
X209361130Y-76078784D01*
X209313511Y-76174022D01*
X209265892Y-76221641D01*
X209170654Y-76269260D01*
X208980178Y-76269260D01*
X208884940Y-76221641D01*
X208837321Y-76174022D01*
X208789702Y-76078784D01*
X207397797Y-73388307D02*
X207445416Y-73435926D01*
X207588273Y-73483545D01*
X207683511Y-73483545D01*
X207826369Y-73435926D01*
X207921607Y-73340688D01*
X207969226Y-73245450D01*
X208016845Y-73054974D01*
X208016845Y-72912117D01*
X207969226Y-72721641D01*
X207921607Y-72626403D01*
X207826369Y-72531165D01*
X207683511Y-72483545D01*
X207588273Y-72483545D01*
X207445416Y-72531165D01*
X207397797Y-72578784D01*
X207064464Y-72483545D02*
X206445416Y-72483545D01*
X206778750Y-72864498D01*
X206635892Y-72864498D01*
X206540654Y-72912117D01*
X206493035Y-72959736D01*
X206445416Y-73054974D01*
X206445416Y-73293069D01*
X206493035Y-73388307D01*
X206540654Y-73435926D01*
X206635892Y-73483545D01*
X206921607Y-73483545D01*
X207016845Y-73435926D01*
X207064464Y-73388307D01*
X205873988Y-72912117D02*
X205969226Y-72864498D01*
X206016845Y-72816879D01*
X206064464Y-72721641D01*
X206064464Y-72674022D01*
X206016845Y-72578784D01*
X205969226Y-72531165D01*
X205873988Y-72483545D01*
X205683511Y-72483545D01*
X205588273Y-72531165D01*
X205540654Y-72578784D01*
X205493035Y-72674022D01*
X205493035Y-72721641D01*
X205540654Y-72816879D01*
X205588273Y-72864498D01*
X205683511Y-72912117D01*
X205873988Y-72912117D01*
X205969226Y-72959736D01*
X206016845Y-73007355D01*
X206064464Y-73102593D01*
X206064464Y-73293069D01*
X206016845Y-73388307D01*
X205969226Y-73435926D01*
X205873988Y-73483545D01*
X205683511Y-73483545D01*
X205588273Y-73435926D01*
X205540654Y-73388307D01*
X205493035Y-73293069D01*
X205493035Y-73102593D01*
X205540654Y-73007355D01*
X205588273Y-72959736D01*
X205683511Y-72912117D01*
X204635892Y-72483545D02*
X204826369Y-72483545D01*
X204921607Y-72531165D01*
X204969226Y-72578784D01*
X205064464Y-72721641D01*
X205112083Y-72912117D01*
X205112083Y-73293069D01*
X205064464Y-73388307D01*
X205016845Y-73435926D01*
X204921607Y-73483545D01*
X204731130Y-73483545D01*
X204635892Y-73435926D01*
X204588273Y-73388307D01*
X204540654Y-73293069D01*
X204540654Y-73054974D01*
X204588273Y-72959736D01*
X204635892Y-72912117D01*
X204731130Y-72864498D01*
X204921607Y-72864498D01*
X205016845Y-72912117D01*
X205064464Y-72959736D01*
X205112083Y-73054974D01*
X204865892Y-90312117D02*
X204913511Y-90264498D01*
X204961130Y-90121641D01*
X204961130Y-90026403D01*
X204913511Y-89883545D01*
X204818273Y-89788307D01*
X204723035Y-89740688D01*
X204532559Y-89693069D01*
X204389702Y-89693069D01*
X204199226Y-89740688D01*
X204103988Y-89788307D01*
X204008750Y-89883545D01*
X203961130Y-90026403D01*
X203961130Y-90121641D01*
X204008750Y-90264498D01*
X204056369Y-90312117D01*
X203961130Y-90645450D02*
X203961130Y-91264498D01*
X204342083Y-90931165D01*
X204342083Y-91074022D01*
X204389702Y-91169260D01*
X204437321Y-91216879D01*
X204532559Y-91264498D01*
X204770654Y-91264498D01*
X204865892Y-91216879D01*
X204913511Y-91169260D01*
X204961130Y-91074022D01*
X204961130Y-90788307D01*
X204913511Y-90693069D01*
X204865892Y-90645450D01*
X204389702Y-91835926D02*
X204342083Y-91740688D01*
X204294464Y-91693069D01*
X204199226Y-91645450D01*
X204151607Y-91645450D01*
X204056369Y-91693069D01*
X204008750Y-91740688D01*
X203961130Y-91835926D01*
X203961130Y-92026403D01*
X204008750Y-92121641D01*
X204056369Y-92169260D01*
X204151607Y-92216879D01*
X204199226Y-92216879D01*
X204294464Y-92169260D01*
X204342083Y-92121641D01*
X204389702Y-92026403D01*
X204389702Y-91835926D01*
X204437321Y-91740688D01*
X204484940Y-91693069D01*
X204580178Y-91645450D01*
X204770654Y-91645450D01*
X204865892Y-91693069D01*
X204913511Y-91740688D01*
X204961130Y-91835926D01*
X204961130Y-92026403D01*
X204913511Y-92121641D01*
X204865892Y-92169260D01*
X204770654Y-92216879D01*
X204580178Y-92216879D01*
X204484940Y-92169260D01*
X204437321Y-92121641D01*
X204389702Y-92026403D01*
X204294464Y-93074022D02*
X204961130Y-93074022D01*
X203913511Y-92835926D02*
X204627797Y-92597831D01*
X204627797Y-93216879D01*
X205465892Y-85912117D02*
X205513511Y-85864498D01*
X205561130Y-85721641D01*
X205561130Y-85626403D01*
X205513511Y-85483545D01*
X205418273Y-85388307D01*
X205323035Y-85340688D01*
X205132559Y-85293069D01*
X204989702Y-85293069D01*
X204799226Y-85340688D01*
X204703988Y-85388307D01*
X204608750Y-85483545D01*
X204561130Y-85626403D01*
X204561130Y-85721641D01*
X204608750Y-85864498D01*
X204656369Y-85912117D01*
X204561130Y-86245450D02*
X204561130Y-86864498D01*
X204942083Y-86531165D01*
X204942083Y-86674022D01*
X204989702Y-86769260D01*
X205037321Y-86816879D01*
X205132559Y-86864498D01*
X205370654Y-86864498D01*
X205465892Y-86816879D01*
X205513511Y-86769260D01*
X205561130Y-86674022D01*
X205561130Y-86388307D01*
X205513511Y-86293069D01*
X205465892Y-86245450D01*
X204989702Y-87435926D02*
X204942083Y-87340688D01*
X204894464Y-87293069D01*
X204799226Y-87245450D01*
X204751607Y-87245450D01*
X204656369Y-87293069D01*
X204608750Y-87340688D01*
X204561130Y-87435926D01*
X204561130Y-87626403D01*
X204608750Y-87721641D01*
X204656369Y-87769260D01*
X204751607Y-87816879D01*
X204799226Y-87816879D01*
X204894464Y-87769260D01*
X204942083Y-87721641D01*
X204989702Y-87626403D01*
X204989702Y-87435926D01*
X205037321Y-87340688D01*
X205084940Y-87293069D01*
X205180178Y-87245450D01*
X205370654Y-87245450D01*
X205465892Y-87293069D01*
X205513511Y-87340688D01*
X205561130Y-87435926D01*
X205561130Y-87626403D01*
X205513511Y-87721641D01*
X205465892Y-87769260D01*
X205370654Y-87816879D01*
X205180178Y-87816879D01*
X205084940Y-87769260D01*
X205037321Y-87721641D01*
X204989702Y-87626403D01*
X204561130Y-88150212D02*
X204561130Y-88769260D01*
X204942083Y-88435926D01*
X204942083Y-88578784D01*
X204989702Y-88674022D01*
X205037321Y-88721641D01*
X205132559Y-88769260D01*
X205370654Y-88769260D01*
X205465892Y-88721641D01*
X205513511Y-88674022D01*
X205561130Y-88578784D01*
X205561130Y-88293069D01*
X205513511Y-88197831D01*
X205465892Y-88150212D01*
X166435892Y-139312117D02*
X166483511Y-139264498D01*
X166531130Y-139121641D01*
X166531130Y-139026403D01*
X166483511Y-138883545D01*
X166388273Y-138788307D01*
X166293035Y-138740688D01*
X166102559Y-138693069D01*
X165959702Y-138693069D01*
X165769226Y-138740688D01*
X165673988Y-138788307D01*
X165578750Y-138883545D01*
X165531130Y-139026403D01*
X165531130Y-139121641D01*
X165578750Y-139264498D01*
X165626369Y-139312117D01*
X166531130Y-140264498D02*
X166531130Y-139693069D01*
X166531130Y-139978784D02*
X165531130Y-139978784D01*
X165673988Y-139883545D01*
X165769226Y-139788307D01*
X165816845Y-139693069D01*
X165531130Y-141121641D02*
X165531130Y-140931165D01*
X165578750Y-140835926D01*
X165626369Y-140788307D01*
X165769226Y-140693069D01*
X165959702Y-140645450D01*
X166340654Y-140645450D01*
X166435892Y-140693069D01*
X166483511Y-140740688D01*
X166531130Y-140835926D01*
X166531130Y-141026403D01*
X166483511Y-141121641D01*
X166435892Y-141169260D01*
X166340654Y-141216879D01*
X166102559Y-141216879D01*
X166007321Y-141169260D01*
X165959702Y-141121641D01*
X165912083Y-141026403D01*
X165912083Y-140835926D01*
X165959702Y-140740688D01*
X166007321Y-140693069D01*
X166102559Y-140645450D01*
X165531130Y-141550212D02*
X165531130Y-142169260D01*
X165912083Y-141835926D01*
X165912083Y-141978784D01*
X165959702Y-142074022D01*
X166007321Y-142121641D01*
X166102559Y-142169260D01*
X166340654Y-142169260D01*
X166435892Y-142121641D01*
X166483511Y-142074022D01*
X166531130Y-141978784D01*
X166531130Y-141693069D01*
X166483511Y-141597831D01*
X166435892Y-141550212D01*
X321481047Y-132719757D02*
X321528666Y-132767376D01*
X321671523Y-132814995D01*
X321766761Y-132814995D01*
X321909619Y-132767376D01*
X322004857Y-132672138D01*
X322052476Y-132576900D01*
X322100095Y-132386424D01*
X322100095Y-132243567D01*
X322052476Y-132053091D01*
X322004857Y-131957853D01*
X321909619Y-131862615D01*
X321766761Y-131814995D01*
X321671523Y-131814995D01*
X321528666Y-131862615D01*
X321481047Y-131910234D01*
X321147714Y-131814995D02*
X320528666Y-131814995D01*
X320862000Y-132195948D01*
X320719142Y-132195948D01*
X320623904Y-132243567D01*
X320576285Y-132291186D01*
X320528666Y-132386424D01*
X320528666Y-132624519D01*
X320576285Y-132719757D01*
X320623904Y-132767376D01*
X320719142Y-132814995D01*
X321004857Y-132814995D01*
X321100095Y-132767376D01*
X321147714Y-132719757D01*
X320195333Y-131814995D02*
X319576285Y-131814995D01*
X319909619Y-132195948D01*
X319766761Y-132195948D01*
X319671523Y-132243567D01*
X319623904Y-132291186D01*
X319576285Y-132386424D01*
X319576285Y-132624519D01*
X319623904Y-132719757D01*
X319671523Y-132767376D01*
X319766761Y-132814995D01*
X320052476Y-132814995D01*
X320147714Y-132767376D01*
X320195333Y-132719757D01*
X318671523Y-131814995D02*
X319147714Y-131814995D01*
X319195333Y-132291186D01*
X319147714Y-132243567D01*
X319052476Y-132195948D01*
X318814380Y-132195948D01*
X318719142Y-132243567D01*
X318671523Y-132291186D01*
X318623904Y-132386424D01*
X318623904Y-132624519D01*
X318671523Y-132719757D01*
X318719142Y-132767376D01*
X318814380Y-132814995D01*
X319052476Y-132814995D01*
X319147714Y-132767376D01*
X319195333Y-132719757D01*
X332714142Y-139163567D02*
X332761761Y-139115948D01*
X332809380Y-138973091D01*
X332809380Y-138877853D01*
X332761761Y-138734995D01*
X332666523Y-138639757D01*
X332571285Y-138592138D01*
X332380809Y-138544519D01*
X332237952Y-138544519D01*
X332047476Y-138592138D01*
X331952238Y-138639757D01*
X331857000Y-138734995D01*
X331809380Y-138877853D01*
X331809380Y-138973091D01*
X331857000Y-139115948D01*
X331904619Y-139163567D01*
X331809380Y-139496900D02*
X331809380Y-140115948D01*
X332190333Y-139782615D01*
X332190333Y-139925472D01*
X332237952Y-140020710D01*
X332285571Y-140068329D01*
X332380809Y-140115948D01*
X332618904Y-140115948D01*
X332714142Y-140068329D01*
X332761761Y-140020710D01*
X332809380Y-139925472D01*
X332809380Y-139639757D01*
X332761761Y-139544519D01*
X332714142Y-139496900D01*
X331809380Y-140449281D02*
X331809380Y-141068329D01*
X332190333Y-140734995D01*
X332190333Y-140877853D01*
X332237952Y-140973091D01*
X332285571Y-141020710D01*
X332380809Y-141068329D01*
X332618904Y-141068329D01*
X332714142Y-141020710D01*
X332761761Y-140973091D01*
X332809380Y-140877853D01*
X332809380Y-140592138D01*
X332761761Y-140496900D01*
X332714142Y-140449281D01*
X332142714Y-141925472D02*
X332809380Y-141925472D01*
X331761761Y-141687376D02*
X332476047Y-141449281D01*
X332476047Y-142068329D01*
X324794142Y-139183567D02*
X324841761Y-139135948D01*
X324889380Y-138993091D01*
X324889380Y-138897853D01*
X324841761Y-138754995D01*
X324746523Y-138659757D01*
X324651285Y-138612138D01*
X324460809Y-138564519D01*
X324317952Y-138564519D01*
X324127476Y-138612138D01*
X324032238Y-138659757D01*
X323937000Y-138754995D01*
X323889380Y-138897853D01*
X323889380Y-138993091D01*
X323937000Y-139135948D01*
X323984619Y-139183567D01*
X323889380Y-139516900D02*
X323889380Y-140135948D01*
X324270333Y-139802615D01*
X324270333Y-139945472D01*
X324317952Y-140040710D01*
X324365571Y-140088329D01*
X324460809Y-140135948D01*
X324698904Y-140135948D01*
X324794142Y-140088329D01*
X324841761Y-140040710D01*
X324889380Y-139945472D01*
X324889380Y-139659757D01*
X324841761Y-139564519D01*
X324794142Y-139516900D01*
X323889380Y-140469281D02*
X323889380Y-141088329D01*
X324270333Y-140754995D01*
X324270333Y-140897853D01*
X324317952Y-140993091D01*
X324365571Y-141040710D01*
X324460809Y-141088329D01*
X324698904Y-141088329D01*
X324794142Y-141040710D01*
X324841761Y-140993091D01*
X324889380Y-140897853D01*
X324889380Y-140612138D01*
X324841761Y-140516900D01*
X324794142Y-140469281D01*
X323889380Y-141421662D02*
X323889380Y-142040710D01*
X324270333Y-141707376D01*
X324270333Y-141850234D01*
X324317952Y-141945472D01*
X324365571Y-141993091D01*
X324460809Y-142040710D01*
X324698904Y-142040710D01*
X324794142Y-141993091D01*
X324841761Y-141945472D01*
X324889380Y-141850234D01*
X324889380Y-141564519D01*
X324841761Y-141469281D01*
X324794142Y-141421662D01*
X319899857Y-120221662D02*
X319852238Y-120269281D01*
X319804619Y-120412138D01*
X319804619Y-120507376D01*
X319852238Y-120650234D01*
X319947476Y-120745472D01*
X320042714Y-120793091D01*
X320233190Y-120840710D01*
X320376047Y-120840710D01*
X320566523Y-120793091D01*
X320661761Y-120745472D01*
X320757000Y-120650234D01*
X320804619Y-120507376D01*
X320804619Y-120412138D01*
X320757000Y-120269281D01*
X320709380Y-120221662D01*
X320804619Y-119888329D02*
X320804619Y-119269281D01*
X320423666Y-119602615D01*
X320423666Y-119459757D01*
X320376047Y-119364519D01*
X320328428Y-119316900D01*
X320233190Y-119269281D01*
X319995095Y-119269281D01*
X319899857Y-119316900D01*
X319852238Y-119364519D01*
X319804619Y-119459757D01*
X319804619Y-119745472D01*
X319852238Y-119840710D01*
X319899857Y-119888329D01*
X320804619Y-118935948D02*
X320804619Y-118316900D01*
X320423666Y-118650234D01*
X320423666Y-118507376D01*
X320376047Y-118412138D01*
X320328428Y-118364519D01*
X320233190Y-118316900D01*
X319995095Y-118316900D01*
X319899857Y-118364519D01*
X319852238Y-118412138D01*
X319804619Y-118507376D01*
X319804619Y-118793091D01*
X319852238Y-118888329D01*
X319899857Y-118935948D01*
X320709380Y-117935948D02*
X320757000Y-117888329D01*
X320804619Y-117793091D01*
X320804619Y-117554995D01*
X320757000Y-117459757D01*
X320709380Y-117412138D01*
X320614142Y-117364519D01*
X320518904Y-117364519D01*
X320376047Y-117412138D01*
X319804619Y-117983567D01*
X319804619Y-117364519D01*
X337671047Y-129329757D02*
X337718666Y-129377376D01*
X337861523Y-129424995D01*
X337956761Y-129424995D01*
X338099619Y-129377376D01*
X338194857Y-129282138D01*
X338242476Y-129186900D01*
X338290095Y-128996424D01*
X338290095Y-128853567D01*
X338242476Y-128663091D01*
X338194857Y-128567853D01*
X338099619Y-128472615D01*
X337956761Y-128424995D01*
X337861523Y-128424995D01*
X337718666Y-128472615D01*
X337671047Y-128520234D01*
X337337714Y-128424995D02*
X336718666Y-128424995D01*
X337052000Y-128805948D01*
X336909142Y-128805948D01*
X336813904Y-128853567D01*
X336766285Y-128901186D01*
X336718666Y-128996424D01*
X336718666Y-129234519D01*
X336766285Y-129329757D01*
X336813904Y-129377376D01*
X336909142Y-129424995D01*
X337194857Y-129424995D01*
X337290095Y-129377376D01*
X337337714Y-129329757D01*
X336385333Y-128424995D02*
X335766285Y-128424995D01*
X336099619Y-128805948D01*
X335956761Y-128805948D01*
X335861523Y-128853567D01*
X335813904Y-128901186D01*
X335766285Y-128996424D01*
X335766285Y-129234519D01*
X335813904Y-129329757D01*
X335861523Y-129377376D01*
X335956761Y-129424995D01*
X336242476Y-129424995D01*
X336337714Y-129377376D01*
X336385333Y-129329757D01*
X334813904Y-129424995D02*
X335385333Y-129424995D01*
X335099619Y-129424995D02*
X335099619Y-128424995D01*
X335194857Y-128567853D01*
X335290095Y-128663091D01*
X335385333Y-128710710D01*
X336789857Y-121051662D02*
X336742238Y-121099281D01*
X336694619Y-121242138D01*
X336694619Y-121337376D01*
X336742238Y-121480234D01*
X336837476Y-121575472D01*
X336932714Y-121623091D01*
X337123190Y-121670710D01*
X337266047Y-121670710D01*
X337456523Y-121623091D01*
X337551761Y-121575472D01*
X337647000Y-121480234D01*
X337694619Y-121337376D01*
X337694619Y-121242138D01*
X337647000Y-121099281D01*
X337599380Y-121051662D01*
X337694619Y-120718329D02*
X337694619Y-120099281D01*
X337313666Y-120432615D01*
X337313666Y-120289757D01*
X337266047Y-120194519D01*
X337218428Y-120146900D01*
X337123190Y-120099281D01*
X336885095Y-120099281D01*
X336789857Y-120146900D01*
X336742238Y-120194519D01*
X336694619Y-120289757D01*
X336694619Y-120575472D01*
X336742238Y-120670710D01*
X336789857Y-120718329D01*
X337694619Y-119765948D02*
X337694619Y-119146900D01*
X337313666Y-119480234D01*
X337313666Y-119337376D01*
X337266047Y-119242138D01*
X337218428Y-119194519D01*
X337123190Y-119146900D01*
X336885095Y-119146900D01*
X336789857Y-119194519D01*
X336742238Y-119242138D01*
X336694619Y-119337376D01*
X336694619Y-119623091D01*
X336742238Y-119718329D01*
X336789857Y-119765948D01*
X337694619Y-118527853D02*
X337694619Y-118432615D01*
X337647000Y-118337376D01*
X337599380Y-118289757D01*
X337504142Y-118242138D01*
X337313666Y-118194519D01*
X337075571Y-118194519D01*
X336885095Y-118242138D01*
X336789857Y-118289757D01*
X336742238Y-118337376D01*
X336694619Y-118432615D01*
X336694619Y-118527853D01*
X336742238Y-118623091D01*
X336789857Y-118670710D01*
X336885095Y-118718329D01*
X337075571Y-118765948D01*
X337313666Y-118765948D01*
X337504142Y-118718329D01*
X337599380Y-118670710D01*
X337647000Y-118623091D01*
X337694619Y-118527853D01*
X331334142Y-139213567D02*
X331381761Y-139165948D01*
X331429380Y-139023091D01*
X331429380Y-138927853D01*
X331381761Y-138784995D01*
X331286523Y-138689757D01*
X331191285Y-138642138D01*
X331000809Y-138594519D01*
X330857952Y-138594519D01*
X330667476Y-138642138D01*
X330572238Y-138689757D01*
X330477000Y-138784995D01*
X330429380Y-138927853D01*
X330429380Y-139023091D01*
X330477000Y-139165948D01*
X330524619Y-139213567D01*
X330429380Y-139546900D02*
X330429380Y-140165948D01*
X330810333Y-139832615D01*
X330810333Y-139975472D01*
X330857952Y-140070710D01*
X330905571Y-140118329D01*
X331000809Y-140165948D01*
X331238904Y-140165948D01*
X331334142Y-140118329D01*
X331381761Y-140070710D01*
X331429380Y-139975472D01*
X331429380Y-139689757D01*
X331381761Y-139594519D01*
X331334142Y-139546900D01*
X330524619Y-140546900D02*
X330477000Y-140594519D01*
X330429380Y-140689757D01*
X330429380Y-140927853D01*
X330477000Y-141023091D01*
X330524619Y-141070710D01*
X330619857Y-141118329D01*
X330715095Y-141118329D01*
X330857952Y-141070710D01*
X331429380Y-140499281D01*
X331429380Y-141118329D01*
X331429380Y-141594519D02*
X331429380Y-141784995D01*
X331381761Y-141880234D01*
X331334142Y-141927853D01*
X331191285Y-142023091D01*
X331000809Y-142070710D01*
X330619857Y-142070710D01*
X330524619Y-142023091D01*
X330477000Y-141975472D01*
X330429380Y-141880234D01*
X330429380Y-141689757D01*
X330477000Y-141594519D01*
X330524619Y-141546900D01*
X330619857Y-141499281D01*
X330857952Y-141499281D01*
X330953190Y-141546900D01*
X331000809Y-141594519D01*
X331048428Y-141689757D01*
X331048428Y-141880234D01*
X331000809Y-141975472D01*
X330953190Y-142023091D01*
X330857952Y-142070710D01*
X326824142Y-139163567D02*
X326871761Y-139115948D01*
X326919380Y-138973091D01*
X326919380Y-138877853D01*
X326871761Y-138734995D01*
X326776523Y-138639757D01*
X326681285Y-138592138D01*
X326490809Y-138544519D01*
X326347952Y-138544519D01*
X326157476Y-138592138D01*
X326062238Y-138639757D01*
X325967000Y-138734995D01*
X325919380Y-138877853D01*
X325919380Y-138973091D01*
X325967000Y-139115948D01*
X326014619Y-139163567D01*
X325919380Y-139496900D02*
X325919380Y-140115948D01*
X326300333Y-139782615D01*
X326300333Y-139925472D01*
X326347952Y-140020710D01*
X326395571Y-140068329D01*
X326490809Y-140115948D01*
X326728904Y-140115948D01*
X326824142Y-140068329D01*
X326871761Y-140020710D01*
X326919380Y-139925472D01*
X326919380Y-139639757D01*
X326871761Y-139544519D01*
X326824142Y-139496900D01*
X326014619Y-140496900D02*
X325967000Y-140544519D01*
X325919380Y-140639757D01*
X325919380Y-140877853D01*
X325967000Y-140973091D01*
X326014619Y-141020710D01*
X326109857Y-141068329D01*
X326205095Y-141068329D01*
X326347952Y-141020710D01*
X326919380Y-140449281D01*
X326919380Y-141068329D01*
X326347952Y-141639757D02*
X326300333Y-141544519D01*
X326252714Y-141496900D01*
X326157476Y-141449281D01*
X326109857Y-141449281D01*
X326014619Y-141496900D01*
X325967000Y-141544519D01*
X325919380Y-141639757D01*
X325919380Y-141830234D01*
X325967000Y-141925472D01*
X326014619Y-141973091D01*
X326109857Y-142020710D01*
X326157476Y-142020710D01*
X326252714Y-141973091D01*
X326300333Y-141925472D01*
X326347952Y-141830234D01*
X326347952Y-141639757D01*
X326395571Y-141544519D01*
X326443190Y-141496900D01*
X326538428Y-141449281D01*
X326728904Y-141449281D01*
X326824142Y-141496900D01*
X326871761Y-141544519D01*
X326919380Y-141639757D01*
X326919380Y-141830234D01*
X326871761Y-141925472D01*
X326824142Y-141973091D01*
X326728904Y-142020710D01*
X326538428Y-142020710D01*
X326443190Y-141973091D01*
X326395571Y-141925472D01*
X326347952Y-141830234D01*
X327916047Y-134899757D02*
X327963666Y-134947376D01*
X328106523Y-134994995D01*
X328201761Y-134994995D01*
X328344619Y-134947376D01*
X328439857Y-134852138D01*
X328487476Y-134756900D01*
X328535095Y-134566424D01*
X328535095Y-134423567D01*
X328487476Y-134233091D01*
X328439857Y-134137853D01*
X328344619Y-134042615D01*
X328201761Y-133994995D01*
X328106523Y-133994995D01*
X327963666Y-134042615D01*
X327916047Y-134090234D01*
X327582714Y-133994995D02*
X326963666Y-133994995D01*
X327297000Y-134375948D01*
X327154142Y-134375948D01*
X327058904Y-134423567D01*
X327011285Y-134471186D01*
X326963666Y-134566424D01*
X326963666Y-134804519D01*
X327011285Y-134899757D01*
X327058904Y-134947376D01*
X327154142Y-134994995D01*
X327439857Y-134994995D01*
X327535095Y-134947376D01*
X327582714Y-134899757D01*
X326582714Y-134090234D02*
X326535095Y-134042615D01*
X326439857Y-133994995D01*
X326201761Y-133994995D01*
X326106523Y-134042615D01*
X326058904Y-134090234D01*
X326011285Y-134185472D01*
X326011285Y-134280710D01*
X326058904Y-134423567D01*
X326630333Y-134994995D01*
X326011285Y-134994995D01*
X325677952Y-133994995D02*
X325011285Y-133994995D01*
X325439857Y-134994995D01*
X322331047Y-125779757D02*
X322378666Y-125827376D01*
X322521523Y-125874995D01*
X322616761Y-125874995D01*
X322759619Y-125827376D01*
X322854857Y-125732138D01*
X322902476Y-125636900D01*
X322950095Y-125446424D01*
X322950095Y-125303567D01*
X322902476Y-125113091D01*
X322854857Y-125017853D01*
X322759619Y-124922615D01*
X322616761Y-124874995D01*
X322521523Y-124874995D01*
X322378666Y-124922615D01*
X322331047Y-124970234D01*
X321997714Y-124874995D02*
X321378666Y-124874995D01*
X321712000Y-125255948D01*
X321569142Y-125255948D01*
X321473904Y-125303567D01*
X321426285Y-125351186D01*
X321378666Y-125446424D01*
X321378666Y-125684519D01*
X321426285Y-125779757D01*
X321473904Y-125827376D01*
X321569142Y-125874995D01*
X321854857Y-125874995D01*
X321950095Y-125827376D01*
X321997714Y-125779757D01*
X320997714Y-124970234D02*
X320950095Y-124922615D01*
X320854857Y-124874995D01*
X320616761Y-124874995D01*
X320521523Y-124922615D01*
X320473904Y-124970234D01*
X320426285Y-125065472D01*
X320426285Y-125160710D01*
X320473904Y-125303567D01*
X321045333Y-125874995D01*
X320426285Y-125874995D01*
X319569142Y-124874995D02*
X319759619Y-124874995D01*
X319854857Y-124922615D01*
X319902476Y-124970234D01*
X319997714Y-125113091D01*
X320045333Y-125303567D01*
X320045333Y-125684519D01*
X319997714Y-125779757D01*
X319950095Y-125827376D01*
X319854857Y-125874995D01*
X319664380Y-125874995D01*
X319569142Y-125827376D01*
X319521523Y-125779757D01*
X319473904Y-125684519D01*
X319473904Y-125446424D01*
X319521523Y-125351186D01*
X319569142Y-125303567D01*
X319664380Y-125255948D01*
X319854857Y-125255948D01*
X319950095Y-125303567D01*
X319997714Y-125351186D01*
X320045333Y-125446424D01*
X324844142Y-126033567D02*
X324891761Y-125985948D01*
X324939380Y-125843091D01*
X324939380Y-125747853D01*
X324891761Y-125604995D01*
X324796523Y-125509757D01*
X324701285Y-125462138D01*
X324510809Y-125414519D01*
X324367952Y-125414519D01*
X324177476Y-125462138D01*
X324082238Y-125509757D01*
X323987000Y-125604995D01*
X323939380Y-125747853D01*
X323939380Y-125843091D01*
X323987000Y-125985948D01*
X324034619Y-126033567D01*
X323939380Y-126366900D02*
X323939380Y-126985948D01*
X324320333Y-126652615D01*
X324320333Y-126795472D01*
X324367952Y-126890710D01*
X324415571Y-126938329D01*
X324510809Y-126985948D01*
X324748904Y-126985948D01*
X324844142Y-126938329D01*
X324891761Y-126890710D01*
X324939380Y-126795472D01*
X324939380Y-126509757D01*
X324891761Y-126414519D01*
X324844142Y-126366900D01*
X324034619Y-127366900D02*
X323987000Y-127414519D01*
X323939380Y-127509757D01*
X323939380Y-127747853D01*
X323987000Y-127843091D01*
X324034619Y-127890710D01*
X324129857Y-127938329D01*
X324225095Y-127938329D01*
X324367952Y-127890710D01*
X324939380Y-127319281D01*
X324939380Y-127938329D01*
X323939380Y-128843091D02*
X323939380Y-128366900D01*
X324415571Y-128319281D01*
X324367952Y-128366900D01*
X324320333Y-128462138D01*
X324320333Y-128700234D01*
X324367952Y-128795472D01*
X324415571Y-128843091D01*
X324510809Y-128890710D01*
X324748904Y-128890710D01*
X324844142Y-128843091D01*
X324891761Y-128795472D01*
X324939380Y-128700234D01*
X324939380Y-128462138D01*
X324891761Y-128366900D01*
X324844142Y-128319281D01*
X328854142Y-126103567D02*
X328901761Y-126055948D01*
X328949380Y-125913091D01*
X328949380Y-125817853D01*
X328901761Y-125674995D01*
X328806523Y-125579757D01*
X328711285Y-125532138D01*
X328520809Y-125484519D01*
X328377952Y-125484519D01*
X328187476Y-125532138D01*
X328092238Y-125579757D01*
X327997000Y-125674995D01*
X327949380Y-125817853D01*
X327949380Y-125913091D01*
X327997000Y-126055948D01*
X328044619Y-126103567D01*
X327949380Y-126436900D02*
X327949380Y-127055948D01*
X328330333Y-126722615D01*
X328330333Y-126865472D01*
X328377952Y-126960710D01*
X328425571Y-127008329D01*
X328520809Y-127055948D01*
X328758904Y-127055948D01*
X328854142Y-127008329D01*
X328901761Y-126960710D01*
X328949380Y-126865472D01*
X328949380Y-126579757D01*
X328901761Y-126484519D01*
X328854142Y-126436900D01*
X328044619Y-127436900D02*
X327997000Y-127484519D01*
X327949380Y-127579757D01*
X327949380Y-127817853D01*
X327997000Y-127913091D01*
X328044619Y-127960710D01*
X328139857Y-128008329D01*
X328235095Y-128008329D01*
X328377952Y-127960710D01*
X328949380Y-127389281D01*
X328949380Y-128008329D01*
X328282714Y-128865472D02*
X328949380Y-128865472D01*
X327901761Y-128627376D02*
X328616047Y-128389281D01*
X328616047Y-129008329D01*
X332814142Y-126053567D02*
X332861761Y-126005948D01*
X332909380Y-125863091D01*
X332909380Y-125767853D01*
X332861761Y-125624995D01*
X332766523Y-125529757D01*
X332671285Y-125482138D01*
X332480809Y-125434519D01*
X332337952Y-125434519D01*
X332147476Y-125482138D01*
X332052238Y-125529757D01*
X331957000Y-125624995D01*
X331909380Y-125767853D01*
X331909380Y-125863091D01*
X331957000Y-126005948D01*
X332004619Y-126053567D01*
X331909380Y-126386900D02*
X331909380Y-127005948D01*
X332290333Y-126672615D01*
X332290333Y-126815472D01*
X332337952Y-126910710D01*
X332385571Y-126958329D01*
X332480809Y-127005948D01*
X332718904Y-127005948D01*
X332814142Y-126958329D01*
X332861761Y-126910710D01*
X332909380Y-126815472D01*
X332909380Y-126529757D01*
X332861761Y-126434519D01*
X332814142Y-126386900D01*
X332004619Y-127386900D02*
X331957000Y-127434519D01*
X331909380Y-127529757D01*
X331909380Y-127767853D01*
X331957000Y-127863091D01*
X332004619Y-127910710D01*
X332099857Y-127958329D01*
X332195095Y-127958329D01*
X332337952Y-127910710D01*
X332909380Y-127339281D01*
X332909380Y-127958329D01*
X331909380Y-128291662D02*
X331909380Y-128910710D01*
X332290333Y-128577376D01*
X332290333Y-128720234D01*
X332337952Y-128815472D01*
X332385571Y-128863091D01*
X332480809Y-128910710D01*
X332718904Y-128910710D01*
X332814142Y-128863091D01*
X332861761Y-128815472D01*
X332909380Y-128720234D01*
X332909380Y-128434519D01*
X332861761Y-128339281D01*
X332814142Y-128291662D01*
X330834142Y-126053567D02*
X330881761Y-126005948D01*
X330929380Y-125863091D01*
X330929380Y-125767853D01*
X330881761Y-125624995D01*
X330786523Y-125529757D01*
X330691285Y-125482138D01*
X330500809Y-125434519D01*
X330357952Y-125434519D01*
X330167476Y-125482138D01*
X330072238Y-125529757D01*
X329977000Y-125624995D01*
X329929380Y-125767853D01*
X329929380Y-125863091D01*
X329977000Y-126005948D01*
X330024619Y-126053567D01*
X329929380Y-126386900D02*
X329929380Y-127005948D01*
X330310333Y-126672615D01*
X330310333Y-126815472D01*
X330357952Y-126910710D01*
X330405571Y-126958329D01*
X330500809Y-127005948D01*
X330738904Y-127005948D01*
X330834142Y-126958329D01*
X330881761Y-126910710D01*
X330929380Y-126815472D01*
X330929380Y-126529757D01*
X330881761Y-126434519D01*
X330834142Y-126386900D01*
X330024619Y-127386900D02*
X329977000Y-127434519D01*
X329929380Y-127529757D01*
X329929380Y-127767853D01*
X329977000Y-127863091D01*
X330024619Y-127910710D01*
X330119857Y-127958329D01*
X330215095Y-127958329D01*
X330357952Y-127910710D01*
X330929380Y-127339281D01*
X330929380Y-127958329D01*
X330024619Y-128339281D02*
X329977000Y-128386900D01*
X329929380Y-128482138D01*
X329929380Y-128720234D01*
X329977000Y-128815472D01*
X330024619Y-128863091D01*
X330119857Y-128910710D01*
X330215095Y-128910710D01*
X330357952Y-128863091D01*
X330929380Y-128291662D01*
X330929380Y-128910710D01*
X326854142Y-126053567D02*
X326901761Y-126005948D01*
X326949380Y-125863091D01*
X326949380Y-125767853D01*
X326901761Y-125624995D01*
X326806523Y-125529757D01*
X326711285Y-125482138D01*
X326520809Y-125434519D01*
X326377952Y-125434519D01*
X326187476Y-125482138D01*
X326092238Y-125529757D01*
X325997000Y-125624995D01*
X325949380Y-125767853D01*
X325949380Y-125863091D01*
X325997000Y-126005948D01*
X326044619Y-126053567D01*
X325949380Y-126386900D02*
X325949380Y-127005948D01*
X326330333Y-126672615D01*
X326330333Y-126815472D01*
X326377952Y-126910710D01*
X326425571Y-126958329D01*
X326520809Y-127005948D01*
X326758904Y-127005948D01*
X326854142Y-126958329D01*
X326901761Y-126910710D01*
X326949380Y-126815472D01*
X326949380Y-126529757D01*
X326901761Y-126434519D01*
X326854142Y-126386900D01*
X326044619Y-127386900D02*
X325997000Y-127434519D01*
X325949380Y-127529757D01*
X325949380Y-127767853D01*
X325997000Y-127863091D01*
X326044619Y-127910710D01*
X326139857Y-127958329D01*
X326235095Y-127958329D01*
X326377952Y-127910710D01*
X326949380Y-127339281D01*
X326949380Y-127958329D01*
X326949380Y-128910710D02*
X326949380Y-128339281D01*
X326949380Y-128624995D02*
X325949380Y-128624995D01*
X326092238Y-128529757D01*
X326187476Y-128434519D01*
X326235095Y-128339281D01*
X339796047Y-126979757D02*
X339843666Y-127027376D01*
X339986523Y-127074995D01*
X340081761Y-127074995D01*
X340224619Y-127027376D01*
X340319857Y-126932138D01*
X340367476Y-126836900D01*
X340415095Y-126646424D01*
X340415095Y-126503567D01*
X340367476Y-126313091D01*
X340319857Y-126217853D01*
X340224619Y-126122615D01*
X340081761Y-126074995D01*
X339986523Y-126074995D01*
X339843666Y-126122615D01*
X339796047Y-126170234D01*
X339462714Y-126074995D02*
X338843666Y-126074995D01*
X339177000Y-126455948D01*
X339034142Y-126455948D01*
X338938904Y-126503567D01*
X338891285Y-126551186D01*
X338843666Y-126646424D01*
X338843666Y-126884519D01*
X338891285Y-126979757D01*
X338938904Y-127027376D01*
X339034142Y-127074995D01*
X339319857Y-127074995D01*
X339415095Y-127027376D01*
X339462714Y-126979757D01*
X338462714Y-126170234D02*
X338415095Y-126122615D01*
X338319857Y-126074995D01*
X338081761Y-126074995D01*
X337986523Y-126122615D01*
X337938904Y-126170234D01*
X337891285Y-126265472D01*
X337891285Y-126360710D01*
X337938904Y-126503567D01*
X338510333Y-127074995D01*
X337891285Y-127074995D01*
X337272238Y-126074995D02*
X337177000Y-126074995D01*
X337081761Y-126122615D01*
X337034142Y-126170234D01*
X336986523Y-126265472D01*
X336938904Y-126455948D01*
X336938904Y-126694043D01*
X336986523Y-126884519D01*
X337034142Y-126979757D01*
X337081761Y-127027376D01*
X337177000Y-127074995D01*
X337272238Y-127074995D01*
X337367476Y-127027376D01*
X337415095Y-126979757D01*
X337462714Y-126884519D01*
X337510333Y-126694043D01*
X337510333Y-126455948D01*
X337462714Y-126265472D01*
X337415095Y-126170234D01*
X337367476Y-126122615D01*
X337272238Y-126074995D01*
X336906047Y-134849757D02*
X336953666Y-134897376D01*
X337096523Y-134944995D01*
X337191761Y-134944995D01*
X337334619Y-134897376D01*
X337429857Y-134802138D01*
X337477476Y-134706900D01*
X337525095Y-134516424D01*
X337525095Y-134373567D01*
X337477476Y-134183091D01*
X337429857Y-134087853D01*
X337334619Y-133992615D01*
X337191761Y-133944995D01*
X337096523Y-133944995D01*
X336953666Y-133992615D01*
X336906047Y-134040234D01*
X336572714Y-133944995D02*
X335953666Y-133944995D01*
X336287000Y-134325948D01*
X336144142Y-134325948D01*
X336048904Y-134373567D01*
X336001285Y-134421186D01*
X335953666Y-134516424D01*
X335953666Y-134754519D01*
X336001285Y-134849757D01*
X336048904Y-134897376D01*
X336144142Y-134944995D01*
X336429857Y-134944995D01*
X336525095Y-134897376D01*
X336572714Y-134849757D01*
X335001285Y-134944995D02*
X335572714Y-134944995D01*
X335287000Y-134944995D02*
X335287000Y-133944995D01*
X335382238Y-134087853D01*
X335477476Y-134183091D01*
X335572714Y-134230710D01*
X334525095Y-134944995D02*
X334334619Y-134944995D01*
X334239380Y-134897376D01*
X334191761Y-134849757D01*
X334096523Y-134706900D01*
X334048904Y-134516424D01*
X334048904Y-134135472D01*
X334096523Y-134040234D01*
X334144142Y-133992615D01*
X334239380Y-133944995D01*
X334429857Y-133944995D01*
X334525095Y-133992615D01*
X334572714Y-134040234D01*
X334620333Y-134135472D01*
X334620333Y-134373567D01*
X334572714Y-134468805D01*
X334525095Y-134516424D01*
X334429857Y-134564043D01*
X334239380Y-134564043D01*
X334144142Y-134516424D01*
X334096523Y-134468805D01*
X334048904Y-134373567D01*
X322229857Y-120171662D02*
X322182238Y-120219281D01*
X322134619Y-120362138D01*
X322134619Y-120457376D01*
X322182238Y-120600234D01*
X322277476Y-120695472D01*
X322372714Y-120743091D01*
X322563190Y-120790710D01*
X322706047Y-120790710D01*
X322896523Y-120743091D01*
X322991761Y-120695472D01*
X323087000Y-120600234D01*
X323134619Y-120457376D01*
X323134619Y-120362138D01*
X323087000Y-120219281D01*
X323039380Y-120171662D01*
X323134619Y-119838329D02*
X323134619Y-119219281D01*
X322753666Y-119552615D01*
X322753666Y-119409757D01*
X322706047Y-119314519D01*
X322658428Y-119266900D01*
X322563190Y-119219281D01*
X322325095Y-119219281D01*
X322229857Y-119266900D01*
X322182238Y-119314519D01*
X322134619Y-119409757D01*
X322134619Y-119695472D01*
X322182238Y-119790710D01*
X322229857Y-119838329D01*
X322134619Y-118266900D02*
X322134619Y-118838329D01*
X322134619Y-118552615D02*
X323134619Y-118552615D01*
X322991761Y-118647853D01*
X322896523Y-118743091D01*
X322848904Y-118838329D01*
X322706047Y-117695472D02*
X322753666Y-117790710D01*
X322801285Y-117838329D01*
X322896523Y-117885948D01*
X322944142Y-117885948D01*
X323039380Y-117838329D01*
X323087000Y-117790710D01*
X323134619Y-117695472D01*
X323134619Y-117504995D01*
X323087000Y-117409757D01*
X323039380Y-117362138D01*
X322944142Y-117314519D01*
X322896523Y-117314519D01*
X322801285Y-117362138D01*
X322753666Y-117409757D01*
X322706047Y-117504995D01*
X322706047Y-117695472D01*
X322658428Y-117790710D01*
X322610809Y-117838329D01*
X322515571Y-117885948D01*
X322325095Y-117885948D01*
X322229857Y-117838329D01*
X322182238Y-117790710D01*
X322134619Y-117695472D01*
X322134619Y-117504995D01*
X322182238Y-117409757D01*
X322229857Y-117362138D01*
X322325095Y-117314519D01*
X322515571Y-117314519D01*
X322610809Y-117362138D01*
X322658428Y-117409757D01*
X322706047Y-117504995D01*
X335229857Y-120251662D02*
X335182238Y-120299281D01*
X335134619Y-120442138D01*
X335134619Y-120537376D01*
X335182238Y-120680234D01*
X335277476Y-120775472D01*
X335372714Y-120823091D01*
X335563190Y-120870710D01*
X335706047Y-120870710D01*
X335896523Y-120823091D01*
X335991761Y-120775472D01*
X336087000Y-120680234D01*
X336134619Y-120537376D01*
X336134619Y-120442138D01*
X336087000Y-120299281D01*
X336039380Y-120251662D01*
X336134619Y-119918329D02*
X336134619Y-119299281D01*
X335753666Y-119632615D01*
X335753666Y-119489757D01*
X335706047Y-119394519D01*
X335658428Y-119346900D01*
X335563190Y-119299281D01*
X335325095Y-119299281D01*
X335229857Y-119346900D01*
X335182238Y-119394519D01*
X335134619Y-119489757D01*
X335134619Y-119775472D01*
X335182238Y-119870710D01*
X335229857Y-119918329D01*
X335134619Y-118346900D02*
X335134619Y-118918329D01*
X335134619Y-118632615D02*
X336134619Y-118632615D01*
X335991761Y-118727853D01*
X335896523Y-118823091D01*
X335848904Y-118918329D01*
X336134619Y-118013567D02*
X336134619Y-117346900D01*
X335134619Y-117775472D01*
X321794142Y-135903567D02*
X321841761Y-135855948D01*
X321889380Y-135713091D01*
X321889380Y-135617853D01*
X321841761Y-135474995D01*
X321746523Y-135379757D01*
X321651285Y-135332138D01*
X321460809Y-135284519D01*
X321317952Y-135284519D01*
X321127476Y-135332138D01*
X321032238Y-135379757D01*
X320937000Y-135474995D01*
X320889380Y-135617853D01*
X320889380Y-135713091D01*
X320937000Y-135855948D01*
X320984619Y-135903567D01*
X320889380Y-136236900D02*
X320889380Y-136855948D01*
X321270333Y-136522615D01*
X321270333Y-136665472D01*
X321317952Y-136760710D01*
X321365571Y-136808329D01*
X321460809Y-136855948D01*
X321698904Y-136855948D01*
X321794142Y-136808329D01*
X321841761Y-136760710D01*
X321889380Y-136665472D01*
X321889380Y-136379757D01*
X321841761Y-136284519D01*
X321794142Y-136236900D01*
X321889380Y-137808329D02*
X321889380Y-137236900D01*
X321889380Y-137522615D02*
X320889380Y-137522615D01*
X321032238Y-137427376D01*
X321127476Y-137332138D01*
X321175095Y-137236900D01*
X320889380Y-138665472D02*
X320889380Y-138474995D01*
X320937000Y-138379757D01*
X320984619Y-138332138D01*
X321127476Y-138236900D01*
X321317952Y-138189281D01*
X321698904Y-138189281D01*
X321794142Y-138236900D01*
X321841761Y-138284519D01*
X321889380Y-138379757D01*
X321889380Y-138570234D01*
X321841761Y-138665472D01*
X321794142Y-138713091D01*
X321698904Y-138760710D01*
X321460809Y-138760710D01*
X321365571Y-138713091D01*
X321317952Y-138665472D01*
X321270333Y-138570234D01*
X321270333Y-138379757D01*
X321317952Y-138284519D01*
X321365571Y-138236900D01*
X321460809Y-138189281D01*
X328139857Y-120151662D02*
X328092238Y-120199281D01*
X328044619Y-120342138D01*
X328044619Y-120437376D01*
X328092238Y-120580234D01*
X328187476Y-120675472D01*
X328282714Y-120723091D01*
X328473190Y-120770710D01*
X328616047Y-120770710D01*
X328806523Y-120723091D01*
X328901761Y-120675472D01*
X328997000Y-120580234D01*
X329044619Y-120437376D01*
X329044619Y-120342138D01*
X328997000Y-120199281D01*
X328949380Y-120151662D01*
X329044619Y-119818329D02*
X329044619Y-119199281D01*
X328663666Y-119532615D01*
X328663666Y-119389757D01*
X328616047Y-119294519D01*
X328568428Y-119246900D01*
X328473190Y-119199281D01*
X328235095Y-119199281D01*
X328139857Y-119246900D01*
X328092238Y-119294519D01*
X328044619Y-119389757D01*
X328044619Y-119675472D01*
X328092238Y-119770710D01*
X328139857Y-119818329D01*
X328044619Y-118246900D02*
X328044619Y-118818329D01*
X328044619Y-118532615D02*
X329044619Y-118532615D01*
X328901761Y-118627853D01*
X328806523Y-118723091D01*
X328758904Y-118818329D01*
X329044619Y-117342138D02*
X329044619Y-117818329D01*
X328568428Y-117865948D01*
X328616047Y-117818329D01*
X328663666Y-117723091D01*
X328663666Y-117484995D01*
X328616047Y-117389757D01*
X328568428Y-117342138D01*
X328473190Y-117294519D01*
X328235095Y-117294519D01*
X328139857Y-117342138D01*
X328092238Y-117389757D01*
X328044619Y-117484995D01*
X328044619Y-117723091D01*
X328092238Y-117818329D01*
X328139857Y-117865948D01*
X324259857Y-120551662D02*
X324212238Y-120599281D01*
X324164619Y-120742138D01*
X324164619Y-120837376D01*
X324212238Y-120980234D01*
X324307476Y-121075472D01*
X324402714Y-121123091D01*
X324593190Y-121170710D01*
X324736047Y-121170710D01*
X324926523Y-121123091D01*
X325021761Y-121075472D01*
X325117000Y-120980234D01*
X325164619Y-120837376D01*
X325164619Y-120742138D01*
X325117000Y-120599281D01*
X325069380Y-120551662D01*
X325164619Y-120218329D02*
X325164619Y-119599281D01*
X324783666Y-119932615D01*
X324783666Y-119789757D01*
X324736047Y-119694519D01*
X324688428Y-119646900D01*
X324593190Y-119599281D01*
X324355095Y-119599281D01*
X324259857Y-119646900D01*
X324212238Y-119694519D01*
X324164619Y-119789757D01*
X324164619Y-120075472D01*
X324212238Y-120170710D01*
X324259857Y-120218329D01*
X324164619Y-118646900D02*
X324164619Y-119218329D01*
X324164619Y-118932615D02*
X325164619Y-118932615D01*
X325021761Y-119027853D01*
X324926523Y-119123091D01*
X324878904Y-119218329D01*
X324831285Y-117789757D02*
X324164619Y-117789757D01*
X325212238Y-118027853D02*
X324497952Y-118265948D01*
X324497952Y-117646900D01*
X326189857Y-120621662D02*
X326142238Y-120669281D01*
X326094619Y-120812138D01*
X326094619Y-120907376D01*
X326142238Y-121050234D01*
X326237476Y-121145472D01*
X326332714Y-121193091D01*
X326523190Y-121240710D01*
X326666047Y-121240710D01*
X326856523Y-121193091D01*
X326951761Y-121145472D01*
X327047000Y-121050234D01*
X327094619Y-120907376D01*
X327094619Y-120812138D01*
X327047000Y-120669281D01*
X326999380Y-120621662D01*
X327094619Y-120288329D02*
X327094619Y-119669281D01*
X326713666Y-120002615D01*
X326713666Y-119859757D01*
X326666047Y-119764519D01*
X326618428Y-119716900D01*
X326523190Y-119669281D01*
X326285095Y-119669281D01*
X326189857Y-119716900D01*
X326142238Y-119764519D01*
X326094619Y-119859757D01*
X326094619Y-120145472D01*
X326142238Y-120240710D01*
X326189857Y-120288329D01*
X326094619Y-118716900D02*
X326094619Y-119288329D01*
X326094619Y-119002615D02*
X327094619Y-119002615D01*
X326951761Y-119097853D01*
X326856523Y-119193091D01*
X326808904Y-119288329D01*
X327094619Y-118383567D02*
X327094619Y-117764519D01*
X326713666Y-118097853D01*
X326713666Y-117954995D01*
X326666047Y-117859757D01*
X326618428Y-117812138D01*
X326523190Y-117764519D01*
X326285095Y-117764519D01*
X326189857Y-117812138D01*
X326142238Y-117859757D01*
X326094619Y-117954995D01*
X326094619Y-118240710D01*
X326142238Y-118335948D01*
X326189857Y-118383567D01*
X329404142Y-139083567D02*
X329451761Y-139035948D01*
X329499380Y-138893091D01*
X329499380Y-138797853D01*
X329451761Y-138654995D01*
X329356523Y-138559757D01*
X329261285Y-138512138D01*
X329070809Y-138464519D01*
X328927952Y-138464519D01*
X328737476Y-138512138D01*
X328642238Y-138559757D01*
X328547000Y-138654995D01*
X328499380Y-138797853D01*
X328499380Y-138893091D01*
X328547000Y-139035948D01*
X328594619Y-139083567D01*
X328499380Y-139416900D02*
X328499380Y-140035948D01*
X328880333Y-139702615D01*
X328880333Y-139845472D01*
X328927952Y-139940710D01*
X328975571Y-139988329D01*
X329070809Y-140035948D01*
X329308904Y-140035948D01*
X329404142Y-139988329D01*
X329451761Y-139940710D01*
X329499380Y-139845472D01*
X329499380Y-139559757D01*
X329451761Y-139464519D01*
X329404142Y-139416900D01*
X329499380Y-140988329D02*
X329499380Y-140416900D01*
X329499380Y-140702615D02*
X328499380Y-140702615D01*
X328642238Y-140607376D01*
X328737476Y-140512138D01*
X328785095Y-140416900D01*
X328594619Y-141369281D02*
X328547000Y-141416900D01*
X328499380Y-141512138D01*
X328499380Y-141750234D01*
X328547000Y-141845472D01*
X328594619Y-141893091D01*
X328689857Y-141940710D01*
X328785095Y-141940710D01*
X328927952Y-141893091D01*
X329499380Y-141321662D01*
X329499380Y-141940710D01*
X330099857Y-120551662D02*
X330052238Y-120599281D01*
X330004619Y-120742138D01*
X330004619Y-120837376D01*
X330052238Y-120980234D01*
X330147476Y-121075472D01*
X330242714Y-121123091D01*
X330433190Y-121170710D01*
X330576047Y-121170710D01*
X330766523Y-121123091D01*
X330861761Y-121075472D01*
X330957000Y-120980234D01*
X331004619Y-120837376D01*
X331004619Y-120742138D01*
X330957000Y-120599281D01*
X330909380Y-120551662D01*
X331004619Y-120218329D02*
X331004619Y-119599281D01*
X330623666Y-119932615D01*
X330623666Y-119789757D01*
X330576047Y-119694519D01*
X330528428Y-119646900D01*
X330433190Y-119599281D01*
X330195095Y-119599281D01*
X330099857Y-119646900D01*
X330052238Y-119694519D01*
X330004619Y-119789757D01*
X330004619Y-120075472D01*
X330052238Y-120170710D01*
X330099857Y-120218329D01*
X330004619Y-118646900D02*
X330004619Y-119218329D01*
X330004619Y-118932615D02*
X331004619Y-118932615D01*
X330861761Y-119027853D01*
X330766523Y-119123091D01*
X330718904Y-119218329D01*
X330004619Y-117694519D02*
X330004619Y-118265948D01*
X330004619Y-117980234D02*
X331004619Y-117980234D01*
X330861761Y-118075472D01*
X330766523Y-118170710D01*
X330718904Y-118265948D01*
X335824142Y-138763567D02*
X335871761Y-138715948D01*
X335919380Y-138573091D01*
X335919380Y-138477853D01*
X335871761Y-138334995D01*
X335776523Y-138239757D01*
X335681285Y-138192138D01*
X335490809Y-138144519D01*
X335347952Y-138144519D01*
X335157476Y-138192138D01*
X335062238Y-138239757D01*
X334967000Y-138334995D01*
X334919380Y-138477853D01*
X334919380Y-138573091D01*
X334967000Y-138715948D01*
X335014619Y-138763567D01*
X334919380Y-139096900D02*
X334919380Y-139715948D01*
X335300333Y-139382615D01*
X335300333Y-139525472D01*
X335347952Y-139620710D01*
X335395571Y-139668329D01*
X335490809Y-139715948D01*
X335728904Y-139715948D01*
X335824142Y-139668329D01*
X335871761Y-139620710D01*
X335919380Y-139525472D01*
X335919380Y-139239757D01*
X335871761Y-139144519D01*
X335824142Y-139096900D01*
X335919380Y-140668329D02*
X335919380Y-140096900D01*
X335919380Y-140382615D02*
X334919380Y-140382615D01*
X335062238Y-140287376D01*
X335157476Y-140192138D01*
X335205095Y-140096900D01*
X334919380Y-141287376D02*
X334919380Y-141382615D01*
X334967000Y-141477853D01*
X335014619Y-141525472D01*
X335109857Y-141573091D01*
X335300333Y-141620710D01*
X335538428Y-141620710D01*
X335728904Y-141573091D01*
X335824142Y-141525472D01*
X335871761Y-141477853D01*
X335919380Y-141382615D01*
X335919380Y-141287376D01*
X335871761Y-141192138D01*
X335824142Y-141144519D01*
X335728904Y-141096900D01*
X335538428Y-141049281D01*
X335300333Y-141049281D01*
X335109857Y-141096900D01*
X335014619Y-141144519D01*
X334967000Y-141192138D01*
X334919380Y-141287376D01*
X333129857Y-120651662D02*
X333082238Y-120699281D01*
X333034619Y-120842138D01*
X333034619Y-120937376D01*
X333082238Y-121080234D01*
X333177476Y-121175472D01*
X333272714Y-121223091D01*
X333463190Y-121270710D01*
X333606047Y-121270710D01*
X333796523Y-121223091D01*
X333891761Y-121175472D01*
X333987000Y-121080234D01*
X334034619Y-120937376D01*
X334034619Y-120842138D01*
X333987000Y-120699281D01*
X333939380Y-120651662D01*
X334034619Y-120318329D02*
X334034619Y-119699281D01*
X333653666Y-120032615D01*
X333653666Y-119889757D01*
X333606047Y-119794519D01*
X333558428Y-119746900D01*
X333463190Y-119699281D01*
X333225095Y-119699281D01*
X333129857Y-119746900D01*
X333082238Y-119794519D01*
X333034619Y-119889757D01*
X333034619Y-120175472D01*
X333082238Y-120270710D01*
X333129857Y-120318329D01*
X334034619Y-119080234D02*
X334034619Y-118984995D01*
X333987000Y-118889757D01*
X333939380Y-118842138D01*
X333844142Y-118794519D01*
X333653666Y-118746900D01*
X333415571Y-118746900D01*
X333225095Y-118794519D01*
X333129857Y-118842138D01*
X333082238Y-118889757D01*
X333034619Y-118984995D01*
X333034619Y-119080234D01*
X333082238Y-119175472D01*
X333129857Y-119223091D01*
X333225095Y-119270710D01*
X333415571Y-119318329D01*
X333653666Y-119318329D01*
X333844142Y-119270710D01*
X333939380Y-119223091D01*
X333987000Y-119175472D01*
X334034619Y-119080234D01*
X333034619Y-118270710D02*
X333034619Y-118080234D01*
X333082238Y-117984995D01*
X333129857Y-117937376D01*
X333272714Y-117842138D01*
X333463190Y-117794519D01*
X333844142Y-117794519D01*
X333939380Y-117842138D01*
X333987000Y-117889757D01*
X334034619Y-117984995D01*
X334034619Y-118175472D01*
X333987000Y-118270710D01*
X333939380Y-118318329D01*
X333844142Y-118365948D01*
X333606047Y-118365948D01*
X333510809Y-118318329D01*
X333463190Y-118270710D01*
X333415571Y-118175472D01*
X333415571Y-117984995D01*
X333463190Y-117889757D01*
X333510809Y-117842138D01*
X333606047Y-117794519D01*
X242332197Y-132691607D02*
X242379816Y-132739226D01*
X242522673Y-132786845D01*
X242617911Y-132786845D01*
X242760769Y-132739226D01*
X242856007Y-132643988D01*
X242903626Y-132548750D01*
X242951245Y-132358274D01*
X242951245Y-132215417D01*
X242903626Y-132024941D01*
X242856007Y-131929703D01*
X242760769Y-131834465D01*
X242617911Y-131786845D01*
X242522673Y-131786845D01*
X242379816Y-131834465D01*
X242332197Y-131882084D01*
X241951245Y-131882084D02*
X241903626Y-131834465D01*
X241808388Y-131786845D01*
X241570292Y-131786845D01*
X241475054Y-131834465D01*
X241427435Y-131882084D01*
X241379816Y-131977322D01*
X241379816Y-132072560D01*
X241427435Y-132215417D01*
X241998864Y-132786845D01*
X241379816Y-132786845D01*
X240475054Y-131786845D02*
X240951245Y-131786845D01*
X240998864Y-132263036D01*
X240951245Y-132215417D01*
X240856007Y-132167798D01*
X240617911Y-132167798D01*
X240522673Y-132215417D01*
X240475054Y-132263036D01*
X240427435Y-132358274D01*
X240427435Y-132596369D01*
X240475054Y-132691607D01*
X240522673Y-132739226D01*
X240617911Y-132786845D01*
X240856007Y-132786845D01*
X240951245Y-132739226D01*
X240998864Y-132691607D01*
X239808388Y-131786845D02*
X239713150Y-131786845D01*
X239617911Y-131834465D01*
X239570292Y-131882084D01*
X239522673Y-131977322D01*
X239475054Y-132167798D01*
X239475054Y-132405893D01*
X239522673Y-132596369D01*
X239570292Y-132691607D01*
X239617911Y-132739226D01*
X239713150Y-132786845D01*
X239808388Y-132786845D01*
X239903626Y-132739226D01*
X239951245Y-132691607D01*
X239998864Y-132596369D01*
X240046483Y-132405893D01*
X240046483Y-132167798D01*
X239998864Y-131977322D01*
X239951245Y-131882084D01*
X239903626Y-131834465D01*
X239808388Y-131786845D01*
X253565292Y-139135417D02*
X253612911Y-139087798D01*
X253660530Y-138944941D01*
X253660530Y-138849703D01*
X253612911Y-138706845D01*
X253517673Y-138611607D01*
X253422435Y-138563988D01*
X253231959Y-138516369D01*
X253089102Y-138516369D01*
X252898626Y-138563988D01*
X252803388Y-138611607D01*
X252708150Y-138706845D01*
X252660530Y-138849703D01*
X252660530Y-138944941D01*
X252708150Y-139087798D01*
X252755769Y-139135417D01*
X252755769Y-139516369D02*
X252708150Y-139563988D01*
X252660530Y-139659226D01*
X252660530Y-139897322D01*
X252708150Y-139992560D01*
X252755769Y-140040179D01*
X252851007Y-140087798D01*
X252946245Y-140087798D01*
X253089102Y-140040179D01*
X253660530Y-139468750D01*
X253660530Y-140087798D01*
X252993864Y-140944941D02*
X253660530Y-140944941D01*
X252612911Y-140706845D02*
X253327197Y-140468750D01*
X253327197Y-141087798D01*
X253660530Y-141516369D02*
X253660530Y-141706845D01*
X253612911Y-141802084D01*
X253565292Y-141849703D01*
X253422435Y-141944941D01*
X253231959Y-141992560D01*
X252851007Y-141992560D01*
X252755769Y-141944941D01*
X252708150Y-141897322D01*
X252660530Y-141802084D01*
X252660530Y-141611607D01*
X252708150Y-141516369D01*
X252755769Y-141468750D01*
X252851007Y-141421131D01*
X253089102Y-141421131D01*
X253184340Y-141468750D01*
X253231959Y-141516369D01*
X253279578Y-141611607D01*
X253279578Y-141802084D01*
X253231959Y-141897322D01*
X253184340Y-141944941D01*
X253089102Y-141992560D01*
X245645292Y-139155417D02*
X245692911Y-139107798D01*
X245740530Y-138964941D01*
X245740530Y-138869703D01*
X245692911Y-138726845D01*
X245597673Y-138631607D01*
X245502435Y-138583988D01*
X245311959Y-138536369D01*
X245169102Y-138536369D01*
X244978626Y-138583988D01*
X244883388Y-138631607D01*
X244788150Y-138726845D01*
X244740530Y-138869703D01*
X244740530Y-138964941D01*
X244788150Y-139107798D01*
X244835769Y-139155417D01*
X244835769Y-139536369D02*
X244788150Y-139583988D01*
X244740530Y-139679226D01*
X244740530Y-139917322D01*
X244788150Y-140012560D01*
X244835769Y-140060179D01*
X244931007Y-140107798D01*
X245026245Y-140107798D01*
X245169102Y-140060179D01*
X245740530Y-139488750D01*
X245740530Y-140107798D01*
X245073864Y-140964941D02*
X245740530Y-140964941D01*
X244692911Y-140726845D02*
X245407197Y-140488750D01*
X245407197Y-141107798D01*
X245169102Y-141631607D02*
X245121483Y-141536369D01*
X245073864Y-141488750D01*
X244978626Y-141441131D01*
X244931007Y-141441131D01*
X244835769Y-141488750D01*
X244788150Y-141536369D01*
X244740530Y-141631607D01*
X244740530Y-141822084D01*
X244788150Y-141917322D01*
X244835769Y-141964941D01*
X244931007Y-142012560D01*
X244978626Y-142012560D01*
X245073864Y-141964941D01*
X245121483Y-141917322D01*
X245169102Y-141822084D01*
X245169102Y-141631607D01*
X245216721Y-141536369D01*
X245264340Y-141488750D01*
X245359578Y-141441131D01*
X245550054Y-141441131D01*
X245645292Y-141488750D01*
X245692911Y-141536369D01*
X245740530Y-141631607D01*
X245740530Y-141822084D01*
X245692911Y-141917322D01*
X245645292Y-141964941D01*
X245550054Y-142012560D01*
X245359578Y-142012560D01*
X245264340Y-141964941D01*
X245216721Y-141917322D01*
X245169102Y-141822084D01*
X240751007Y-120193512D02*
X240703388Y-120241131D01*
X240655769Y-120383988D01*
X240655769Y-120479226D01*
X240703388Y-120622084D01*
X240798626Y-120717322D01*
X240893864Y-120764941D01*
X241084340Y-120812560D01*
X241227197Y-120812560D01*
X241417673Y-120764941D01*
X241512911Y-120717322D01*
X241608150Y-120622084D01*
X241655769Y-120479226D01*
X241655769Y-120383988D01*
X241608150Y-120241131D01*
X241560530Y-120193512D01*
X241560530Y-119812560D02*
X241608150Y-119764941D01*
X241655769Y-119669703D01*
X241655769Y-119431607D01*
X241608150Y-119336369D01*
X241560530Y-119288750D01*
X241465292Y-119241131D01*
X241370054Y-119241131D01*
X241227197Y-119288750D01*
X240655769Y-119860179D01*
X240655769Y-119241131D01*
X241322435Y-118383988D02*
X240655769Y-118383988D01*
X241703388Y-118622084D02*
X240989102Y-118860179D01*
X240989102Y-118241131D01*
X241655769Y-117955417D02*
X241655769Y-117288750D01*
X240655769Y-117717322D01*
X258522197Y-129301607D02*
X258569816Y-129349226D01*
X258712673Y-129396845D01*
X258807911Y-129396845D01*
X258950769Y-129349226D01*
X259046007Y-129253988D01*
X259093626Y-129158750D01*
X259141245Y-128968274D01*
X259141245Y-128825417D01*
X259093626Y-128634941D01*
X259046007Y-128539703D01*
X258950769Y-128444465D01*
X258807911Y-128396845D01*
X258712673Y-128396845D01*
X258569816Y-128444465D01*
X258522197Y-128492084D01*
X258141245Y-128492084D02*
X258093626Y-128444465D01*
X257998388Y-128396845D01*
X257760292Y-128396845D01*
X257665054Y-128444465D01*
X257617435Y-128492084D01*
X257569816Y-128587322D01*
X257569816Y-128682560D01*
X257617435Y-128825417D01*
X258188864Y-129396845D01*
X257569816Y-129396845D01*
X256712673Y-128730179D02*
X256712673Y-129396845D01*
X256950769Y-128349226D02*
X257188864Y-129063512D01*
X256569816Y-129063512D01*
X255760292Y-128396845D02*
X255950769Y-128396845D01*
X256046007Y-128444465D01*
X256093626Y-128492084D01*
X256188864Y-128634941D01*
X256236483Y-128825417D01*
X256236483Y-129206369D01*
X256188864Y-129301607D01*
X256141245Y-129349226D01*
X256046007Y-129396845D01*
X255855530Y-129396845D01*
X255760292Y-129349226D01*
X255712673Y-129301607D01*
X255665054Y-129206369D01*
X255665054Y-128968274D01*
X255712673Y-128873036D01*
X255760292Y-128825417D01*
X255855530Y-128777798D01*
X256046007Y-128777798D01*
X256141245Y-128825417D01*
X256188864Y-128873036D01*
X256236483Y-128968274D01*
X257641007Y-121023512D02*
X257593388Y-121071131D01*
X257545769Y-121213988D01*
X257545769Y-121309226D01*
X257593388Y-121452084D01*
X257688626Y-121547322D01*
X257783864Y-121594941D01*
X257974340Y-121642560D01*
X258117197Y-121642560D01*
X258307673Y-121594941D01*
X258402911Y-121547322D01*
X258498150Y-121452084D01*
X258545769Y-121309226D01*
X258545769Y-121213988D01*
X258498150Y-121071131D01*
X258450530Y-121023512D01*
X258450530Y-120642560D02*
X258498150Y-120594941D01*
X258545769Y-120499703D01*
X258545769Y-120261607D01*
X258498150Y-120166369D01*
X258450530Y-120118750D01*
X258355292Y-120071131D01*
X258260054Y-120071131D01*
X258117197Y-120118750D01*
X257545769Y-120690179D01*
X257545769Y-120071131D01*
X258212435Y-119213988D02*
X257545769Y-119213988D01*
X258593388Y-119452084D02*
X257879102Y-119690179D01*
X257879102Y-119071131D01*
X258545769Y-118213988D02*
X258545769Y-118690179D01*
X258069578Y-118737798D01*
X258117197Y-118690179D01*
X258164816Y-118594941D01*
X258164816Y-118356845D01*
X258117197Y-118261607D01*
X258069578Y-118213988D01*
X257974340Y-118166369D01*
X257736245Y-118166369D01*
X257641007Y-118213988D01*
X257593388Y-118261607D01*
X257545769Y-118356845D01*
X257545769Y-118594941D01*
X257593388Y-118690179D01*
X257641007Y-118737798D01*
X252185292Y-139185417D02*
X252232911Y-139137798D01*
X252280530Y-138994941D01*
X252280530Y-138899703D01*
X252232911Y-138756845D01*
X252137673Y-138661607D01*
X252042435Y-138613988D01*
X251851959Y-138566369D01*
X251709102Y-138566369D01*
X251518626Y-138613988D01*
X251423388Y-138661607D01*
X251328150Y-138756845D01*
X251280530Y-138899703D01*
X251280530Y-138994941D01*
X251328150Y-139137798D01*
X251375769Y-139185417D01*
X251375769Y-139566369D02*
X251328150Y-139613988D01*
X251280530Y-139709226D01*
X251280530Y-139947322D01*
X251328150Y-140042560D01*
X251375769Y-140090179D01*
X251471007Y-140137798D01*
X251566245Y-140137798D01*
X251709102Y-140090179D01*
X252280530Y-139518750D01*
X252280530Y-140137798D01*
X251613864Y-140994941D02*
X252280530Y-140994941D01*
X251232911Y-140756845D02*
X251947197Y-140518750D01*
X251947197Y-141137798D01*
X251613864Y-141947322D02*
X252280530Y-141947322D01*
X251232911Y-141709226D02*
X251947197Y-141471131D01*
X251947197Y-142090179D01*
X247675292Y-139135417D02*
X247722911Y-139087798D01*
X247770530Y-138944941D01*
X247770530Y-138849703D01*
X247722911Y-138706845D01*
X247627673Y-138611607D01*
X247532435Y-138563988D01*
X247341959Y-138516369D01*
X247199102Y-138516369D01*
X247008626Y-138563988D01*
X246913388Y-138611607D01*
X246818150Y-138706845D01*
X246770530Y-138849703D01*
X246770530Y-138944941D01*
X246818150Y-139087798D01*
X246865769Y-139135417D01*
X246865769Y-139516369D02*
X246818150Y-139563988D01*
X246770530Y-139659226D01*
X246770530Y-139897322D01*
X246818150Y-139992560D01*
X246865769Y-140040179D01*
X246961007Y-140087798D01*
X247056245Y-140087798D01*
X247199102Y-140040179D01*
X247770530Y-139468750D01*
X247770530Y-140087798D01*
X247103864Y-140944941D02*
X247770530Y-140944941D01*
X246722911Y-140706845D02*
X247437197Y-140468750D01*
X247437197Y-141087798D01*
X246770530Y-141373512D02*
X246770530Y-141992560D01*
X247151483Y-141659226D01*
X247151483Y-141802084D01*
X247199102Y-141897322D01*
X247246721Y-141944941D01*
X247341959Y-141992560D01*
X247580054Y-141992560D01*
X247675292Y-141944941D01*
X247722911Y-141897322D01*
X247770530Y-141802084D01*
X247770530Y-141516369D01*
X247722911Y-141421131D01*
X247675292Y-141373512D01*
X248767197Y-134871607D02*
X248814816Y-134919226D01*
X248957673Y-134966845D01*
X249052911Y-134966845D01*
X249195769Y-134919226D01*
X249291007Y-134823988D01*
X249338626Y-134728750D01*
X249386245Y-134538274D01*
X249386245Y-134395417D01*
X249338626Y-134204941D01*
X249291007Y-134109703D01*
X249195769Y-134014465D01*
X249052911Y-133966845D01*
X248957673Y-133966845D01*
X248814816Y-134014465D01*
X248767197Y-134062084D01*
X248386245Y-134062084D02*
X248338626Y-134014465D01*
X248243388Y-133966845D01*
X248005292Y-133966845D01*
X247910054Y-134014465D01*
X247862435Y-134062084D01*
X247814816Y-134157322D01*
X247814816Y-134252560D01*
X247862435Y-134395417D01*
X248433864Y-134966845D01*
X247814816Y-134966845D01*
X246957673Y-134300179D02*
X246957673Y-134966845D01*
X247195769Y-133919226D02*
X247433864Y-134633512D01*
X246814816Y-134633512D01*
X246481483Y-134062084D02*
X246433864Y-134014465D01*
X246338626Y-133966845D01*
X246100530Y-133966845D01*
X246005292Y-134014465D01*
X245957673Y-134062084D01*
X245910054Y-134157322D01*
X245910054Y-134252560D01*
X245957673Y-134395417D01*
X246529102Y-134966845D01*
X245910054Y-134966845D01*
X243182197Y-125751607D02*
X243229816Y-125799226D01*
X243372673Y-125846845D01*
X243467911Y-125846845D01*
X243610769Y-125799226D01*
X243706007Y-125703988D01*
X243753626Y-125608750D01*
X243801245Y-125418274D01*
X243801245Y-125275417D01*
X243753626Y-125084941D01*
X243706007Y-124989703D01*
X243610769Y-124894465D01*
X243467911Y-124846845D01*
X243372673Y-124846845D01*
X243229816Y-124894465D01*
X243182197Y-124942084D01*
X242801245Y-124942084D02*
X242753626Y-124894465D01*
X242658388Y-124846845D01*
X242420292Y-124846845D01*
X242325054Y-124894465D01*
X242277435Y-124942084D01*
X242229816Y-125037322D01*
X242229816Y-125132560D01*
X242277435Y-125275417D01*
X242848864Y-125846845D01*
X242229816Y-125846845D01*
X241372673Y-125180179D02*
X241372673Y-125846845D01*
X241610769Y-124799226D02*
X241848864Y-125513512D01*
X241229816Y-125513512D01*
X240325054Y-125846845D02*
X240896483Y-125846845D01*
X240610769Y-125846845D02*
X240610769Y-124846845D01*
X240706007Y-124989703D01*
X240801245Y-125084941D01*
X240896483Y-125132560D01*
X245695292Y-126005417D02*
X245742911Y-125957798D01*
X245790530Y-125814941D01*
X245790530Y-125719703D01*
X245742911Y-125576845D01*
X245647673Y-125481607D01*
X245552435Y-125433988D01*
X245361959Y-125386369D01*
X245219102Y-125386369D01*
X245028626Y-125433988D01*
X244933388Y-125481607D01*
X244838150Y-125576845D01*
X244790530Y-125719703D01*
X244790530Y-125814941D01*
X244838150Y-125957798D01*
X244885769Y-126005417D01*
X244885769Y-126386369D02*
X244838150Y-126433988D01*
X244790530Y-126529226D01*
X244790530Y-126767322D01*
X244838150Y-126862560D01*
X244885769Y-126910179D01*
X244981007Y-126957798D01*
X245076245Y-126957798D01*
X245219102Y-126910179D01*
X245790530Y-126338750D01*
X245790530Y-126957798D01*
X245123864Y-127814941D02*
X245790530Y-127814941D01*
X244742911Y-127576845D02*
X245457197Y-127338750D01*
X245457197Y-127957798D01*
X244790530Y-128529226D02*
X244790530Y-128624465D01*
X244838150Y-128719703D01*
X244885769Y-128767322D01*
X244981007Y-128814941D01*
X245171483Y-128862560D01*
X245409578Y-128862560D01*
X245600054Y-128814941D01*
X245695292Y-128767322D01*
X245742911Y-128719703D01*
X245790530Y-128624465D01*
X245790530Y-128529226D01*
X245742911Y-128433988D01*
X245695292Y-128386369D01*
X245600054Y-128338750D01*
X245409578Y-128291131D01*
X245171483Y-128291131D01*
X244981007Y-128338750D01*
X244885769Y-128386369D01*
X244838150Y-128433988D01*
X244790530Y-128529226D01*
X249705292Y-126075417D02*
X249752911Y-126027798D01*
X249800530Y-125884941D01*
X249800530Y-125789703D01*
X249752911Y-125646845D01*
X249657673Y-125551607D01*
X249562435Y-125503988D01*
X249371959Y-125456369D01*
X249229102Y-125456369D01*
X249038626Y-125503988D01*
X248943388Y-125551607D01*
X248848150Y-125646845D01*
X248800530Y-125789703D01*
X248800530Y-125884941D01*
X248848150Y-126027798D01*
X248895769Y-126075417D01*
X248895769Y-126456369D02*
X248848150Y-126503988D01*
X248800530Y-126599226D01*
X248800530Y-126837322D01*
X248848150Y-126932560D01*
X248895769Y-126980179D01*
X248991007Y-127027798D01*
X249086245Y-127027798D01*
X249229102Y-126980179D01*
X249800530Y-126408750D01*
X249800530Y-127027798D01*
X248800530Y-127361131D02*
X248800530Y-127980179D01*
X249181483Y-127646845D01*
X249181483Y-127789703D01*
X249229102Y-127884941D01*
X249276721Y-127932560D01*
X249371959Y-127980179D01*
X249610054Y-127980179D01*
X249705292Y-127932560D01*
X249752911Y-127884941D01*
X249800530Y-127789703D01*
X249800530Y-127503988D01*
X249752911Y-127408750D01*
X249705292Y-127361131D01*
X249800530Y-128456369D02*
X249800530Y-128646845D01*
X249752911Y-128742084D01*
X249705292Y-128789703D01*
X249562435Y-128884941D01*
X249371959Y-128932560D01*
X248991007Y-128932560D01*
X248895769Y-128884941D01*
X248848150Y-128837322D01*
X248800530Y-128742084D01*
X248800530Y-128551607D01*
X248848150Y-128456369D01*
X248895769Y-128408750D01*
X248991007Y-128361131D01*
X249229102Y-128361131D01*
X249324340Y-128408750D01*
X249371959Y-128456369D01*
X249419578Y-128551607D01*
X249419578Y-128742084D01*
X249371959Y-128837322D01*
X249324340Y-128884941D01*
X249229102Y-128932560D01*
X253665292Y-126025417D02*
X253712911Y-125977798D01*
X253760530Y-125834941D01*
X253760530Y-125739703D01*
X253712911Y-125596845D01*
X253617673Y-125501607D01*
X253522435Y-125453988D01*
X253331959Y-125406369D01*
X253189102Y-125406369D01*
X252998626Y-125453988D01*
X252903388Y-125501607D01*
X252808150Y-125596845D01*
X252760530Y-125739703D01*
X252760530Y-125834941D01*
X252808150Y-125977798D01*
X252855769Y-126025417D01*
X252855769Y-126406369D02*
X252808150Y-126453988D01*
X252760530Y-126549226D01*
X252760530Y-126787322D01*
X252808150Y-126882560D01*
X252855769Y-126930179D01*
X252951007Y-126977798D01*
X253046245Y-126977798D01*
X253189102Y-126930179D01*
X253760530Y-126358750D01*
X253760530Y-126977798D01*
X252760530Y-127311131D02*
X252760530Y-127930179D01*
X253141483Y-127596845D01*
X253141483Y-127739703D01*
X253189102Y-127834941D01*
X253236721Y-127882560D01*
X253331959Y-127930179D01*
X253570054Y-127930179D01*
X253665292Y-127882560D01*
X253712911Y-127834941D01*
X253760530Y-127739703D01*
X253760530Y-127453988D01*
X253712911Y-127358750D01*
X253665292Y-127311131D01*
X253189102Y-128501607D02*
X253141483Y-128406369D01*
X253093864Y-128358750D01*
X252998626Y-128311131D01*
X252951007Y-128311131D01*
X252855769Y-128358750D01*
X252808150Y-128406369D01*
X252760530Y-128501607D01*
X252760530Y-128692084D01*
X252808150Y-128787322D01*
X252855769Y-128834941D01*
X252951007Y-128882560D01*
X252998626Y-128882560D01*
X253093864Y-128834941D01*
X253141483Y-128787322D01*
X253189102Y-128692084D01*
X253189102Y-128501607D01*
X253236721Y-128406369D01*
X253284340Y-128358750D01*
X253379578Y-128311131D01*
X253570054Y-128311131D01*
X253665292Y-128358750D01*
X253712911Y-128406369D01*
X253760530Y-128501607D01*
X253760530Y-128692084D01*
X253712911Y-128787322D01*
X253665292Y-128834941D01*
X253570054Y-128882560D01*
X253379578Y-128882560D01*
X253284340Y-128834941D01*
X253236721Y-128787322D01*
X253189102Y-128692084D01*
X251685292Y-126025417D02*
X251732911Y-125977798D01*
X251780530Y-125834941D01*
X251780530Y-125739703D01*
X251732911Y-125596845D01*
X251637673Y-125501607D01*
X251542435Y-125453988D01*
X251351959Y-125406369D01*
X251209102Y-125406369D01*
X251018626Y-125453988D01*
X250923388Y-125501607D01*
X250828150Y-125596845D01*
X250780530Y-125739703D01*
X250780530Y-125834941D01*
X250828150Y-125977798D01*
X250875769Y-126025417D01*
X250875769Y-126406369D02*
X250828150Y-126453988D01*
X250780530Y-126549226D01*
X250780530Y-126787322D01*
X250828150Y-126882560D01*
X250875769Y-126930179D01*
X250971007Y-126977798D01*
X251066245Y-126977798D01*
X251209102Y-126930179D01*
X251780530Y-126358750D01*
X251780530Y-126977798D01*
X250780530Y-127311131D02*
X250780530Y-127930179D01*
X251161483Y-127596845D01*
X251161483Y-127739703D01*
X251209102Y-127834941D01*
X251256721Y-127882560D01*
X251351959Y-127930179D01*
X251590054Y-127930179D01*
X251685292Y-127882560D01*
X251732911Y-127834941D01*
X251780530Y-127739703D01*
X251780530Y-127453988D01*
X251732911Y-127358750D01*
X251685292Y-127311131D01*
X250780530Y-128263512D02*
X250780530Y-128930179D01*
X251780530Y-128501607D01*
X247705292Y-126025417D02*
X247752911Y-125977798D01*
X247800530Y-125834941D01*
X247800530Y-125739703D01*
X247752911Y-125596845D01*
X247657673Y-125501607D01*
X247562435Y-125453988D01*
X247371959Y-125406369D01*
X247229102Y-125406369D01*
X247038626Y-125453988D01*
X246943388Y-125501607D01*
X246848150Y-125596845D01*
X246800530Y-125739703D01*
X246800530Y-125834941D01*
X246848150Y-125977798D01*
X246895769Y-126025417D01*
X246895769Y-126406369D02*
X246848150Y-126453988D01*
X246800530Y-126549226D01*
X246800530Y-126787322D01*
X246848150Y-126882560D01*
X246895769Y-126930179D01*
X246991007Y-126977798D01*
X247086245Y-126977798D01*
X247229102Y-126930179D01*
X247800530Y-126358750D01*
X247800530Y-126977798D01*
X246800530Y-127311131D02*
X246800530Y-127930179D01*
X247181483Y-127596845D01*
X247181483Y-127739703D01*
X247229102Y-127834941D01*
X247276721Y-127882560D01*
X247371959Y-127930179D01*
X247610054Y-127930179D01*
X247705292Y-127882560D01*
X247752911Y-127834941D01*
X247800530Y-127739703D01*
X247800530Y-127453988D01*
X247752911Y-127358750D01*
X247705292Y-127311131D01*
X246800530Y-128787322D02*
X246800530Y-128596845D01*
X246848150Y-128501607D01*
X246895769Y-128453988D01*
X247038626Y-128358750D01*
X247229102Y-128311131D01*
X247610054Y-128311131D01*
X247705292Y-128358750D01*
X247752911Y-128406369D01*
X247800530Y-128501607D01*
X247800530Y-128692084D01*
X247752911Y-128787322D01*
X247705292Y-128834941D01*
X247610054Y-128882560D01*
X247371959Y-128882560D01*
X247276721Y-128834941D01*
X247229102Y-128787322D01*
X247181483Y-128692084D01*
X247181483Y-128501607D01*
X247229102Y-128406369D01*
X247276721Y-128358750D01*
X247371959Y-128311131D01*
X260647197Y-126951607D02*
X260694816Y-126999226D01*
X260837673Y-127046845D01*
X260932911Y-127046845D01*
X261075769Y-126999226D01*
X261171007Y-126903988D01*
X261218626Y-126808750D01*
X261266245Y-126618274D01*
X261266245Y-126475417D01*
X261218626Y-126284941D01*
X261171007Y-126189703D01*
X261075769Y-126094465D01*
X260932911Y-126046845D01*
X260837673Y-126046845D01*
X260694816Y-126094465D01*
X260647197Y-126142084D01*
X260266245Y-126142084D02*
X260218626Y-126094465D01*
X260123388Y-126046845D01*
X259885292Y-126046845D01*
X259790054Y-126094465D01*
X259742435Y-126142084D01*
X259694816Y-126237322D01*
X259694816Y-126332560D01*
X259742435Y-126475417D01*
X260313864Y-127046845D01*
X259694816Y-127046845D01*
X259361483Y-126046845D02*
X258742435Y-126046845D01*
X259075769Y-126427798D01*
X258932911Y-126427798D01*
X258837673Y-126475417D01*
X258790054Y-126523036D01*
X258742435Y-126618274D01*
X258742435Y-126856369D01*
X258790054Y-126951607D01*
X258837673Y-126999226D01*
X258932911Y-127046845D01*
X259218626Y-127046845D01*
X259313864Y-126999226D01*
X259361483Y-126951607D01*
X257837673Y-126046845D02*
X258313864Y-126046845D01*
X258361483Y-126523036D01*
X258313864Y-126475417D01*
X258218626Y-126427798D01*
X257980530Y-126427798D01*
X257885292Y-126475417D01*
X257837673Y-126523036D01*
X257790054Y-126618274D01*
X257790054Y-126856369D01*
X257837673Y-126951607D01*
X257885292Y-126999226D01*
X257980530Y-127046845D01*
X258218626Y-127046845D01*
X258313864Y-126999226D01*
X258361483Y-126951607D01*
X257757197Y-134821607D02*
X257804816Y-134869226D01*
X257947673Y-134916845D01*
X258042911Y-134916845D01*
X258185769Y-134869226D01*
X258281007Y-134773988D01*
X258328626Y-134678750D01*
X258376245Y-134488274D01*
X258376245Y-134345417D01*
X258328626Y-134154941D01*
X258281007Y-134059703D01*
X258185769Y-133964465D01*
X258042911Y-133916845D01*
X257947673Y-133916845D01*
X257804816Y-133964465D01*
X257757197Y-134012084D01*
X257376245Y-134012084D02*
X257328626Y-133964465D01*
X257233388Y-133916845D01*
X256995292Y-133916845D01*
X256900054Y-133964465D01*
X256852435Y-134012084D01*
X256804816Y-134107322D01*
X256804816Y-134202560D01*
X256852435Y-134345417D01*
X257423864Y-134916845D01*
X256804816Y-134916845D01*
X256471483Y-133916845D02*
X255852435Y-133916845D01*
X256185769Y-134297798D01*
X256042911Y-134297798D01*
X255947673Y-134345417D01*
X255900054Y-134393036D01*
X255852435Y-134488274D01*
X255852435Y-134726369D01*
X255900054Y-134821607D01*
X255947673Y-134869226D01*
X256042911Y-134916845D01*
X256328626Y-134916845D01*
X256423864Y-134869226D01*
X256471483Y-134821607D01*
X254995292Y-134250179D02*
X254995292Y-134916845D01*
X255233388Y-133869226D02*
X255471483Y-134583512D01*
X254852435Y-134583512D01*
X243081007Y-120143512D02*
X243033388Y-120191131D01*
X242985769Y-120333988D01*
X242985769Y-120429226D01*
X243033388Y-120572084D01*
X243128626Y-120667322D01*
X243223864Y-120714941D01*
X243414340Y-120762560D01*
X243557197Y-120762560D01*
X243747673Y-120714941D01*
X243842911Y-120667322D01*
X243938150Y-120572084D01*
X243985769Y-120429226D01*
X243985769Y-120333988D01*
X243938150Y-120191131D01*
X243890530Y-120143512D01*
X243890530Y-119762560D02*
X243938150Y-119714941D01*
X243985769Y-119619703D01*
X243985769Y-119381607D01*
X243938150Y-119286369D01*
X243890530Y-119238750D01*
X243795292Y-119191131D01*
X243700054Y-119191131D01*
X243557197Y-119238750D01*
X242985769Y-119810179D01*
X242985769Y-119191131D01*
X243985769Y-118857798D02*
X243985769Y-118238750D01*
X243604816Y-118572084D01*
X243604816Y-118429226D01*
X243557197Y-118333988D01*
X243509578Y-118286369D01*
X243414340Y-118238750D01*
X243176245Y-118238750D01*
X243081007Y-118286369D01*
X243033388Y-118333988D01*
X242985769Y-118429226D01*
X242985769Y-118714941D01*
X243033388Y-118810179D01*
X243081007Y-118857798D01*
X243985769Y-117905417D02*
X243985769Y-117286369D01*
X243604816Y-117619703D01*
X243604816Y-117476845D01*
X243557197Y-117381607D01*
X243509578Y-117333988D01*
X243414340Y-117286369D01*
X243176245Y-117286369D01*
X243081007Y-117333988D01*
X243033388Y-117381607D01*
X242985769Y-117476845D01*
X242985769Y-117762560D01*
X243033388Y-117857798D01*
X243081007Y-117905417D01*
X256081007Y-120223512D02*
X256033388Y-120271131D01*
X255985769Y-120413988D01*
X255985769Y-120509226D01*
X256033388Y-120652084D01*
X256128626Y-120747322D01*
X256223864Y-120794941D01*
X256414340Y-120842560D01*
X256557197Y-120842560D01*
X256747673Y-120794941D01*
X256842911Y-120747322D01*
X256938150Y-120652084D01*
X256985769Y-120509226D01*
X256985769Y-120413988D01*
X256938150Y-120271131D01*
X256890530Y-120223512D01*
X256890530Y-119842560D02*
X256938150Y-119794941D01*
X256985769Y-119699703D01*
X256985769Y-119461607D01*
X256938150Y-119366369D01*
X256890530Y-119318750D01*
X256795292Y-119271131D01*
X256700054Y-119271131D01*
X256557197Y-119318750D01*
X255985769Y-119890179D01*
X255985769Y-119271131D01*
X256985769Y-118937798D02*
X256985769Y-118318750D01*
X256604816Y-118652084D01*
X256604816Y-118509226D01*
X256557197Y-118413988D01*
X256509578Y-118366369D01*
X256414340Y-118318750D01*
X256176245Y-118318750D01*
X256081007Y-118366369D01*
X256033388Y-118413988D01*
X255985769Y-118509226D01*
X255985769Y-118794941D01*
X256033388Y-118890179D01*
X256081007Y-118937798D01*
X256890530Y-117937798D02*
X256938150Y-117890179D01*
X256985769Y-117794941D01*
X256985769Y-117556845D01*
X256938150Y-117461607D01*
X256890530Y-117413988D01*
X256795292Y-117366369D01*
X256700054Y-117366369D01*
X256557197Y-117413988D01*
X255985769Y-117985417D01*
X255985769Y-117366369D01*
X242645292Y-135875417D02*
X242692911Y-135827798D01*
X242740530Y-135684941D01*
X242740530Y-135589703D01*
X242692911Y-135446845D01*
X242597673Y-135351607D01*
X242502435Y-135303988D01*
X242311959Y-135256369D01*
X242169102Y-135256369D01*
X241978626Y-135303988D01*
X241883388Y-135351607D01*
X241788150Y-135446845D01*
X241740530Y-135589703D01*
X241740530Y-135684941D01*
X241788150Y-135827798D01*
X241835769Y-135875417D01*
X241835769Y-136256369D02*
X241788150Y-136303988D01*
X241740530Y-136399226D01*
X241740530Y-136637322D01*
X241788150Y-136732560D01*
X241835769Y-136780179D01*
X241931007Y-136827798D01*
X242026245Y-136827798D01*
X242169102Y-136780179D01*
X242740530Y-136208750D01*
X242740530Y-136827798D01*
X241740530Y-137161131D02*
X241740530Y-137780179D01*
X242121483Y-137446845D01*
X242121483Y-137589703D01*
X242169102Y-137684941D01*
X242216721Y-137732560D01*
X242311959Y-137780179D01*
X242550054Y-137780179D01*
X242645292Y-137732560D01*
X242692911Y-137684941D01*
X242740530Y-137589703D01*
X242740530Y-137303988D01*
X242692911Y-137208750D01*
X242645292Y-137161131D01*
X242740530Y-138732560D02*
X242740530Y-138161131D01*
X242740530Y-138446845D02*
X241740530Y-138446845D01*
X241883388Y-138351607D01*
X241978626Y-138256369D01*
X242026245Y-138161131D01*
X248991007Y-120123512D02*
X248943388Y-120171131D01*
X248895769Y-120313988D01*
X248895769Y-120409226D01*
X248943388Y-120552084D01*
X249038626Y-120647322D01*
X249133864Y-120694941D01*
X249324340Y-120742560D01*
X249467197Y-120742560D01*
X249657673Y-120694941D01*
X249752911Y-120647322D01*
X249848150Y-120552084D01*
X249895769Y-120409226D01*
X249895769Y-120313988D01*
X249848150Y-120171131D01*
X249800530Y-120123512D01*
X249800530Y-119742560D02*
X249848150Y-119694941D01*
X249895769Y-119599703D01*
X249895769Y-119361607D01*
X249848150Y-119266369D01*
X249800530Y-119218750D01*
X249705292Y-119171131D01*
X249610054Y-119171131D01*
X249467197Y-119218750D01*
X248895769Y-119790179D01*
X248895769Y-119171131D01*
X249895769Y-118837798D02*
X249895769Y-118218750D01*
X249514816Y-118552084D01*
X249514816Y-118409226D01*
X249467197Y-118313988D01*
X249419578Y-118266369D01*
X249324340Y-118218750D01*
X249086245Y-118218750D01*
X248991007Y-118266369D01*
X248943388Y-118313988D01*
X248895769Y-118409226D01*
X248895769Y-118694941D01*
X248943388Y-118790179D01*
X248991007Y-118837798D01*
X249895769Y-117599703D02*
X249895769Y-117504465D01*
X249848150Y-117409226D01*
X249800530Y-117361607D01*
X249705292Y-117313988D01*
X249514816Y-117266369D01*
X249276721Y-117266369D01*
X249086245Y-117313988D01*
X248991007Y-117361607D01*
X248943388Y-117409226D01*
X248895769Y-117504465D01*
X248895769Y-117599703D01*
X248943388Y-117694941D01*
X248991007Y-117742560D01*
X249086245Y-117790179D01*
X249276721Y-117837798D01*
X249514816Y-117837798D01*
X249705292Y-117790179D01*
X249800530Y-117742560D01*
X249848150Y-117694941D01*
X249895769Y-117599703D01*
X245111007Y-120523512D02*
X245063388Y-120571131D01*
X245015769Y-120713988D01*
X245015769Y-120809226D01*
X245063388Y-120952084D01*
X245158626Y-121047322D01*
X245253864Y-121094941D01*
X245444340Y-121142560D01*
X245587197Y-121142560D01*
X245777673Y-121094941D01*
X245872911Y-121047322D01*
X245968150Y-120952084D01*
X246015769Y-120809226D01*
X246015769Y-120713988D01*
X245968150Y-120571131D01*
X245920530Y-120523512D01*
X245920530Y-120142560D02*
X245968150Y-120094941D01*
X246015769Y-119999703D01*
X246015769Y-119761607D01*
X245968150Y-119666369D01*
X245920530Y-119618750D01*
X245825292Y-119571131D01*
X245730054Y-119571131D01*
X245587197Y-119618750D01*
X245015769Y-120190179D01*
X245015769Y-119571131D01*
X245920530Y-119190179D02*
X245968150Y-119142560D01*
X246015769Y-119047322D01*
X246015769Y-118809226D01*
X245968150Y-118713988D01*
X245920530Y-118666369D01*
X245825292Y-118618750D01*
X245730054Y-118618750D01*
X245587197Y-118666369D01*
X245015769Y-119237798D01*
X245015769Y-118618750D01*
X245015769Y-118142560D02*
X245015769Y-117952084D01*
X245063388Y-117856845D01*
X245111007Y-117809226D01*
X245253864Y-117713988D01*
X245444340Y-117666369D01*
X245825292Y-117666369D01*
X245920530Y-117713988D01*
X245968150Y-117761607D01*
X246015769Y-117856845D01*
X246015769Y-118047322D01*
X245968150Y-118142560D01*
X245920530Y-118190179D01*
X245825292Y-118237798D01*
X245587197Y-118237798D01*
X245491959Y-118190179D01*
X245444340Y-118142560D01*
X245396721Y-118047322D01*
X245396721Y-117856845D01*
X245444340Y-117761607D01*
X245491959Y-117713988D01*
X245587197Y-117666369D01*
X247041007Y-120593512D02*
X246993388Y-120641131D01*
X246945769Y-120783988D01*
X246945769Y-120879226D01*
X246993388Y-121022084D01*
X247088626Y-121117322D01*
X247183864Y-121164941D01*
X247374340Y-121212560D01*
X247517197Y-121212560D01*
X247707673Y-121164941D01*
X247802911Y-121117322D01*
X247898150Y-121022084D01*
X247945769Y-120879226D01*
X247945769Y-120783988D01*
X247898150Y-120641131D01*
X247850530Y-120593512D01*
X247850530Y-120212560D02*
X247898150Y-120164941D01*
X247945769Y-120069703D01*
X247945769Y-119831607D01*
X247898150Y-119736369D01*
X247850530Y-119688750D01*
X247755292Y-119641131D01*
X247660054Y-119641131D01*
X247517197Y-119688750D01*
X246945769Y-120260179D01*
X246945769Y-119641131D01*
X247850530Y-119260179D02*
X247898150Y-119212560D01*
X247945769Y-119117322D01*
X247945769Y-118879226D01*
X247898150Y-118783988D01*
X247850530Y-118736369D01*
X247755292Y-118688750D01*
X247660054Y-118688750D01*
X247517197Y-118736369D01*
X246945769Y-119307798D01*
X246945769Y-118688750D01*
X247517197Y-118117322D02*
X247564816Y-118212560D01*
X247612435Y-118260179D01*
X247707673Y-118307798D01*
X247755292Y-118307798D01*
X247850530Y-118260179D01*
X247898150Y-118212560D01*
X247945769Y-118117322D01*
X247945769Y-117926845D01*
X247898150Y-117831607D01*
X247850530Y-117783988D01*
X247755292Y-117736369D01*
X247707673Y-117736369D01*
X247612435Y-117783988D01*
X247564816Y-117831607D01*
X247517197Y-117926845D01*
X247517197Y-118117322D01*
X247469578Y-118212560D01*
X247421959Y-118260179D01*
X247326721Y-118307798D01*
X247136245Y-118307798D01*
X247041007Y-118260179D01*
X246993388Y-118212560D01*
X246945769Y-118117322D01*
X246945769Y-117926845D01*
X246993388Y-117831607D01*
X247041007Y-117783988D01*
X247136245Y-117736369D01*
X247326721Y-117736369D01*
X247421959Y-117783988D01*
X247469578Y-117831607D01*
X247517197Y-117926845D01*
X250255292Y-139055417D02*
X250302911Y-139007798D01*
X250350530Y-138864941D01*
X250350530Y-138769703D01*
X250302911Y-138626845D01*
X250207673Y-138531607D01*
X250112435Y-138483988D01*
X249921959Y-138436369D01*
X249779102Y-138436369D01*
X249588626Y-138483988D01*
X249493388Y-138531607D01*
X249398150Y-138626845D01*
X249350530Y-138769703D01*
X249350530Y-138864941D01*
X249398150Y-139007798D01*
X249445769Y-139055417D01*
X249445769Y-139436369D02*
X249398150Y-139483988D01*
X249350530Y-139579226D01*
X249350530Y-139817322D01*
X249398150Y-139912560D01*
X249445769Y-139960179D01*
X249541007Y-140007798D01*
X249636245Y-140007798D01*
X249779102Y-139960179D01*
X250350530Y-139388750D01*
X250350530Y-140007798D01*
X249445769Y-140388750D02*
X249398150Y-140436369D01*
X249350530Y-140531607D01*
X249350530Y-140769703D01*
X249398150Y-140864941D01*
X249445769Y-140912560D01*
X249541007Y-140960179D01*
X249636245Y-140960179D01*
X249779102Y-140912560D01*
X250350530Y-140341131D01*
X250350530Y-140960179D01*
X249350530Y-141293512D02*
X249350530Y-141960179D01*
X250350530Y-141531607D01*
X250951007Y-120523512D02*
X250903388Y-120571131D01*
X250855769Y-120713988D01*
X250855769Y-120809226D01*
X250903388Y-120952084D01*
X250998626Y-121047322D01*
X251093864Y-121094941D01*
X251284340Y-121142560D01*
X251427197Y-121142560D01*
X251617673Y-121094941D01*
X251712911Y-121047322D01*
X251808150Y-120952084D01*
X251855769Y-120809226D01*
X251855769Y-120713988D01*
X251808150Y-120571131D01*
X251760530Y-120523512D01*
X251760530Y-120142560D02*
X251808150Y-120094941D01*
X251855769Y-119999703D01*
X251855769Y-119761607D01*
X251808150Y-119666369D01*
X251760530Y-119618750D01*
X251665292Y-119571131D01*
X251570054Y-119571131D01*
X251427197Y-119618750D01*
X250855769Y-120190179D01*
X250855769Y-119571131D01*
X251760530Y-119190179D02*
X251808150Y-119142560D01*
X251855769Y-119047322D01*
X251855769Y-118809226D01*
X251808150Y-118713988D01*
X251760530Y-118666369D01*
X251665292Y-118618750D01*
X251570054Y-118618750D01*
X251427197Y-118666369D01*
X250855769Y-119237798D01*
X250855769Y-118618750D01*
X251855769Y-117761607D02*
X251855769Y-117952084D01*
X251808150Y-118047322D01*
X251760530Y-118094941D01*
X251617673Y-118190179D01*
X251427197Y-118237798D01*
X251046245Y-118237798D01*
X250951007Y-118190179D01*
X250903388Y-118142560D01*
X250855769Y-118047322D01*
X250855769Y-117856845D01*
X250903388Y-117761607D01*
X250951007Y-117713988D01*
X251046245Y-117666369D01*
X251284340Y-117666369D01*
X251379578Y-117713988D01*
X251427197Y-117761607D01*
X251474816Y-117856845D01*
X251474816Y-118047322D01*
X251427197Y-118142560D01*
X251379578Y-118190179D01*
X251284340Y-118237798D01*
X256675292Y-138735417D02*
X256722911Y-138687798D01*
X256770530Y-138544941D01*
X256770530Y-138449703D01*
X256722911Y-138306845D01*
X256627673Y-138211607D01*
X256532435Y-138163988D01*
X256341959Y-138116369D01*
X256199102Y-138116369D01*
X256008626Y-138163988D01*
X255913388Y-138211607D01*
X255818150Y-138306845D01*
X255770530Y-138449703D01*
X255770530Y-138544941D01*
X255818150Y-138687798D01*
X255865769Y-138735417D01*
X255865769Y-139116369D02*
X255818150Y-139163988D01*
X255770530Y-139259226D01*
X255770530Y-139497322D01*
X255818150Y-139592560D01*
X255865769Y-139640179D01*
X255961007Y-139687798D01*
X256056245Y-139687798D01*
X256199102Y-139640179D01*
X256770530Y-139068750D01*
X256770530Y-139687798D01*
X255865769Y-140068750D02*
X255818150Y-140116369D01*
X255770530Y-140211607D01*
X255770530Y-140449703D01*
X255818150Y-140544941D01*
X255865769Y-140592560D01*
X255961007Y-140640179D01*
X256056245Y-140640179D01*
X256199102Y-140592560D01*
X256770530Y-140021131D01*
X256770530Y-140640179D01*
X255770530Y-141544941D02*
X255770530Y-141068750D01*
X256246721Y-141021131D01*
X256199102Y-141068750D01*
X256151483Y-141163988D01*
X256151483Y-141402084D01*
X256199102Y-141497322D01*
X256246721Y-141544941D01*
X256341959Y-141592560D01*
X256580054Y-141592560D01*
X256675292Y-141544941D01*
X256722911Y-141497322D01*
X256770530Y-141402084D01*
X256770530Y-141163988D01*
X256722911Y-141068750D01*
X256675292Y-141021131D01*
X253981007Y-120623512D02*
X253933388Y-120671131D01*
X253885769Y-120813988D01*
X253885769Y-120909226D01*
X253933388Y-121052084D01*
X254028626Y-121147322D01*
X254123864Y-121194941D01*
X254314340Y-121242560D01*
X254457197Y-121242560D01*
X254647673Y-121194941D01*
X254742911Y-121147322D01*
X254838150Y-121052084D01*
X254885769Y-120909226D01*
X254885769Y-120813988D01*
X254838150Y-120671131D01*
X254790530Y-120623512D01*
X254790530Y-120242560D02*
X254838150Y-120194941D01*
X254885769Y-120099703D01*
X254885769Y-119861607D01*
X254838150Y-119766369D01*
X254790530Y-119718750D01*
X254695292Y-119671131D01*
X254600054Y-119671131D01*
X254457197Y-119718750D01*
X253885769Y-120290179D01*
X253885769Y-119671131D01*
X254790530Y-119290179D02*
X254838150Y-119242560D01*
X254885769Y-119147322D01*
X254885769Y-118909226D01*
X254838150Y-118813988D01*
X254790530Y-118766369D01*
X254695292Y-118718750D01*
X254600054Y-118718750D01*
X254457197Y-118766369D01*
X253885769Y-119337798D01*
X253885769Y-118718750D01*
X254552435Y-117861607D02*
X253885769Y-117861607D01*
X254933388Y-118099703D02*
X254219102Y-118337798D01*
X254219102Y-117718750D01*
X163201047Y-132709757D02*
X163248666Y-132757376D01*
X163391523Y-132804995D01*
X163486761Y-132804995D01*
X163629619Y-132757376D01*
X163724857Y-132662138D01*
X163772476Y-132566900D01*
X163820095Y-132376424D01*
X163820095Y-132233567D01*
X163772476Y-132043091D01*
X163724857Y-131947853D01*
X163629619Y-131852615D01*
X163486761Y-131804995D01*
X163391523Y-131804995D01*
X163248666Y-131852615D01*
X163201047Y-131900234D01*
X162248666Y-132804995D02*
X162820095Y-132804995D01*
X162534380Y-132804995D02*
X162534380Y-131804995D01*
X162629619Y-131947853D01*
X162724857Y-132043091D01*
X162820095Y-132090710D01*
X161391523Y-131804995D02*
X161582000Y-131804995D01*
X161677238Y-131852615D01*
X161724857Y-131900234D01*
X161820095Y-132043091D01*
X161867714Y-132233567D01*
X161867714Y-132614519D01*
X161820095Y-132709757D01*
X161772476Y-132757376D01*
X161677238Y-132804995D01*
X161486761Y-132804995D01*
X161391523Y-132757376D01*
X161343904Y-132709757D01*
X161296285Y-132614519D01*
X161296285Y-132376424D01*
X161343904Y-132281186D01*
X161391523Y-132233567D01*
X161486761Y-132185948D01*
X161677238Y-132185948D01*
X161772476Y-132233567D01*
X161820095Y-132281186D01*
X161867714Y-132376424D01*
X160391523Y-131804995D02*
X160867714Y-131804995D01*
X160915333Y-132281186D01*
X160867714Y-132233567D01*
X160772476Y-132185948D01*
X160534380Y-132185948D01*
X160439142Y-132233567D01*
X160391523Y-132281186D01*
X160343904Y-132376424D01*
X160343904Y-132614519D01*
X160391523Y-132709757D01*
X160439142Y-132757376D01*
X160534380Y-132804995D01*
X160772476Y-132804995D01*
X160867714Y-132757376D01*
X160915333Y-132709757D01*
X174434142Y-139153567D02*
X174481761Y-139105948D01*
X174529380Y-138963091D01*
X174529380Y-138867853D01*
X174481761Y-138724995D01*
X174386523Y-138629757D01*
X174291285Y-138582138D01*
X174100809Y-138534519D01*
X173957952Y-138534519D01*
X173767476Y-138582138D01*
X173672238Y-138629757D01*
X173577000Y-138724995D01*
X173529380Y-138867853D01*
X173529380Y-138963091D01*
X173577000Y-139105948D01*
X173624619Y-139153567D01*
X174529380Y-140105948D02*
X174529380Y-139534519D01*
X174529380Y-139820234D02*
X173529380Y-139820234D01*
X173672238Y-139724995D01*
X173767476Y-139629757D01*
X173815095Y-139534519D01*
X173529380Y-140963091D02*
X173529380Y-140772615D01*
X173577000Y-140677376D01*
X173624619Y-140629757D01*
X173767476Y-140534519D01*
X173957952Y-140486900D01*
X174338904Y-140486900D01*
X174434142Y-140534519D01*
X174481761Y-140582138D01*
X174529380Y-140677376D01*
X174529380Y-140867853D01*
X174481761Y-140963091D01*
X174434142Y-141010710D01*
X174338904Y-141058329D01*
X174100809Y-141058329D01*
X174005571Y-141010710D01*
X173957952Y-140963091D01*
X173910333Y-140867853D01*
X173910333Y-140677376D01*
X173957952Y-140582138D01*
X174005571Y-140534519D01*
X174100809Y-140486900D01*
X173862714Y-141915472D02*
X174529380Y-141915472D01*
X173481761Y-141677376D02*
X174196047Y-141439281D01*
X174196047Y-142058329D01*
X162334142Y-117973567D02*
X162381761Y-117925948D01*
X162429380Y-117783091D01*
X162429380Y-117687853D01*
X162381761Y-117544995D01*
X162286523Y-117449757D01*
X162191285Y-117402138D01*
X162000809Y-117354519D01*
X161857952Y-117354519D01*
X161667476Y-117402138D01*
X161572238Y-117449757D01*
X161477000Y-117544995D01*
X161429380Y-117687853D01*
X161429380Y-117783091D01*
X161477000Y-117925948D01*
X161524619Y-117973567D01*
X162429380Y-118925948D02*
X162429380Y-118354519D01*
X162429380Y-118640234D02*
X161429380Y-118640234D01*
X161572238Y-118544995D01*
X161667476Y-118449757D01*
X161715095Y-118354519D01*
X161429380Y-119783091D02*
X161429380Y-119592615D01*
X161477000Y-119497376D01*
X161524619Y-119449757D01*
X161667476Y-119354519D01*
X161857952Y-119306900D01*
X162238904Y-119306900D01*
X162334142Y-119354519D01*
X162381761Y-119402138D01*
X162429380Y-119497376D01*
X162429380Y-119687853D01*
X162381761Y-119783091D01*
X162334142Y-119830710D01*
X162238904Y-119878329D01*
X162000809Y-119878329D01*
X161905571Y-119830710D01*
X161857952Y-119783091D01*
X161810333Y-119687853D01*
X161810333Y-119497376D01*
X161857952Y-119402138D01*
X161905571Y-119354519D01*
X162000809Y-119306900D01*
X161524619Y-120259281D02*
X161477000Y-120306900D01*
X161429380Y-120402138D01*
X161429380Y-120640234D01*
X161477000Y-120735472D01*
X161524619Y-120783091D01*
X161619857Y-120830710D01*
X161715095Y-120830710D01*
X161857952Y-120783091D01*
X162429380Y-120211662D01*
X162429380Y-120830710D01*
X179391047Y-129319757D02*
X179438666Y-129367376D01*
X179581523Y-129414995D01*
X179676761Y-129414995D01*
X179819619Y-129367376D01*
X179914857Y-129272138D01*
X179962476Y-129176900D01*
X180010095Y-128986424D01*
X180010095Y-128843567D01*
X179962476Y-128653091D01*
X179914857Y-128557853D01*
X179819619Y-128462615D01*
X179676761Y-128414995D01*
X179581523Y-128414995D01*
X179438666Y-128462615D01*
X179391047Y-128510234D01*
X178438666Y-129414995D02*
X179010095Y-129414995D01*
X178724380Y-129414995D02*
X178724380Y-128414995D01*
X178819619Y-128557853D01*
X178914857Y-128653091D01*
X179010095Y-128700710D01*
X177581523Y-128414995D02*
X177772000Y-128414995D01*
X177867238Y-128462615D01*
X177914857Y-128510234D01*
X178010095Y-128653091D01*
X178057714Y-128843567D01*
X178057714Y-129224519D01*
X178010095Y-129319757D01*
X177962476Y-129367376D01*
X177867238Y-129414995D01*
X177676761Y-129414995D01*
X177581523Y-129367376D01*
X177533904Y-129319757D01*
X177486285Y-129224519D01*
X177486285Y-128986424D01*
X177533904Y-128891186D01*
X177581523Y-128843567D01*
X177676761Y-128795948D01*
X177867238Y-128795948D01*
X177962476Y-128843567D01*
X178010095Y-128891186D01*
X178057714Y-128986424D01*
X176533904Y-129414995D02*
X177105333Y-129414995D01*
X176819619Y-129414995D02*
X176819619Y-128414995D01*
X176914857Y-128557853D01*
X177010095Y-128653091D01*
X177105333Y-128700710D01*
X179224142Y-118803567D02*
X179271761Y-118755948D01*
X179319380Y-118613091D01*
X179319380Y-118517853D01*
X179271761Y-118374995D01*
X179176523Y-118279757D01*
X179081285Y-118232138D01*
X178890809Y-118184519D01*
X178747952Y-118184519D01*
X178557476Y-118232138D01*
X178462238Y-118279757D01*
X178367000Y-118374995D01*
X178319380Y-118517853D01*
X178319380Y-118613091D01*
X178367000Y-118755948D01*
X178414619Y-118803567D01*
X179319380Y-119755948D02*
X179319380Y-119184519D01*
X179319380Y-119470234D02*
X178319380Y-119470234D01*
X178462238Y-119374995D01*
X178557476Y-119279757D01*
X178605095Y-119184519D01*
X178319380Y-120613091D02*
X178319380Y-120422615D01*
X178367000Y-120327376D01*
X178414619Y-120279757D01*
X178557476Y-120184519D01*
X178747952Y-120136900D01*
X179128904Y-120136900D01*
X179224142Y-120184519D01*
X179271761Y-120232138D01*
X179319380Y-120327376D01*
X179319380Y-120517853D01*
X179271761Y-120613091D01*
X179224142Y-120660710D01*
X179128904Y-120708329D01*
X178890809Y-120708329D01*
X178795571Y-120660710D01*
X178747952Y-120613091D01*
X178700333Y-120517853D01*
X178700333Y-120327376D01*
X178747952Y-120232138D01*
X178795571Y-120184519D01*
X178890809Y-120136900D01*
X178319380Y-121327376D02*
X178319380Y-121422615D01*
X178367000Y-121517853D01*
X178414619Y-121565472D01*
X178509857Y-121613091D01*
X178700333Y-121660710D01*
X178938428Y-121660710D01*
X179128904Y-121613091D01*
X179224142Y-121565472D01*
X179271761Y-121517853D01*
X179319380Y-121422615D01*
X179319380Y-121327376D01*
X179271761Y-121232138D01*
X179224142Y-121184519D01*
X179128904Y-121136900D01*
X178938428Y-121089281D01*
X178700333Y-121089281D01*
X178509857Y-121136900D01*
X178414619Y-121184519D01*
X178367000Y-121232138D01*
X178319380Y-121327376D01*
X173054142Y-139203567D02*
X173101761Y-139155948D01*
X173149380Y-139013091D01*
X173149380Y-138917853D01*
X173101761Y-138774995D01*
X173006523Y-138679757D01*
X172911285Y-138632138D01*
X172720809Y-138584519D01*
X172577952Y-138584519D01*
X172387476Y-138632138D01*
X172292238Y-138679757D01*
X172197000Y-138774995D01*
X172149380Y-138917853D01*
X172149380Y-139013091D01*
X172197000Y-139155948D01*
X172244619Y-139203567D01*
X173149380Y-140155948D02*
X173149380Y-139584519D01*
X173149380Y-139870234D02*
X172149380Y-139870234D01*
X172292238Y-139774995D01*
X172387476Y-139679757D01*
X172435095Y-139584519D01*
X172149380Y-141060710D02*
X172149380Y-140584519D01*
X172625571Y-140536900D01*
X172577952Y-140584519D01*
X172530333Y-140679757D01*
X172530333Y-140917853D01*
X172577952Y-141013091D01*
X172625571Y-141060710D01*
X172720809Y-141108329D01*
X172958904Y-141108329D01*
X173054142Y-141060710D01*
X173101761Y-141013091D01*
X173149380Y-140917853D01*
X173149380Y-140679757D01*
X173101761Y-140584519D01*
X173054142Y-140536900D01*
X173149380Y-141584519D02*
X173149380Y-141774995D01*
X173101761Y-141870234D01*
X173054142Y-141917853D01*
X172911285Y-142013091D01*
X172720809Y-142060710D01*
X172339857Y-142060710D01*
X172244619Y-142013091D01*
X172197000Y-141965472D01*
X172149380Y-141870234D01*
X172149380Y-141679757D01*
X172197000Y-141584519D01*
X172244619Y-141536900D01*
X172339857Y-141489281D01*
X172577952Y-141489281D01*
X172673190Y-141536900D01*
X172720809Y-141584519D01*
X172768428Y-141679757D01*
X172768428Y-141870234D01*
X172720809Y-141965472D01*
X172673190Y-142013091D01*
X172577952Y-142060710D01*
X168544142Y-139153567D02*
X168591761Y-139105948D01*
X168639380Y-138963091D01*
X168639380Y-138867853D01*
X168591761Y-138724995D01*
X168496523Y-138629757D01*
X168401285Y-138582138D01*
X168210809Y-138534519D01*
X168067952Y-138534519D01*
X167877476Y-138582138D01*
X167782238Y-138629757D01*
X167687000Y-138724995D01*
X167639380Y-138867853D01*
X167639380Y-138963091D01*
X167687000Y-139105948D01*
X167734619Y-139153567D01*
X168639380Y-140105948D02*
X168639380Y-139534519D01*
X168639380Y-139820234D02*
X167639380Y-139820234D01*
X167782238Y-139724995D01*
X167877476Y-139629757D01*
X167925095Y-139534519D01*
X167639380Y-141010710D02*
X167639380Y-140534519D01*
X168115571Y-140486900D01*
X168067952Y-140534519D01*
X168020333Y-140629757D01*
X168020333Y-140867853D01*
X168067952Y-140963091D01*
X168115571Y-141010710D01*
X168210809Y-141058329D01*
X168448904Y-141058329D01*
X168544142Y-141010710D01*
X168591761Y-140963091D01*
X168639380Y-140867853D01*
X168639380Y-140629757D01*
X168591761Y-140534519D01*
X168544142Y-140486900D01*
X168067952Y-141629757D02*
X168020333Y-141534519D01*
X167972714Y-141486900D01*
X167877476Y-141439281D01*
X167829857Y-141439281D01*
X167734619Y-141486900D01*
X167687000Y-141534519D01*
X167639380Y-141629757D01*
X167639380Y-141820234D01*
X167687000Y-141915472D01*
X167734619Y-141963091D01*
X167829857Y-142010710D01*
X167877476Y-142010710D01*
X167972714Y-141963091D01*
X168020333Y-141915472D01*
X168067952Y-141820234D01*
X168067952Y-141629757D01*
X168115571Y-141534519D01*
X168163190Y-141486900D01*
X168258428Y-141439281D01*
X168448904Y-141439281D01*
X168544142Y-141486900D01*
X168591761Y-141534519D01*
X168639380Y-141629757D01*
X168639380Y-141820234D01*
X168591761Y-141915472D01*
X168544142Y-141963091D01*
X168448904Y-142010710D01*
X168258428Y-142010710D01*
X168163190Y-141963091D01*
X168115571Y-141915472D01*
X168067952Y-141820234D01*
X169636047Y-134889757D02*
X169683666Y-134937376D01*
X169826523Y-134984995D01*
X169921761Y-134984995D01*
X170064619Y-134937376D01*
X170159857Y-134842138D01*
X170207476Y-134746900D01*
X170255095Y-134556424D01*
X170255095Y-134413567D01*
X170207476Y-134223091D01*
X170159857Y-134127853D01*
X170064619Y-134032615D01*
X169921761Y-133984995D01*
X169826523Y-133984995D01*
X169683666Y-134032615D01*
X169636047Y-134080234D01*
X168683666Y-134984995D02*
X169255095Y-134984995D01*
X168969380Y-134984995D02*
X168969380Y-133984995D01*
X169064619Y-134127853D01*
X169159857Y-134223091D01*
X169255095Y-134270710D01*
X167778904Y-133984995D02*
X168255095Y-133984995D01*
X168302714Y-134461186D01*
X168255095Y-134413567D01*
X168159857Y-134365948D01*
X167921761Y-134365948D01*
X167826523Y-134413567D01*
X167778904Y-134461186D01*
X167731285Y-134556424D01*
X167731285Y-134794519D01*
X167778904Y-134889757D01*
X167826523Y-134937376D01*
X167921761Y-134984995D01*
X168159857Y-134984995D01*
X168255095Y-134937376D01*
X168302714Y-134889757D01*
X167397952Y-133984995D02*
X166731285Y-133984995D01*
X167159857Y-134984995D01*
X164051047Y-125769757D02*
X164098666Y-125817376D01*
X164241523Y-125864995D01*
X164336761Y-125864995D01*
X164479619Y-125817376D01*
X164574857Y-125722138D01*
X164622476Y-125626900D01*
X164670095Y-125436424D01*
X164670095Y-125293567D01*
X164622476Y-125103091D01*
X164574857Y-125007853D01*
X164479619Y-124912615D01*
X164336761Y-124864995D01*
X164241523Y-124864995D01*
X164098666Y-124912615D01*
X164051047Y-124960234D01*
X163098666Y-125864995D02*
X163670095Y-125864995D01*
X163384380Y-125864995D02*
X163384380Y-124864995D01*
X163479619Y-125007853D01*
X163574857Y-125103091D01*
X163670095Y-125150710D01*
X162193904Y-124864995D02*
X162670095Y-124864995D01*
X162717714Y-125341186D01*
X162670095Y-125293567D01*
X162574857Y-125245948D01*
X162336761Y-125245948D01*
X162241523Y-125293567D01*
X162193904Y-125341186D01*
X162146285Y-125436424D01*
X162146285Y-125674519D01*
X162193904Y-125769757D01*
X162241523Y-125817376D01*
X162336761Y-125864995D01*
X162574857Y-125864995D01*
X162670095Y-125817376D01*
X162717714Y-125769757D01*
X161289142Y-124864995D02*
X161479619Y-124864995D01*
X161574857Y-124912615D01*
X161622476Y-124960234D01*
X161717714Y-125103091D01*
X161765333Y-125293567D01*
X161765333Y-125674519D01*
X161717714Y-125769757D01*
X161670095Y-125817376D01*
X161574857Y-125864995D01*
X161384380Y-125864995D01*
X161289142Y-125817376D01*
X161241523Y-125769757D01*
X161193904Y-125674519D01*
X161193904Y-125436424D01*
X161241523Y-125341186D01*
X161289142Y-125293567D01*
X161384380Y-125245948D01*
X161574857Y-125245948D01*
X161670095Y-125293567D01*
X161717714Y-125341186D01*
X161765333Y-125436424D01*
X166564142Y-126023567D02*
X166611761Y-125975948D01*
X166659380Y-125833091D01*
X166659380Y-125737853D01*
X166611761Y-125594995D01*
X166516523Y-125499757D01*
X166421285Y-125452138D01*
X166230809Y-125404519D01*
X166087952Y-125404519D01*
X165897476Y-125452138D01*
X165802238Y-125499757D01*
X165707000Y-125594995D01*
X165659380Y-125737853D01*
X165659380Y-125833091D01*
X165707000Y-125975948D01*
X165754619Y-126023567D01*
X166659380Y-126975948D02*
X166659380Y-126404519D01*
X166659380Y-126690234D02*
X165659380Y-126690234D01*
X165802238Y-126594995D01*
X165897476Y-126499757D01*
X165945095Y-126404519D01*
X165659380Y-127880710D02*
X165659380Y-127404519D01*
X166135571Y-127356900D01*
X166087952Y-127404519D01*
X166040333Y-127499757D01*
X166040333Y-127737853D01*
X166087952Y-127833091D01*
X166135571Y-127880710D01*
X166230809Y-127928329D01*
X166468904Y-127928329D01*
X166564142Y-127880710D01*
X166611761Y-127833091D01*
X166659380Y-127737853D01*
X166659380Y-127499757D01*
X166611761Y-127404519D01*
X166564142Y-127356900D01*
X165659380Y-128833091D02*
X165659380Y-128356900D01*
X166135571Y-128309281D01*
X166087952Y-128356900D01*
X166040333Y-128452138D01*
X166040333Y-128690234D01*
X166087952Y-128785472D01*
X166135571Y-128833091D01*
X166230809Y-128880710D01*
X166468904Y-128880710D01*
X166564142Y-128833091D01*
X166611761Y-128785472D01*
X166659380Y-128690234D01*
X166659380Y-128452138D01*
X166611761Y-128356900D01*
X166564142Y-128309281D01*
X170574142Y-126093567D02*
X170621761Y-126045948D01*
X170669380Y-125903091D01*
X170669380Y-125807853D01*
X170621761Y-125664995D01*
X170526523Y-125569757D01*
X170431285Y-125522138D01*
X170240809Y-125474519D01*
X170097952Y-125474519D01*
X169907476Y-125522138D01*
X169812238Y-125569757D01*
X169717000Y-125664995D01*
X169669380Y-125807853D01*
X169669380Y-125903091D01*
X169717000Y-126045948D01*
X169764619Y-126093567D01*
X170669380Y-127045948D02*
X170669380Y-126474519D01*
X170669380Y-126760234D02*
X169669380Y-126760234D01*
X169812238Y-126664995D01*
X169907476Y-126569757D01*
X169955095Y-126474519D01*
X169669380Y-127950710D02*
X169669380Y-127474519D01*
X170145571Y-127426900D01*
X170097952Y-127474519D01*
X170050333Y-127569757D01*
X170050333Y-127807853D01*
X170097952Y-127903091D01*
X170145571Y-127950710D01*
X170240809Y-127998329D01*
X170478904Y-127998329D01*
X170574142Y-127950710D01*
X170621761Y-127903091D01*
X170669380Y-127807853D01*
X170669380Y-127569757D01*
X170621761Y-127474519D01*
X170574142Y-127426900D01*
X170002714Y-128855472D02*
X170669380Y-128855472D01*
X169621761Y-128617376D02*
X170336047Y-128379281D01*
X170336047Y-128998329D01*
X174534142Y-126043567D02*
X174581761Y-125995948D01*
X174629380Y-125853091D01*
X174629380Y-125757853D01*
X174581761Y-125614995D01*
X174486523Y-125519757D01*
X174391285Y-125472138D01*
X174200809Y-125424519D01*
X174057952Y-125424519D01*
X173867476Y-125472138D01*
X173772238Y-125519757D01*
X173677000Y-125614995D01*
X173629380Y-125757853D01*
X173629380Y-125853091D01*
X173677000Y-125995948D01*
X173724619Y-126043567D01*
X174629380Y-126995948D02*
X174629380Y-126424519D01*
X174629380Y-126710234D02*
X173629380Y-126710234D01*
X173772238Y-126614995D01*
X173867476Y-126519757D01*
X173915095Y-126424519D01*
X173629380Y-127900710D02*
X173629380Y-127424519D01*
X174105571Y-127376900D01*
X174057952Y-127424519D01*
X174010333Y-127519757D01*
X174010333Y-127757853D01*
X174057952Y-127853091D01*
X174105571Y-127900710D01*
X174200809Y-127948329D01*
X174438904Y-127948329D01*
X174534142Y-127900710D01*
X174581761Y-127853091D01*
X174629380Y-127757853D01*
X174629380Y-127519757D01*
X174581761Y-127424519D01*
X174534142Y-127376900D01*
X173629380Y-128281662D02*
X173629380Y-128900710D01*
X174010333Y-128567376D01*
X174010333Y-128710234D01*
X174057952Y-128805472D01*
X174105571Y-128853091D01*
X174200809Y-128900710D01*
X174438904Y-128900710D01*
X174534142Y-128853091D01*
X174581761Y-128805472D01*
X174629380Y-128710234D01*
X174629380Y-128424519D01*
X174581761Y-128329281D01*
X174534142Y-128281662D01*
X172554142Y-126043567D02*
X172601761Y-125995948D01*
X172649380Y-125853091D01*
X172649380Y-125757853D01*
X172601761Y-125614995D01*
X172506523Y-125519757D01*
X172411285Y-125472138D01*
X172220809Y-125424519D01*
X172077952Y-125424519D01*
X171887476Y-125472138D01*
X171792238Y-125519757D01*
X171697000Y-125614995D01*
X171649380Y-125757853D01*
X171649380Y-125853091D01*
X171697000Y-125995948D01*
X171744619Y-126043567D01*
X172649380Y-126995948D02*
X172649380Y-126424519D01*
X172649380Y-126710234D02*
X171649380Y-126710234D01*
X171792238Y-126614995D01*
X171887476Y-126519757D01*
X171935095Y-126424519D01*
X171649380Y-127900710D02*
X171649380Y-127424519D01*
X172125571Y-127376900D01*
X172077952Y-127424519D01*
X172030333Y-127519757D01*
X172030333Y-127757853D01*
X172077952Y-127853091D01*
X172125571Y-127900710D01*
X172220809Y-127948329D01*
X172458904Y-127948329D01*
X172554142Y-127900710D01*
X172601761Y-127853091D01*
X172649380Y-127757853D01*
X172649380Y-127519757D01*
X172601761Y-127424519D01*
X172554142Y-127376900D01*
X171744619Y-128329281D02*
X171697000Y-128376900D01*
X171649380Y-128472138D01*
X171649380Y-128710234D01*
X171697000Y-128805472D01*
X171744619Y-128853091D01*
X171839857Y-128900710D01*
X171935095Y-128900710D01*
X172077952Y-128853091D01*
X172649380Y-128281662D01*
X172649380Y-128900710D01*
X168574142Y-126043567D02*
X168621761Y-125995948D01*
X168669380Y-125853091D01*
X168669380Y-125757853D01*
X168621761Y-125614995D01*
X168526523Y-125519757D01*
X168431285Y-125472138D01*
X168240809Y-125424519D01*
X168097952Y-125424519D01*
X167907476Y-125472138D01*
X167812238Y-125519757D01*
X167717000Y-125614995D01*
X167669380Y-125757853D01*
X167669380Y-125853091D01*
X167717000Y-125995948D01*
X167764619Y-126043567D01*
X168669380Y-126995948D02*
X168669380Y-126424519D01*
X168669380Y-126710234D02*
X167669380Y-126710234D01*
X167812238Y-126614995D01*
X167907476Y-126519757D01*
X167955095Y-126424519D01*
X167669380Y-127900710D02*
X167669380Y-127424519D01*
X168145571Y-127376900D01*
X168097952Y-127424519D01*
X168050333Y-127519757D01*
X168050333Y-127757853D01*
X168097952Y-127853091D01*
X168145571Y-127900710D01*
X168240809Y-127948329D01*
X168478904Y-127948329D01*
X168574142Y-127900710D01*
X168621761Y-127853091D01*
X168669380Y-127757853D01*
X168669380Y-127519757D01*
X168621761Y-127424519D01*
X168574142Y-127376900D01*
X168669380Y-128900710D02*
X168669380Y-128329281D01*
X168669380Y-128614995D02*
X167669380Y-128614995D01*
X167812238Y-128519757D01*
X167907476Y-128424519D01*
X167955095Y-128329281D01*
X181516047Y-126969757D02*
X181563666Y-127017376D01*
X181706523Y-127064995D01*
X181801761Y-127064995D01*
X181944619Y-127017376D01*
X182039857Y-126922138D01*
X182087476Y-126826900D01*
X182135095Y-126636424D01*
X182135095Y-126493567D01*
X182087476Y-126303091D01*
X182039857Y-126207853D01*
X181944619Y-126112615D01*
X181801761Y-126064995D01*
X181706523Y-126064995D01*
X181563666Y-126112615D01*
X181516047Y-126160234D01*
X180563666Y-127064995D02*
X181135095Y-127064995D01*
X180849380Y-127064995D02*
X180849380Y-126064995D01*
X180944619Y-126207853D01*
X181039857Y-126303091D01*
X181135095Y-126350710D01*
X179658904Y-126064995D02*
X180135095Y-126064995D01*
X180182714Y-126541186D01*
X180135095Y-126493567D01*
X180039857Y-126445948D01*
X179801761Y-126445948D01*
X179706523Y-126493567D01*
X179658904Y-126541186D01*
X179611285Y-126636424D01*
X179611285Y-126874519D01*
X179658904Y-126969757D01*
X179706523Y-127017376D01*
X179801761Y-127064995D01*
X180039857Y-127064995D01*
X180135095Y-127017376D01*
X180182714Y-126969757D01*
X178992238Y-126064995D02*
X178897000Y-126064995D01*
X178801761Y-126112615D01*
X178754142Y-126160234D01*
X178706523Y-126255472D01*
X178658904Y-126445948D01*
X178658904Y-126684043D01*
X178706523Y-126874519D01*
X178754142Y-126969757D01*
X178801761Y-127017376D01*
X178897000Y-127064995D01*
X178992238Y-127064995D01*
X179087476Y-127017376D01*
X179135095Y-126969757D01*
X179182714Y-126874519D01*
X179230333Y-126684043D01*
X179230333Y-126445948D01*
X179182714Y-126255472D01*
X179135095Y-126160234D01*
X179087476Y-126112615D01*
X178992238Y-126064995D01*
X178626047Y-134839757D02*
X178673666Y-134887376D01*
X178816523Y-134934995D01*
X178911761Y-134934995D01*
X179054619Y-134887376D01*
X179149857Y-134792138D01*
X179197476Y-134696900D01*
X179245095Y-134506424D01*
X179245095Y-134363567D01*
X179197476Y-134173091D01*
X179149857Y-134077853D01*
X179054619Y-133982615D01*
X178911761Y-133934995D01*
X178816523Y-133934995D01*
X178673666Y-133982615D01*
X178626047Y-134030234D01*
X177673666Y-134934995D02*
X178245095Y-134934995D01*
X177959380Y-134934995D02*
X177959380Y-133934995D01*
X178054619Y-134077853D01*
X178149857Y-134173091D01*
X178245095Y-134220710D01*
X176816523Y-134268329D02*
X176816523Y-134934995D01*
X177054619Y-133887376D02*
X177292714Y-134601662D01*
X176673666Y-134601662D01*
X176245095Y-134934995D02*
X176054619Y-134934995D01*
X175959380Y-134887376D01*
X175911761Y-134839757D01*
X175816523Y-134696900D01*
X175768904Y-134506424D01*
X175768904Y-134125472D01*
X175816523Y-134030234D01*
X175864142Y-133982615D01*
X175959380Y-133934995D01*
X176149857Y-133934995D01*
X176245095Y-133982615D01*
X176292714Y-134030234D01*
X176340333Y-134125472D01*
X176340333Y-134363567D01*
X176292714Y-134458805D01*
X176245095Y-134506424D01*
X176149857Y-134554043D01*
X175959380Y-134554043D01*
X175864142Y-134506424D01*
X175816523Y-134458805D01*
X175768904Y-134363567D01*
X164664142Y-117923567D02*
X164711761Y-117875948D01*
X164759380Y-117733091D01*
X164759380Y-117637853D01*
X164711761Y-117494995D01*
X164616523Y-117399757D01*
X164521285Y-117352138D01*
X164330809Y-117304519D01*
X164187952Y-117304519D01*
X163997476Y-117352138D01*
X163902238Y-117399757D01*
X163807000Y-117494995D01*
X163759380Y-117637853D01*
X163759380Y-117733091D01*
X163807000Y-117875948D01*
X163854619Y-117923567D01*
X164759380Y-118875948D02*
X164759380Y-118304519D01*
X164759380Y-118590234D02*
X163759380Y-118590234D01*
X163902238Y-118494995D01*
X163997476Y-118399757D01*
X164045095Y-118304519D01*
X164092714Y-119733091D02*
X164759380Y-119733091D01*
X163711761Y-119494995D02*
X164426047Y-119256900D01*
X164426047Y-119875948D01*
X164187952Y-120399757D02*
X164140333Y-120304519D01*
X164092714Y-120256900D01*
X163997476Y-120209281D01*
X163949857Y-120209281D01*
X163854619Y-120256900D01*
X163807000Y-120304519D01*
X163759380Y-120399757D01*
X163759380Y-120590234D01*
X163807000Y-120685472D01*
X163854619Y-120733091D01*
X163949857Y-120780710D01*
X163997476Y-120780710D01*
X164092714Y-120733091D01*
X164140333Y-120685472D01*
X164187952Y-120590234D01*
X164187952Y-120399757D01*
X164235571Y-120304519D01*
X164283190Y-120256900D01*
X164378428Y-120209281D01*
X164568904Y-120209281D01*
X164664142Y-120256900D01*
X164711761Y-120304519D01*
X164759380Y-120399757D01*
X164759380Y-120590234D01*
X164711761Y-120685472D01*
X164664142Y-120733091D01*
X164568904Y-120780710D01*
X164378428Y-120780710D01*
X164283190Y-120733091D01*
X164235571Y-120685472D01*
X164187952Y-120590234D01*
X177664142Y-118003567D02*
X177711761Y-117955948D01*
X177759380Y-117813091D01*
X177759380Y-117717853D01*
X177711761Y-117574995D01*
X177616523Y-117479757D01*
X177521285Y-117432138D01*
X177330809Y-117384519D01*
X177187952Y-117384519D01*
X176997476Y-117432138D01*
X176902238Y-117479757D01*
X176807000Y-117574995D01*
X176759380Y-117717853D01*
X176759380Y-117813091D01*
X176807000Y-117955948D01*
X176854619Y-118003567D01*
X177759380Y-118955948D02*
X177759380Y-118384519D01*
X177759380Y-118670234D02*
X176759380Y-118670234D01*
X176902238Y-118574995D01*
X176997476Y-118479757D01*
X177045095Y-118384519D01*
X177092714Y-119813091D02*
X177759380Y-119813091D01*
X176711761Y-119574995D02*
X177426047Y-119336900D01*
X177426047Y-119955948D01*
X176759380Y-120241662D02*
X176759380Y-120908329D01*
X177759380Y-120479757D01*
X163514142Y-135893567D02*
X163561761Y-135845948D01*
X163609380Y-135703091D01*
X163609380Y-135607853D01*
X163561761Y-135464995D01*
X163466523Y-135369757D01*
X163371285Y-135322138D01*
X163180809Y-135274519D01*
X163037952Y-135274519D01*
X162847476Y-135322138D01*
X162752238Y-135369757D01*
X162657000Y-135464995D01*
X162609380Y-135607853D01*
X162609380Y-135703091D01*
X162657000Y-135845948D01*
X162704619Y-135893567D01*
X163609380Y-136845948D02*
X163609380Y-136274519D01*
X163609380Y-136560234D02*
X162609380Y-136560234D01*
X162752238Y-136464995D01*
X162847476Y-136369757D01*
X162895095Y-136274519D01*
X162942714Y-137703091D02*
X163609380Y-137703091D01*
X162561761Y-137464995D02*
X163276047Y-137226900D01*
X163276047Y-137845948D01*
X162609380Y-138655472D02*
X162609380Y-138464995D01*
X162657000Y-138369757D01*
X162704619Y-138322138D01*
X162847476Y-138226900D01*
X163037952Y-138179281D01*
X163418904Y-138179281D01*
X163514142Y-138226900D01*
X163561761Y-138274519D01*
X163609380Y-138369757D01*
X163609380Y-138560234D01*
X163561761Y-138655472D01*
X163514142Y-138703091D01*
X163418904Y-138750710D01*
X163180809Y-138750710D01*
X163085571Y-138703091D01*
X163037952Y-138655472D01*
X162990333Y-138560234D01*
X162990333Y-138369757D01*
X163037952Y-138274519D01*
X163085571Y-138226900D01*
X163180809Y-138179281D01*
X170574142Y-117903567D02*
X170621761Y-117855948D01*
X170669380Y-117713091D01*
X170669380Y-117617853D01*
X170621761Y-117474995D01*
X170526523Y-117379757D01*
X170431285Y-117332138D01*
X170240809Y-117284519D01*
X170097952Y-117284519D01*
X169907476Y-117332138D01*
X169812238Y-117379757D01*
X169717000Y-117474995D01*
X169669380Y-117617853D01*
X169669380Y-117713091D01*
X169717000Y-117855948D01*
X169764619Y-117903567D01*
X170669380Y-118855948D02*
X170669380Y-118284519D01*
X170669380Y-118570234D02*
X169669380Y-118570234D01*
X169812238Y-118474995D01*
X169907476Y-118379757D01*
X169955095Y-118284519D01*
X170002714Y-119713091D02*
X170669380Y-119713091D01*
X169621761Y-119474995D02*
X170336047Y-119236900D01*
X170336047Y-119855948D01*
X169669380Y-120713091D02*
X169669380Y-120236900D01*
X170145571Y-120189281D01*
X170097952Y-120236900D01*
X170050333Y-120332138D01*
X170050333Y-120570234D01*
X170097952Y-120665472D01*
X170145571Y-120713091D01*
X170240809Y-120760710D01*
X170478904Y-120760710D01*
X170574142Y-120713091D01*
X170621761Y-120665472D01*
X170669380Y-120570234D01*
X170669380Y-120332138D01*
X170621761Y-120236900D01*
X170574142Y-120189281D01*
X166694142Y-118303567D02*
X166741761Y-118255948D01*
X166789380Y-118113091D01*
X166789380Y-118017853D01*
X166741761Y-117874995D01*
X166646523Y-117779757D01*
X166551285Y-117732138D01*
X166360809Y-117684519D01*
X166217952Y-117684519D01*
X166027476Y-117732138D01*
X165932238Y-117779757D01*
X165837000Y-117874995D01*
X165789380Y-118017853D01*
X165789380Y-118113091D01*
X165837000Y-118255948D01*
X165884619Y-118303567D01*
X166789380Y-119255948D02*
X166789380Y-118684519D01*
X166789380Y-118970234D02*
X165789380Y-118970234D01*
X165932238Y-118874995D01*
X166027476Y-118779757D01*
X166075095Y-118684519D01*
X166122714Y-120113091D02*
X166789380Y-120113091D01*
X165741761Y-119874995D02*
X166456047Y-119636900D01*
X166456047Y-120255948D01*
X166122714Y-121065472D02*
X166789380Y-121065472D01*
X165741761Y-120827376D02*
X166456047Y-120589281D01*
X166456047Y-121208329D01*
X168624142Y-118373567D02*
X168671761Y-118325948D01*
X168719380Y-118183091D01*
X168719380Y-118087853D01*
X168671761Y-117944995D01*
X168576523Y-117849757D01*
X168481285Y-117802138D01*
X168290809Y-117754519D01*
X168147952Y-117754519D01*
X167957476Y-117802138D01*
X167862238Y-117849757D01*
X167767000Y-117944995D01*
X167719380Y-118087853D01*
X167719380Y-118183091D01*
X167767000Y-118325948D01*
X167814619Y-118373567D01*
X168719380Y-119325948D02*
X168719380Y-118754519D01*
X168719380Y-119040234D02*
X167719380Y-119040234D01*
X167862238Y-118944995D01*
X167957476Y-118849757D01*
X168005095Y-118754519D01*
X168052714Y-120183091D02*
X168719380Y-120183091D01*
X167671761Y-119944995D02*
X168386047Y-119706900D01*
X168386047Y-120325948D01*
X167719380Y-120611662D02*
X167719380Y-121230710D01*
X168100333Y-120897376D01*
X168100333Y-121040234D01*
X168147952Y-121135472D01*
X168195571Y-121183091D01*
X168290809Y-121230710D01*
X168528904Y-121230710D01*
X168624142Y-121183091D01*
X168671761Y-121135472D01*
X168719380Y-121040234D01*
X168719380Y-120754519D01*
X168671761Y-120659281D01*
X168624142Y-120611662D01*
X171124142Y-139073567D02*
X171171761Y-139025948D01*
X171219380Y-138883091D01*
X171219380Y-138787853D01*
X171171761Y-138644995D01*
X171076523Y-138549757D01*
X170981285Y-138502138D01*
X170790809Y-138454519D01*
X170647952Y-138454519D01*
X170457476Y-138502138D01*
X170362238Y-138549757D01*
X170267000Y-138644995D01*
X170219380Y-138787853D01*
X170219380Y-138883091D01*
X170267000Y-139025948D01*
X170314619Y-139073567D01*
X171219380Y-140025948D02*
X171219380Y-139454519D01*
X171219380Y-139740234D02*
X170219380Y-139740234D01*
X170362238Y-139644995D01*
X170457476Y-139549757D01*
X170505095Y-139454519D01*
X170552714Y-140883091D02*
X171219380Y-140883091D01*
X170171761Y-140644995D02*
X170886047Y-140406900D01*
X170886047Y-141025948D01*
X170314619Y-141359281D02*
X170267000Y-141406900D01*
X170219380Y-141502138D01*
X170219380Y-141740234D01*
X170267000Y-141835472D01*
X170314619Y-141883091D01*
X170409857Y-141930710D01*
X170505095Y-141930710D01*
X170647952Y-141883091D01*
X171219380Y-141311662D01*
X171219380Y-141930710D01*
X172534142Y-118303567D02*
X172581761Y-118255948D01*
X172629380Y-118113091D01*
X172629380Y-118017853D01*
X172581761Y-117874995D01*
X172486523Y-117779757D01*
X172391285Y-117732138D01*
X172200809Y-117684519D01*
X172057952Y-117684519D01*
X171867476Y-117732138D01*
X171772238Y-117779757D01*
X171677000Y-117874995D01*
X171629380Y-118017853D01*
X171629380Y-118113091D01*
X171677000Y-118255948D01*
X171724619Y-118303567D01*
X172629380Y-119255948D02*
X172629380Y-118684519D01*
X172629380Y-118970234D02*
X171629380Y-118970234D01*
X171772238Y-118874995D01*
X171867476Y-118779757D01*
X171915095Y-118684519D01*
X171962714Y-120113091D02*
X172629380Y-120113091D01*
X171581761Y-119874995D02*
X172296047Y-119636900D01*
X172296047Y-120255948D01*
X172629380Y-121160710D02*
X172629380Y-120589281D01*
X172629380Y-120874995D02*
X171629380Y-120874995D01*
X171772238Y-120779757D01*
X171867476Y-120684519D01*
X171915095Y-120589281D01*
X177544142Y-138753567D02*
X177591761Y-138705948D01*
X177639380Y-138563091D01*
X177639380Y-138467853D01*
X177591761Y-138324995D01*
X177496523Y-138229757D01*
X177401285Y-138182138D01*
X177210809Y-138134519D01*
X177067952Y-138134519D01*
X176877476Y-138182138D01*
X176782238Y-138229757D01*
X176687000Y-138324995D01*
X176639380Y-138467853D01*
X176639380Y-138563091D01*
X176687000Y-138705948D01*
X176734619Y-138753567D01*
X177639380Y-139705948D02*
X177639380Y-139134519D01*
X177639380Y-139420234D02*
X176639380Y-139420234D01*
X176782238Y-139324995D01*
X176877476Y-139229757D01*
X176925095Y-139134519D01*
X176972714Y-140563091D02*
X177639380Y-140563091D01*
X176591761Y-140324995D02*
X177306047Y-140086900D01*
X177306047Y-140705948D01*
X176639380Y-141277376D02*
X176639380Y-141372615D01*
X176687000Y-141467853D01*
X176734619Y-141515472D01*
X176829857Y-141563091D01*
X177020333Y-141610710D01*
X177258428Y-141610710D01*
X177448904Y-141563091D01*
X177544142Y-141515472D01*
X177591761Y-141467853D01*
X177639380Y-141372615D01*
X177639380Y-141277376D01*
X177591761Y-141182138D01*
X177544142Y-141134519D01*
X177448904Y-141086900D01*
X177258428Y-141039281D01*
X177020333Y-141039281D01*
X176829857Y-141086900D01*
X176734619Y-141134519D01*
X176687000Y-141182138D01*
X176639380Y-141277376D01*
X175564142Y-118403567D02*
X175611761Y-118355948D01*
X175659380Y-118213091D01*
X175659380Y-118117853D01*
X175611761Y-117974995D01*
X175516523Y-117879757D01*
X175421285Y-117832138D01*
X175230809Y-117784519D01*
X175087952Y-117784519D01*
X174897476Y-117832138D01*
X174802238Y-117879757D01*
X174707000Y-117974995D01*
X174659380Y-118117853D01*
X174659380Y-118213091D01*
X174707000Y-118355948D01*
X174754619Y-118403567D01*
X175659380Y-119355948D02*
X175659380Y-118784519D01*
X175659380Y-119070234D02*
X174659380Y-119070234D01*
X174802238Y-118974995D01*
X174897476Y-118879757D01*
X174945095Y-118784519D01*
X174659380Y-119689281D02*
X174659380Y-120308329D01*
X175040333Y-119974995D01*
X175040333Y-120117853D01*
X175087952Y-120213091D01*
X175135571Y-120260710D01*
X175230809Y-120308329D01*
X175468904Y-120308329D01*
X175564142Y-120260710D01*
X175611761Y-120213091D01*
X175659380Y-120117853D01*
X175659380Y-119832138D01*
X175611761Y-119736900D01*
X175564142Y-119689281D01*
X175659380Y-120784519D02*
X175659380Y-120974995D01*
X175611761Y-121070234D01*
X175564142Y-121117853D01*
X175421285Y-121213091D01*
X175230809Y-121260710D01*
X174849857Y-121260710D01*
X174754619Y-121213091D01*
X174707000Y-121165472D01*
X174659380Y-121070234D01*
X174659380Y-120879757D01*
X174707000Y-120784519D01*
X174754619Y-120736900D01*
X174849857Y-120689281D01*
X175087952Y-120689281D01*
X175183190Y-120736900D01*
X175230809Y-120784519D01*
X175278428Y-120879757D01*
X175278428Y-121070234D01*
X175230809Y-121165472D01*
X175183190Y-121213091D01*
X175087952Y-121260710D01*
X99477797Y-134838307D02*
X99525416Y-134885926D01*
X99668273Y-134933545D01*
X99763511Y-134933545D01*
X99906369Y-134885926D01*
X100001607Y-134790688D01*
X100049226Y-134695450D01*
X100096845Y-134504974D01*
X100096845Y-134362117D01*
X100049226Y-134171641D01*
X100001607Y-134076403D01*
X99906369Y-133981165D01*
X99763511Y-133933545D01*
X99668273Y-133933545D01*
X99525416Y-133981165D01*
X99477797Y-134028784D01*
X98525416Y-134933545D02*
X99096845Y-134933545D01*
X98811130Y-134933545D02*
X98811130Y-133933545D01*
X98906369Y-134076403D01*
X99001607Y-134171641D01*
X99096845Y-134219260D01*
X98144464Y-134028784D02*
X98096845Y-133981165D01*
X98001607Y-133933545D01*
X97763511Y-133933545D01*
X97668273Y-133981165D01*
X97620654Y-134028784D01*
X97573035Y-134124022D01*
X97573035Y-134219260D01*
X97620654Y-134362117D01*
X98192083Y-134933545D01*
X97573035Y-134933545D01*
X96953988Y-133933545D02*
X96858750Y-133933545D01*
X96763511Y-133981165D01*
X96715892Y-134028784D01*
X96668273Y-134124022D01*
X96620654Y-134314498D01*
X96620654Y-134552593D01*
X96668273Y-134743069D01*
X96715892Y-134838307D01*
X96763511Y-134885926D01*
X96858750Y-134933545D01*
X96953988Y-134933545D01*
X97049226Y-134885926D01*
X97096845Y-134838307D01*
X97144464Y-134743069D01*
X97192083Y-134552593D01*
X97192083Y-134314498D01*
X97144464Y-134124022D01*
X97096845Y-134028784D01*
X97049226Y-133981165D01*
X96953988Y-133933545D01*
X85515892Y-117922117D02*
X85563511Y-117874498D01*
X85611130Y-117731641D01*
X85611130Y-117636403D01*
X85563511Y-117493545D01*
X85468273Y-117398307D01*
X85373035Y-117350688D01*
X85182559Y-117303069D01*
X85039702Y-117303069D01*
X84849226Y-117350688D01*
X84753988Y-117398307D01*
X84658750Y-117493545D01*
X84611130Y-117636403D01*
X84611130Y-117731641D01*
X84658750Y-117874498D01*
X84706369Y-117922117D01*
X85611130Y-118874498D02*
X85611130Y-118303069D01*
X85611130Y-118588784D02*
X84611130Y-118588784D01*
X84753988Y-118493545D01*
X84849226Y-118398307D01*
X84896845Y-118303069D01*
X85611130Y-119826879D02*
X85611130Y-119255450D01*
X85611130Y-119541165D02*
X84611130Y-119541165D01*
X84753988Y-119445926D01*
X84849226Y-119350688D01*
X84896845Y-119255450D01*
X85611130Y-120303069D02*
X85611130Y-120493545D01*
X85563511Y-120588784D01*
X85515892Y-120636403D01*
X85373035Y-120731641D01*
X85182559Y-120779260D01*
X84801607Y-120779260D01*
X84706369Y-120731641D01*
X84658750Y-120684022D01*
X84611130Y-120588784D01*
X84611130Y-120398307D01*
X84658750Y-120303069D01*
X84706369Y-120255450D01*
X84801607Y-120207831D01*
X85039702Y-120207831D01*
X85134940Y-120255450D01*
X85182559Y-120303069D01*
X85230178Y-120398307D01*
X85230178Y-120588784D01*
X85182559Y-120684022D01*
X85134940Y-120731641D01*
X85039702Y-120779260D01*
X98515892Y-118002117D02*
X98563511Y-117954498D01*
X98611130Y-117811641D01*
X98611130Y-117716403D01*
X98563511Y-117573545D01*
X98468273Y-117478307D01*
X98373035Y-117430688D01*
X98182559Y-117383069D01*
X98039702Y-117383069D01*
X97849226Y-117430688D01*
X97753988Y-117478307D01*
X97658750Y-117573545D01*
X97611130Y-117716403D01*
X97611130Y-117811641D01*
X97658750Y-117954498D01*
X97706369Y-118002117D01*
X98611130Y-118954498D02*
X98611130Y-118383069D01*
X98611130Y-118668784D02*
X97611130Y-118668784D01*
X97753988Y-118573545D01*
X97849226Y-118478307D01*
X97896845Y-118383069D01*
X98611130Y-119906879D02*
X98611130Y-119335450D01*
X98611130Y-119621165D02*
X97611130Y-119621165D01*
X97753988Y-119525926D01*
X97849226Y-119430688D01*
X97896845Y-119335450D01*
X98039702Y-120478307D02*
X97992083Y-120383069D01*
X97944464Y-120335450D01*
X97849226Y-120287831D01*
X97801607Y-120287831D01*
X97706369Y-120335450D01*
X97658750Y-120383069D01*
X97611130Y-120478307D01*
X97611130Y-120668784D01*
X97658750Y-120764022D01*
X97706369Y-120811641D01*
X97801607Y-120859260D01*
X97849226Y-120859260D01*
X97944464Y-120811641D01*
X97992083Y-120764022D01*
X98039702Y-120668784D01*
X98039702Y-120478307D01*
X98087321Y-120383069D01*
X98134940Y-120335450D01*
X98230178Y-120287831D01*
X98420654Y-120287831D01*
X98515892Y-120335450D01*
X98563511Y-120383069D01*
X98611130Y-120478307D01*
X98611130Y-120668784D01*
X98563511Y-120764022D01*
X98515892Y-120811641D01*
X98420654Y-120859260D01*
X98230178Y-120859260D01*
X98134940Y-120811641D01*
X98087321Y-120764022D01*
X98039702Y-120668784D01*
X84052797Y-132708307D02*
X84100416Y-132755926D01*
X84243273Y-132803545D01*
X84338511Y-132803545D01*
X84481369Y-132755926D01*
X84576607Y-132660688D01*
X84624226Y-132565450D01*
X84671845Y-132374974D01*
X84671845Y-132232117D01*
X84624226Y-132041641D01*
X84576607Y-131946403D01*
X84481369Y-131851165D01*
X84338511Y-131803545D01*
X84243273Y-131803545D01*
X84100416Y-131851165D01*
X84052797Y-131898784D01*
X83100416Y-132803545D02*
X83671845Y-132803545D01*
X83386130Y-132803545D02*
X83386130Y-131803545D01*
X83481369Y-131946403D01*
X83576607Y-132041641D01*
X83671845Y-132089260D01*
X82148035Y-132803545D02*
X82719464Y-132803545D01*
X82433750Y-132803545D02*
X82433750Y-131803545D01*
X82528988Y-131946403D01*
X82624226Y-132041641D01*
X82719464Y-132089260D01*
X81814702Y-131803545D02*
X81148035Y-131803545D01*
X81576607Y-132803545D01*
X95285892Y-139152117D02*
X95333511Y-139104498D01*
X95381130Y-138961641D01*
X95381130Y-138866403D01*
X95333511Y-138723545D01*
X95238273Y-138628307D01*
X95143035Y-138580688D01*
X94952559Y-138533069D01*
X94809702Y-138533069D01*
X94619226Y-138580688D01*
X94523988Y-138628307D01*
X94428750Y-138723545D01*
X94381130Y-138866403D01*
X94381130Y-138961641D01*
X94428750Y-139104498D01*
X94476369Y-139152117D01*
X95381130Y-140104498D02*
X95381130Y-139533069D01*
X95381130Y-139818784D02*
X94381130Y-139818784D01*
X94523988Y-139723545D01*
X94619226Y-139628307D01*
X94666845Y-139533069D01*
X95381130Y-141056879D02*
X95381130Y-140485450D01*
X95381130Y-140771165D02*
X94381130Y-140771165D01*
X94523988Y-140675926D01*
X94619226Y-140580688D01*
X94666845Y-140485450D01*
X94381130Y-141914022D02*
X94381130Y-141723545D01*
X94428750Y-141628307D01*
X94476369Y-141580688D01*
X94619226Y-141485450D01*
X94809702Y-141437831D01*
X95190654Y-141437831D01*
X95285892Y-141485450D01*
X95333511Y-141533069D01*
X95381130Y-141628307D01*
X95381130Y-141818784D01*
X95333511Y-141914022D01*
X95285892Y-141961641D01*
X95190654Y-142009260D01*
X94952559Y-142009260D01*
X94857321Y-141961641D01*
X94809702Y-141914022D01*
X94762083Y-141818784D01*
X94762083Y-141628307D01*
X94809702Y-141533069D01*
X94857321Y-141485450D01*
X94952559Y-141437831D01*
X87365892Y-139172117D02*
X87413511Y-139124498D01*
X87461130Y-138981641D01*
X87461130Y-138886403D01*
X87413511Y-138743545D01*
X87318273Y-138648307D01*
X87223035Y-138600688D01*
X87032559Y-138553069D01*
X86889702Y-138553069D01*
X86699226Y-138600688D01*
X86603988Y-138648307D01*
X86508750Y-138743545D01*
X86461130Y-138886403D01*
X86461130Y-138981641D01*
X86508750Y-139124498D01*
X86556369Y-139172117D01*
X87461130Y-140124498D02*
X87461130Y-139553069D01*
X87461130Y-139838784D02*
X86461130Y-139838784D01*
X86603988Y-139743545D01*
X86699226Y-139648307D01*
X86746845Y-139553069D01*
X87461130Y-141076879D02*
X87461130Y-140505450D01*
X87461130Y-140791165D02*
X86461130Y-140791165D01*
X86603988Y-140695926D01*
X86699226Y-140600688D01*
X86746845Y-140505450D01*
X86461130Y-141981641D02*
X86461130Y-141505450D01*
X86937321Y-141457831D01*
X86889702Y-141505450D01*
X86842083Y-141600688D01*
X86842083Y-141838784D01*
X86889702Y-141934022D01*
X86937321Y-141981641D01*
X87032559Y-142029260D01*
X87270654Y-142029260D01*
X87365892Y-141981641D01*
X87413511Y-141934022D01*
X87461130Y-141838784D01*
X87461130Y-141600688D01*
X87413511Y-141505450D01*
X87365892Y-141457831D01*
X83185892Y-117972117D02*
X83233511Y-117924498D01*
X83281130Y-117781641D01*
X83281130Y-117686403D01*
X83233511Y-117543545D01*
X83138273Y-117448307D01*
X83043035Y-117400688D01*
X82852559Y-117353069D01*
X82709702Y-117353069D01*
X82519226Y-117400688D01*
X82423988Y-117448307D01*
X82328750Y-117543545D01*
X82281130Y-117686403D01*
X82281130Y-117781641D01*
X82328750Y-117924498D01*
X82376369Y-117972117D01*
X83281130Y-118924498D02*
X83281130Y-118353069D01*
X83281130Y-118638784D02*
X82281130Y-118638784D01*
X82423988Y-118543545D01*
X82519226Y-118448307D01*
X82566845Y-118353069D01*
X83281130Y-119876879D02*
X83281130Y-119305450D01*
X83281130Y-119591165D02*
X82281130Y-119591165D01*
X82423988Y-119495926D01*
X82519226Y-119400688D01*
X82566845Y-119305450D01*
X82614464Y-120734022D02*
X83281130Y-120734022D01*
X82233511Y-120495926D02*
X82947797Y-120257831D01*
X82947797Y-120876879D01*
X100242797Y-129318307D02*
X100290416Y-129365926D01*
X100433273Y-129413545D01*
X100528511Y-129413545D01*
X100671369Y-129365926D01*
X100766607Y-129270688D01*
X100814226Y-129175450D01*
X100861845Y-128984974D01*
X100861845Y-128842117D01*
X100814226Y-128651641D01*
X100766607Y-128556403D01*
X100671369Y-128461165D01*
X100528511Y-128413545D01*
X100433273Y-128413545D01*
X100290416Y-128461165D01*
X100242797Y-128508784D01*
X99290416Y-129413545D02*
X99861845Y-129413545D01*
X99576130Y-129413545D02*
X99576130Y-128413545D01*
X99671369Y-128556403D01*
X99766607Y-128651641D01*
X99861845Y-128699260D01*
X98338035Y-129413545D02*
X98909464Y-129413545D01*
X98623750Y-129413545D02*
X98623750Y-128413545D01*
X98718988Y-128556403D01*
X98814226Y-128651641D01*
X98909464Y-128699260D01*
X98004702Y-128413545D02*
X97385654Y-128413545D01*
X97718988Y-128794498D01*
X97576130Y-128794498D01*
X97480892Y-128842117D01*
X97433273Y-128889736D01*
X97385654Y-128984974D01*
X97385654Y-129223069D01*
X97433273Y-129318307D01*
X97480892Y-129365926D01*
X97576130Y-129413545D01*
X97861845Y-129413545D01*
X97957083Y-129365926D01*
X98004702Y-129318307D01*
X100075892Y-118802117D02*
X100123511Y-118754498D01*
X100171130Y-118611641D01*
X100171130Y-118516403D01*
X100123511Y-118373545D01*
X100028273Y-118278307D01*
X99933035Y-118230688D01*
X99742559Y-118183069D01*
X99599702Y-118183069D01*
X99409226Y-118230688D01*
X99313988Y-118278307D01*
X99218750Y-118373545D01*
X99171130Y-118516403D01*
X99171130Y-118611641D01*
X99218750Y-118754498D01*
X99266369Y-118802117D01*
X100171130Y-119754498D02*
X100171130Y-119183069D01*
X100171130Y-119468784D02*
X99171130Y-119468784D01*
X99313988Y-119373545D01*
X99409226Y-119278307D01*
X99456845Y-119183069D01*
X100171130Y-120706879D02*
X100171130Y-120135450D01*
X100171130Y-120421165D02*
X99171130Y-120421165D01*
X99313988Y-120325926D01*
X99409226Y-120230688D01*
X99456845Y-120135450D01*
X99266369Y-121087831D02*
X99218750Y-121135450D01*
X99171130Y-121230688D01*
X99171130Y-121468784D01*
X99218750Y-121564022D01*
X99266369Y-121611641D01*
X99361607Y-121659260D01*
X99456845Y-121659260D01*
X99599702Y-121611641D01*
X100171130Y-121040212D01*
X100171130Y-121659260D01*
X93905892Y-139202117D02*
X93953511Y-139154498D01*
X94001130Y-139011641D01*
X94001130Y-138916403D01*
X93953511Y-138773545D01*
X93858273Y-138678307D01*
X93763035Y-138630688D01*
X93572559Y-138583069D01*
X93429702Y-138583069D01*
X93239226Y-138630688D01*
X93143988Y-138678307D01*
X93048750Y-138773545D01*
X93001130Y-138916403D01*
X93001130Y-139011641D01*
X93048750Y-139154498D01*
X93096369Y-139202117D01*
X94001130Y-140154498D02*
X94001130Y-139583069D01*
X94001130Y-139868784D02*
X93001130Y-139868784D01*
X93143988Y-139773545D01*
X93239226Y-139678307D01*
X93286845Y-139583069D01*
X94001130Y-141106879D02*
X94001130Y-140535450D01*
X94001130Y-140821165D02*
X93001130Y-140821165D01*
X93143988Y-140725926D01*
X93239226Y-140630688D01*
X93286845Y-140535450D01*
X94001130Y-142059260D02*
X94001130Y-141487831D01*
X94001130Y-141773545D02*
X93001130Y-141773545D01*
X93143988Y-141678307D01*
X93239226Y-141583069D01*
X93286845Y-141487831D01*
X89395892Y-139152117D02*
X89443511Y-139104498D01*
X89491130Y-138961641D01*
X89491130Y-138866403D01*
X89443511Y-138723545D01*
X89348273Y-138628307D01*
X89253035Y-138580688D01*
X89062559Y-138533069D01*
X88919702Y-138533069D01*
X88729226Y-138580688D01*
X88633988Y-138628307D01*
X88538750Y-138723545D01*
X88491130Y-138866403D01*
X88491130Y-138961641D01*
X88538750Y-139104498D01*
X88586369Y-139152117D01*
X89491130Y-140104498D02*
X89491130Y-139533069D01*
X89491130Y-139818784D02*
X88491130Y-139818784D01*
X88633988Y-139723545D01*
X88729226Y-139628307D01*
X88776845Y-139533069D01*
X89491130Y-141056879D02*
X89491130Y-140485450D01*
X89491130Y-140771165D02*
X88491130Y-140771165D01*
X88633988Y-140675926D01*
X88729226Y-140580688D01*
X88776845Y-140485450D01*
X88491130Y-141675926D02*
X88491130Y-141771165D01*
X88538750Y-141866403D01*
X88586369Y-141914022D01*
X88681607Y-141961641D01*
X88872083Y-142009260D01*
X89110178Y-142009260D01*
X89300654Y-141961641D01*
X89395892Y-141914022D01*
X89443511Y-141866403D01*
X89491130Y-141771165D01*
X89491130Y-141675926D01*
X89443511Y-141580688D01*
X89395892Y-141533069D01*
X89300654Y-141485450D01*
X89110178Y-141437831D01*
X88872083Y-141437831D01*
X88681607Y-141485450D01*
X88586369Y-141533069D01*
X88538750Y-141580688D01*
X88491130Y-141675926D01*
X90487797Y-134888307D02*
X90535416Y-134935926D01*
X90678273Y-134983545D01*
X90773511Y-134983545D01*
X90916369Y-134935926D01*
X91011607Y-134840688D01*
X91059226Y-134745450D01*
X91106845Y-134554974D01*
X91106845Y-134412117D01*
X91059226Y-134221641D01*
X91011607Y-134126403D01*
X90916369Y-134031165D01*
X90773511Y-133983545D01*
X90678273Y-133983545D01*
X90535416Y-134031165D01*
X90487797Y-134078784D01*
X89535416Y-134983545D02*
X90106845Y-134983545D01*
X89821130Y-134983545D02*
X89821130Y-133983545D01*
X89916369Y-134126403D01*
X90011607Y-134221641D01*
X90106845Y-134269260D01*
X88916369Y-133983545D02*
X88821130Y-133983545D01*
X88725892Y-134031165D01*
X88678273Y-134078784D01*
X88630654Y-134174022D01*
X88583035Y-134364498D01*
X88583035Y-134602593D01*
X88630654Y-134793069D01*
X88678273Y-134888307D01*
X88725892Y-134935926D01*
X88821130Y-134983545D01*
X88916369Y-134983545D01*
X89011607Y-134935926D01*
X89059226Y-134888307D01*
X89106845Y-134793069D01*
X89154464Y-134602593D01*
X89154464Y-134364498D01*
X89106845Y-134174022D01*
X89059226Y-134078784D01*
X89011607Y-134031165D01*
X88916369Y-133983545D01*
X88106845Y-134983545D02*
X87916369Y-134983545D01*
X87821130Y-134935926D01*
X87773511Y-134888307D01*
X87678273Y-134745450D01*
X87630654Y-134554974D01*
X87630654Y-134174022D01*
X87678273Y-134078784D01*
X87725892Y-134031165D01*
X87821130Y-133983545D01*
X88011607Y-133983545D01*
X88106845Y-134031165D01*
X88154464Y-134078784D01*
X88202083Y-134174022D01*
X88202083Y-134412117D01*
X88154464Y-134507355D01*
X88106845Y-134554974D01*
X88011607Y-134602593D01*
X87821130Y-134602593D01*
X87725892Y-134554974D01*
X87678273Y-134507355D01*
X87630654Y-134412117D01*
X84902797Y-125768307D02*
X84950416Y-125815926D01*
X85093273Y-125863545D01*
X85188511Y-125863545D01*
X85331369Y-125815926D01*
X85426607Y-125720688D01*
X85474226Y-125625450D01*
X85521845Y-125434974D01*
X85521845Y-125292117D01*
X85474226Y-125101641D01*
X85426607Y-125006403D01*
X85331369Y-124911165D01*
X85188511Y-124863545D01*
X85093273Y-124863545D01*
X84950416Y-124911165D01*
X84902797Y-124958784D01*
X83950416Y-125863545D02*
X84521845Y-125863545D01*
X84236130Y-125863545D02*
X84236130Y-124863545D01*
X84331369Y-125006403D01*
X84426607Y-125101641D01*
X84521845Y-125149260D01*
X83331369Y-124863545D02*
X83236130Y-124863545D01*
X83140892Y-124911165D01*
X83093273Y-124958784D01*
X83045654Y-125054022D01*
X82998035Y-125244498D01*
X82998035Y-125482593D01*
X83045654Y-125673069D01*
X83093273Y-125768307D01*
X83140892Y-125815926D01*
X83236130Y-125863545D01*
X83331369Y-125863545D01*
X83426607Y-125815926D01*
X83474226Y-125768307D01*
X83521845Y-125673069D01*
X83569464Y-125482593D01*
X83569464Y-125244498D01*
X83521845Y-125054022D01*
X83474226Y-124958784D01*
X83426607Y-124911165D01*
X83331369Y-124863545D01*
X82426607Y-125292117D02*
X82521845Y-125244498D01*
X82569464Y-125196879D01*
X82617083Y-125101641D01*
X82617083Y-125054022D01*
X82569464Y-124958784D01*
X82521845Y-124911165D01*
X82426607Y-124863545D01*
X82236130Y-124863545D01*
X82140892Y-124911165D01*
X82093273Y-124958784D01*
X82045654Y-125054022D01*
X82045654Y-125101641D01*
X82093273Y-125196879D01*
X82140892Y-125244498D01*
X82236130Y-125292117D01*
X82426607Y-125292117D01*
X82521845Y-125339736D01*
X82569464Y-125387355D01*
X82617083Y-125482593D01*
X82617083Y-125673069D01*
X82569464Y-125768307D01*
X82521845Y-125815926D01*
X82426607Y-125863545D01*
X82236130Y-125863545D01*
X82140892Y-125815926D01*
X82093273Y-125768307D01*
X82045654Y-125673069D01*
X82045654Y-125482593D01*
X82093273Y-125387355D01*
X82140892Y-125339736D01*
X82236130Y-125292117D01*
X87415892Y-126022117D02*
X87463511Y-125974498D01*
X87511130Y-125831641D01*
X87511130Y-125736403D01*
X87463511Y-125593545D01*
X87368273Y-125498307D01*
X87273035Y-125450688D01*
X87082559Y-125403069D01*
X86939702Y-125403069D01*
X86749226Y-125450688D01*
X86653988Y-125498307D01*
X86558750Y-125593545D01*
X86511130Y-125736403D01*
X86511130Y-125831641D01*
X86558750Y-125974498D01*
X86606369Y-126022117D01*
X87511130Y-126974498D02*
X87511130Y-126403069D01*
X87511130Y-126688784D02*
X86511130Y-126688784D01*
X86653988Y-126593545D01*
X86749226Y-126498307D01*
X86796845Y-126403069D01*
X86511130Y-127593545D02*
X86511130Y-127688784D01*
X86558750Y-127784022D01*
X86606369Y-127831641D01*
X86701607Y-127879260D01*
X86892083Y-127926879D01*
X87130178Y-127926879D01*
X87320654Y-127879260D01*
X87415892Y-127831641D01*
X87463511Y-127784022D01*
X87511130Y-127688784D01*
X87511130Y-127593545D01*
X87463511Y-127498307D01*
X87415892Y-127450688D01*
X87320654Y-127403069D01*
X87130178Y-127355450D01*
X86892083Y-127355450D01*
X86701607Y-127403069D01*
X86606369Y-127450688D01*
X86558750Y-127498307D01*
X86511130Y-127593545D01*
X86511130Y-128260212D02*
X86511130Y-128926879D01*
X87511130Y-128498307D01*
X91425892Y-126092117D02*
X91473511Y-126044498D01*
X91521130Y-125901641D01*
X91521130Y-125806403D01*
X91473511Y-125663545D01*
X91378273Y-125568307D01*
X91283035Y-125520688D01*
X91092559Y-125473069D01*
X90949702Y-125473069D01*
X90759226Y-125520688D01*
X90663988Y-125568307D01*
X90568750Y-125663545D01*
X90521130Y-125806403D01*
X90521130Y-125901641D01*
X90568750Y-126044498D01*
X90616369Y-126092117D01*
X91521130Y-127044498D02*
X91521130Y-126473069D01*
X91521130Y-126758784D02*
X90521130Y-126758784D01*
X90663988Y-126663545D01*
X90759226Y-126568307D01*
X90806845Y-126473069D01*
X90521130Y-127663545D02*
X90521130Y-127758784D01*
X90568750Y-127854022D01*
X90616369Y-127901641D01*
X90711607Y-127949260D01*
X90902083Y-127996879D01*
X91140178Y-127996879D01*
X91330654Y-127949260D01*
X91425892Y-127901641D01*
X91473511Y-127854022D01*
X91521130Y-127758784D01*
X91521130Y-127663545D01*
X91473511Y-127568307D01*
X91425892Y-127520688D01*
X91330654Y-127473069D01*
X91140178Y-127425450D01*
X90902083Y-127425450D01*
X90711607Y-127473069D01*
X90616369Y-127520688D01*
X90568750Y-127568307D01*
X90521130Y-127663545D01*
X90521130Y-128854022D02*
X90521130Y-128663545D01*
X90568750Y-128568307D01*
X90616369Y-128520688D01*
X90759226Y-128425450D01*
X90949702Y-128377831D01*
X91330654Y-128377831D01*
X91425892Y-128425450D01*
X91473511Y-128473069D01*
X91521130Y-128568307D01*
X91521130Y-128758784D01*
X91473511Y-128854022D01*
X91425892Y-128901641D01*
X91330654Y-128949260D01*
X91092559Y-128949260D01*
X90997321Y-128901641D01*
X90949702Y-128854022D01*
X90902083Y-128758784D01*
X90902083Y-128568307D01*
X90949702Y-128473069D01*
X90997321Y-128425450D01*
X91092559Y-128377831D01*
X95385892Y-126042117D02*
X95433511Y-125994498D01*
X95481130Y-125851641D01*
X95481130Y-125756403D01*
X95433511Y-125613545D01*
X95338273Y-125518307D01*
X95243035Y-125470688D01*
X95052559Y-125423069D01*
X94909702Y-125423069D01*
X94719226Y-125470688D01*
X94623988Y-125518307D01*
X94528750Y-125613545D01*
X94481130Y-125756403D01*
X94481130Y-125851641D01*
X94528750Y-125994498D01*
X94576369Y-126042117D01*
X95481130Y-126994498D02*
X95481130Y-126423069D01*
X95481130Y-126708784D02*
X94481130Y-126708784D01*
X94623988Y-126613545D01*
X94719226Y-126518307D01*
X94766845Y-126423069D01*
X94481130Y-127613545D02*
X94481130Y-127708784D01*
X94528750Y-127804022D01*
X94576369Y-127851641D01*
X94671607Y-127899260D01*
X94862083Y-127946879D01*
X95100178Y-127946879D01*
X95290654Y-127899260D01*
X95385892Y-127851641D01*
X95433511Y-127804022D01*
X95481130Y-127708784D01*
X95481130Y-127613545D01*
X95433511Y-127518307D01*
X95385892Y-127470688D01*
X95290654Y-127423069D01*
X95100178Y-127375450D01*
X94862083Y-127375450D01*
X94671607Y-127423069D01*
X94576369Y-127470688D01*
X94528750Y-127518307D01*
X94481130Y-127613545D01*
X94481130Y-128851641D02*
X94481130Y-128375450D01*
X94957321Y-128327831D01*
X94909702Y-128375450D01*
X94862083Y-128470688D01*
X94862083Y-128708784D01*
X94909702Y-128804022D01*
X94957321Y-128851641D01*
X95052559Y-128899260D01*
X95290654Y-128899260D01*
X95385892Y-128851641D01*
X95433511Y-128804022D01*
X95481130Y-128708784D01*
X95481130Y-128470688D01*
X95433511Y-128375450D01*
X95385892Y-128327831D01*
X93405892Y-126042117D02*
X93453511Y-125994498D01*
X93501130Y-125851641D01*
X93501130Y-125756403D01*
X93453511Y-125613545D01*
X93358273Y-125518307D01*
X93263035Y-125470688D01*
X93072559Y-125423069D01*
X92929702Y-125423069D01*
X92739226Y-125470688D01*
X92643988Y-125518307D01*
X92548750Y-125613545D01*
X92501130Y-125756403D01*
X92501130Y-125851641D01*
X92548750Y-125994498D01*
X92596369Y-126042117D01*
X93501130Y-126994498D02*
X93501130Y-126423069D01*
X93501130Y-126708784D02*
X92501130Y-126708784D01*
X92643988Y-126613545D01*
X92739226Y-126518307D01*
X92786845Y-126423069D01*
X92501130Y-127613545D02*
X92501130Y-127708784D01*
X92548750Y-127804022D01*
X92596369Y-127851641D01*
X92691607Y-127899260D01*
X92882083Y-127946879D01*
X93120178Y-127946879D01*
X93310654Y-127899260D01*
X93405892Y-127851641D01*
X93453511Y-127804022D01*
X93501130Y-127708784D01*
X93501130Y-127613545D01*
X93453511Y-127518307D01*
X93405892Y-127470688D01*
X93310654Y-127423069D01*
X93120178Y-127375450D01*
X92882083Y-127375450D01*
X92691607Y-127423069D01*
X92596369Y-127470688D01*
X92548750Y-127518307D01*
X92501130Y-127613545D01*
X92834464Y-128804022D02*
X93501130Y-128804022D01*
X92453511Y-128565926D02*
X93167797Y-128327831D01*
X93167797Y-128946879D01*
X89425892Y-126042117D02*
X89473511Y-125994498D01*
X89521130Y-125851641D01*
X89521130Y-125756403D01*
X89473511Y-125613545D01*
X89378273Y-125518307D01*
X89283035Y-125470688D01*
X89092559Y-125423069D01*
X88949702Y-125423069D01*
X88759226Y-125470688D01*
X88663988Y-125518307D01*
X88568750Y-125613545D01*
X88521130Y-125756403D01*
X88521130Y-125851641D01*
X88568750Y-125994498D01*
X88616369Y-126042117D01*
X89521130Y-126994498D02*
X89521130Y-126423069D01*
X89521130Y-126708784D02*
X88521130Y-126708784D01*
X88663988Y-126613545D01*
X88759226Y-126518307D01*
X88806845Y-126423069D01*
X88521130Y-127613545D02*
X88521130Y-127708784D01*
X88568750Y-127804022D01*
X88616369Y-127851641D01*
X88711607Y-127899260D01*
X88902083Y-127946879D01*
X89140178Y-127946879D01*
X89330654Y-127899260D01*
X89425892Y-127851641D01*
X89473511Y-127804022D01*
X89521130Y-127708784D01*
X89521130Y-127613545D01*
X89473511Y-127518307D01*
X89425892Y-127470688D01*
X89330654Y-127423069D01*
X89140178Y-127375450D01*
X88902083Y-127375450D01*
X88711607Y-127423069D01*
X88616369Y-127470688D01*
X88568750Y-127518307D01*
X88521130Y-127613545D01*
X88521130Y-128280212D02*
X88521130Y-128899260D01*
X88902083Y-128565926D01*
X88902083Y-128708784D01*
X88949702Y-128804022D01*
X88997321Y-128851641D01*
X89092559Y-128899260D01*
X89330654Y-128899260D01*
X89425892Y-128851641D01*
X89473511Y-128804022D01*
X89521130Y-128708784D01*
X89521130Y-128423069D01*
X89473511Y-128327831D01*
X89425892Y-128280212D01*
X102367797Y-126968307D02*
X102415416Y-127015926D01*
X102558273Y-127063545D01*
X102653511Y-127063545D01*
X102796369Y-127015926D01*
X102891607Y-126920688D01*
X102939226Y-126825450D01*
X102986845Y-126634974D01*
X102986845Y-126492117D01*
X102939226Y-126301641D01*
X102891607Y-126206403D01*
X102796369Y-126111165D01*
X102653511Y-126063545D01*
X102558273Y-126063545D01*
X102415416Y-126111165D01*
X102367797Y-126158784D01*
X101415416Y-127063545D02*
X101986845Y-127063545D01*
X101701130Y-127063545D02*
X101701130Y-126063545D01*
X101796369Y-126206403D01*
X101891607Y-126301641D01*
X101986845Y-126349260D01*
X100796369Y-126063545D02*
X100701130Y-126063545D01*
X100605892Y-126111165D01*
X100558273Y-126158784D01*
X100510654Y-126254022D01*
X100463035Y-126444498D01*
X100463035Y-126682593D01*
X100510654Y-126873069D01*
X100558273Y-126968307D01*
X100605892Y-127015926D01*
X100701130Y-127063545D01*
X100796369Y-127063545D01*
X100891607Y-127015926D01*
X100939226Y-126968307D01*
X100986845Y-126873069D01*
X101034464Y-126682593D01*
X101034464Y-126444498D01*
X100986845Y-126254022D01*
X100939226Y-126158784D01*
X100891607Y-126111165D01*
X100796369Y-126063545D01*
X100082083Y-126158784D02*
X100034464Y-126111165D01*
X99939226Y-126063545D01*
X99701130Y-126063545D01*
X99605892Y-126111165D01*
X99558273Y-126158784D01*
X99510654Y-126254022D01*
X99510654Y-126349260D01*
X99558273Y-126492117D01*
X100129702Y-127063545D01*
X99510654Y-127063545D01*
X84365892Y-135892117D02*
X84413511Y-135844498D01*
X84461130Y-135701641D01*
X84461130Y-135606403D01*
X84413511Y-135463545D01*
X84318273Y-135368307D01*
X84223035Y-135320688D01*
X84032559Y-135273069D01*
X83889702Y-135273069D01*
X83699226Y-135320688D01*
X83603988Y-135368307D01*
X83508750Y-135463545D01*
X83461130Y-135606403D01*
X83461130Y-135701641D01*
X83508750Y-135844498D01*
X83556369Y-135892117D01*
X84461130Y-136844498D02*
X84461130Y-136273069D01*
X84461130Y-136558784D02*
X83461130Y-136558784D01*
X83603988Y-136463545D01*
X83699226Y-136368307D01*
X83746845Y-136273069D01*
X83461130Y-137463545D02*
X83461130Y-137558784D01*
X83508750Y-137654022D01*
X83556369Y-137701641D01*
X83651607Y-137749260D01*
X83842083Y-137796879D01*
X84080178Y-137796879D01*
X84270654Y-137749260D01*
X84365892Y-137701641D01*
X84413511Y-137654022D01*
X84461130Y-137558784D01*
X84461130Y-137463545D01*
X84413511Y-137368307D01*
X84365892Y-137320688D01*
X84270654Y-137273069D01*
X84080178Y-137225450D01*
X83842083Y-137225450D01*
X83651607Y-137273069D01*
X83556369Y-137320688D01*
X83508750Y-137368307D01*
X83461130Y-137463545D01*
X84461130Y-138749260D02*
X84461130Y-138177831D01*
X84461130Y-138463545D02*
X83461130Y-138463545D01*
X83603988Y-138368307D01*
X83699226Y-138273069D01*
X83746845Y-138177831D01*
X91425892Y-117902117D02*
X91473511Y-117854498D01*
X91521130Y-117711641D01*
X91521130Y-117616403D01*
X91473511Y-117473545D01*
X91378273Y-117378307D01*
X91283035Y-117330688D01*
X91092559Y-117283069D01*
X90949702Y-117283069D01*
X90759226Y-117330688D01*
X90663988Y-117378307D01*
X90568750Y-117473545D01*
X90521130Y-117616403D01*
X90521130Y-117711641D01*
X90568750Y-117854498D01*
X90616369Y-117902117D01*
X91521130Y-118854498D02*
X91521130Y-118283069D01*
X91521130Y-118568784D02*
X90521130Y-118568784D01*
X90663988Y-118473545D01*
X90759226Y-118378307D01*
X90806845Y-118283069D01*
X90521130Y-119473545D02*
X90521130Y-119568784D01*
X90568750Y-119664022D01*
X90616369Y-119711641D01*
X90711607Y-119759260D01*
X90902083Y-119806879D01*
X91140178Y-119806879D01*
X91330654Y-119759260D01*
X91425892Y-119711641D01*
X91473511Y-119664022D01*
X91521130Y-119568784D01*
X91521130Y-119473545D01*
X91473511Y-119378307D01*
X91425892Y-119330688D01*
X91330654Y-119283069D01*
X91140178Y-119235450D01*
X90902083Y-119235450D01*
X90711607Y-119283069D01*
X90616369Y-119330688D01*
X90568750Y-119378307D01*
X90521130Y-119473545D01*
X90521130Y-120425926D02*
X90521130Y-120521165D01*
X90568750Y-120616403D01*
X90616369Y-120664022D01*
X90711607Y-120711641D01*
X90902083Y-120759260D01*
X91140178Y-120759260D01*
X91330654Y-120711641D01*
X91425892Y-120664022D01*
X91473511Y-120616403D01*
X91521130Y-120521165D01*
X91521130Y-120425926D01*
X91473511Y-120330688D01*
X91425892Y-120283069D01*
X91330654Y-120235450D01*
X91140178Y-120187831D01*
X90902083Y-120187831D01*
X90711607Y-120235450D01*
X90616369Y-120283069D01*
X90568750Y-120330688D01*
X90521130Y-120425926D01*
X87545892Y-118778307D02*
X87593511Y-118730688D01*
X87641130Y-118587831D01*
X87641130Y-118492593D01*
X87593511Y-118349736D01*
X87498273Y-118254498D01*
X87403035Y-118206879D01*
X87212559Y-118159260D01*
X87069702Y-118159260D01*
X86879226Y-118206879D01*
X86783988Y-118254498D01*
X86688750Y-118349736D01*
X86641130Y-118492593D01*
X86641130Y-118587831D01*
X86688750Y-118730688D01*
X86736369Y-118778307D01*
X87641130Y-119254498D02*
X87641130Y-119444974D01*
X87593511Y-119540212D01*
X87545892Y-119587831D01*
X87403035Y-119683069D01*
X87212559Y-119730688D01*
X86831607Y-119730688D01*
X86736369Y-119683069D01*
X86688750Y-119635450D01*
X86641130Y-119540212D01*
X86641130Y-119349736D01*
X86688750Y-119254498D01*
X86736369Y-119206879D01*
X86831607Y-119159260D01*
X87069702Y-119159260D01*
X87164940Y-119206879D01*
X87212559Y-119254498D01*
X87260178Y-119349736D01*
X87260178Y-119540212D01*
X87212559Y-119635450D01*
X87164940Y-119683069D01*
X87069702Y-119730688D01*
X87641130Y-120206879D02*
X87641130Y-120397355D01*
X87593511Y-120492593D01*
X87545892Y-120540212D01*
X87403035Y-120635450D01*
X87212559Y-120683069D01*
X86831607Y-120683069D01*
X86736369Y-120635450D01*
X86688750Y-120587831D01*
X86641130Y-120492593D01*
X86641130Y-120302117D01*
X86688750Y-120206879D01*
X86736369Y-120159260D01*
X86831607Y-120111641D01*
X87069702Y-120111641D01*
X87164940Y-120159260D01*
X87212559Y-120206879D01*
X87260178Y-120302117D01*
X87260178Y-120492593D01*
X87212559Y-120587831D01*
X87164940Y-120635450D01*
X87069702Y-120683069D01*
X89475892Y-118848307D02*
X89523511Y-118800688D01*
X89571130Y-118657831D01*
X89571130Y-118562593D01*
X89523511Y-118419736D01*
X89428273Y-118324498D01*
X89333035Y-118276879D01*
X89142559Y-118229260D01*
X88999702Y-118229260D01*
X88809226Y-118276879D01*
X88713988Y-118324498D01*
X88618750Y-118419736D01*
X88571130Y-118562593D01*
X88571130Y-118657831D01*
X88618750Y-118800688D01*
X88666369Y-118848307D01*
X89571130Y-119324498D02*
X89571130Y-119514974D01*
X89523511Y-119610212D01*
X89475892Y-119657831D01*
X89333035Y-119753069D01*
X89142559Y-119800688D01*
X88761607Y-119800688D01*
X88666369Y-119753069D01*
X88618750Y-119705450D01*
X88571130Y-119610212D01*
X88571130Y-119419736D01*
X88618750Y-119324498D01*
X88666369Y-119276879D01*
X88761607Y-119229260D01*
X88999702Y-119229260D01*
X89094940Y-119276879D01*
X89142559Y-119324498D01*
X89190178Y-119419736D01*
X89190178Y-119610212D01*
X89142559Y-119705450D01*
X89094940Y-119753069D01*
X88999702Y-119800688D01*
X88999702Y-120372117D02*
X88952083Y-120276879D01*
X88904464Y-120229260D01*
X88809226Y-120181641D01*
X88761607Y-120181641D01*
X88666369Y-120229260D01*
X88618750Y-120276879D01*
X88571130Y-120372117D01*
X88571130Y-120562593D01*
X88618750Y-120657831D01*
X88666369Y-120705450D01*
X88761607Y-120753069D01*
X88809226Y-120753069D01*
X88904464Y-120705450D01*
X88952083Y-120657831D01*
X88999702Y-120562593D01*
X88999702Y-120372117D01*
X89047321Y-120276879D01*
X89094940Y-120229260D01*
X89190178Y-120181641D01*
X89380654Y-120181641D01*
X89475892Y-120229260D01*
X89523511Y-120276879D01*
X89571130Y-120372117D01*
X89571130Y-120562593D01*
X89523511Y-120657831D01*
X89475892Y-120705450D01*
X89380654Y-120753069D01*
X89190178Y-120753069D01*
X89094940Y-120705450D01*
X89047321Y-120657831D01*
X88999702Y-120562593D01*
X91975892Y-139548307D02*
X92023511Y-139500688D01*
X92071130Y-139357831D01*
X92071130Y-139262593D01*
X92023511Y-139119736D01*
X91928273Y-139024498D01*
X91833035Y-138976879D01*
X91642559Y-138929260D01*
X91499702Y-138929260D01*
X91309226Y-138976879D01*
X91213988Y-139024498D01*
X91118750Y-139119736D01*
X91071130Y-139262593D01*
X91071130Y-139357831D01*
X91118750Y-139500688D01*
X91166369Y-139548307D01*
X92071130Y-140024498D02*
X92071130Y-140214974D01*
X92023511Y-140310212D01*
X91975892Y-140357831D01*
X91833035Y-140453069D01*
X91642559Y-140500688D01*
X91261607Y-140500688D01*
X91166369Y-140453069D01*
X91118750Y-140405450D01*
X91071130Y-140310212D01*
X91071130Y-140119736D01*
X91118750Y-140024498D01*
X91166369Y-139976879D01*
X91261607Y-139929260D01*
X91499702Y-139929260D01*
X91594940Y-139976879D01*
X91642559Y-140024498D01*
X91690178Y-140119736D01*
X91690178Y-140310212D01*
X91642559Y-140405450D01*
X91594940Y-140453069D01*
X91499702Y-140500688D01*
X91071130Y-140834022D02*
X91071130Y-141500688D01*
X92071130Y-141072117D01*
X93385892Y-118778307D02*
X93433511Y-118730688D01*
X93481130Y-118587831D01*
X93481130Y-118492593D01*
X93433511Y-118349736D01*
X93338273Y-118254498D01*
X93243035Y-118206879D01*
X93052559Y-118159260D01*
X92909702Y-118159260D01*
X92719226Y-118206879D01*
X92623988Y-118254498D01*
X92528750Y-118349736D01*
X92481130Y-118492593D01*
X92481130Y-118587831D01*
X92528750Y-118730688D01*
X92576369Y-118778307D01*
X93481130Y-119254498D02*
X93481130Y-119444974D01*
X93433511Y-119540212D01*
X93385892Y-119587831D01*
X93243035Y-119683069D01*
X93052559Y-119730688D01*
X92671607Y-119730688D01*
X92576369Y-119683069D01*
X92528750Y-119635450D01*
X92481130Y-119540212D01*
X92481130Y-119349736D01*
X92528750Y-119254498D01*
X92576369Y-119206879D01*
X92671607Y-119159260D01*
X92909702Y-119159260D01*
X93004940Y-119206879D01*
X93052559Y-119254498D01*
X93100178Y-119349736D01*
X93100178Y-119540212D01*
X93052559Y-119635450D01*
X93004940Y-119683069D01*
X92909702Y-119730688D01*
X92481130Y-120587831D02*
X92481130Y-120397355D01*
X92528750Y-120302117D01*
X92576369Y-120254498D01*
X92719226Y-120159260D01*
X92909702Y-120111641D01*
X93290654Y-120111641D01*
X93385892Y-120159260D01*
X93433511Y-120206879D01*
X93481130Y-120302117D01*
X93481130Y-120492593D01*
X93433511Y-120587831D01*
X93385892Y-120635450D01*
X93290654Y-120683069D01*
X93052559Y-120683069D01*
X92957321Y-120635450D01*
X92909702Y-120587831D01*
X92862083Y-120492593D01*
X92862083Y-120302117D01*
X92909702Y-120206879D01*
X92957321Y-120159260D01*
X93052559Y-120111641D01*
X98395892Y-139228307D02*
X98443511Y-139180688D01*
X98491130Y-139037831D01*
X98491130Y-138942593D01*
X98443511Y-138799736D01*
X98348273Y-138704498D01*
X98253035Y-138656879D01*
X98062559Y-138609260D01*
X97919702Y-138609260D01*
X97729226Y-138656879D01*
X97633988Y-138704498D01*
X97538750Y-138799736D01*
X97491130Y-138942593D01*
X97491130Y-139037831D01*
X97538750Y-139180688D01*
X97586369Y-139228307D01*
X98491130Y-139704498D02*
X98491130Y-139894974D01*
X98443511Y-139990212D01*
X98395892Y-140037831D01*
X98253035Y-140133069D01*
X98062559Y-140180688D01*
X97681607Y-140180688D01*
X97586369Y-140133069D01*
X97538750Y-140085450D01*
X97491130Y-139990212D01*
X97491130Y-139799736D01*
X97538750Y-139704498D01*
X97586369Y-139656879D01*
X97681607Y-139609260D01*
X97919702Y-139609260D01*
X98014940Y-139656879D01*
X98062559Y-139704498D01*
X98110178Y-139799736D01*
X98110178Y-139990212D01*
X98062559Y-140085450D01*
X98014940Y-140133069D01*
X97919702Y-140180688D01*
X97491130Y-141085450D02*
X97491130Y-140609260D01*
X97967321Y-140561641D01*
X97919702Y-140609260D01*
X97872083Y-140704498D01*
X97872083Y-140942593D01*
X97919702Y-141037831D01*
X97967321Y-141085450D01*
X98062559Y-141133069D01*
X98300654Y-141133069D01*
X98395892Y-141085450D01*
X98443511Y-141037831D01*
X98491130Y-140942593D01*
X98491130Y-140704498D01*
X98443511Y-140609260D01*
X98395892Y-140561641D01*
X96415892Y-118878307D02*
X96463511Y-118830688D01*
X96511130Y-118687831D01*
X96511130Y-118592593D01*
X96463511Y-118449736D01*
X96368273Y-118354498D01*
X96273035Y-118306879D01*
X96082559Y-118259260D01*
X95939702Y-118259260D01*
X95749226Y-118306879D01*
X95653988Y-118354498D01*
X95558750Y-118449736D01*
X95511130Y-118592593D01*
X95511130Y-118687831D01*
X95558750Y-118830688D01*
X95606369Y-118878307D01*
X96511130Y-119354498D02*
X96511130Y-119544974D01*
X96463511Y-119640212D01*
X96415892Y-119687831D01*
X96273035Y-119783069D01*
X96082559Y-119830688D01*
X95701607Y-119830688D01*
X95606369Y-119783069D01*
X95558750Y-119735450D01*
X95511130Y-119640212D01*
X95511130Y-119449736D01*
X95558750Y-119354498D01*
X95606369Y-119306879D01*
X95701607Y-119259260D01*
X95939702Y-119259260D01*
X96034940Y-119306879D01*
X96082559Y-119354498D01*
X96130178Y-119449736D01*
X96130178Y-119640212D01*
X96082559Y-119735450D01*
X96034940Y-119783069D01*
X95939702Y-119830688D01*
X95844464Y-120687831D02*
X96511130Y-120687831D01*
X95463511Y-120449736D02*
X96177797Y-120211641D01*
X96177797Y-120830688D01*
D11*
X214068750Y-69989743D02*
X214068750Y-69472587D01*
X215488750Y-69989743D02*
X215488750Y-69472587D01*
X217620172Y-67021165D02*
X218137328Y-67021165D01*
X217620172Y-68441165D02*
X218137328Y-68441165D01*
X227857672Y-65221165D02*
X228374828Y-65221165D01*
X227857672Y-66641165D02*
X228374828Y-66641165D01*
X225820172Y-79021165D02*
X226337328Y-79021165D01*
X225820172Y-80441165D02*
X226337328Y-80441165D01*
X226488750Y-93972587D02*
X226488750Y-94489743D01*
X225068750Y-93972587D02*
X225068750Y-94489743D01*
X214588750Y-94972587D02*
X214588750Y-95489743D01*
X213168750Y-94972587D02*
X213168750Y-95489743D01*
X203068750Y-70289743D02*
X203068750Y-69772587D01*
X204488750Y-70289743D02*
X204488750Y-69772587D01*
M02*
