G04 #@! TF.GenerationSoftware,KiCad,Pcbnew,5.99.0-unknown-1973153~101~ubuntu20.04.1*
G04 #@! TF.CreationDate,2020-07-01T19:51:02-04:00*
G04 #@! TF.ProjectId,L1Switch,4c315377-6974-4636-982e-6b696361645f,rev?*
G04 #@! TF.SameCoordinates,Original*
G04 #@! TF.FileFunction,Paste,Bot*
G04 #@! TF.FilePolarity,Positive*
%FSLAX46Y46*%
G04 Gerber Fmt 4.6, Leading zero omitted, Abs format (unit mm)*
G04 Created by KiCad (PCBNEW 5.99.0-unknown-1973153~101~ubuntu20.04.1) date 2020-07-01 19:51:02*
%MOMM*%
%LPD*%
G01*
G04 APERTURE LIST*
G04 APERTURE END LIST*
G36*
G01*
X216306250Y-79421165D02*
X216651250Y-79421165D01*
G75*
G02*
X216798750Y-79568665I0J-147500D01*
G01*
X216798750Y-79863665D01*
G75*
G02*
X216651250Y-80011165I-147500J0D01*
G01*
X216306250Y-80011165D01*
G75*
G02*
X216158750Y-79863665I0J147500D01*
G01*
X216158750Y-79568665D01*
G75*
G02*
X216306250Y-79421165I147500J0D01*
G01*
G37*
G36*
G01*
X216306250Y-78451165D02*
X216651250Y-78451165D01*
G75*
G02*
X216798750Y-78598665I0J-147500D01*
G01*
X216798750Y-78893665D01*
G75*
G02*
X216651250Y-79041165I-147500J0D01*
G01*
X216306250Y-79041165D01*
G75*
G02*
X216158750Y-78893665I0J147500D01*
G01*
X216158750Y-78598665D01*
G75*
G02*
X216306250Y-78451165I147500J0D01*
G01*
G37*
G36*
G01*
X215235000Y-69281165D02*
X214322500Y-69281165D01*
G75*
G02*
X214078750Y-69037415I0J243750D01*
G01*
X214078750Y-68549915D01*
G75*
G02*
X214322500Y-68306165I243750J0D01*
G01*
X215235000Y-68306165D01*
G75*
G02*
X215478750Y-68549915I0J-243750D01*
G01*
X215478750Y-69037415D01*
G75*
G02*
X215235000Y-69281165I-243750J0D01*
G01*
G37*
G36*
G01*
X215235000Y-71156165D02*
X214322500Y-71156165D01*
G75*
G02*
X214078750Y-70912415I0J243750D01*
G01*
X214078750Y-70424915D01*
G75*
G02*
X214322500Y-70181165I243750J0D01*
G01*
X215235000Y-70181165D01*
G75*
G02*
X215478750Y-70424915I0J-243750D01*
G01*
X215478750Y-70912415D01*
G75*
G02*
X215235000Y-71156165I-243750J0D01*
G01*
G37*
G36*
G01*
X212873750Y-82758665D02*
X212873750Y-83103665D01*
G75*
G02*
X212726250Y-83251165I-147500J0D01*
G01*
X212431250Y-83251165D01*
G75*
G02*
X212283750Y-83103665I0J147500D01*
G01*
X212283750Y-82758665D01*
G75*
G02*
X212431250Y-82611165I147500J0D01*
G01*
X212726250Y-82611165D01*
G75*
G02*
X212873750Y-82758665I0J-147500D01*
G01*
G37*
G36*
G01*
X213843750Y-82758665D02*
X213843750Y-83103665D01*
G75*
G02*
X213696250Y-83251165I-147500J0D01*
G01*
X213401250Y-83251165D01*
G75*
G02*
X213253750Y-83103665I0J147500D01*
G01*
X213253750Y-82758665D01*
G75*
G02*
X213401250Y-82611165I147500J0D01*
G01*
X213696250Y-82611165D01*
G75*
G02*
X213843750Y-82758665I0J-147500D01*
G01*
G37*
G36*
G01*
X211406250Y-82736165D02*
X211751250Y-82736165D01*
G75*
G02*
X211898750Y-82883665I0J-147500D01*
G01*
X211898750Y-83178665D01*
G75*
G02*
X211751250Y-83326165I-147500J0D01*
G01*
X211406250Y-83326165D01*
G75*
G02*
X211258750Y-83178665I0J147500D01*
G01*
X211258750Y-82883665D01*
G75*
G02*
X211406250Y-82736165I147500J0D01*
G01*
G37*
G36*
G01*
X211406250Y-81766165D02*
X211751250Y-81766165D01*
G75*
G02*
X211898750Y-81913665I0J-147500D01*
G01*
X211898750Y-82208665D01*
G75*
G02*
X211751250Y-82356165I-147500J0D01*
G01*
X211406250Y-82356165D01*
G75*
G02*
X211258750Y-82208665I0J147500D01*
G01*
X211258750Y-81913665D01*
G75*
G02*
X211406250Y-81766165I147500J0D01*
G01*
G37*
G36*
G01*
X215106250Y-83921165D02*
X215451250Y-83921165D01*
G75*
G02*
X215598750Y-84068665I0J-147500D01*
G01*
X215598750Y-84363665D01*
G75*
G02*
X215451250Y-84511165I-147500J0D01*
G01*
X215106250Y-84511165D01*
G75*
G02*
X214958750Y-84363665I0J147500D01*
G01*
X214958750Y-84068665D01*
G75*
G02*
X215106250Y-83921165I147500J0D01*
G01*
G37*
G36*
G01*
X215106250Y-82951165D02*
X215451250Y-82951165D01*
G75*
G02*
X215598750Y-83098665I0J-147500D01*
G01*
X215598750Y-83393665D01*
G75*
G02*
X215451250Y-83541165I-147500J0D01*
G01*
X215106250Y-83541165D01*
G75*
G02*
X214958750Y-83393665I0J147500D01*
G01*
X214958750Y-83098665D01*
G75*
G02*
X215106250Y-82951165I147500J0D01*
G01*
G37*
G36*
G01*
X214606250Y-81221165D02*
X214951250Y-81221165D01*
G75*
G02*
X215098750Y-81368665I0J-147500D01*
G01*
X215098750Y-81663665D01*
G75*
G02*
X214951250Y-81811165I-147500J0D01*
G01*
X214606250Y-81811165D01*
G75*
G02*
X214458750Y-81663665I0J147500D01*
G01*
X214458750Y-81368665D01*
G75*
G02*
X214606250Y-81221165I147500J0D01*
G01*
G37*
G36*
G01*
X214606250Y-80251165D02*
X214951250Y-80251165D01*
G75*
G02*
X215098750Y-80398665I0J-147500D01*
G01*
X215098750Y-80693665D01*
G75*
G02*
X214951250Y-80841165I-147500J0D01*
G01*
X214606250Y-80841165D01*
G75*
G02*
X214458750Y-80693665I0J147500D01*
G01*
X214458750Y-80398665D01*
G75*
G02*
X214606250Y-80251165I147500J0D01*
G01*
G37*
G36*
G01*
X211588750Y-79058665D02*
X211588750Y-79403665D01*
G75*
G02*
X211441250Y-79551165I-147500J0D01*
G01*
X211146250Y-79551165D01*
G75*
G02*
X210998750Y-79403665I0J147500D01*
G01*
X210998750Y-79058665D01*
G75*
G02*
X211146250Y-78911165I147500J0D01*
G01*
X211441250Y-78911165D01*
G75*
G02*
X211588750Y-79058665I0J-147500D01*
G01*
G37*
G36*
G01*
X212558750Y-79058665D02*
X212558750Y-79403665D01*
G75*
G02*
X212411250Y-79551165I-147500J0D01*
G01*
X212116250Y-79551165D01*
G75*
G02*
X211968750Y-79403665I0J147500D01*
G01*
X211968750Y-79058665D01*
G75*
G02*
X212116250Y-78911165I147500J0D01*
G01*
X212411250Y-78911165D01*
G75*
G02*
X212558750Y-79058665I0J-147500D01*
G01*
G37*
G36*
G01*
X212706250Y-81121165D02*
X213051250Y-81121165D01*
G75*
G02*
X213198750Y-81268665I0J-147500D01*
G01*
X213198750Y-81563665D01*
G75*
G02*
X213051250Y-81711165I-147500J0D01*
G01*
X212706250Y-81711165D01*
G75*
G02*
X212558750Y-81563665I0J147500D01*
G01*
X212558750Y-81268665D01*
G75*
G02*
X212706250Y-81121165I147500J0D01*
G01*
G37*
G36*
G01*
X212706250Y-80151165D02*
X213051250Y-80151165D01*
G75*
G02*
X213198750Y-80298665I0J-147500D01*
G01*
X213198750Y-80593665D01*
G75*
G02*
X213051250Y-80741165I-147500J0D01*
G01*
X212706250Y-80741165D01*
G75*
G02*
X212558750Y-80593665I0J147500D01*
G01*
X212558750Y-80298665D01*
G75*
G02*
X212706250Y-80151165I147500J0D01*
G01*
G37*
G36*
G01*
X218328750Y-68187415D02*
X218328750Y-67274915D01*
G75*
G02*
X218572500Y-67031165I243750J0D01*
G01*
X219060000Y-67031165D01*
G75*
G02*
X219303750Y-67274915I0J-243750D01*
G01*
X219303750Y-68187415D01*
G75*
G02*
X219060000Y-68431165I-243750J0D01*
G01*
X218572500Y-68431165D01*
G75*
G02*
X218328750Y-68187415I0J243750D01*
G01*
G37*
G36*
G01*
X216453750Y-68187415D02*
X216453750Y-67274915D01*
G75*
G02*
X216697500Y-67031165I243750J0D01*
G01*
X217185000Y-67031165D01*
G75*
G02*
X217428750Y-67274915I0J-243750D01*
G01*
X217428750Y-68187415D01*
G75*
G02*
X217185000Y-68431165I-243750J0D01*
G01*
X216697500Y-68431165D01*
G75*
G02*
X216453750Y-68187415I0J243750D01*
G01*
G37*
G36*
G01*
X221868750Y-80203665D02*
X221868750Y-79858665D01*
G75*
G02*
X222016250Y-79711165I147500J0D01*
G01*
X222311250Y-79711165D01*
G75*
G02*
X222458750Y-79858665I0J-147500D01*
G01*
X222458750Y-80203665D01*
G75*
G02*
X222311250Y-80351165I-147500J0D01*
G01*
X222016250Y-80351165D01*
G75*
G02*
X221868750Y-80203665I0J147500D01*
G01*
G37*
G36*
G01*
X220898750Y-80203665D02*
X220898750Y-79858665D01*
G75*
G02*
X221046250Y-79711165I147500J0D01*
G01*
X221341250Y-79711165D01*
G75*
G02*
X221488750Y-79858665I0J-147500D01*
G01*
X221488750Y-80203665D01*
G75*
G02*
X221341250Y-80351165I-147500J0D01*
G01*
X221046250Y-80351165D01*
G75*
G02*
X220898750Y-80203665I0J147500D01*
G01*
G37*
G36*
G01*
X228566250Y-66387415D02*
X228566250Y-65474915D01*
G75*
G02*
X228810000Y-65231165I243750J0D01*
G01*
X229297500Y-65231165D01*
G75*
G02*
X229541250Y-65474915I0J-243750D01*
G01*
X229541250Y-66387415D01*
G75*
G02*
X229297500Y-66631165I-243750J0D01*
G01*
X228810000Y-66631165D01*
G75*
G02*
X228566250Y-66387415I0J243750D01*
G01*
G37*
G36*
G01*
X226691250Y-66387415D02*
X226691250Y-65474915D01*
G75*
G02*
X226935000Y-65231165I243750J0D01*
G01*
X227422500Y-65231165D01*
G75*
G02*
X227666250Y-65474915I0J-243750D01*
G01*
X227666250Y-66387415D01*
G75*
G02*
X227422500Y-66631165I-243750J0D01*
G01*
X226935000Y-66631165D01*
G75*
G02*
X226691250Y-66387415I0J243750D01*
G01*
G37*
G36*
G01*
X217606250Y-79421165D02*
X217951250Y-79421165D01*
G75*
G02*
X218098750Y-79568665I0J-147500D01*
G01*
X218098750Y-79863665D01*
G75*
G02*
X217951250Y-80011165I-147500J0D01*
G01*
X217606250Y-80011165D01*
G75*
G02*
X217458750Y-79863665I0J147500D01*
G01*
X217458750Y-79568665D01*
G75*
G02*
X217606250Y-79421165I147500J0D01*
G01*
G37*
G36*
G01*
X217606250Y-78451165D02*
X217951250Y-78451165D01*
G75*
G02*
X218098750Y-78598665I0J-147500D01*
G01*
X218098750Y-78893665D01*
G75*
G02*
X217951250Y-79041165I-147500J0D01*
G01*
X217606250Y-79041165D01*
G75*
G02*
X217458750Y-78893665I0J147500D01*
G01*
X217458750Y-78598665D01*
G75*
G02*
X217606250Y-78451165I147500J0D01*
G01*
G37*
G36*
G01*
X226528750Y-80187415D02*
X226528750Y-79274915D01*
G75*
G02*
X226772500Y-79031165I243750J0D01*
G01*
X227260000Y-79031165D01*
G75*
G02*
X227503750Y-79274915I0J-243750D01*
G01*
X227503750Y-80187415D01*
G75*
G02*
X227260000Y-80431165I-243750J0D01*
G01*
X226772500Y-80431165D01*
G75*
G02*
X226528750Y-80187415I0J243750D01*
G01*
G37*
G36*
G01*
X224653750Y-80187415D02*
X224653750Y-79274915D01*
G75*
G02*
X224897500Y-79031165I243750J0D01*
G01*
X225385000Y-79031165D01*
G75*
G02*
X225628750Y-79274915I0J-243750D01*
G01*
X225628750Y-80187415D01*
G75*
G02*
X225385000Y-80431165I-243750J0D01*
G01*
X224897500Y-80431165D01*
G75*
G02*
X224653750Y-80187415I0J243750D01*
G01*
G37*
G36*
G01*
X215388750Y-77458665D02*
X215388750Y-77803665D01*
G75*
G02*
X215241250Y-77951165I-147500J0D01*
G01*
X214946250Y-77951165D01*
G75*
G02*
X214798750Y-77803665I0J147500D01*
G01*
X214798750Y-77458665D01*
G75*
G02*
X214946250Y-77311165I147500J0D01*
G01*
X215241250Y-77311165D01*
G75*
G02*
X215388750Y-77458665I0J-147500D01*
G01*
G37*
G36*
G01*
X216358750Y-77458665D02*
X216358750Y-77803665D01*
G75*
G02*
X216211250Y-77951165I-147500J0D01*
G01*
X215916250Y-77951165D01*
G75*
G02*
X215768750Y-77803665I0J147500D01*
G01*
X215768750Y-77458665D01*
G75*
G02*
X215916250Y-77311165I147500J0D01*
G01*
X216211250Y-77311165D01*
G75*
G02*
X216358750Y-77458665I0J-147500D01*
G01*
G37*
G36*
G01*
X222583750Y-73603665D02*
X222583750Y-73258665D01*
G75*
G02*
X222731250Y-73111165I147500J0D01*
G01*
X223026250Y-73111165D01*
G75*
G02*
X223173750Y-73258665I0J-147500D01*
G01*
X223173750Y-73603665D01*
G75*
G02*
X223026250Y-73751165I-147500J0D01*
G01*
X222731250Y-73751165D01*
G75*
G02*
X222583750Y-73603665I0J147500D01*
G01*
G37*
G36*
G01*
X221613750Y-73603665D02*
X221613750Y-73258665D01*
G75*
G02*
X221761250Y-73111165I147500J0D01*
G01*
X222056250Y-73111165D01*
G75*
G02*
X222203750Y-73258665I0J-147500D01*
G01*
X222203750Y-73603665D01*
G75*
G02*
X222056250Y-73751165I-147500J0D01*
G01*
X221761250Y-73751165D01*
G75*
G02*
X221613750Y-73603665I0J147500D01*
G01*
G37*
G36*
G01*
X220583750Y-89203665D02*
X220583750Y-88858665D01*
G75*
G02*
X220731250Y-88711165I147500J0D01*
G01*
X221026250Y-88711165D01*
G75*
G02*
X221173750Y-88858665I0J-147500D01*
G01*
X221173750Y-89203665D01*
G75*
G02*
X221026250Y-89351165I-147500J0D01*
G01*
X220731250Y-89351165D01*
G75*
G02*
X220583750Y-89203665I0J147500D01*
G01*
G37*
G36*
G01*
X219613750Y-89203665D02*
X219613750Y-88858665D01*
G75*
G02*
X219761250Y-88711165I147500J0D01*
G01*
X220056250Y-88711165D01*
G75*
G02*
X220203750Y-88858665I0J-147500D01*
G01*
X220203750Y-89203665D01*
G75*
G02*
X220056250Y-89351165I-147500J0D01*
G01*
X219761250Y-89351165D01*
G75*
G02*
X219613750Y-89203665I0J147500D01*
G01*
G37*
G36*
G01*
X225322500Y-94681165D02*
X226235000Y-94681165D01*
G75*
G02*
X226478750Y-94924915I0J-243750D01*
G01*
X226478750Y-95412415D01*
G75*
G02*
X226235000Y-95656165I-243750J0D01*
G01*
X225322500Y-95656165D01*
G75*
G02*
X225078750Y-95412415I0J243750D01*
G01*
X225078750Y-94924915D01*
G75*
G02*
X225322500Y-94681165I243750J0D01*
G01*
G37*
G36*
G01*
X225322500Y-92806165D02*
X226235000Y-92806165D01*
G75*
G02*
X226478750Y-93049915I0J-243750D01*
G01*
X226478750Y-93537415D01*
G75*
G02*
X226235000Y-93781165I-243750J0D01*
G01*
X225322500Y-93781165D01*
G75*
G02*
X225078750Y-93537415I0J243750D01*
G01*
X225078750Y-93049915D01*
G75*
G02*
X225322500Y-92806165I243750J0D01*
G01*
G37*
G36*
G01*
X210488750Y-87158665D02*
X210488750Y-87503665D01*
G75*
G02*
X210341250Y-87651165I-147500J0D01*
G01*
X210046250Y-87651165D01*
G75*
G02*
X209898750Y-87503665I0J147500D01*
G01*
X209898750Y-87158665D01*
G75*
G02*
X210046250Y-87011165I147500J0D01*
G01*
X210341250Y-87011165D01*
G75*
G02*
X210488750Y-87158665I0J-147500D01*
G01*
G37*
G36*
G01*
X211458750Y-87158665D02*
X211458750Y-87503665D01*
G75*
G02*
X211311250Y-87651165I-147500J0D01*
G01*
X211016250Y-87651165D01*
G75*
G02*
X210868750Y-87503665I0J147500D01*
G01*
X210868750Y-87158665D01*
G75*
G02*
X211016250Y-87011165I147500J0D01*
G01*
X211311250Y-87011165D01*
G75*
G02*
X211458750Y-87158665I0J-147500D01*
G01*
G37*
G36*
G01*
X213422500Y-95681165D02*
X214335000Y-95681165D01*
G75*
G02*
X214578750Y-95924915I0J-243750D01*
G01*
X214578750Y-96412415D01*
G75*
G02*
X214335000Y-96656165I-243750J0D01*
G01*
X213422500Y-96656165D01*
G75*
G02*
X213178750Y-96412415I0J243750D01*
G01*
X213178750Y-95924915D01*
G75*
G02*
X213422500Y-95681165I243750J0D01*
G01*
G37*
G36*
G01*
X213422500Y-93806165D02*
X214335000Y-93806165D01*
G75*
G02*
X214578750Y-94049915I0J-243750D01*
G01*
X214578750Y-94537415D01*
G75*
G02*
X214335000Y-94781165I-243750J0D01*
G01*
X213422500Y-94781165D01*
G75*
G02*
X213178750Y-94537415I0J243750D01*
G01*
X213178750Y-94049915D01*
G75*
G02*
X213422500Y-93806165I243750J0D01*
G01*
G37*
G36*
G01*
X215906250Y-90506165D02*
X216251250Y-90506165D01*
G75*
G02*
X216398750Y-90653665I0J-147500D01*
G01*
X216398750Y-90948665D01*
G75*
G02*
X216251250Y-91096165I-147500J0D01*
G01*
X215906250Y-91096165D01*
G75*
G02*
X215758750Y-90948665I0J147500D01*
G01*
X215758750Y-90653665D01*
G75*
G02*
X215906250Y-90506165I147500J0D01*
G01*
G37*
G36*
G01*
X215906250Y-89536165D02*
X216251250Y-89536165D01*
G75*
G02*
X216398750Y-89683665I0J-147500D01*
G01*
X216398750Y-89978665D01*
G75*
G02*
X216251250Y-90126165I-147500J0D01*
G01*
X215906250Y-90126165D01*
G75*
G02*
X215758750Y-89978665I0J147500D01*
G01*
X215758750Y-89683665D01*
G75*
G02*
X215906250Y-89536165I147500J0D01*
G01*
G37*
G36*
G01*
X216888750Y-83658665D02*
X216888750Y-84003665D01*
G75*
G02*
X216741250Y-84151165I-147500J0D01*
G01*
X216446250Y-84151165D01*
G75*
G02*
X216298750Y-84003665I0J147500D01*
G01*
X216298750Y-83658665D01*
G75*
G02*
X216446250Y-83511165I147500J0D01*
G01*
X216741250Y-83511165D01*
G75*
G02*
X216888750Y-83658665I0J-147500D01*
G01*
G37*
G36*
G01*
X217858750Y-83658665D02*
X217858750Y-84003665D01*
G75*
G02*
X217711250Y-84151165I-147500J0D01*
G01*
X217416250Y-84151165D01*
G75*
G02*
X217268750Y-84003665I0J147500D01*
G01*
X217268750Y-83658665D01*
G75*
G02*
X217416250Y-83511165I147500J0D01*
G01*
X217711250Y-83511165D01*
G75*
G02*
X217858750Y-83658665I0J-147500D01*
G01*
G37*
G36*
G01*
X211573750Y-78058665D02*
X211573750Y-78403665D01*
G75*
G02*
X211426250Y-78551165I-147500J0D01*
G01*
X211131250Y-78551165D01*
G75*
G02*
X210983750Y-78403665I0J147500D01*
G01*
X210983750Y-78058665D01*
G75*
G02*
X211131250Y-77911165I147500J0D01*
G01*
X211426250Y-77911165D01*
G75*
G02*
X211573750Y-78058665I0J-147500D01*
G01*
G37*
G36*
G01*
X212543750Y-78058665D02*
X212543750Y-78403665D01*
G75*
G02*
X212396250Y-78551165I-147500J0D01*
G01*
X212101250Y-78551165D01*
G75*
G02*
X211953750Y-78403665I0J147500D01*
G01*
X211953750Y-78058665D01*
G75*
G02*
X212101250Y-77911165I147500J0D01*
G01*
X212396250Y-77911165D01*
G75*
G02*
X212543750Y-78058665I0J-147500D01*
G01*
G37*
G36*
G01*
X205868750Y-77503665D02*
X205868750Y-77158665D01*
G75*
G02*
X206016250Y-77011165I147500J0D01*
G01*
X206311250Y-77011165D01*
G75*
G02*
X206458750Y-77158665I0J-147500D01*
G01*
X206458750Y-77503665D01*
G75*
G02*
X206311250Y-77651165I-147500J0D01*
G01*
X206016250Y-77651165D01*
G75*
G02*
X205868750Y-77503665I0J147500D01*
G01*
G37*
G36*
G01*
X204898750Y-77503665D02*
X204898750Y-77158665D01*
G75*
G02*
X205046250Y-77011165I147500J0D01*
G01*
X205341250Y-77011165D01*
G75*
G02*
X205488750Y-77158665I0J-147500D01*
G01*
X205488750Y-77503665D01*
G75*
G02*
X205341250Y-77651165I-147500J0D01*
G01*
X205046250Y-77651165D01*
G75*
G02*
X204898750Y-77503665I0J147500D01*
G01*
G37*
G36*
G01*
X204235000Y-69581165D02*
X203322500Y-69581165D01*
G75*
G02*
X203078750Y-69337415I0J243750D01*
G01*
X203078750Y-68849915D01*
G75*
G02*
X203322500Y-68606165I243750J0D01*
G01*
X204235000Y-68606165D01*
G75*
G02*
X204478750Y-68849915I0J-243750D01*
G01*
X204478750Y-69337415D01*
G75*
G02*
X204235000Y-69581165I-243750J0D01*
G01*
G37*
G36*
G01*
X204235000Y-71456165D02*
X203322500Y-71456165D01*
G75*
G02*
X203078750Y-71212415I0J243750D01*
G01*
X203078750Y-70724915D01*
G75*
G02*
X203322500Y-70481165I243750J0D01*
G01*
X204235000Y-70481165D01*
G75*
G02*
X204478750Y-70724915I0J-243750D01*
G01*
X204478750Y-71212415D01*
G75*
G02*
X204235000Y-71456165I-243750J0D01*
G01*
G37*
G36*
G01*
X209906250Y-74721165D02*
X210251250Y-74721165D01*
G75*
G02*
X210398750Y-74868665I0J-147500D01*
G01*
X210398750Y-75163665D01*
G75*
G02*
X210251250Y-75311165I-147500J0D01*
G01*
X209906250Y-75311165D01*
G75*
G02*
X209758750Y-75163665I0J147500D01*
G01*
X209758750Y-74868665D01*
G75*
G02*
X209906250Y-74721165I147500J0D01*
G01*
G37*
G36*
G01*
X209906250Y-73751165D02*
X210251250Y-73751165D01*
G75*
G02*
X210398750Y-73898665I0J-147500D01*
G01*
X210398750Y-74193665D01*
G75*
G02*
X210251250Y-74341165I-147500J0D01*
G01*
X209906250Y-74341165D01*
G75*
G02*
X209758750Y-74193665I0J147500D01*
G01*
X209758750Y-73898665D01*
G75*
G02*
X209906250Y-73751165I147500J0D01*
G01*
G37*
G36*
G01*
X206788750Y-73958665D02*
X206788750Y-74303665D01*
G75*
G02*
X206641250Y-74451165I-147500J0D01*
G01*
X206346250Y-74451165D01*
G75*
G02*
X206198750Y-74303665I0J147500D01*
G01*
X206198750Y-73958665D01*
G75*
G02*
X206346250Y-73811165I147500J0D01*
G01*
X206641250Y-73811165D01*
G75*
G02*
X206788750Y-73958665I0J-147500D01*
G01*
G37*
G36*
G01*
X207758750Y-73958665D02*
X207758750Y-74303665D01*
G75*
G02*
X207611250Y-74451165I-147500J0D01*
G01*
X207316250Y-74451165D01*
G75*
G02*
X207168750Y-74303665I0J147500D01*
G01*
X207168750Y-73958665D01*
G75*
G02*
X207316250Y-73811165I147500J0D01*
G01*
X207611250Y-73811165D01*
G75*
G02*
X207758750Y-73958665I0J-147500D01*
G01*
G37*
G36*
G01*
X205506250Y-91621165D02*
X205851250Y-91621165D01*
G75*
G02*
X205998750Y-91768665I0J-147500D01*
G01*
X205998750Y-92063665D01*
G75*
G02*
X205851250Y-92211165I-147500J0D01*
G01*
X205506250Y-92211165D01*
G75*
G02*
X205358750Y-92063665I0J147500D01*
G01*
X205358750Y-91768665D01*
G75*
G02*
X205506250Y-91621165I147500J0D01*
G01*
G37*
G36*
G01*
X205506250Y-90651165D02*
X205851250Y-90651165D01*
G75*
G02*
X205998750Y-90798665I0J-147500D01*
G01*
X205998750Y-91093665D01*
G75*
G02*
X205851250Y-91241165I-147500J0D01*
G01*
X205506250Y-91241165D01*
G75*
G02*
X205358750Y-91093665I0J147500D01*
G01*
X205358750Y-90798665D01*
G75*
G02*
X205506250Y-90651165I147500J0D01*
G01*
G37*
G36*
G01*
X206106250Y-87221165D02*
X206451250Y-87221165D01*
G75*
G02*
X206598750Y-87368665I0J-147500D01*
G01*
X206598750Y-87663665D01*
G75*
G02*
X206451250Y-87811165I-147500J0D01*
G01*
X206106250Y-87811165D01*
G75*
G02*
X205958750Y-87663665I0J147500D01*
G01*
X205958750Y-87368665D01*
G75*
G02*
X206106250Y-87221165I147500J0D01*
G01*
G37*
G36*
G01*
X206106250Y-86251165D02*
X206451250Y-86251165D01*
G75*
G02*
X206598750Y-86398665I0J-147500D01*
G01*
X206598750Y-86693665D01*
G75*
G02*
X206451250Y-86841165I-147500J0D01*
G01*
X206106250Y-86841165D01*
G75*
G02*
X205958750Y-86693665I0J147500D01*
G01*
X205958750Y-86398665D01*
G75*
G02*
X206106250Y-86251165I147500J0D01*
G01*
G37*
G36*
G01*
X166301250Y-137156165D02*
X165956250Y-137156165D01*
G75*
G02*
X165808750Y-137008665I0J147500D01*
G01*
X165808750Y-136713665D01*
G75*
G02*
X165956250Y-136566165I147500J0D01*
G01*
X166301250Y-136566165D01*
G75*
G02*
X166448750Y-136713665I0J-147500D01*
G01*
X166448750Y-137008665D01*
G75*
G02*
X166301250Y-137156165I-147500J0D01*
G01*
G37*
G36*
G01*
X166301250Y-138126165D02*
X165956250Y-138126165D01*
G75*
G02*
X165808750Y-137978665I0J147500D01*
G01*
X165808750Y-137683665D01*
G75*
G02*
X165956250Y-137536165I147500J0D01*
G01*
X166301250Y-137536165D01*
G75*
G02*
X166448750Y-137683665I0J-147500D01*
G01*
X166448750Y-137978665D01*
G75*
G02*
X166301250Y-138126165I-147500J0D01*
G01*
G37*
G36*
G01*
X320552000Y-131365115D02*
X320552000Y-131020115D01*
G75*
G02*
X320699500Y-130872615I147500J0D01*
G01*
X320994500Y-130872615D01*
G75*
G02*
X321142000Y-131020115I0J-147500D01*
G01*
X321142000Y-131365115D01*
G75*
G02*
X320994500Y-131512615I-147500J0D01*
G01*
X320699500Y-131512615D01*
G75*
G02*
X320552000Y-131365115I0J147500D01*
G01*
G37*
G36*
G01*
X319582000Y-131365115D02*
X319582000Y-131020115D01*
G75*
G02*
X319729500Y-130872615I147500J0D01*
G01*
X320024500Y-130872615D01*
G75*
G02*
X320172000Y-131020115I0J-147500D01*
G01*
X320172000Y-131365115D01*
G75*
G02*
X320024500Y-131512615I-147500J0D01*
G01*
X319729500Y-131512615D01*
G75*
G02*
X319582000Y-131365115I0J147500D01*
G01*
G37*
G36*
G01*
X332219500Y-137222615D02*
X331874500Y-137222615D01*
G75*
G02*
X331727000Y-137075115I0J147500D01*
G01*
X331727000Y-136780115D01*
G75*
G02*
X331874500Y-136632615I147500J0D01*
G01*
X332219500Y-136632615D01*
G75*
G02*
X332367000Y-136780115I0J-147500D01*
G01*
X332367000Y-137075115D01*
G75*
G02*
X332219500Y-137222615I-147500J0D01*
G01*
G37*
G36*
G01*
X332219500Y-138192615D02*
X331874500Y-138192615D01*
G75*
G02*
X331727000Y-138045115I0J147500D01*
G01*
X331727000Y-137750115D01*
G75*
G02*
X331874500Y-137602615I147500J0D01*
G01*
X332219500Y-137602615D01*
G75*
G02*
X332367000Y-137750115I0J-147500D01*
G01*
X332367000Y-138045115D01*
G75*
G02*
X332219500Y-138192615I-147500J0D01*
G01*
G37*
G36*
G01*
X324569500Y-137217615D02*
X324224500Y-137217615D01*
G75*
G02*
X324077000Y-137070115I0J147500D01*
G01*
X324077000Y-136775115D01*
G75*
G02*
X324224500Y-136627615I147500J0D01*
G01*
X324569500Y-136627615D01*
G75*
G02*
X324717000Y-136775115I0J-147500D01*
G01*
X324717000Y-137070115D01*
G75*
G02*
X324569500Y-137217615I-147500J0D01*
G01*
G37*
G36*
G01*
X324569500Y-138187615D02*
X324224500Y-138187615D01*
G75*
G02*
X324077000Y-138040115I0J147500D01*
G01*
X324077000Y-137745115D01*
G75*
G02*
X324224500Y-137597615I147500J0D01*
G01*
X324569500Y-137597615D01*
G75*
G02*
X324717000Y-137745115I0J-147500D01*
G01*
X324717000Y-138040115D01*
G75*
G02*
X324569500Y-138187615I-147500J0D01*
G01*
G37*
G36*
G01*
X320134500Y-122342615D02*
X320479500Y-122342615D01*
G75*
G02*
X320627000Y-122490115I0J-147500D01*
G01*
X320627000Y-122785115D01*
G75*
G02*
X320479500Y-122932615I-147500J0D01*
G01*
X320134500Y-122932615D01*
G75*
G02*
X319987000Y-122785115I0J147500D01*
G01*
X319987000Y-122490115D01*
G75*
G02*
X320134500Y-122342615I147500J0D01*
G01*
G37*
G36*
G01*
X320134500Y-121372615D02*
X320479500Y-121372615D01*
G75*
G02*
X320627000Y-121520115I0J-147500D01*
G01*
X320627000Y-121815115D01*
G75*
G02*
X320479500Y-121962615I-147500J0D01*
G01*
X320134500Y-121962615D01*
G75*
G02*
X319987000Y-121815115I0J147500D01*
G01*
X319987000Y-121520115D01*
G75*
G02*
X320134500Y-121372615I147500J0D01*
G01*
G37*
G36*
G01*
X336362000Y-129970115D02*
X336362000Y-130315115D01*
G75*
G02*
X336214500Y-130462615I-147500J0D01*
G01*
X335919500Y-130462615D01*
G75*
G02*
X335772000Y-130315115I0J147500D01*
G01*
X335772000Y-129970115D01*
G75*
G02*
X335919500Y-129822615I147500J0D01*
G01*
X336214500Y-129822615D01*
G75*
G02*
X336362000Y-129970115I0J-147500D01*
G01*
G37*
G36*
G01*
X337332000Y-129970115D02*
X337332000Y-130315115D01*
G75*
G02*
X337184500Y-130462615I-147500J0D01*
G01*
X336889500Y-130462615D01*
G75*
G02*
X336742000Y-130315115I0J147500D01*
G01*
X336742000Y-129970115D01*
G75*
G02*
X336889500Y-129822615I147500J0D01*
G01*
X337184500Y-129822615D01*
G75*
G02*
X337332000Y-129970115I0J-147500D01*
G01*
G37*
G36*
G01*
X336754500Y-123237615D02*
X337099500Y-123237615D01*
G75*
G02*
X337247000Y-123385115I0J-147500D01*
G01*
X337247000Y-123680115D01*
G75*
G02*
X337099500Y-123827615I-147500J0D01*
G01*
X336754500Y-123827615D01*
G75*
G02*
X336607000Y-123680115I0J147500D01*
G01*
X336607000Y-123385115D01*
G75*
G02*
X336754500Y-123237615I147500J0D01*
G01*
G37*
G36*
G01*
X336754500Y-122267615D02*
X337099500Y-122267615D01*
G75*
G02*
X337247000Y-122415115I0J-147500D01*
G01*
X337247000Y-122710115D01*
G75*
G02*
X337099500Y-122857615I-147500J0D01*
G01*
X336754500Y-122857615D01*
G75*
G02*
X336607000Y-122710115I0J147500D01*
G01*
X336607000Y-122415115D01*
G75*
G02*
X336754500Y-122267615I147500J0D01*
G01*
G37*
G36*
G01*
X331139500Y-137217615D02*
X330794500Y-137217615D01*
G75*
G02*
X330647000Y-137070115I0J147500D01*
G01*
X330647000Y-136775115D01*
G75*
G02*
X330794500Y-136627615I147500J0D01*
G01*
X331139500Y-136627615D01*
G75*
G02*
X331287000Y-136775115I0J-147500D01*
G01*
X331287000Y-137070115D01*
G75*
G02*
X331139500Y-137217615I-147500J0D01*
G01*
G37*
G36*
G01*
X331139500Y-138187615D02*
X330794500Y-138187615D01*
G75*
G02*
X330647000Y-138040115I0J147500D01*
G01*
X330647000Y-137745115D01*
G75*
G02*
X330794500Y-137597615I147500J0D01*
G01*
X331139500Y-137597615D01*
G75*
G02*
X331287000Y-137745115I0J-147500D01*
G01*
X331287000Y-138040115D01*
G75*
G02*
X331139500Y-138187615I-147500J0D01*
G01*
G37*
G36*
G01*
X326609500Y-137227615D02*
X326264500Y-137227615D01*
G75*
G02*
X326117000Y-137080115I0J147500D01*
G01*
X326117000Y-136785115D01*
G75*
G02*
X326264500Y-136637615I147500J0D01*
G01*
X326609500Y-136637615D01*
G75*
G02*
X326757000Y-136785115I0J-147500D01*
G01*
X326757000Y-137080115D01*
G75*
G02*
X326609500Y-137227615I-147500J0D01*
G01*
G37*
G36*
G01*
X326609500Y-138197615D02*
X326264500Y-138197615D01*
G75*
G02*
X326117000Y-138050115I0J147500D01*
G01*
X326117000Y-137755115D01*
G75*
G02*
X326264500Y-137607615I147500J0D01*
G01*
X326609500Y-137607615D01*
G75*
G02*
X326757000Y-137755115I0J-147500D01*
G01*
X326757000Y-138050115D01*
G75*
G02*
X326609500Y-138197615I-147500J0D01*
G01*
G37*
G36*
G01*
X324187000Y-134665115D02*
X324187000Y-134320115D01*
G75*
G02*
X324334500Y-134172615I147500J0D01*
G01*
X324629500Y-134172615D01*
G75*
G02*
X324777000Y-134320115I0J-147500D01*
G01*
X324777000Y-134665115D01*
G75*
G02*
X324629500Y-134812615I-147500J0D01*
G01*
X324334500Y-134812615D01*
G75*
G02*
X324187000Y-134665115I0J147500D01*
G01*
G37*
G36*
G01*
X323217000Y-134665115D02*
X323217000Y-134320115D01*
G75*
G02*
X323364500Y-134172615I147500J0D01*
G01*
X323659500Y-134172615D01*
G75*
G02*
X323807000Y-134320115I0J-147500D01*
G01*
X323807000Y-134665115D01*
G75*
G02*
X323659500Y-134812615I-147500J0D01*
G01*
X323364500Y-134812615D01*
G75*
G02*
X323217000Y-134665115I0J147500D01*
G01*
G37*
G36*
G01*
X321022000Y-126420115D02*
X321022000Y-126765115D01*
G75*
G02*
X320874500Y-126912615I-147500J0D01*
G01*
X320579500Y-126912615D01*
G75*
G02*
X320432000Y-126765115I0J147500D01*
G01*
X320432000Y-126420115D01*
G75*
G02*
X320579500Y-126272615I147500J0D01*
G01*
X320874500Y-126272615D01*
G75*
G02*
X321022000Y-126420115I0J-147500D01*
G01*
G37*
G36*
G01*
X321992000Y-126420115D02*
X321992000Y-126765115D01*
G75*
G02*
X321844500Y-126912615I-147500J0D01*
G01*
X321549500Y-126912615D01*
G75*
G02*
X321402000Y-126765115I0J147500D01*
G01*
X321402000Y-126420115D01*
G75*
G02*
X321549500Y-126272615I147500J0D01*
G01*
X321844500Y-126272615D01*
G75*
G02*
X321992000Y-126420115I0J-147500D01*
G01*
G37*
G36*
G01*
X324589500Y-124082615D02*
X324244500Y-124082615D01*
G75*
G02*
X324097000Y-123935115I0J147500D01*
G01*
X324097000Y-123640115D01*
G75*
G02*
X324244500Y-123492615I147500J0D01*
G01*
X324589500Y-123492615D01*
G75*
G02*
X324737000Y-123640115I0J-147500D01*
G01*
X324737000Y-123935115D01*
G75*
G02*
X324589500Y-124082615I-147500J0D01*
G01*
G37*
G36*
G01*
X324589500Y-125052615D02*
X324244500Y-125052615D01*
G75*
G02*
X324097000Y-124905115I0J147500D01*
G01*
X324097000Y-124610115D01*
G75*
G02*
X324244500Y-124462615I147500J0D01*
G01*
X324589500Y-124462615D01*
G75*
G02*
X324737000Y-124610115I0J-147500D01*
G01*
X324737000Y-124905115D01*
G75*
G02*
X324589500Y-125052615I-147500J0D01*
G01*
G37*
G36*
G01*
X328609500Y-124082615D02*
X328264500Y-124082615D01*
G75*
G02*
X328117000Y-123935115I0J147500D01*
G01*
X328117000Y-123640115D01*
G75*
G02*
X328264500Y-123492615I147500J0D01*
G01*
X328609500Y-123492615D01*
G75*
G02*
X328757000Y-123640115I0J-147500D01*
G01*
X328757000Y-123935115D01*
G75*
G02*
X328609500Y-124082615I-147500J0D01*
G01*
G37*
G36*
G01*
X328609500Y-125052615D02*
X328264500Y-125052615D01*
G75*
G02*
X328117000Y-124905115I0J147500D01*
G01*
X328117000Y-124610115D01*
G75*
G02*
X328264500Y-124462615I147500J0D01*
G01*
X328609500Y-124462615D01*
G75*
G02*
X328757000Y-124610115I0J-147500D01*
G01*
X328757000Y-124905115D01*
G75*
G02*
X328609500Y-125052615I-147500J0D01*
G01*
G37*
G36*
G01*
X332579500Y-124087615D02*
X332234500Y-124087615D01*
G75*
G02*
X332087000Y-123940115I0J147500D01*
G01*
X332087000Y-123645115D01*
G75*
G02*
X332234500Y-123497615I147500J0D01*
G01*
X332579500Y-123497615D01*
G75*
G02*
X332727000Y-123645115I0J-147500D01*
G01*
X332727000Y-123940115D01*
G75*
G02*
X332579500Y-124087615I-147500J0D01*
G01*
G37*
G36*
G01*
X332579500Y-125057615D02*
X332234500Y-125057615D01*
G75*
G02*
X332087000Y-124910115I0J147500D01*
G01*
X332087000Y-124615115D01*
G75*
G02*
X332234500Y-124467615I147500J0D01*
G01*
X332579500Y-124467615D01*
G75*
G02*
X332727000Y-124615115I0J-147500D01*
G01*
X332727000Y-124910115D01*
G75*
G02*
X332579500Y-125057615I-147500J0D01*
G01*
G37*
G36*
G01*
X330629500Y-124082615D02*
X330284500Y-124082615D01*
G75*
G02*
X330137000Y-123935115I0J147500D01*
G01*
X330137000Y-123640115D01*
G75*
G02*
X330284500Y-123492615I147500J0D01*
G01*
X330629500Y-123492615D01*
G75*
G02*
X330777000Y-123640115I0J-147500D01*
G01*
X330777000Y-123935115D01*
G75*
G02*
X330629500Y-124082615I-147500J0D01*
G01*
G37*
G36*
G01*
X330629500Y-125052615D02*
X330284500Y-125052615D01*
G75*
G02*
X330137000Y-124905115I0J147500D01*
G01*
X330137000Y-124610115D01*
G75*
G02*
X330284500Y-124462615I147500J0D01*
G01*
X330629500Y-124462615D01*
G75*
G02*
X330777000Y-124610115I0J-147500D01*
G01*
X330777000Y-124905115D01*
G75*
G02*
X330629500Y-125052615I-147500J0D01*
G01*
G37*
G36*
G01*
X326609500Y-124082615D02*
X326264500Y-124082615D01*
G75*
G02*
X326117000Y-123935115I0J147500D01*
G01*
X326117000Y-123640115D01*
G75*
G02*
X326264500Y-123492615I147500J0D01*
G01*
X326609500Y-123492615D01*
G75*
G02*
X326757000Y-123640115I0J-147500D01*
G01*
X326757000Y-123935115D01*
G75*
G02*
X326609500Y-124082615I-147500J0D01*
G01*
G37*
G36*
G01*
X326609500Y-125052615D02*
X326264500Y-125052615D01*
G75*
G02*
X326117000Y-124905115I0J147500D01*
G01*
X326117000Y-124610115D01*
G75*
G02*
X326264500Y-124462615I147500J0D01*
G01*
X326609500Y-124462615D01*
G75*
G02*
X326757000Y-124610115I0J-147500D01*
G01*
X326757000Y-124905115D01*
G75*
G02*
X326609500Y-125052615I-147500J0D01*
G01*
G37*
G36*
G01*
X335992000Y-126795115D02*
X335992000Y-126450115D01*
G75*
G02*
X336139500Y-126302615I147500J0D01*
G01*
X336434500Y-126302615D01*
G75*
G02*
X336582000Y-126450115I0J-147500D01*
G01*
X336582000Y-126795115D01*
G75*
G02*
X336434500Y-126942615I-147500J0D01*
G01*
X336139500Y-126942615D01*
G75*
G02*
X335992000Y-126795115I0J147500D01*
G01*
G37*
G36*
G01*
X335022000Y-126795115D02*
X335022000Y-126450115D01*
G75*
G02*
X335169500Y-126302615I147500J0D01*
G01*
X335464500Y-126302615D01*
G75*
G02*
X335612000Y-126450115I0J-147500D01*
G01*
X335612000Y-126795115D01*
G75*
G02*
X335464500Y-126942615I-147500J0D01*
G01*
X335169500Y-126942615D01*
G75*
G02*
X335022000Y-126795115I0J147500D01*
G01*
G37*
G36*
G01*
X332757000Y-134310115D02*
X332757000Y-134655115D01*
G75*
G02*
X332609500Y-134802615I-147500J0D01*
G01*
X332314500Y-134802615D01*
G75*
G02*
X332167000Y-134655115I0J147500D01*
G01*
X332167000Y-134310115D01*
G75*
G02*
X332314500Y-134162615I147500J0D01*
G01*
X332609500Y-134162615D01*
G75*
G02*
X332757000Y-134310115I0J-147500D01*
G01*
G37*
G36*
G01*
X333727000Y-134310115D02*
X333727000Y-134655115D01*
G75*
G02*
X333579500Y-134802615I-147500J0D01*
G01*
X333284500Y-134802615D01*
G75*
G02*
X333137000Y-134655115I0J147500D01*
G01*
X333137000Y-134310115D01*
G75*
G02*
X333284500Y-134162615I147500J0D01*
G01*
X333579500Y-134162615D01*
G75*
G02*
X333727000Y-134310115I0J-147500D01*
G01*
G37*
G36*
G01*
X322334500Y-122217615D02*
X322679500Y-122217615D01*
G75*
G02*
X322827000Y-122365115I0J-147500D01*
G01*
X322827000Y-122660115D01*
G75*
G02*
X322679500Y-122807615I-147500J0D01*
G01*
X322334500Y-122807615D01*
G75*
G02*
X322187000Y-122660115I0J147500D01*
G01*
X322187000Y-122365115D01*
G75*
G02*
X322334500Y-122217615I147500J0D01*
G01*
G37*
G36*
G01*
X322334500Y-121247615D02*
X322679500Y-121247615D01*
G75*
G02*
X322827000Y-121395115I0J-147500D01*
G01*
X322827000Y-121690115D01*
G75*
G02*
X322679500Y-121837615I-147500J0D01*
G01*
X322334500Y-121837615D01*
G75*
G02*
X322187000Y-121690115I0J147500D01*
G01*
X322187000Y-121395115D01*
G75*
G02*
X322334500Y-121247615I147500J0D01*
G01*
G37*
G36*
G01*
X335424500Y-122232615D02*
X335769500Y-122232615D01*
G75*
G02*
X335917000Y-122380115I0J-147500D01*
G01*
X335917000Y-122675115D01*
G75*
G02*
X335769500Y-122822615I-147500J0D01*
G01*
X335424500Y-122822615D01*
G75*
G02*
X335277000Y-122675115I0J147500D01*
G01*
X335277000Y-122380115D01*
G75*
G02*
X335424500Y-122232615I147500J0D01*
G01*
G37*
G36*
G01*
X335424500Y-121262615D02*
X335769500Y-121262615D01*
G75*
G02*
X335917000Y-121410115I0J-147500D01*
G01*
X335917000Y-121705115D01*
G75*
G02*
X335769500Y-121852615I-147500J0D01*
G01*
X335424500Y-121852615D01*
G75*
G02*
X335277000Y-121705115I0J147500D01*
G01*
X335277000Y-121410115D01*
G75*
G02*
X335424500Y-121262615I147500J0D01*
G01*
G37*
G36*
G01*
X322659500Y-137217615D02*
X322314500Y-137217615D01*
G75*
G02*
X322167000Y-137070115I0J147500D01*
G01*
X322167000Y-136775115D01*
G75*
G02*
X322314500Y-136627615I147500J0D01*
G01*
X322659500Y-136627615D01*
G75*
G02*
X322807000Y-136775115I0J-147500D01*
G01*
X322807000Y-137070115D01*
G75*
G02*
X322659500Y-137217615I-147500J0D01*
G01*
G37*
G36*
G01*
X322659500Y-138187615D02*
X322314500Y-138187615D01*
G75*
G02*
X322167000Y-138040115I0J147500D01*
G01*
X322167000Y-137745115D01*
G75*
G02*
X322314500Y-137597615I147500J0D01*
G01*
X322659500Y-137597615D01*
G75*
G02*
X322807000Y-137745115I0J-147500D01*
G01*
X322807000Y-138040115D01*
G75*
G02*
X322659500Y-138187615I-147500J0D01*
G01*
G37*
G36*
G01*
X328304500Y-122232615D02*
X328649500Y-122232615D01*
G75*
G02*
X328797000Y-122380115I0J-147500D01*
G01*
X328797000Y-122675115D01*
G75*
G02*
X328649500Y-122822615I-147500J0D01*
G01*
X328304500Y-122822615D01*
G75*
G02*
X328157000Y-122675115I0J147500D01*
G01*
X328157000Y-122380115D01*
G75*
G02*
X328304500Y-122232615I147500J0D01*
G01*
G37*
G36*
G01*
X328304500Y-121262615D02*
X328649500Y-121262615D01*
G75*
G02*
X328797000Y-121410115I0J-147500D01*
G01*
X328797000Y-121705115D01*
G75*
G02*
X328649500Y-121852615I-147500J0D01*
G01*
X328304500Y-121852615D01*
G75*
G02*
X328157000Y-121705115I0J147500D01*
G01*
X328157000Y-121410115D01*
G75*
G02*
X328304500Y-121262615I147500J0D01*
G01*
G37*
G36*
G01*
X324324500Y-122232615D02*
X324669500Y-122232615D01*
G75*
G02*
X324817000Y-122380115I0J-147500D01*
G01*
X324817000Y-122675115D01*
G75*
G02*
X324669500Y-122822615I-147500J0D01*
G01*
X324324500Y-122822615D01*
G75*
G02*
X324177000Y-122675115I0J147500D01*
G01*
X324177000Y-122380115D01*
G75*
G02*
X324324500Y-122232615I147500J0D01*
G01*
G37*
G36*
G01*
X324324500Y-121262615D02*
X324669500Y-121262615D01*
G75*
G02*
X324817000Y-121410115I0J-147500D01*
G01*
X324817000Y-121705115D01*
G75*
G02*
X324669500Y-121852615I-147500J0D01*
G01*
X324324500Y-121852615D01*
G75*
G02*
X324177000Y-121705115I0J147500D01*
G01*
X324177000Y-121410115D01*
G75*
G02*
X324324500Y-121262615I147500J0D01*
G01*
G37*
G36*
G01*
X326314500Y-122232615D02*
X326659500Y-122232615D01*
G75*
G02*
X326807000Y-122380115I0J-147500D01*
G01*
X326807000Y-122675115D01*
G75*
G02*
X326659500Y-122822615I-147500J0D01*
G01*
X326314500Y-122822615D01*
G75*
G02*
X326167000Y-122675115I0J147500D01*
G01*
X326167000Y-122380115D01*
G75*
G02*
X326314500Y-122232615I147500J0D01*
G01*
G37*
G36*
G01*
X326314500Y-121262615D02*
X326659500Y-121262615D01*
G75*
G02*
X326807000Y-121410115I0J-147500D01*
G01*
X326807000Y-121705115D01*
G75*
G02*
X326659500Y-121852615I-147500J0D01*
G01*
X326314500Y-121852615D01*
G75*
G02*
X326167000Y-121705115I0J147500D01*
G01*
X326167000Y-121410115D01*
G75*
G02*
X326314500Y-121262615I147500J0D01*
G01*
G37*
G36*
G01*
X329189500Y-137217615D02*
X328844500Y-137217615D01*
G75*
G02*
X328697000Y-137070115I0J147500D01*
G01*
X328697000Y-136775115D01*
G75*
G02*
X328844500Y-136627615I147500J0D01*
G01*
X329189500Y-136627615D01*
G75*
G02*
X329337000Y-136775115I0J-147500D01*
G01*
X329337000Y-137070115D01*
G75*
G02*
X329189500Y-137217615I-147500J0D01*
G01*
G37*
G36*
G01*
X329189500Y-138187615D02*
X328844500Y-138187615D01*
G75*
G02*
X328697000Y-138040115I0J147500D01*
G01*
X328697000Y-137745115D01*
G75*
G02*
X328844500Y-137597615I147500J0D01*
G01*
X329189500Y-137597615D01*
G75*
G02*
X329337000Y-137745115I0J-147500D01*
G01*
X329337000Y-138040115D01*
G75*
G02*
X329189500Y-138187615I-147500J0D01*
G01*
G37*
G36*
G01*
X330294500Y-122232615D02*
X330639500Y-122232615D01*
G75*
G02*
X330787000Y-122380115I0J-147500D01*
G01*
X330787000Y-122675115D01*
G75*
G02*
X330639500Y-122822615I-147500J0D01*
G01*
X330294500Y-122822615D01*
G75*
G02*
X330147000Y-122675115I0J147500D01*
G01*
X330147000Y-122380115D01*
G75*
G02*
X330294500Y-122232615I147500J0D01*
G01*
G37*
G36*
G01*
X330294500Y-121262615D02*
X330639500Y-121262615D01*
G75*
G02*
X330787000Y-121410115I0J-147500D01*
G01*
X330787000Y-121705115D01*
G75*
G02*
X330639500Y-121852615I-147500J0D01*
G01*
X330294500Y-121852615D01*
G75*
G02*
X330147000Y-121705115I0J147500D01*
G01*
X330147000Y-121410115D01*
G75*
G02*
X330294500Y-121262615I147500J0D01*
G01*
G37*
G36*
G01*
X335629500Y-137217615D02*
X335284500Y-137217615D01*
G75*
G02*
X335137000Y-137070115I0J147500D01*
G01*
X335137000Y-136775115D01*
G75*
G02*
X335284500Y-136627615I147500J0D01*
G01*
X335629500Y-136627615D01*
G75*
G02*
X335777000Y-136775115I0J-147500D01*
G01*
X335777000Y-137070115D01*
G75*
G02*
X335629500Y-137217615I-147500J0D01*
G01*
G37*
G36*
G01*
X335629500Y-138187615D02*
X335284500Y-138187615D01*
G75*
G02*
X335137000Y-138040115I0J147500D01*
G01*
X335137000Y-137745115D01*
G75*
G02*
X335284500Y-137597615I147500J0D01*
G01*
X335629500Y-137597615D01*
G75*
G02*
X335777000Y-137745115I0J-147500D01*
G01*
X335777000Y-138040115D01*
G75*
G02*
X335629500Y-138187615I-147500J0D01*
G01*
G37*
G36*
G01*
X333344500Y-122232615D02*
X333689500Y-122232615D01*
G75*
G02*
X333837000Y-122380115I0J-147500D01*
G01*
X333837000Y-122675115D01*
G75*
G02*
X333689500Y-122822615I-147500J0D01*
G01*
X333344500Y-122822615D01*
G75*
G02*
X333197000Y-122675115I0J147500D01*
G01*
X333197000Y-122380115D01*
G75*
G02*
X333344500Y-122232615I147500J0D01*
G01*
G37*
G36*
G01*
X333344500Y-121262615D02*
X333689500Y-121262615D01*
G75*
G02*
X333837000Y-121410115I0J-147500D01*
G01*
X333837000Y-121705115D01*
G75*
G02*
X333689500Y-121852615I-147500J0D01*
G01*
X333344500Y-121852615D01*
G75*
G02*
X333197000Y-121705115I0J147500D01*
G01*
X333197000Y-121410115D01*
G75*
G02*
X333344500Y-121262615I147500J0D01*
G01*
G37*
G36*
G01*
X241403150Y-131336965D02*
X241403150Y-130991965D01*
G75*
G02*
X241550650Y-130844465I147500J0D01*
G01*
X241845650Y-130844465D01*
G75*
G02*
X241993150Y-130991965I0J-147500D01*
G01*
X241993150Y-131336965D01*
G75*
G02*
X241845650Y-131484465I-147500J0D01*
G01*
X241550650Y-131484465D01*
G75*
G02*
X241403150Y-131336965I0J147500D01*
G01*
G37*
G36*
G01*
X240433150Y-131336965D02*
X240433150Y-130991965D01*
G75*
G02*
X240580650Y-130844465I147500J0D01*
G01*
X240875650Y-130844465D01*
G75*
G02*
X241023150Y-130991965I0J-147500D01*
G01*
X241023150Y-131336965D01*
G75*
G02*
X240875650Y-131484465I-147500J0D01*
G01*
X240580650Y-131484465D01*
G75*
G02*
X240433150Y-131336965I0J147500D01*
G01*
G37*
G36*
G01*
X253070650Y-137194465D02*
X252725650Y-137194465D01*
G75*
G02*
X252578150Y-137046965I0J147500D01*
G01*
X252578150Y-136751965D01*
G75*
G02*
X252725650Y-136604465I147500J0D01*
G01*
X253070650Y-136604465D01*
G75*
G02*
X253218150Y-136751965I0J-147500D01*
G01*
X253218150Y-137046965D01*
G75*
G02*
X253070650Y-137194465I-147500J0D01*
G01*
G37*
G36*
G01*
X253070650Y-138164465D02*
X252725650Y-138164465D01*
G75*
G02*
X252578150Y-138016965I0J147500D01*
G01*
X252578150Y-137721965D01*
G75*
G02*
X252725650Y-137574465I147500J0D01*
G01*
X253070650Y-137574465D01*
G75*
G02*
X253218150Y-137721965I0J-147500D01*
G01*
X253218150Y-138016965D01*
G75*
G02*
X253070650Y-138164465I-147500J0D01*
G01*
G37*
G36*
G01*
X245420650Y-137189465D02*
X245075650Y-137189465D01*
G75*
G02*
X244928150Y-137041965I0J147500D01*
G01*
X244928150Y-136746965D01*
G75*
G02*
X245075650Y-136599465I147500J0D01*
G01*
X245420650Y-136599465D01*
G75*
G02*
X245568150Y-136746965I0J-147500D01*
G01*
X245568150Y-137041965D01*
G75*
G02*
X245420650Y-137189465I-147500J0D01*
G01*
G37*
G36*
G01*
X245420650Y-138159465D02*
X245075650Y-138159465D01*
G75*
G02*
X244928150Y-138011965I0J147500D01*
G01*
X244928150Y-137716965D01*
G75*
G02*
X245075650Y-137569465I147500J0D01*
G01*
X245420650Y-137569465D01*
G75*
G02*
X245568150Y-137716965I0J-147500D01*
G01*
X245568150Y-138011965D01*
G75*
G02*
X245420650Y-138159465I-147500J0D01*
G01*
G37*
G36*
G01*
X240985650Y-122314465D02*
X241330650Y-122314465D01*
G75*
G02*
X241478150Y-122461965I0J-147500D01*
G01*
X241478150Y-122756965D01*
G75*
G02*
X241330650Y-122904465I-147500J0D01*
G01*
X240985650Y-122904465D01*
G75*
G02*
X240838150Y-122756965I0J147500D01*
G01*
X240838150Y-122461965D01*
G75*
G02*
X240985650Y-122314465I147500J0D01*
G01*
G37*
G36*
G01*
X240985650Y-121344465D02*
X241330650Y-121344465D01*
G75*
G02*
X241478150Y-121491965I0J-147500D01*
G01*
X241478150Y-121786965D01*
G75*
G02*
X241330650Y-121934465I-147500J0D01*
G01*
X240985650Y-121934465D01*
G75*
G02*
X240838150Y-121786965I0J147500D01*
G01*
X240838150Y-121491965D01*
G75*
G02*
X240985650Y-121344465I147500J0D01*
G01*
G37*
G36*
G01*
X257213150Y-129941965D02*
X257213150Y-130286965D01*
G75*
G02*
X257065650Y-130434465I-147500J0D01*
G01*
X256770650Y-130434465D01*
G75*
G02*
X256623150Y-130286965I0J147500D01*
G01*
X256623150Y-129941965D01*
G75*
G02*
X256770650Y-129794465I147500J0D01*
G01*
X257065650Y-129794465D01*
G75*
G02*
X257213150Y-129941965I0J-147500D01*
G01*
G37*
G36*
G01*
X258183150Y-129941965D02*
X258183150Y-130286965D01*
G75*
G02*
X258035650Y-130434465I-147500J0D01*
G01*
X257740650Y-130434465D01*
G75*
G02*
X257593150Y-130286965I0J147500D01*
G01*
X257593150Y-129941965D01*
G75*
G02*
X257740650Y-129794465I147500J0D01*
G01*
X258035650Y-129794465D01*
G75*
G02*
X258183150Y-129941965I0J-147500D01*
G01*
G37*
G36*
G01*
X257605650Y-123209465D02*
X257950650Y-123209465D01*
G75*
G02*
X258098150Y-123356965I0J-147500D01*
G01*
X258098150Y-123651965D01*
G75*
G02*
X257950650Y-123799465I-147500J0D01*
G01*
X257605650Y-123799465D01*
G75*
G02*
X257458150Y-123651965I0J147500D01*
G01*
X257458150Y-123356965D01*
G75*
G02*
X257605650Y-123209465I147500J0D01*
G01*
G37*
G36*
G01*
X257605650Y-122239465D02*
X257950650Y-122239465D01*
G75*
G02*
X258098150Y-122386965I0J-147500D01*
G01*
X258098150Y-122681965D01*
G75*
G02*
X257950650Y-122829465I-147500J0D01*
G01*
X257605650Y-122829465D01*
G75*
G02*
X257458150Y-122681965I0J147500D01*
G01*
X257458150Y-122386965D01*
G75*
G02*
X257605650Y-122239465I147500J0D01*
G01*
G37*
G36*
G01*
X251990650Y-137189465D02*
X251645650Y-137189465D01*
G75*
G02*
X251498150Y-137041965I0J147500D01*
G01*
X251498150Y-136746965D01*
G75*
G02*
X251645650Y-136599465I147500J0D01*
G01*
X251990650Y-136599465D01*
G75*
G02*
X252138150Y-136746965I0J-147500D01*
G01*
X252138150Y-137041965D01*
G75*
G02*
X251990650Y-137189465I-147500J0D01*
G01*
G37*
G36*
G01*
X251990650Y-138159465D02*
X251645650Y-138159465D01*
G75*
G02*
X251498150Y-138011965I0J147500D01*
G01*
X251498150Y-137716965D01*
G75*
G02*
X251645650Y-137569465I147500J0D01*
G01*
X251990650Y-137569465D01*
G75*
G02*
X252138150Y-137716965I0J-147500D01*
G01*
X252138150Y-138011965D01*
G75*
G02*
X251990650Y-138159465I-147500J0D01*
G01*
G37*
G36*
G01*
X247460650Y-137199465D02*
X247115650Y-137199465D01*
G75*
G02*
X246968150Y-137051965I0J147500D01*
G01*
X246968150Y-136756965D01*
G75*
G02*
X247115650Y-136609465I147500J0D01*
G01*
X247460650Y-136609465D01*
G75*
G02*
X247608150Y-136756965I0J-147500D01*
G01*
X247608150Y-137051965D01*
G75*
G02*
X247460650Y-137199465I-147500J0D01*
G01*
G37*
G36*
G01*
X247460650Y-138169465D02*
X247115650Y-138169465D01*
G75*
G02*
X246968150Y-138021965I0J147500D01*
G01*
X246968150Y-137726965D01*
G75*
G02*
X247115650Y-137579465I147500J0D01*
G01*
X247460650Y-137579465D01*
G75*
G02*
X247608150Y-137726965I0J-147500D01*
G01*
X247608150Y-138021965D01*
G75*
G02*
X247460650Y-138169465I-147500J0D01*
G01*
G37*
G36*
G01*
X245038150Y-134636965D02*
X245038150Y-134291965D01*
G75*
G02*
X245185650Y-134144465I147500J0D01*
G01*
X245480650Y-134144465D01*
G75*
G02*
X245628150Y-134291965I0J-147500D01*
G01*
X245628150Y-134636965D01*
G75*
G02*
X245480650Y-134784465I-147500J0D01*
G01*
X245185650Y-134784465D01*
G75*
G02*
X245038150Y-134636965I0J147500D01*
G01*
G37*
G36*
G01*
X244068150Y-134636965D02*
X244068150Y-134291965D01*
G75*
G02*
X244215650Y-134144465I147500J0D01*
G01*
X244510650Y-134144465D01*
G75*
G02*
X244658150Y-134291965I0J-147500D01*
G01*
X244658150Y-134636965D01*
G75*
G02*
X244510650Y-134784465I-147500J0D01*
G01*
X244215650Y-134784465D01*
G75*
G02*
X244068150Y-134636965I0J147500D01*
G01*
G37*
G36*
G01*
X241873150Y-126391965D02*
X241873150Y-126736965D01*
G75*
G02*
X241725650Y-126884465I-147500J0D01*
G01*
X241430650Y-126884465D01*
G75*
G02*
X241283150Y-126736965I0J147500D01*
G01*
X241283150Y-126391965D01*
G75*
G02*
X241430650Y-126244465I147500J0D01*
G01*
X241725650Y-126244465D01*
G75*
G02*
X241873150Y-126391965I0J-147500D01*
G01*
G37*
G36*
G01*
X242843150Y-126391965D02*
X242843150Y-126736965D01*
G75*
G02*
X242695650Y-126884465I-147500J0D01*
G01*
X242400650Y-126884465D01*
G75*
G02*
X242253150Y-126736965I0J147500D01*
G01*
X242253150Y-126391965D01*
G75*
G02*
X242400650Y-126244465I147500J0D01*
G01*
X242695650Y-126244465D01*
G75*
G02*
X242843150Y-126391965I0J-147500D01*
G01*
G37*
G36*
G01*
X245440650Y-124054465D02*
X245095650Y-124054465D01*
G75*
G02*
X244948150Y-123906965I0J147500D01*
G01*
X244948150Y-123611965D01*
G75*
G02*
X245095650Y-123464465I147500J0D01*
G01*
X245440650Y-123464465D01*
G75*
G02*
X245588150Y-123611965I0J-147500D01*
G01*
X245588150Y-123906965D01*
G75*
G02*
X245440650Y-124054465I-147500J0D01*
G01*
G37*
G36*
G01*
X245440650Y-125024465D02*
X245095650Y-125024465D01*
G75*
G02*
X244948150Y-124876965I0J147500D01*
G01*
X244948150Y-124581965D01*
G75*
G02*
X245095650Y-124434465I147500J0D01*
G01*
X245440650Y-124434465D01*
G75*
G02*
X245588150Y-124581965I0J-147500D01*
G01*
X245588150Y-124876965D01*
G75*
G02*
X245440650Y-125024465I-147500J0D01*
G01*
G37*
G36*
G01*
X249460650Y-124054465D02*
X249115650Y-124054465D01*
G75*
G02*
X248968150Y-123906965I0J147500D01*
G01*
X248968150Y-123611965D01*
G75*
G02*
X249115650Y-123464465I147500J0D01*
G01*
X249460650Y-123464465D01*
G75*
G02*
X249608150Y-123611965I0J-147500D01*
G01*
X249608150Y-123906965D01*
G75*
G02*
X249460650Y-124054465I-147500J0D01*
G01*
G37*
G36*
G01*
X249460650Y-125024465D02*
X249115650Y-125024465D01*
G75*
G02*
X248968150Y-124876965I0J147500D01*
G01*
X248968150Y-124581965D01*
G75*
G02*
X249115650Y-124434465I147500J0D01*
G01*
X249460650Y-124434465D01*
G75*
G02*
X249608150Y-124581965I0J-147500D01*
G01*
X249608150Y-124876965D01*
G75*
G02*
X249460650Y-125024465I-147500J0D01*
G01*
G37*
G36*
G01*
X253430650Y-124059465D02*
X253085650Y-124059465D01*
G75*
G02*
X252938150Y-123911965I0J147500D01*
G01*
X252938150Y-123616965D01*
G75*
G02*
X253085650Y-123469465I147500J0D01*
G01*
X253430650Y-123469465D01*
G75*
G02*
X253578150Y-123616965I0J-147500D01*
G01*
X253578150Y-123911965D01*
G75*
G02*
X253430650Y-124059465I-147500J0D01*
G01*
G37*
G36*
G01*
X253430650Y-125029465D02*
X253085650Y-125029465D01*
G75*
G02*
X252938150Y-124881965I0J147500D01*
G01*
X252938150Y-124586965D01*
G75*
G02*
X253085650Y-124439465I147500J0D01*
G01*
X253430650Y-124439465D01*
G75*
G02*
X253578150Y-124586965I0J-147500D01*
G01*
X253578150Y-124881965D01*
G75*
G02*
X253430650Y-125029465I-147500J0D01*
G01*
G37*
G36*
G01*
X251480650Y-124054465D02*
X251135650Y-124054465D01*
G75*
G02*
X250988150Y-123906965I0J147500D01*
G01*
X250988150Y-123611965D01*
G75*
G02*
X251135650Y-123464465I147500J0D01*
G01*
X251480650Y-123464465D01*
G75*
G02*
X251628150Y-123611965I0J-147500D01*
G01*
X251628150Y-123906965D01*
G75*
G02*
X251480650Y-124054465I-147500J0D01*
G01*
G37*
G36*
G01*
X251480650Y-125024465D02*
X251135650Y-125024465D01*
G75*
G02*
X250988150Y-124876965I0J147500D01*
G01*
X250988150Y-124581965D01*
G75*
G02*
X251135650Y-124434465I147500J0D01*
G01*
X251480650Y-124434465D01*
G75*
G02*
X251628150Y-124581965I0J-147500D01*
G01*
X251628150Y-124876965D01*
G75*
G02*
X251480650Y-125024465I-147500J0D01*
G01*
G37*
G36*
G01*
X247460650Y-124054465D02*
X247115650Y-124054465D01*
G75*
G02*
X246968150Y-123906965I0J147500D01*
G01*
X246968150Y-123611965D01*
G75*
G02*
X247115650Y-123464465I147500J0D01*
G01*
X247460650Y-123464465D01*
G75*
G02*
X247608150Y-123611965I0J-147500D01*
G01*
X247608150Y-123906965D01*
G75*
G02*
X247460650Y-124054465I-147500J0D01*
G01*
G37*
G36*
G01*
X247460650Y-125024465D02*
X247115650Y-125024465D01*
G75*
G02*
X246968150Y-124876965I0J147500D01*
G01*
X246968150Y-124581965D01*
G75*
G02*
X247115650Y-124434465I147500J0D01*
G01*
X247460650Y-124434465D01*
G75*
G02*
X247608150Y-124581965I0J-147500D01*
G01*
X247608150Y-124876965D01*
G75*
G02*
X247460650Y-125024465I-147500J0D01*
G01*
G37*
G36*
G01*
X256843150Y-126766965D02*
X256843150Y-126421965D01*
G75*
G02*
X256990650Y-126274465I147500J0D01*
G01*
X257285650Y-126274465D01*
G75*
G02*
X257433150Y-126421965I0J-147500D01*
G01*
X257433150Y-126766965D01*
G75*
G02*
X257285650Y-126914465I-147500J0D01*
G01*
X256990650Y-126914465D01*
G75*
G02*
X256843150Y-126766965I0J147500D01*
G01*
G37*
G36*
G01*
X255873150Y-126766965D02*
X255873150Y-126421965D01*
G75*
G02*
X256020650Y-126274465I147500J0D01*
G01*
X256315650Y-126274465D01*
G75*
G02*
X256463150Y-126421965I0J-147500D01*
G01*
X256463150Y-126766965D01*
G75*
G02*
X256315650Y-126914465I-147500J0D01*
G01*
X256020650Y-126914465D01*
G75*
G02*
X255873150Y-126766965I0J147500D01*
G01*
G37*
G36*
G01*
X253608150Y-134281965D02*
X253608150Y-134626965D01*
G75*
G02*
X253460650Y-134774465I-147500J0D01*
G01*
X253165650Y-134774465D01*
G75*
G02*
X253018150Y-134626965I0J147500D01*
G01*
X253018150Y-134281965D01*
G75*
G02*
X253165650Y-134134465I147500J0D01*
G01*
X253460650Y-134134465D01*
G75*
G02*
X253608150Y-134281965I0J-147500D01*
G01*
G37*
G36*
G01*
X254578150Y-134281965D02*
X254578150Y-134626965D01*
G75*
G02*
X254430650Y-134774465I-147500J0D01*
G01*
X254135650Y-134774465D01*
G75*
G02*
X253988150Y-134626965I0J147500D01*
G01*
X253988150Y-134281965D01*
G75*
G02*
X254135650Y-134134465I147500J0D01*
G01*
X254430650Y-134134465D01*
G75*
G02*
X254578150Y-134281965I0J-147500D01*
G01*
G37*
G36*
G01*
X243185650Y-122189465D02*
X243530650Y-122189465D01*
G75*
G02*
X243678150Y-122336965I0J-147500D01*
G01*
X243678150Y-122631965D01*
G75*
G02*
X243530650Y-122779465I-147500J0D01*
G01*
X243185650Y-122779465D01*
G75*
G02*
X243038150Y-122631965I0J147500D01*
G01*
X243038150Y-122336965D01*
G75*
G02*
X243185650Y-122189465I147500J0D01*
G01*
G37*
G36*
G01*
X243185650Y-121219465D02*
X243530650Y-121219465D01*
G75*
G02*
X243678150Y-121366965I0J-147500D01*
G01*
X243678150Y-121661965D01*
G75*
G02*
X243530650Y-121809465I-147500J0D01*
G01*
X243185650Y-121809465D01*
G75*
G02*
X243038150Y-121661965I0J147500D01*
G01*
X243038150Y-121366965D01*
G75*
G02*
X243185650Y-121219465I147500J0D01*
G01*
G37*
G36*
G01*
X256275650Y-122204465D02*
X256620650Y-122204465D01*
G75*
G02*
X256768150Y-122351965I0J-147500D01*
G01*
X256768150Y-122646965D01*
G75*
G02*
X256620650Y-122794465I-147500J0D01*
G01*
X256275650Y-122794465D01*
G75*
G02*
X256128150Y-122646965I0J147500D01*
G01*
X256128150Y-122351965D01*
G75*
G02*
X256275650Y-122204465I147500J0D01*
G01*
G37*
G36*
G01*
X256275650Y-121234465D02*
X256620650Y-121234465D01*
G75*
G02*
X256768150Y-121381965I0J-147500D01*
G01*
X256768150Y-121676965D01*
G75*
G02*
X256620650Y-121824465I-147500J0D01*
G01*
X256275650Y-121824465D01*
G75*
G02*
X256128150Y-121676965I0J147500D01*
G01*
X256128150Y-121381965D01*
G75*
G02*
X256275650Y-121234465I147500J0D01*
G01*
G37*
G36*
G01*
X243510650Y-137189465D02*
X243165650Y-137189465D01*
G75*
G02*
X243018150Y-137041965I0J147500D01*
G01*
X243018150Y-136746965D01*
G75*
G02*
X243165650Y-136599465I147500J0D01*
G01*
X243510650Y-136599465D01*
G75*
G02*
X243658150Y-136746965I0J-147500D01*
G01*
X243658150Y-137041965D01*
G75*
G02*
X243510650Y-137189465I-147500J0D01*
G01*
G37*
G36*
G01*
X243510650Y-138159465D02*
X243165650Y-138159465D01*
G75*
G02*
X243018150Y-138011965I0J147500D01*
G01*
X243018150Y-137716965D01*
G75*
G02*
X243165650Y-137569465I147500J0D01*
G01*
X243510650Y-137569465D01*
G75*
G02*
X243658150Y-137716965I0J-147500D01*
G01*
X243658150Y-138011965D01*
G75*
G02*
X243510650Y-138159465I-147500J0D01*
G01*
G37*
G36*
G01*
X249155650Y-122204465D02*
X249500650Y-122204465D01*
G75*
G02*
X249648150Y-122351965I0J-147500D01*
G01*
X249648150Y-122646965D01*
G75*
G02*
X249500650Y-122794465I-147500J0D01*
G01*
X249155650Y-122794465D01*
G75*
G02*
X249008150Y-122646965I0J147500D01*
G01*
X249008150Y-122351965D01*
G75*
G02*
X249155650Y-122204465I147500J0D01*
G01*
G37*
G36*
G01*
X249155650Y-121234465D02*
X249500650Y-121234465D01*
G75*
G02*
X249648150Y-121381965I0J-147500D01*
G01*
X249648150Y-121676965D01*
G75*
G02*
X249500650Y-121824465I-147500J0D01*
G01*
X249155650Y-121824465D01*
G75*
G02*
X249008150Y-121676965I0J147500D01*
G01*
X249008150Y-121381965D01*
G75*
G02*
X249155650Y-121234465I147500J0D01*
G01*
G37*
G36*
G01*
X245175650Y-122204465D02*
X245520650Y-122204465D01*
G75*
G02*
X245668150Y-122351965I0J-147500D01*
G01*
X245668150Y-122646965D01*
G75*
G02*
X245520650Y-122794465I-147500J0D01*
G01*
X245175650Y-122794465D01*
G75*
G02*
X245028150Y-122646965I0J147500D01*
G01*
X245028150Y-122351965D01*
G75*
G02*
X245175650Y-122204465I147500J0D01*
G01*
G37*
G36*
G01*
X245175650Y-121234465D02*
X245520650Y-121234465D01*
G75*
G02*
X245668150Y-121381965I0J-147500D01*
G01*
X245668150Y-121676965D01*
G75*
G02*
X245520650Y-121824465I-147500J0D01*
G01*
X245175650Y-121824465D01*
G75*
G02*
X245028150Y-121676965I0J147500D01*
G01*
X245028150Y-121381965D01*
G75*
G02*
X245175650Y-121234465I147500J0D01*
G01*
G37*
G36*
G01*
X247165650Y-122204465D02*
X247510650Y-122204465D01*
G75*
G02*
X247658150Y-122351965I0J-147500D01*
G01*
X247658150Y-122646965D01*
G75*
G02*
X247510650Y-122794465I-147500J0D01*
G01*
X247165650Y-122794465D01*
G75*
G02*
X247018150Y-122646965I0J147500D01*
G01*
X247018150Y-122351965D01*
G75*
G02*
X247165650Y-122204465I147500J0D01*
G01*
G37*
G36*
G01*
X247165650Y-121234465D02*
X247510650Y-121234465D01*
G75*
G02*
X247658150Y-121381965I0J-147500D01*
G01*
X247658150Y-121676965D01*
G75*
G02*
X247510650Y-121824465I-147500J0D01*
G01*
X247165650Y-121824465D01*
G75*
G02*
X247018150Y-121676965I0J147500D01*
G01*
X247018150Y-121381965D01*
G75*
G02*
X247165650Y-121234465I147500J0D01*
G01*
G37*
G36*
G01*
X250040650Y-137189465D02*
X249695650Y-137189465D01*
G75*
G02*
X249548150Y-137041965I0J147500D01*
G01*
X249548150Y-136746965D01*
G75*
G02*
X249695650Y-136599465I147500J0D01*
G01*
X250040650Y-136599465D01*
G75*
G02*
X250188150Y-136746965I0J-147500D01*
G01*
X250188150Y-137041965D01*
G75*
G02*
X250040650Y-137189465I-147500J0D01*
G01*
G37*
G36*
G01*
X250040650Y-138159465D02*
X249695650Y-138159465D01*
G75*
G02*
X249548150Y-138011965I0J147500D01*
G01*
X249548150Y-137716965D01*
G75*
G02*
X249695650Y-137569465I147500J0D01*
G01*
X250040650Y-137569465D01*
G75*
G02*
X250188150Y-137716965I0J-147500D01*
G01*
X250188150Y-138011965D01*
G75*
G02*
X250040650Y-138159465I-147500J0D01*
G01*
G37*
G36*
G01*
X251145650Y-122204465D02*
X251490650Y-122204465D01*
G75*
G02*
X251638150Y-122351965I0J-147500D01*
G01*
X251638150Y-122646965D01*
G75*
G02*
X251490650Y-122794465I-147500J0D01*
G01*
X251145650Y-122794465D01*
G75*
G02*
X250998150Y-122646965I0J147500D01*
G01*
X250998150Y-122351965D01*
G75*
G02*
X251145650Y-122204465I147500J0D01*
G01*
G37*
G36*
G01*
X251145650Y-121234465D02*
X251490650Y-121234465D01*
G75*
G02*
X251638150Y-121381965I0J-147500D01*
G01*
X251638150Y-121676965D01*
G75*
G02*
X251490650Y-121824465I-147500J0D01*
G01*
X251145650Y-121824465D01*
G75*
G02*
X250998150Y-121676965I0J147500D01*
G01*
X250998150Y-121381965D01*
G75*
G02*
X251145650Y-121234465I147500J0D01*
G01*
G37*
G36*
G01*
X256480650Y-137189465D02*
X256135650Y-137189465D01*
G75*
G02*
X255988150Y-137041965I0J147500D01*
G01*
X255988150Y-136746965D01*
G75*
G02*
X256135650Y-136599465I147500J0D01*
G01*
X256480650Y-136599465D01*
G75*
G02*
X256628150Y-136746965I0J-147500D01*
G01*
X256628150Y-137041965D01*
G75*
G02*
X256480650Y-137189465I-147500J0D01*
G01*
G37*
G36*
G01*
X256480650Y-138159465D02*
X256135650Y-138159465D01*
G75*
G02*
X255988150Y-138011965I0J147500D01*
G01*
X255988150Y-137716965D01*
G75*
G02*
X256135650Y-137569465I147500J0D01*
G01*
X256480650Y-137569465D01*
G75*
G02*
X256628150Y-137716965I0J-147500D01*
G01*
X256628150Y-138011965D01*
G75*
G02*
X256480650Y-138159465I-147500J0D01*
G01*
G37*
G36*
G01*
X254195650Y-122204465D02*
X254540650Y-122204465D01*
G75*
G02*
X254688150Y-122351965I0J-147500D01*
G01*
X254688150Y-122646965D01*
G75*
G02*
X254540650Y-122794465I-147500J0D01*
G01*
X254195650Y-122794465D01*
G75*
G02*
X254048150Y-122646965I0J147500D01*
G01*
X254048150Y-122351965D01*
G75*
G02*
X254195650Y-122204465I147500J0D01*
G01*
G37*
G36*
G01*
X254195650Y-121234465D02*
X254540650Y-121234465D01*
G75*
G02*
X254688150Y-121381965I0J-147500D01*
G01*
X254688150Y-121676965D01*
G75*
G02*
X254540650Y-121824465I-147500J0D01*
G01*
X254195650Y-121824465D01*
G75*
G02*
X254048150Y-121676965I0J147500D01*
G01*
X254048150Y-121381965D01*
G75*
G02*
X254195650Y-121234465I147500J0D01*
G01*
G37*
G36*
G01*
X162272000Y-131355115D02*
X162272000Y-131010115D01*
G75*
G02*
X162419500Y-130862615I147500J0D01*
G01*
X162714500Y-130862615D01*
G75*
G02*
X162862000Y-131010115I0J-147500D01*
G01*
X162862000Y-131355115D01*
G75*
G02*
X162714500Y-131502615I-147500J0D01*
G01*
X162419500Y-131502615D01*
G75*
G02*
X162272000Y-131355115I0J147500D01*
G01*
G37*
G36*
G01*
X161302000Y-131355115D02*
X161302000Y-131010115D01*
G75*
G02*
X161449500Y-130862615I147500J0D01*
G01*
X161744500Y-130862615D01*
G75*
G02*
X161892000Y-131010115I0J-147500D01*
G01*
X161892000Y-131355115D01*
G75*
G02*
X161744500Y-131502615I-147500J0D01*
G01*
X161449500Y-131502615D01*
G75*
G02*
X161302000Y-131355115I0J147500D01*
G01*
G37*
G36*
G01*
X173472000Y-137090115D02*
X173472000Y-136745115D01*
G75*
G02*
X173619500Y-136597615I147500J0D01*
G01*
X173914500Y-136597615D01*
G75*
G02*
X174062000Y-136745115I0J-147500D01*
G01*
X174062000Y-137090115D01*
G75*
G02*
X173914500Y-137237615I-147500J0D01*
G01*
X173619500Y-137237615D01*
G75*
G02*
X173472000Y-137090115I0J147500D01*
G01*
G37*
G36*
G01*
X173939500Y-138182615D02*
X173594500Y-138182615D01*
G75*
G02*
X173447000Y-138035115I0J147500D01*
G01*
X173447000Y-137740115D01*
G75*
G02*
X173594500Y-137592615I147500J0D01*
G01*
X173939500Y-137592615D01*
G75*
G02*
X174087000Y-137740115I0J-147500D01*
G01*
X174087000Y-138035115D01*
G75*
G02*
X173939500Y-138182615I-147500J0D01*
G01*
G37*
G36*
G01*
X161854500Y-122332615D02*
X162199500Y-122332615D01*
G75*
G02*
X162347000Y-122480115I0J-147500D01*
G01*
X162347000Y-122775115D01*
G75*
G02*
X162199500Y-122922615I-147500J0D01*
G01*
X161854500Y-122922615D01*
G75*
G02*
X161707000Y-122775115I0J147500D01*
G01*
X161707000Y-122480115D01*
G75*
G02*
X161854500Y-122332615I147500J0D01*
G01*
G37*
G36*
G01*
X161854500Y-121362615D02*
X162199500Y-121362615D01*
G75*
G02*
X162347000Y-121510115I0J-147500D01*
G01*
X162347000Y-121805115D01*
G75*
G02*
X162199500Y-121952615I-147500J0D01*
G01*
X161854500Y-121952615D01*
G75*
G02*
X161707000Y-121805115I0J147500D01*
G01*
X161707000Y-121510115D01*
G75*
G02*
X161854500Y-121362615I147500J0D01*
G01*
G37*
G36*
G01*
X178082000Y-129960115D02*
X178082000Y-130305115D01*
G75*
G02*
X177934500Y-130452615I-147500J0D01*
G01*
X177639500Y-130452615D01*
G75*
G02*
X177492000Y-130305115I0J147500D01*
G01*
X177492000Y-129960115D01*
G75*
G02*
X177639500Y-129812615I147500J0D01*
G01*
X177934500Y-129812615D01*
G75*
G02*
X178082000Y-129960115I0J-147500D01*
G01*
G37*
G36*
G01*
X179052000Y-129960115D02*
X179052000Y-130305115D01*
G75*
G02*
X178904500Y-130452615I-147500J0D01*
G01*
X178609500Y-130452615D01*
G75*
G02*
X178462000Y-130305115I0J147500D01*
G01*
X178462000Y-129960115D01*
G75*
G02*
X178609500Y-129812615I147500J0D01*
G01*
X178904500Y-129812615D01*
G75*
G02*
X179052000Y-129960115I0J-147500D01*
G01*
G37*
G36*
G01*
X178474500Y-123227615D02*
X178819500Y-123227615D01*
G75*
G02*
X178967000Y-123375115I0J-147500D01*
G01*
X178967000Y-123670115D01*
G75*
G02*
X178819500Y-123817615I-147500J0D01*
G01*
X178474500Y-123817615D01*
G75*
G02*
X178327000Y-123670115I0J147500D01*
G01*
X178327000Y-123375115D01*
G75*
G02*
X178474500Y-123227615I147500J0D01*
G01*
G37*
G36*
G01*
X178474500Y-122257615D02*
X178819500Y-122257615D01*
G75*
G02*
X178967000Y-122405115I0J-147500D01*
G01*
X178967000Y-122700115D01*
G75*
G02*
X178819500Y-122847615I-147500J0D01*
G01*
X178474500Y-122847615D01*
G75*
G02*
X178327000Y-122700115I0J147500D01*
G01*
X178327000Y-122405115D01*
G75*
G02*
X178474500Y-122257615I147500J0D01*
G01*
G37*
G36*
G01*
X172392000Y-137085115D02*
X172392000Y-136740115D01*
G75*
G02*
X172539500Y-136592615I147500J0D01*
G01*
X172834500Y-136592615D01*
G75*
G02*
X172982000Y-136740115I0J-147500D01*
G01*
X172982000Y-137085115D01*
G75*
G02*
X172834500Y-137232615I-147500J0D01*
G01*
X172539500Y-137232615D01*
G75*
G02*
X172392000Y-137085115I0J147500D01*
G01*
G37*
G36*
G01*
X172859500Y-138177615D02*
X172514500Y-138177615D01*
G75*
G02*
X172367000Y-138030115I0J147500D01*
G01*
X172367000Y-137735115D01*
G75*
G02*
X172514500Y-137587615I147500J0D01*
G01*
X172859500Y-137587615D01*
G75*
G02*
X173007000Y-137735115I0J-147500D01*
G01*
X173007000Y-138030115D01*
G75*
G02*
X172859500Y-138177615I-147500J0D01*
G01*
G37*
G36*
G01*
X168329500Y-137217615D02*
X167984500Y-137217615D01*
G75*
G02*
X167837000Y-137070115I0J147500D01*
G01*
X167837000Y-136775115D01*
G75*
G02*
X167984500Y-136627615I147500J0D01*
G01*
X168329500Y-136627615D01*
G75*
G02*
X168477000Y-136775115I0J-147500D01*
G01*
X168477000Y-137070115D01*
G75*
G02*
X168329500Y-137217615I-147500J0D01*
G01*
G37*
G36*
G01*
X168329500Y-138187615D02*
X167984500Y-138187615D01*
G75*
G02*
X167837000Y-138040115I0J147500D01*
G01*
X167837000Y-137745115D01*
G75*
G02*
X167984500Y-137597615I147500J0D01*
G01*
X168329500Y-137597615D01*
G75*
G02*
X168477000Y-137745115I0J-147500D01*
G01*
X168477000Y-138040115D01*
G75*
G02*
X168329500Y-138187615I-147500J0D01*
G01*
G37*
G36*
G01*
X165907000Y-134655115D02*
X165907000Y-134310115D01*
G75*
G02*
X166054500Y-134162615I147500J0D01*
G01*
X166349500Y-134162615D01*
G75*
G02*
X166497000Y-134310115I0J-147500D01*
G01*
X166497000Y-134655115D01*
G75*
G02*
X166349500Y-134802615I-147500J0D01*
G01*
X166054500Y-134802615D01*
G75*
G02*
X165907000Y-134655115I0J147500D01*
G01*
G37*
G36*
G01*
X164937000Y-134655115D02*
X164937000Y-134310115D01*
G75*
G02*
X165084500Y-134162615I147500J0D01*
G01*
X165379500Y-134162615D01*
G75*
G02*
X165527000Y-134310115I0J-147500D01*
G01*
X165527000Y-134655115D01*
G75*
G02*
X165379500Y-134802615I-147500J0D01*
G01*
X165084500Y-134802615D01*
G75*
G02*
X164937000Y-134655115I0J147500D01*
G01*
G37*
G36*
G01*
X162742000Y-126410115D02*
X162742000Y-126755115D01*
G75*
G02*
X162594500Y-126902615I-147500J0D01*
G01*
X162299500Y-126902615D01*
G75*
G02*
X162152000Y-126755115I0J147500D01*
G01*
X162152000Y-126410115D01*
G75*
G02*
X162299500Y-126262615I147500J0D01*
G01*
X162594500Y-126262615D01*
G75*
G02*
X162742000Y-126410115I0J-147500D01*
G01*
G37*
G36*
G01*
X163712000Y-126410115D02*
X163712000Y-126755115D01*
G75*
G02*
X163564500Y-126902615I-147500J0D01*
G01*
X163269500Y-126902615D01*
G75*
G02*
X163122000Y-126755115I0J147500D01*
G01*
X163122000Y-126410115D01*
G75*
G02*
X163269500Y-126262615I147500J0D01*
G01*
X163564500Y-126262615D01*
G75*
G02*
X163712000Y-126410115I0J-147500D01*
G01*
G37*
G36*
G01*
X166309500Y-124072615D02*
X165964500Y-124072615D01*
G75*
G02*
X165817000Y-123925115I0J147500D01*
G01*
X165817000Y-123630115D01*
G75*
G02*
X165964500Y-123482615I147500J0D01*
G01*
X166309500Y-123482615D01*
G75*
G02*
X166457000Y-123630115I0J-147500D01*
G01*
X166457000Y-123925115D01*
G75*
G02*
X166309500Y-124072615I-147500J0D01*
G01*
G37*
G36*
G01*
X166309500Y-125042615D02*
X165964500Y-125042615D01*
G75*
G02*
X165817000Y-124895115I0J147500D01*
G01*
X165817000Y-124600115D01*
G75*
G02*
X165964500Y-124452615I147500J0D01*
G01*
X166309500Y-124452615D01*
G75*
G02*
X166457000Y-124600115I0J-147500D01*
G01*
X166457000Y-124895115D01*
G75*
G02*
X166309500Y-125042615I-147500J0D01*
G01*
G37*
G36*
G01*
X170329500Y-124072615D02*
X169984500Y-124072615D01*
G75*
G02*
X169837000Y-123925115I0J147500D01*
G01*
X169837000Y-123630115D01*
G75*
G02*
X169984500Y-123482615I147500J0D01*
G01*
X170329500Y-123482615D01*
G75*
G02*
X170477000Y-123630115I0J-147500D01*
G01*
X170477000Y-123925115D01*
G75*
G02*
X170329500Y-124072615I-147500J0D01*
G01*
G37*
G36*
G01*
X170329500Y-125042615D02*
X169984500Y-125042615D01*
G75*
G02*
X169837000Y-124895115I0J147500D01*
G01*
X169837000Y-124600115D01*
G75*
G02*
X169984500Y-124452615I147500J0D01*
G01*
X170329500Y-124452615D01*
G75*
G02*
X170477000Y-124600115I0J-147500D01*
G01*
X170477000Y-124895115D01*
G75*
G02*
X170329500Y-125042615I-147500J0D01*
G01*
G37*
G36*
G01*
X174299500Y-124077615D02*
X173954500Y-124077615D01*
G75*
G02*
X173807000Y-123930115I0J147500D01*
G01*
X173807000Y-123635115D01*
G75*
G02*
X173954500Y-123487615I147500J0D01*
G01*
X174299500Y-123487615D01*
G75*
G02*
X174447000Y-123635115I0J-147500D01*
G01*
X174447000Y-123930115D01*
G75*
G02*
X174299500Y-124077615I-147500J0D01*
G01*
G37*
G36*
G01*
X174299500Y-125047615D02*
X173954500Y-125047615D01*
G75*
G02*
X173807000Y-124900115I0J147500D01*
G01*
X173807000Y-124605115D01*
G75*
G02*
X173954500Y-124457615I147500J0D01*
G01*
X174299500Y-124457615D01*
G75*
G02*
X174447000Y-124605115I0J-147500D01*
G01*
X174447000Y-124900115D01*
G75*
G02*
X174299500Y-125047615I-147500J0D01*
G01*
G37*
G36*
G01*
X172349500Y-124072615D02*
X172004500Y-124072615D01*
G75*
G02*
X171857000Y-123925115I0J147500D01*
G01*
X171857000Y-123630115D01*
G75*
G02*
X172004500Y-123482615I147500J0D01*
G01*
X172349500Y-123482615D01*
G75*
G02*
X172497000Y-123630115I0J-147500D01*
G01*
X172497000Y-123925115D01*
G75*
G02*
X172349500Y-124072615I-147500J0D01*
G01*
G37*
G36*
G01*
X172349500Y-125042615D02*
X172004500Y-125042615D01*
G75*
G02*
X171857000Y-124895115I0J147500D01*
G01*
X171857000Y-124600115D01*
G75*
G02*
X172004500Y-124452615I147500J0D01*
G01*
X172349500Y-124452615D01*
G75*
G02*
X172497000Y-124600115I0J-147500D01*
G01*
X172497000Y-124895115D01*
G75*
G02*
X172349500Y-125042615I-147500J0D01*
G01*
G37*
G36*
G01*
X168329500Y-124072615D02*
X167984500Y-124072615D01*
G75*
G02*
X167837000Y-123925115I0J147500D01*
G01*
X167837000Y-123630115D01*
G75*
G02*
X167984500Y-123482615I147500J0D01*
G01*
X168329500Y-123482615D01*
G75*
G02*
X168477000Y-123630115I0J-147500D01*
G01*
X168477000Y-123925115D01*
G75*
G02*
X168329500Y-124072615I-147500J0D01*
G01*
G37*
G36*
G01*
X168329500Y-125042615D02*
X167984500Y-125042615D01*
G75*
G02*
X167837000Y-124895115I0J147500D01*
G01*
X167837000Y-124600115D01*
G75*
G02*
X167984500Y-124452615I147500J0D01*
G01*
X168329500Y-124452615D01*
G75*
G02*
X168477000Y-124600115I0J-147500D01*
G01*
X168477000Y-124895115D01*
G75*
G02*
X168329500Y-125042615I-147500J0D01*
G01*
G37*
G36*
G01*
X177712000Y-126785115D02*
X177712000Y-126440115D01*
G75*
G02*
X177859500Y-126292615I147500J0D01*
G01*
X178154500Y-126292615D01*
G75*
G02*
X178302000Y-126440115I0J-147500D01*
G01*
X178302000Y-126785115D01*
G75*
G02*
X178154500Y-126932615I-147500J0D01*
G01*
X177859500Y-126932615D01*
G75*
G02*
X177712000Y-126785115I0J147500D01*
G01*
G37*
G36*
G01*
X176742000Y-126785115D02*
X176742000Y-126440115D01*
G75*
G02*
X176889500Y-126292615I147500J0D01*
G01*
X177184500Y-126292615D01*
G75*
G02*
X177332000Y-126440115I0J-147500D01*
G01*
X177332000Y-126785115D01*
G75*
G02*
X177184500Y-126932615I-147500J0D01*
G01*
X176889500Y-126932615D01*
G75*
G02*
X176742000Y-126785115I0J147500D01*
G01*
G37*
G36*
G01*
X174477000Y-134300115D02*
X174477000Y-134645115D01*
G75*
G02*
X174329500Y-134792615I-147500J0D01*
G01*
X174034500Y-134792615D01*
G75*
G02*
X173887000Y-134645115I0J147500D01*
G01*
X173887000Y-134300115D01*
G75*
G02*
X174034500Y-134152615I147500J0D01*
G01*
X174329500Y-134152615D01*
G75*
G02*
X174477000Y-134300115I0J-147500D01*
G01*
G37*
G36*
G01*
X175447000Y-134300115D02*
X175447000Y-134645115D01*
G75*
G02*
X175299500Y-134792615I-147500J0D01*
G01*
X175004500Y-134792615D01*
G75*
G02*
X174857000Y-134645115I0J147500D01*
G01*
X174857000Y-134300115D01*
G75*
G02*
X175004500Y-134152615I147500J0D01*
G01*
X175299500Y-134152615D01*
G75*
G02*
X175447000Y-134300115I0J-147500D01*
G01*
G37*
G36*
G01*
X164054500Y-122207615D02*
X164399500Y-122207615D01*
G75*
G02*
X164547000Y-122355115I0J-147500D01*
G01*
X164547000Y-122650115D01*
G75*
G02*
X164399500Y-122797615I-147500J0D01*
G01*
X164054500Y-122797615D01*
G75*
G02*
X163907000Y-122650115I0J147500D01*
G01*
X163907000Y-122355115D01*
G75*
G02*
X164054500Y-122207615I147500J0D01*
G01*
G37*
G36*
G01*
X164054500Y-121237615D02*
X164399500Y-121237615D01*
G75*
G02*
X164547000Y-121385115I0J-147500D01*
G01*
X164547000Y-121680115D01*
G75*
G02*
X164399500Y-121827615I-147500J0D01*
G01*
X164054500Y-121827615D01*
G75*
G02*
X163907000Y-121680115I0J147500D01*
G01*
X163907000Y-121385115D01*
G75*
G02*
X164054500Y-121237615I147500J0D01*
G01*
G37*
G36*
G01*
X177144500Y-122222615D02*
X177489500Y-122222615D01*
G75*
G02*
X177637000Y-122370115I0J-147500D01*
G01*
X177637000Y-122665115D01*
G75*
G02*
X177489500Y-122812615I-147500J0D01*
G01*
X177144500Y-122812615D01*
G75*
G02*
X176997000Y-122665115I0J147500D01*
G01*
X176997000Y-122370115D01*
G75*
G02*
X177144500Y-122222615I147500J0D01*
G01*
G37*
G36*
G01*
X177144500Y-121252615D02*
X177489500Y-121252615D01*
G75*
G02*
X177637000Y-121400115I0J-147500D01*
G01*
X177637000Y-121695115D01*
G75*
G02*
X177489500Y-121842615I-147500J0D01*
G01*
X177144500Y-121842615D01*
G75*
G02*
X176997000Y-121695115I0J147500D01*
G01*
X176997000Y-121400115D01*
G75*
G02*
X177144500Y-121252615I147500J0D01*
G01*
G37*
G36*
G01*
X164379500Y-137207615D02*
X164034500Y-137207615D01*
G75*
G02*
X163887000Y-137060115I0J147500D01*
G01*
X163887000Y-136765115D01*
G75*
G02*
X164034500Y-136617615I147500J0D01*
G01*
X164379500Y-136617615D01*
G75*
G02*
X164527000Y-136765115I0J-147500D01*
G01*
X164527000Y-137060115D01*
G75*
G02*
X164379500Y-137207615I-147500J0D01*
G01*
G37*
G36*
G01*
X164379500Y-138177615D02*
X164034500Y-138177615D01*
G75*
G02*
X163887000Y-138030115I0J147500D01*
G01*
X163887000Y-137735115D01*
G75*
G02*
X164034500Y-137587615I147500J0D01*
G01*
X164379500Y-137587615D01*
G75*
G02*
X164527000Y-137735115I0J-147500D01*
G01*
X164527000Y-138030115D01*
G75*
G02*
X164379500Y-138177615I-147500J0D01*
G01*
G37*
G36*
G01*
X170024500Y-122222615D02*
X170369500Y-122222615D01*
G75*
G02*
X170517000Y-122370115I0J-147500D01*
G01*
X170517000Y-122665115D01*
G75*
G02*
X170369500Y-122812615I-147500J0D01*
G01*
X170024500Y-122812615D01*
G75*
G02*
X169877000Y-122665115I0J147500D01*
G01*
X169877000Y-122370115D01*
G75*
G02*
X170024500Y-122222615I147500J0D01*
G01*
G37*
G36*
G01*
X170024500Y-121252615D02*
X170369500Y-121252615D01*
G75*
G02*
X170517000Y-121400115I0J-147500D01*
G01*
X170517000Y-121695115D01*
G75*
G02*
X170369500Y-121842615I-147500J0D01*
G01*
X170024500Y-121842615D01*
G75*
G02*
X169877000Y-121695115I0J147500D01*
G01*
X169877000Y-121400115D01*
G75*
G02*
X170024500Y-121252615I147500J0D01*
G01*
G37*
G36*
G01*
X166044500Y-122222615D02*
X166389500Y-122222615D01*
G75*
G02*
X166537000Y-122370115I0J-147500D01*
G01*
X166537000Y-122665115D01*
G75*
G02*
X166389500Y-122812615I-147500J0D01*
G01*
X166044500Y-122812615D01*
G75*
G02*
X165897000Y-122665115I0J147500D01*
G01*
X165897000Y-122370115D01*
G75*
G02*
X166044500Y-122222615I147500J0D01*
G01*
G37*
G36*
G01*
X166044500Y-121252615D02*
X166389500Y-121252615D01*
G75*
G02*
X166537000Y-121400115I0J-147500D01*
G01*
X166537000Y-121695115D01*
G75*
G02*
X166389500Y-121842615I-147500J0D01*
G01*
X166044500Y-121842615D01*
G75*
G02*
X165897000Y-121695115I0J147500D01*
G01*
X165897000Y-121400115D01*
G75*
G02*
X166044500Y-121252615I147500J0D01*
G01*
G37*
G36*
G01*
X168034500Y-122222615D02*
X168379500Y-122222615D01*
G75*
G02*
X168527000Y-122370115I0J-147500D01*
G01*
X168527000Y-122665115D01*
G75*
G02*
X168379500Y-122812615I-147500J0D01*
G01*
X168034500Y-122812615D01*
G75*
G02*
X167887000Y-122665115I0J147500D01*
G01*
X167887000Y-122370115D01*
G75*
G02*
X168034500Y-122222615I147500J0D01*
G01*
G37*
G36*
G01*
X168034500Y-121252615D02*
X168379500Y-121252615D01*
G75*
G02*
X168527000Y-121400115I0J-147500D01*
G01*
X168527000Y-121695115D01*
G75*
G02*
X168379500Y-121842615I-147500J0D01*
G01*
X168034500Y-121842615D01*
G75*
G02*
X167887000Y-121695115I0J147500D01*
G01*
X167887000Y-121400115D01*
G75*
G02*
X168034500Y-121252615I147500J0D01*
G01*
G37*
G36*
G01*
X170909500Y-137207615D02*
X170564500Y-137207615D01*
G75*
G02*
X170417000Y-137060115I0J147500D01*
G01*
X170417000Y-136765115D01*
G75*
G02*
X170564500Y-136617615I147500J0D01*
G01*
X170909500Y-136617615D01*
G75*
G02*
X171057000Y-136765115I0J-147500D01*
G01*
X171057000Y-137060115D01*
G75*
G02*
X170909500Y-137207615I-147500J0D01*
G01*
G37*
G36*
G01*
X170909500Y-138177615D02*
X170564500Y-138177615D01*
G75*
G02*
X170417000Y-138030115I0J147500D01*
G01*
X170417000Y-137735115D01*
G75*
G02*
X170564500Y-137587615I147500J0D01*
G01*
X170909500Y-137587615D01*
G75*
G02*
X171057000Y-137735115I0J-147500D01*
G01*
X171057000Y-138030115D01*
G75*
G02*
X170909500Y-138177615I-147500J0D01*
G01*
G37*
G36*
G01*
X172014500Y-122222615D02*
X172359500Y-122222615D01*
G75*
G02*
X172507000Y-122370115I0J-147500D01*
G01*
X172507000Y-122665115D01*
G75*
G02*
X172359500Y-122812615I-147500J0D01*
G01*
X172014500Y-122812615D01*
G75*
G02*
X171867000Y-122665115I0J147500D01*
G01*
X171867000Y-122370115D01*
G75*
G02*
X172014500Y-122222615I147500J0D01*
G01*
G37*
G36*
G01*
X172014500Y-121252615D02*
X172359500Y-121252615D01*
G75*
G02*
X172507000Y-121400115I0J-147500D01*
G01*
X172507000Y-121695115D01*
G75*
G02*
X172359500Y-121842615I-147500J0D01*
G01*
X172014500Y-121842615D01*
G75*
G02*
X171867000Y-121695115I0J147500D01*
G01*
X171867000Y-121400115D01*
G75*
G02*
X172014500Y-121252615I147500J0D01*
G01*
G37*
G36*
G01*
X177349500Y-137207615D02*
X177004500Y-137207615D01*
G75*
G02*
X176857000Y-137060115I0J147500D01*
G01*
X176857000Y-136765115D01*
G75*
G02*
X177004500Y-136617615I147500J0D01*
G01*
X177349500Y-136617615D01*
G75*
G02*
X177497000Y-136765115I0J-147500D01*
G01*
X177497000Y-137060115D01*
G75*
G02*
X177349500Y-137207615I-147500J0D01*
G01*
G37*
G36*
G01*
X177349500Y-138177615D02*
X177004500Y-138177615D01*
G75*
G02*
X176857000Y-138030115I0J147500D01*
G01*
X176857000Y-137735115D01*
G75*
G02*
X177004500Y-137587615I147500J0D01*
G01*
X177349500Y-137587615D01*
G75*
G02*
X177497000Y-137735115I0J-147500D01*
G01*
X177497000Y-138030115D01*
G75*
G02*
X177349500Y-138177615I-147500J0D01*
G01*
G37*
G36*
G01*
X175064500Y-122222615D02*
X175409500Y-122222615D01*
G75*
G02*
X175557000Y-122370115I0J-147500D01*
G01*
X175557000Y-122665115D01*
G75*
G02*
X175409500Y-122812615I-147500J0D01*
G01*
X175064500Y-122812615D01*
G75*
G02*
X174917000Y-122665115I0J147500D01*
G01*
X174917000Y-122370115D01*
G75*
G02*
X175064500Y-122222615I147500J0D01*
G01*
G37*
G36*
G01*
X175064500Y-121252615D02*
X175409500Y-121252615D01*
G75*
G02*
X175557000Y-121400115I0J-147500D01*
G01*
X175557000Y-121695115D01*
G75*
G02*
X175409500Y-121842615I-147500J0D01*
G01*
X175064500Y-121842615D01*
G75*
G02*
X174917000Y-121695115I0J147500D01*
G01*
X174917000Y-121400115D01*
G75*
G02*
X175064500Y-121252615I147500J0D01*
G01*
G37*
G36*
G01*
X95328750Y-134298665D02*
X95328750Y-134643665D01*
G75*
G02*
X95181250Y-134791165I-147500J0D01*
G01*
X94886250Y-134791165D01*
G75*
G02*
X94738750Y-134643665I0J147500D01*
G01*
X94738750Y-134298665D01*
G75*
G02*
X94886250Y-134151165I147500J0D01*
G01*
X95181250Y-134151165D01*
G75*
G02*
X95328750Y-134298665I0J-147500D01*
G01*
G37*
G36*
G01*
X96298750Y-134298665D02*
X96298750Y-134643665D01*
G75*
G02*
X96151250Y-134791165I-147500J0D01*
G01*
X95856250Y-134791165D01*
G75*
G02*
X95708750Y-134643665I0J147500D01*
G01*
X95708750Y-134298665D01*
G75*
G02*
X95856250Y-134151165I147500J0D01*
G01*
X96151250Y-134151165D01*
G75*
G02*
X96298750Y-134298665I0J-147500D01*
G01*
G37*
G36*
G01*
X84906250Y-122206165D02*
X85251250Y-122206165D01*
G75*
G02*
X85398750Y-122353665I0J-147500D01*
G01*
X85398750Y-122648665D01*
G75*
G02*
X85251250Y-122796165I-147500J0D01*
G01*
X84906250Y-122796165D01*
G75*
G02*
X84758750Y-122648665I0J147500D01*
G01*
X84758750Y-122353665D01*
G75*
G02*
X84906250Y-122206165I147500J0D01*
G01*
G37*
G36*
G01*
X84906250Y-121236165D02*
X85251250Y-121236165D01*
G75*
G02*
X85398750Y-121383665I0J-147500D01*
G01*
X85398750Y-121678665D01*
G75*
G02*
X85251250Y-121826165I-147500J0D01*
G01*
X84906250Y-121826165D01*
G75*
G02*
X84758750Y-121678665I0J147500D01*
G01*
X84758750Y-121383665D01*
G75*
G02*
X84906250Y-121236165I147500J0D01*
G01*
G37*
G36*
G01*
X97996250Y-122221165D02*
X98341250Y-122221165D01*
G75*
G02*
X98488750Y-122368665I0J-147500D01*
G01*
X98488750Y-122663665D01*
G75*
G02*
X98341250Y-122811165I-147500J0D01*
G01*
X97996250Y-122811165D01*
G75*
G02*
X97848750Y-122663665I0J147500D01*
G01*
X97848750Y-122368665D01*
G75*
G02*
X97996250Y-122221165I147500J0D01*
G01*
G37*
G36*
G01*
X97996250Y-121251165D02*
X98341250Y-121251165D01*
G75*
G02*
X98488750Y-121398665I0J-147500D01*
G01*
X98488750Y-121693665D01*
G75*
G02*
X98341250Y-121841165I-147500J0D01*
G01*
X97996250Y-121841165D01*
G75*
G02*
X97848750Y-121693665I0J147500D01*
G01*
X97848750Y-121398665D01*
G75*
G02*
X97996250Y-121251165I147500J0D01*
G01*
G37*
G36*
G01*
X83123750Y-131353665D02*
X83123750Y-131008665D01*
G75*
G02*
X83271250Y-130861165I147500J0D01*
G01*
X83566250Y-130861165D01*
G75*
G02*
X83713750Y-131008665I0J-147500D01*
G01*
X83713750Y-131353665D01*
G75*
G02*
X83566250Y-131501165I-147500J0D01*
G01*
X83271250Y-131501165D01*
G75*
G02*
X83123750Y-131353665I0J147500D01*
G01*
G37*
G36*
G01*
X82153750Y-131353665D02*
X82153750Y-131008665D01*
G75*
G02*
X82301250Y-130861165I147500J0D01*
G01*
X82596250Y-130861165D01*
G75*
G02*
X82743750Y-131008665I0J-147500D01*
G01*
X82743750Y-131353665D01*
G75*
G02*
X82596250Y-131501165I-147500J0D01*
G01*
X82301250Y-131501165D01*
G75*
G02*
X82153750Y-131353665I0J147500D01*
G01*
G37*
G36*
G01*
X94791250Y-137211165D02*
X94446250Y-137211165D01*
G75*
G02*
X94298750Y-137063665I0J147500D01*
G01*
X94298750Y-136768665D01*
G75*
G02*
X94446250Y-136621165I147500J0D01*
G01*
X94791250Y-136621165D01*
G75*
G02*
X94938750Y-136768665I0J-147500D01*
G01*
X94938750Y-137063665D01*
G75*
G02*
X94791250Y-137211165I-147500J0D01*
G01*
G37*
G36*
G01*
X94791250Y-138181165D02*
X94446250Y-138181165D01*
G75*
G02*
X94298750Y-138033665I0J147500D01*
G01*
X94298750Y-137738665D01*
G75*
G02*
X94446250Y-137591165I147500J0D01*
G01*
X94791250Y-137591165D01*
G75*
G02*
X94938750Y-137738665I0J-147500D01*
G01*
X94938750Y-138033665D01*
G75*
G02*
X94791250Y-138181165I-147500J0D01*
G01*
G37*
G36*
G01*
X87141250Y-137206165D02*
X86796250Y-137206165D01*
G75*
G02*
X86648750Y-137058665I0J147500D01*
G01*
X86648750Y-136763665D01*
G75*
G02*
X86796250Y-136616165I147500J0D01*
G01*
X87141250Y-136616165D01*
G75*
G02*
X87288750Y-136763665I0J-147500D01*
G01*
X87288750Y-137058665D01*
G75*
G02*
X87141250Y-137206165I-147500J0D01*
G01*
G37*
G36*
G01*
X87141250Y-138176165D02*
X86796250Y-138176165D01*
G75*
G02*
X86648750Y-138028665I0J147500D01*
G01*
X86648750Y-137733665D01*
G75*
G02*
X86796250Y-137586165I147500J0D01*
G01*
X87141250Y-137586165D01*
G75*
G02*
X87288750Y-137733665I0J-147500D01*
G01*
X87288750Y-138028665D01*
G75*
G02*
X87141250Y-138176165I-147500J0D01*
G01*
G37*
G36*
G01*
X82706250Y-122331165D02*
X83051250Y-122331165D01*
G75*
G02*
X83198750Y-122478665I0J-147500D01*
G01*
X83198750Y-122773665D01*
G75*
G02*
X83051250Y-122921165I-147500J0D01*
G01*
X82706250Y-122921165D01*
G75*
G02*
X82558750Y-122773665I0J147500D01*
G01*
X82558750Y-122478665D01*
G75*
G02*
X82706250Y-122331165I147500J0D01*
G01*
G37*
G36*
G01*
X82706250Y-121361165D02*
X83051250Y-121361165D01*
G75*
G02*
X83198750Y-121508665I0J-147500D01*
G01*
X83198750Y-121803665D01*
G75*
G02*
X83051250Y-121951165I-147500J0D01*
G01*
X82706250Y-121951165D01*
G75*
G02*
X82558750Y-121803665I0J147500D01*
G01*
X82558750Y-121508665D01*
G75*
G02*
X82706250Y-121361165I147500J0D01*
G01*
G37*
G36*
G01*
X98933750Y-129958665D02*
X98933750Y-130303665D01*
G75*
G02*
X98786250Y-130451165I-147500J0D01*
G01*
X98491250Y-130451165D01*
G75*
G02*
X98343750Y-130303665I0J147500D01*
G01*
X98343750Y-129958665D01*
G75*
G02*
X98491250Y-129811165I147500J0D01*
G01*
X98786250Y-129811165D01*
G75*
G02*
X98933750Y-129958665I0J-147500D01*
G01*
G37*
G36*
G01*
X99903750Y-129958665D02*
X99903750Y-130303665D01*
G75*
G02*
X99756250Y-130451165I-147500J0D01*
G01*
X99461250Y-130451165D01*
G75*
G02*
X99313750Y-130303665I0J147500D01*
G01*
X99313750Y-129958665D01*
G75*
G02*
X99461250Y-129811165I147500J0D01*
G01*
X99756250Y-129811165D01*
G75*
G02*
X99903750Y-129958665I0J-147500D01*
G01*
G37*
G36*
G01*
X99326250Y-123226165D02*
X99671250Y-123226165D01*
G75*
G02*
X99818750Y-123373665I0J-147500D01*
G01*
X99818750Y-123668665D01*
G75*
G02*
X99671250Y-123816165I-147500J0D01*
G01*
X99326250Y-123816165D01*
G75*
G02*
X99178750Y-123668665I0J147500D01*
G01*
X99178750Y-123373665D01*
G75*
G02*
X99326250Y-123226165I147500J0D01*
G01*
G37*
G36*
G01*
X99326250Y-122256165D02*
X99671250Y-122256165D01*
G75*
G02*
X99818750Y-122403665I0J-147500D01*
G01*
X99818750Y-122698665D01*
G75*
G02*
X99671250Y-122846165I-147500J0D01*
G01*
X99326250Y-122846165D01*
G75*
G02*
X99178750Y-122698665I0J147500D01*
G01*
X99178750Y-122403665D01*
G75*
G02*
X99326250Y-122256165I147500J0D01*
G01*
G37*
G36*
G01*
X93711250Y-137206165D02*
X93366250Y-137206165D01*
G75*
G02*
X93218750Y-137058665I0J147500D01*
G01*
X93218750Y-136763665D01*
G75*
G02*
X93366250Y-136616165I147500J0D01*
G01*
X93711250Y-136616165D01*
G75*
G02*
X93858750Y-136763665I0J-147500D01*
G01*
X93858750Y-137058665D01*
G75*
G02*
X93711250Y-137206165I-147500J0D01*
G01*
G37*
G36*
G01*
X93711250Y-138176165D02*
X93366250Y-138176165D01*
G75*
G02*
X93218750Y-138028665I0J147500D01*
G01*
X93218750Y-137733665D01*
G75*
G02*
X93366250Y-137586165I147500J0D01*
G01*
X93711250Y-137586165D01*
G75*
G02*
X93858750Y-137733665I0J-147500D01*
G01*
X93858750Y-138028665D01*
G75*
G02*
X93711250Y-138176165I-147500J0D01*
G01*
G37*
G36*
G01*
X89181250Y-137216165D02*
X88836250Y-137216165D01*
G75*
G02*
X88688750Y-137068665I0J147500D01*
G01*
X88688750Y-136773665D01*
G75*
G02*
X88836250Y-136626165I147500J0D01*
G01*
X89181250Y-136626165D01*
G75*
G02*
X89328750Y-136773665I0J-147500D01*
G01*
X89328750Y-137068665D01*
G75*
G02*
X89181250Y-137216165I-147500J0D01*
G01*
G37*
G36*
G01*
X89181250Y-138186165D02*
X88836250Y-138186165D01*
G75*
G02*
X88688750Y-138038665I0J147500D01*
G01*
X88688750Y-137743665D01*
G75*
G02*
X88836250Y-137596165I147500J0D01*
G01*
X89181250Y-137596165D01*
G75*
G02*
X89328750Y-137743665I0J-147500D01*
G01*
X89328750Y-138038665D01*
G75*
G02*
X89181250Y-138186165I-147500J0D01*
G01*
G37*
G36*
G01*
X86758750Y-134653665D02*
X86758750Y-134308665D01*
G75*
G02*
X86906250Y-134161165I147500J0D01*
G01*
X87201250Y-134161165D01*
G75*
G02*
X87348750Y-134308665I0J-147500D01*
G01*
X87348750Y-134653665D01*
G75*
G02*
X87201250Y-134801165I-147500J0D01*
G01*
X86906250Y-134801165D01*
G75*
G02*
X86758750Y-134653665I0J147500D01*
G01*
G37*
G36*
G01*
X85788750Y-134653665D02*
X85788750Y-134308665D01*
G75*
G02*
X85936250Y-134161165I147500J0D01*
G01*
X86231250Y-134161165D01*
G75*
G02*
X86378750Y-134308665I0J-147500D01*
G01*
X86378750Y-134653665D01*
G75*
G02*
X86231250Y-134801165I-147500J0D01*
G01*
X85936250Y-134801165D01*
G75*
G02*
X85788750Y-134653665I0J147500D01*
G01*
G37*
G36*
G01*
X83593750Y-126408665D02*
X83593750Y-126753665D01*
G75*
G02*
X83446250Y-126901165I-147500J0D01*
G01*
X83151250Y-126901165D01*
G75*
G02*
X83003750Y-126753665I0J147500D01*
G01*
X83003750Y-126408665D01*
G75*
G02*
X83151250Y-126261165I147500J0D01*
G01*
X83446250Y-126261165D01*
G75*
G02*
X83593750Y-126408665I0J-147500D01*
G01*
G37*
G36*
G01*
X84563750Y-126408665D02*
X84563750Y-126753665D01*
G75*
G02*
X84416250Y-126901165I-147500J0D01*
G01*
X84121250Y-126901165D01*
G75*
G02*
X83973750Y-126753665I0J147500D01*
G01*
X83973750Y-126408665D01*
G75*
G02*
X84121250Y-126261165I147500J0D01*
G01*
X84416250Y-126261165D01*
G75*
G02*
X84563750Y-126408665I0J-147500D01*
G01*
G37*
G36*
G01*
X87161250Y-124071165D02*
X86816250Y-124071165D01*
G75*
G02*
X86668750Y-123923665I0J147500D01*
G01*
X86668750Y-123628665D01*
G75*
G02*
X86816250Y-123481165I147500J0D01*
G01*
X87161250Y-123481165D01*
G75*
G02*
X87308750Y-123628665I0J-147500D01*
G01*
X87308750Y-123923665D01*
G75*
G02*
X87161250Y-124071165I-147500J0D01*
G01*
G37*
G36*
G01*
X87161250Y-125041165D02*
X86816250Y-125041165D01*
G75*
G02*
X86668750Y-124893665I0J147500D01*
G01*
X86668750Y-124598665D01*
G75*
G02*
X86816250Y-124451165I147500J0D01*
G01*
X87161250Y-124451165D01*
G75*
G02*
X87308750Y-124598665I0J-147500D01*
G01*
X87308750Y-124893665D01*
G75*
G02*
X87161250Y-125041165I-147500J0D01*
G01*
G37*
G36*
G01*
X91181250Y-124071165D02*
X90836250Y-124071165D01*
G75*
G02*
X90688750Y-123923665I0J147500D01*
G01*
X90688750Y-123628665D01*
G75*
G02*
X90836250Y-123481165I147500J0D01*
G01*
X91181250Y-123481165D01*
G75*
G02*
X91328750Y-123628665I0J-147500D01*
G01*
X91328750Y-123923665D01*
G75*
G02*
X91181250Y-124071165I-147500J0D01*
G01*
G37*
G36*
G01*
X91181250Y-125041165D02*
X90836250Y-125041165D01*
G75*
G02*
X90688750Y-124893665I0J147500D01*
G01*
X90688750Y-124598665D01*
G75*
G02*
X90836250Y-124451165I147500J0D01*
G01*
X91181250Y-124451165D01*
G75*
G02*
X91328750Y-124598665I0J-147500D01*
G01*
X91328750Y-124893665D01*
G75*
G02*
X91181250Y-125041165I-147500J0D01*
G01*
G37*
G36*
G01*
X95151250Y-124076165D02*
X94806250Y-124076165D01*
G75*
G02*
X94658750Y-123928665I0J147500D01*
G01*
X94658750Y-123633665D01*
G75*
G02*
X94806250Y-123486165I147500J0D01*
G01*
X95151250Y-123486165D01*
G75*
G02*
X95298750Y-123633665I0J-147500D01*
G01*
X95298750Y-123928665D01*
G75*
G02*
X95151250Y-124076165I-147500J0D01*
G01*
G37*
G36*
G01*
X95151250Y-125046165D02*
X94806250Y-125046165D01*
G75*
G02*
X94658750Y-124898665I0J147500D01*
G01*
X94658750Y-124603665D01*
G75*
G02*
X94806250Y-124456165I147500J0D01*
G01*
X95151250Y-124456165D01*
G75*
G02*
X95298750Y-124603665I0J-147500D01*
G01*
X95298750Y-124898665D01*
G75*
G02*
X95151250Y-125046165I-147500J0D01*
G01*
G37*
G36*
G01*
X93201250Y-124071165D02*
X92856250Y-124071165D01*
G75*
G02*
X92708750Y-123923665I0J147500D01*
G01*
X92708750Y-123628665D01*
G75*
G02*
X92856250Y-123481165I147500J0D01*
G01*
X93201250Y-123481165D01*
G75*
G02*
X93348750Y-123628665I0J-147500D01*
G01*
X93348750Y-123923665D01*
G75*
G02*
X93201250Y-124071165I-147500J0D01*
G01*
G37*
G36*
G01*
X93201250Y-125041165D02*
X92856250Y-125041165D01*
G75*
G02*
X92708750Y-124893665I0J147500D01*
G01*
X92708750Y-124598665D01*
G75*
G02*
X92856250Y-124451165I147500J0D01*
G01*
X93201250Y-124451165D01*
G75*
G02*
X93348750Y-124598665I0J-147500D01*
G01*
X93348750Y-124893665D01*
G75*
G02*
X93201250Y-125041165I-147500J0D01*
G01*
G37*
G36*
G01*
X89181250Y-124071165D02*
X88836250Y-124071165D01*
G75*
G02*
X88688750Y-123923665I0J147500D01*
G01*
X88688750Y-123628665D01*
G75*
G02*
X88836250Y-123481165I147500J0D01*
G01*
X89181250Y-123481165D01*
G75*
G02*
X89328750Y-123628665I0J-147500D01*
G01*
X89328750Y-123923665D01*
G75*
G02*
X89181250Y-124071165I-147500J0D01*
G01*
G37*
G36*
G01*
X89181250Y-125041165D02*
X88836250Y-125041165D01*
G75*
G02*
X88688750Y-124893665I0J147500D01*
G01*
X88688750Y-124598665D01*
G75*
G02*
X88836250Y-124451165I147500J0D01*
G01*
X89181250Y-124451165D01*
G75*
G02*
X89328750Y-124598665I0J-147500D01*
G01*
X89328750Y-124893665D01*
G75*
G02*
X89181250Y-125041165I-147500J0D01*
G01*
G37*
G36*
G01*
X98563750Y-126783665D02*
X98563750Y-126438665D01*
G75*
G02*
X98711250Y-126291165I147500J0D01*
G01*
X99006250Y-126291165D01*
G75*
G02*
X99153750Y-126438665I0J-147500D01*
G01*
X99153750Y-126783665D01*
G75*
G02*
X99006250Y-126931165I-147500J0D01*
G01*
X98711250Y-126931165D01*
G75*
G02*
X98563750Y-126783665I0J147500D01*
G01*
G37*
G36*
G01*
X97593750Y-126783665D02*
X97593750Y-126438665D01*
G75*
G02*
X97741250Y-126291165I147500J0D01*
G01*
X98036250Y-126291165D01*
G75*
G02*
X98183750Y-126438665I0J-147500D01*
G01*
X98183750Y-126783665D01*
G75*
G02*
X98036250Y-126931165I-147500J0D01*
G01*
X97741250Y-126931165D01*
G75*
G02*
X97593750Y-126783665I0J147500D01*
G01*
G37*
G36*
G01*
X85231250Y-137206165D02*
X84886250Y-137206165D01*
G75*
G02*
X84738750Y-137058665I0J147500D01*
G01*
X84738750Y-136763665D01*
G75*
G02*
X84886250Y-136616165I147500J0D01*
G01*
X85231250Y-136616165D01*
G75*
G02*
X85378750Y-136763665I0J-147500D01*
G01*
X85378750Y-137058665D01*
G75*
G02*
X85231250Y-137206165I-147500J0D01*
G01*
G37*
G36*
G01*
X85231250Y-138176165D02*
X84886250Y-138176165D01*
G75*
G02*
X84738750Y-138028665I0J147500D01*
G01*
X84738750Y-137733665D01*
G75*
G02*
X84886250Y-137586165I147500J0D01*
G01*
X85231250Y-137586165D01*
G75*
G02*
X85378750Y-137733665I0J-147500D01*
G01*
X85378750Y-138028665D01*
G75*
G02*
X85231250Y-138176165I-147500J0D01*
G01*
G37*
G36*
G01*
X90876250Y-122221165D02*
X91221250Y-122221165D01*
G75*
G02*
X91368750Y-122368665I0J-147500D01*
G01*
X91368750Y-122663665D01*
G75*
G02*
X91221250Y-122811165I-147500J0D01*
G01*
X90876250Y-122811165D01*
G75*
G02*
X90728750Y-122663665I0J147500D01*
G01*
X90728750Y-122368665D01*
G75*
G02*
X90876250Y-122221165I147500J0D01*
G01*
G37*
G36*
G01*
X90876250Y-121251165D02*
X91221250Y-121251165D01*
G75*
G02*
X91368750Y-121398665I0J-147500D01*
G01*
X91368750Y-121693665D01*
G75*
G02*
X91221250Y-121841165I-147500J0D01*
G01*
X90876250Y-121841165D01*
G75*
G02*
X90728750Y-121693665I0J147500D01*
G01*
X90728750Y-121398665D01*
G75*
G02*
X90876250Y-121251165I147500J0D01*
G01*
G37*
G36*
G01*
X86896250Y-122221165D02*
X87241250Y-122221165D01*
G75*
G02*
X87388750Y-122368665I0J-147500D01*
G01*
X87388750Y-122663665D01*
G75*
G02*
X87241250Y-122811165I-147500J0D01*
G01*
X86896250Y-122811165D01*
G75*
G02*
X86748750Y-122663665I0J147500D01*
G01*
X86748750Y-122368665D01*
G75*
G02*
X86896250Y-122221165I147500J0D01*
G01*
G37*
G36*
G01*
X86896250Y-121251165D02*
X87241250Y-121251165D01*
G75*
G02*
X87388750Y-121398665I0J-147500D01*
G01*
X87388750Y-121693665D01*
G75*
G02*
X87241250Y-121841165I-147500J0D01*
G01*
X86896250Y-121841165D01*
G75*
G02*
X86748750Y-121693665I0J147500D01*
G01*
X86748750Y-121398665D01*
G75*
G02*
X86896250Y-121251165I147500J0D01*
G01*
G37*
G36*
G01*
X88886250Y-122221165D02*
X89231250Y-122221165D01*
G75*
G02*
X89378750Y-122368665I0J-147500D01*
G01*
X89378750Y-122663665D01*
G75*
G02*
X89231250Y-122811165I-147500J0D01*
G01*
X88886250Y-122811165D01*
G75*
G02*
X88738750Y-122663665I0J147500D01*
G01*
X88738750Y-122368665D01*
G75*
G02*
X88886250Y-122221165I147500J0D01*
G01*
G37*
G36*
G01*
X88886250Y-121251165D02*
X89231250Y-121251165D01*
G75*
G02*
X89378750Y-121398665I0J-147500D01*
G01*
X89378750Y-121693665D01*
G75*
G02*
X89231250Y-121841165I-147500J0D01*
G01*
X88886250Y-121841165D01*
G75*
G02*
X88738750Y-121693665I0J147500D01*
G01*
X88738750Y-121398665D01*
G75*
G02*
X88886250Y-121251165I147500J0D01*
G01*
G37*
G36*
G01*
X91761250Y-137206165D02*
X91416250Y-137206165D01*
G75*
G02*
X91268750Y-137058665I0J147500D01*
G01*
X91268750Y-136763665D01*
G75*
G02*
X91416250Y-136616165I147500J0D01*
G01*
X91761250Y-136616165D01*
G75*
G02*
X91908750Y-136763665I0J-147500D01*
G01*
X91908750Y-137058665D01*
G75*
G02*
X91761250Y-137206165I-147500J0D01*
G01*
G37*
G36*
G01*
X91761250Y-138176165D02*
X91416250Y-138176165D01*
G75*
G02*
X91268750Y-138028665I0J147500D01*
G01*
X91268750Y-137733665D01*
G75*
G02*
X91416250Y-137586165I147500J0D01*
G01*
X91761250Y-137586165D01*
G75*
G02*
X91908750Y-137733665I0J-147500D01*
G01*
X91908750Y-138028665D01*
G75*
G02*
X91761250Y-138176165I-147500J0D01*
G01*
G37*
G36*
G01*
X92866250Y-122221165D02*
X93211250Y-122221165D01*
G75*
G02*
X93358750Y-122368665I0J-147500D01*
G01*
X93358750Y-122663665D01*
G75*
G02*
X93211250Y-122811165I-147500J0D01*
G01*
X92866250Y-122811165D01*
G75*
G02*
X92718750Y-122663665I0J147500D01*
G01*
X92718750Y-122368665D01*
G75*
G02*
X92866250Y-122221165I147500J0D01*
G01*
G37*
G36*
G01*
X92866250Y-121251165D02*
X93211250Y-121251165D01*
G75*
G02*
X93358750Y-121398665I0J-147500D01*
G01*
X93358750Y-121693665D01*
G75*
G02*
X93211250Y-121841165I-147500J0D01*
G01*
X92866250Y-121841165D01*
G75*
G02*
X92718750Y-121693665I0J147500D01*
G01*
X92718750Y-121398665D01*
G75*
G02*
X92866250Y-121251165I147500J0D01*
G01*
G37*
G36*
G01*
X98201250Y-137206165D02*
X97856250Y-137206165D01*
G75*
G02*
X97708750Y-137058665I0J147500D01*
G01*
X97708750Y-136763665D01*
G75*
G02*
X97856250Y-136616165I147500J0D01*
G01*
X98201250Y-136616165D01*
G75*
G02*
X98348750Y-136763665I0J-147500D01*
G01*
X98348750Y-137058665D01*
G75*
G02*
X98201250Y-137206165I-147500J0D01*
G01*
G37*
G36*
G01*
X98201250Y-138176165D02*
X97856250Y-138176165D01*
G75*
G02*
X97708750Y-138028665I0J147500D01*
G01*
X97708750Y-137733665D01*
G75*
G02*
X97856250Y-137586165I147500J0D01*
G01*
X98201250Y-137586165D01*
G75*
G02*
X98348750Y-137733665I0J-147500D01*
G01*
X98348750Y-138028665D01*
G75*
G02*
X98201250Y-138176165I-147500J0D01*
G01*
G37*
G36*
G01*
X95916250Y-122221165D02*
X96261250Y-122221165D01*
G75*
G02*
X96408750Y-122368665I0J-147500D01*
G01*
X96408750Y-122663665D01*
G75*
G02*
X96261250Y-122811165I-147500J0D01*
G01*
X95916250Y-122811165D01*
G75*
G02*
X95768750Y-122663665I0J147500D01*
G01*
X95768750Y-122368665D01*
G75*
G02*
X95916250Y-122221165I147500J0D01*
G01*
G37*
G36*
G01*
X95916250Y-121251165D02*
X96261250Y-121251165D01*
G75*
G02*
X96408750Y-121398665I0J-147500D01*
G01*
X96408750Y-121693665D01*
G75*
G02*
X96261250Y-121841165I-147500J0D01*
G01*
X95916250Y-121841165D01*
G75*
G02*
X95768750Y-121693665I0J147500D01*
G01*
X95768750Y-121398665D01*
G75*
G02*
X95916250Y-121251165I147500J0D01*
G01*
G37*
M02*
