G04 #@! TF.GenerationSoftware,KiCad,Pcbnew,5.99.0-unknown-1973153~101~ubuntu20.04.1*
G04 #@! TF.CreationDate,2020-06-25T18:30:09-04:00*
G04 #@! TF.ProjectId,L1Switch,4c315377-6974-4636-982e-6b696361645f,rev?*
G04 #@! TF.SameCoordinates,Original*
G04 #@! TF.FileFunction,Soldermask,Bot*
G04 #@! TF.FilePolarity,Negative*
%FSLAX46Y46*%
G04 Gerber Fmt 4.6, Leading zero omitted, Abs format (unit mm)*
G04 Created by KiCad (PCBNEW 5.99.0-unknown-1973153~101~ubuntu20.04.1) date 2020-06-25 18:30:09*
%MOMM*%
%LPD*%
G01*
G04 APERTURE LIST*
%ADD10O,2.132000X1.832000*%
%ADD11C,7.702000*%
%ADD12O,1.802000X1.802000*%
%ADD13O,1.452000X1.452000*%
%ADD14C,1.676800*%
%ADD15C,1.500000*%
%ADD16C,3.352000*%
%ADD17O,4.102000X1.902000*%
%ADD18O,1.902000X4.102000*%
G04 APERTURE END LIST*
D10*
X232478750Y-51211165D03*
X232478750Y-48671165D03*
G36*
G01*
X231412750Y-46996165D02*
X231412750Y-45266165D01*
G75*
G02*
X231463750Y-45215165I51000J0D01*
G01*
X233493750Y-45215165D01*
G75*
G02*
X233544750Y-45266165I0J-51000D01*
G01*
X233544750Y-46996165D01*
G75*
G02*
X233493750Y-47047165I-51000J0D01*
G01*
X231463750Y-47047165D01*
G75*
G02*
X231412750Y-46996165I0J51000D01*
G01*
G37*
X120678750Y-52611165D03*
X120678750Y-50071165D03*
G36*
G01*
X119612750Y-48396165D02*
X119612750Y-46666165D01*
G75*
G02*
X119663750Y-46615165I51000J0D01*
G01*
X121693750Y-46615165D01*
G75*
G02*
X121744750Y-46666165I0J-51000D01*
G01*
X121744750Y-48396165D01*
G75*
G02*
X121693750Y-48447165I-51000J0D01*
G01*
X119663750Y-48447165D01*
G75*
G02*
X119612750Y-48396165I0J51000D01*
G01*
G37*
G36*
G01*
X216280750Y-79370165D02*
X216676750Y-79370165D01*
G75*
G02*
X216849750Y-79543165I0J-173000D01*
G01*
X216849750Y-79889165D01*
G75*
G02*
X216676750Y-80062165I-173000J0D01*
G01*
X216280750Y-80062165D01*
G75*
G02*
X216107750Y-79889165I0J173000D01*
G01*
X216107750Y-79543165D01*
G75*
G02*
X216280750Y-79370165I173000J0D01*
G01*
G37*
G36*
G01*
X216280750Y-78400165D02*
X216676750Y-78400165D01*
G75*
G02*
X216849750Y-78573165I0J-173000D01*
G01*
X216849750Y-78919165D01*
G75*
G02*
X216676750Y-79092165I-173000J0D01*
G01*
X216280750Y-79092165D01*
G75*
G02*
X216107750Y-78919165I0J173000D01*
G01*
X216107750Y-78573165D01*
G75*
G02*
X216280750Y-78400165I173000J0D01*
G01*
G37*
G36*
G01*
X215260500Y-69332165D02*
X214297000Y-69332165D01*
G75*
G02*
X214027750Y-69062915I0J269250D01*
G01*
X214027750Y-68524415D01*
G75*
G02*
X214297000Y-68255165I269250J0D01*
G01*
X215260500Y-68255165D01*
G75*
G02*
X215529750Y-68524415I0J-269250D01*
G01*
X215529750Y-69062915D01*
G75*
G02*
X215260500Y-69332165I-269250J0D01*
G01*
G37*
G36*
G01*
X215260500Y-71207165D02*
X214297000Y-71207165D01*
G75*
G02*
X214027750Y-70937915I0J269250D01*
G01*
X214027750Y-70399415D01*
G75*
G02*
X214297000Y-70130165I269250J0D01*
G01*
X215260500Y-70130165D01*
G75*
G02*
X215529750Y-70399415I0J-269250D01*
G01*
X215529750Y-70937915D01*
G75*
G02*
X215260500Y-71207165I-269250J0D01*
G01*
G37*
G36*
G01*
X212924750Y-82733165D02*
X212924750Y-83129165D01*
G75*
G02*
X212751750Y-83302165I-173000J0D01*
G01*
X212405750Y-83302165D01*
G75*
G02*
X212232750Y-83129165I0J173000D01*
G01*
X212232750Y-82733165D01*
G75*
G02*
X212405750Y-82560165I173000J0D01*
G01*
X212751750Y-82560165D01*
G75*
G02*
X212924750Y-82733165I0J-173000D01*
G01*
G37*
G36*
G01*
X213894750Y-82733165D02*
X213894750Y-83129165D01*
G75*
G02*
X213721750Y-83302165I-173000J0D01*
G01*
X213375750Y-83302165D01*
G75*
G02*
X213202750Y-83129165I0J173000D01*
G01*
X213202750Y-82733165D01*
G75*
G02*
X213375750Y-82560165I173000J0D01*
G01*
X213721750Y-82560165D01*
G75*
G02*
X213894750Y-82733165I0J-173000D01*
G01*
G37*
G36*
G01*
X211380750Y-82685165D02*
X211776750Y-82685165D01*
G75*
G02*
X211949750Y-82858165I0J-173000D01*
G01*
X211949750Y-83204165D01*
G75*
G02*
X211776750Y-83377165I-173000J0D01*
G01*
X211380750Y-83377165D01*
G75*
G02*
X211207750Y-83204165I0J173000D01*
G01*
X211207750Y-82858165D01*
G75*
G02*
X211380750Y-82685165I173000J0D01*
G01*
G37*
G36*
G01*
X211380750Y-81715165D02*
X211776750Y-81715165D01*
G75*
G02*
X211949750Y-81888165I0J-173000D01*
G01*
X211949750Y-82234165D01*
G75*
G02*
X211776750Y-82407165I-173000J0D01*
G01*
X211380750Y-82407165D01*
G75*
G02*
X211207750Y-82234165I0J173000D01*
G01*
X211207750Y-81888165D01*
G75*
G02*
X211380750Y-81715165I173000J0D01*
G01*
G37*
G36*
G01*
X215080750Y-83870165D02*
X215476750Y-83870165D01*
G75*
G02*
X215649750Y-84043165I0J-173000D01*
G01*
X215649750Y-84389165D01*
G75*
G02*
X215476750Y-84562165I-173000J0D01*
G01*
X215080750Y-84562165D01*
G75*
G02*
X214907750Y-84389165I0J173000D01*
G01*
X214907750Y-84043165D01*
G75*
G02*
X215080750Y-83870165I173000J0D01*
G01*
G37*
G36*
G01*
X215080750Y-82900165D02*
X215476750Y-82900165D01*
G75*
G02*
X215649750Y-83073165I0J-173000D01*
G01*
X215649750Y-83419165D01*
G75*
G02*
X215476750Y-83592165I-173000J0D01*
G01*
X215080750Y-83592165D01*
G75*
G02*
X214907750Y-83419165I0J173000D01*
G01*
X214907750Y-83073165D01*
G75*
G02*
X215080750Y-82900165I173000J0D01*
G01*
G37*
G36*
G01*
X214580750Y-81170165D02*
X214976750Y-81170165D01*
G75*
G02*
X215149750Y-81343165I0J-173000D01*
G01*
X215149750Y-81689165D01*
G75*
G02*
X214976750Y-81862165I-173000J0D01*
G01*
X214580750Y-81862165D01*
G75*
G02*
X214407750Y-81689165I0J173000D01*
G01*
X214407750Y-81343165D01*
G75*
G02*
X214580750Y-81170165I173000J0D01*
G01*
G37*
G36*
G01*
X214580750Y-80200165D02*
X214976750Y-80200165D01*
G75*
G02*
X215149750Y-80373165I0J-173000D01*
G01*
X215149750Y-80719165D01*
G75*
G02*
X214976750Y-80892165I-173000J0D01*
G01*
X214580750Y-80892165D01*
G75*
G02*
X214407750Y-80719165I0J173000D01*
G01*
X214407750Y-80373165D01*
G75*
G02*
X214580750Y-80200165I173000J0D01*
G01*
G37*
G36*
G01*
X211639750Y-79033165D02*
X211639750Y-79429165D01*
G75*
G02*
X211466750Y-79602165I-173000J0D01*
G01*
X211120750Y-79602165D01*
G75*
G02*
X210947750Y-79429165I0J173000D01*
G01*
X210947750Y-79033165D01*
G75*
G02*
X211120750Y-78860165I173000J0D01*
G01*
X211466750Y-78860165D01*
G75*
G02*
X211639750Y-79033165I0J-173000D01*
G01*
G37*
G36*
G01*
X212609750Y-79033165D02*
X212609750Y-79429165D01*
G75*
G02*
X212436750Y-79602165I-173000J0D01*
G01*
X212090750Y-79602165D01*
G75*
G02*
X211917750Y-79429165I0J173000D01*
G01*
X211917750Y-79033165D01*
G75*
G02*
X212090750Y-78860165I173000J0D01*
G01*
X212436750Y-78860165D01*
G75*
G02*
X212609750Y-79033165I0J-173000D01*
G01*
G37*
G36*
G01*
X212680750Y-81070165D02*
X213076750Y-81070165D01*
G75*
G02*
X213249750Y-81243165I0J-173000D01*
G01*
X213249750Y-81589165D01*
G75*
G02*
X213076750Y-81762165I-173000J0D01*
G01*
X212680750Y-81762165D01*
G75*
G02*
X212507750Y-81589165I0J173000D01*
G01*
X212507750Y-81243165D01*
G75*
G02*
X212680750Y-81070165I173000J0D01*
G01*
G37*
G36*
G01*
X212680750Y-80100165D02*
X213076750Y-80100165D01*
G75*
G02*
X213249750Y-80273165I0J-173000D01*
G01*
X213249750Y-80619165D01*
G75*
G02*
X213076750Y-80792165I-173000J0D01*
G01*
X212680750Y-80792165D01*
G75*
G02*
X212507750Y-80619165I0J173000D01*
G01*
X212507750Y-80273165D01*
G75*
G02*
X212680750Y-80100165I173000J0D01*
G01*
G37*
G36*
G01*
X218277750Y-68212915D02*
X218277750Y-67249415D01*
G75*
G02*
X218547000Y-66980165I269250J0D01*
G01*
X219085500Y-66980165D01*
G75*
G02*
X219354750Y-67249415I0J-269250D01*
G01*
X219354750Y-68212915D01*
G75*
G02*
X219085500Y-68482165I-269250J0D01*
G01*
X218547000Y-68482165D01*
G75*
G02*
X218277750Y-68212915I0J269250D01*
G01*
G37*
G36*
G01*
X216402750Y-68212915D02*
X216402750Y-67249415D01*
G75*
G02*
X216672000Y-66980165I269250J0D01*
G01*
X217210500Y-66980165D01*
G75*
G02*
X217479750Y-67249415I0J-269250D01*
G01*
X217479750Y-68212915D01*
G75*
G02*
X217210500Y-68482165I-269250J0D01*
G01*
X216672000Y-68482165D01*
G75*
G02*
X216402750Y-68212915I0J269250D01*
G01*
G37*
G36*
G01*
X221817750Y-80229165D02*
X221817750Y-79833165D01*
G75*
G02*
X221990750Y-79660165I173000J0D01*
G01*
X222336750Y-79660165D01*
G75*
G02*
X222509750Y-79833165I0J-173000D01*
G01*
X222509750Y-80229165D01*
G75*
G02*
X222336750Y-80402165I-173000J0D01*
G01*
X221990750Y-80402165D01*
G75*
G02*
X221817750Y-80229165I0J173000D01*
G01*
G37*
G36*
G01*
X220847750Y-80229165D02*
X220847750Y-79833165D01*
G75*
G02*
X221020750Y-79660165I173000J0D01*
G01*
X221366750Y-79660165D01*
G75*
G02*
X221539750Y-79833165I0J-173000D01*
G01*
X221539750Y-80229165D01*
G75*
G02*
X221366750Y-80402165I-173000J0D01*
G01*
X221020750Y-80402165D01*
G75*
G02*
X220847750Y-80229165I0J173000D01*
G01*
G37*
G36*
G01*
X228515250Y-66412915D02*
X228515250Y-65449415D01*
G75*
G02*
X228784500Y-65180165I269250J0D01*
G01*
X229323000Y-65180165D01*
G75*
G02*
X229592250Y-65449415I0J-269250D01*
G01*
X229592250Y-66412915D01*
G75*
G02*
X229323000Y-66682165I-269250J0D01*
G01*
X228784500Y-66682165D01*
G75*
G02*
X228515250Y-66412915I0J269250D01*
G01*
G37*
G36*
G01*
X226640250Y-66412915D02*
X226640250Y-65449415D01*
G75*
G02*
X226909500Y-65180165I269250J0D01*
G01*
X227448000Y-65180165D01*
G75*
G02*
X227717250Y-65449415I0J-269250D01*
G01*
X227717250Y-66412915D01*
G75*
G02*
X227448000Y-66682165I-269250J0D01*
G01*
X226909500Y-66682165D01*
G75*
G02*
X226640250Y-66412915I0J269250D01*
G01*
G37*
G36*
G01*
X217580750Y-79370165D02*
X217976750Y-79370165D01*
G75*
G02*
X218149750Y-79543165I0J-173000D01*
G01*
X218149750Y-79889165D01*
G75*
G02*
X217976750Y-80062165I-173000J0D01*
G01*
X217580750Y-80062165D01*
G75*
G02*
X217407750Y-79889165I0J173000D01*
G01*
X217407750Y-79543165D01*
G75*
G02*
X217580750Y-79370165I173000J0D01*
G01*
G37*
G36*
G01*
X217580750Y-78400165D02*
X217976750Y-78400165D01*
G75*
G02*
X218149750Y-78573165I0J-173000D01*
G01*
X218149750Y-78919165D01*
G75*
G02*
X217976750Y-79092165I-173000J0D01*
G01*
X217580750Y-79092165D01*
G75*
G02*
X217407750Y-78919165I0J173000D01*
G01*
X217407750Y-78573165D01*
G75*
G02*
X217580750Y-78400165I173000J0D01*
G01*
G37*
G36*
G01*
X226477750Y-80212915D02*
X226477750Y-79249415D01*
G75*
G02*
X226747000Y-78980165I269250J0D01*
G01*
X227285500Y-78980165D01*
G75*
G02*
X227554750Y-79249415I0J-269250D01*
G01*
X227554750Y-80212915D01*
G75*
G02*
X227285500Y-80482165I-269250J0D01*
G01*
X226747000Y-80482165D01*
G75*
G02*
X226477750Y-80212915I0J269250D01*
G01*
G37*
G36*
G01*
X224602750Y-80212915D02*
X224602750Y-79249415D01*
G75*
G02*
X224872000Y-78980165I269250J0D01*
G01*
X225410500Y-78980165D01*
G75*
G02*
X225679750Y-79249415I0J-269250D01*
G01*
X225679750Y-80212915D01*
G75*
G02*
X225410500Y-80482165I-269250J0D01*
G01*
X224872000Y-80482165D01*
G75*
G02*
X224602750Y-80212915I0J269250D01*
G01*
G37*
G36*
G01*
X215439750Y-77433165D02*
X215439750Y-77829165D01*
G75*
G02*
X215266750Y-78002165I-173000J0D01*
G01*
X214920750Y-78002165D01*
G75*
G02*
X214747750Y-77829165I0J173000D01*
G01*
X214747750Y-77433165D01*
G75*
G02*
X214920750Y-77260165I173000J0D01*
G01*
X215266750Y-77260165D01*
G75*
G02*
X215439750Y-77433165I0J-173000D01*
G01*
G37*
G36*
G01*
X216409750Y-77433165D02*
X216409750Y-77829165D01*
G75*
G02*
X216236750Y-78002165I-173000J0D01*
G01*
X215890750Y-78002165D01*
G75*
G02*
X215717750Y-77829165I0J173000D01*
G01*
X215717750Y-77433165D01*
G75*
G02*
X215890750Y-77260165I173000J0D01*
G01*
X216236750Y-77260165D01*
G75*
G02*
X216409750Y-77433165I0J-173000D01*
G01*
G37*
G36*
G01*
X222532750Y-73629165D02*
X222532750Y-73233165D01*
G75*
G02*
X222705750Y-73060165I173000J0D01*
G01*
X223051750Y-73060165D01*
G75*
G02*
X223224750Y-73233165I0J-173000D01*
G01*
X223224750Y-73629165D01*
G75*
G02*
X223051750Y-73802165I-173000J0D01*
G01*
X222705750Y-73802165D01*
G75*
G02*
X222532750Y-73629165I0J173000D01*
G01*
G37*
G36*
G01*
X221562750Y-73629165D02*
X221562750Y-73233165D01*
G75*
G02*
X221735750Y-73060165I173000J0D01*
G01*
X222081750Y-73060165D01*
G75*
G02*
X222254750Y-73233165I0J-173000D01*
G01*
X222254750Y-73629165D01*
G75*
G02*
X222081750Y-73802165I-173000J0D01*
G01*
X221735750Y-73802165D01*
G75*
G02*
X221562750Y-73629165I0J173000D01*
G01*
G37*
G36*
G01*
X220532750Y-89229165D02*
X220532750Y-88833165D01*
G75*
G02*
X220705750Y-88660165I173000J0D01*
G01*
X221051750Y-88660165D01*
G75*
G02*
X221224750Y-88833165I0J-173000D01*
G01*
X221224750Y-89229165D01*
G75*
G02*
X221051750Y-89402165I-173000J0D01*
G01*
X220705750Y-89402165D01*
G75*
G02*
X220532750Y-89229165I0J173000D01*
G01*
G37*
G36*
G01*
X219562750Y-89229165D02*
X219562750Y-88833165D01*
G75*
G02*
X219735750Y-88660165I173000J0D01*
G01*
X220081750Y-88660165D01*
G75*
G02*
X220254750Y-88833165I0J-173000D01*
G01*
X220254750Y-89229165D01*
G75*
G02*
X220081750Y-89402165I-173000J0D01*
G01*
X219735750Y-89402165D01*
G75*
G02*
X219562750Y-89229165I0J173000D01*
G01*
G37*
G36*
G01*
X225297000Y-94630165D02*
X226260500Y-94630165D01*
G75*
G02*
X226529750Y-94899415I0J-269250D01*
G01*
X226529750Y-95437915D01*
G75*
G02*
X226260500Y-95707165I-269250J0D01*
G01*
X225297000Y-95707165D01*
G75*
G02*
X225027750Y-95437915I0J269250D01*
G01*
X225027750Y-94899415D01*
G75*
G02*
X225297000Y-94630165I269250J0D01*
G01*
G37*
G36*
G01*
X225297000Y-92755165D02*
X226260500Y-92755165D01*
G75*
G02*
X226529750Y-93024415I0J-269250D01*
G01*
X226529750Y-93562915D01*
G75*
G02*
X226260500Y-93832165I-269250J0D01*
G01*
X225297000Y-93832165D01*
G75*
G02*
X225027750Y-93562915I0J269250D01*
G01*
X225027750Y-93024415D01*
G75*
G02*
X225297000Y-92755165I269250J0D01*
G01*
G37*
G36*
G01*
X210539750Y-87133165D02*
X210539750Y-87529165D01*
G75*
G02*
X210366750Y-87702165I-173000J0D01*
G01*
X210020750Y-87702165D01*
G75*
G02*
X209847750Y-87529165I0J173000D01*
G01*
X209847750Y-87133165D01*
G75*
G02*
X210020750Y-86960165I173000J0D01*
G01*
X210366750Y-86960165D01*
G75*
G02*
X210539750Y-87133165I0J-173000D01*
G01*
G37*
G36*
G01*
X211509750Y-87133165D02*
X211509750Y-87529165D01*
G75*
G02*
X211336750Y-87702165I-173000J0D01*
G01*
X210990750Y-87702165D01*
G75*
G02*
X210817750Y-87529165I0J173000D01*
G01*
X210817750Y-87133165D01*
G75*
G02*
X210990750Y-86960165I173000J0D01*
G01*
X211336750Y-86960165D01*
G75*
G02*
X211509750Y-87133165I0J-173000D01*
G01*
G37*
G36*
G01*
X213397000Y-95630165D02*
X214360500Y-95630165D01*
G75*
G02*
X214629750Y-95899415I0J-269250D01*
G01*
X214629750Y-96437915D01*
G75*
G02*
X214360500Y-96707165I-269250J0D01*
G01*
X213397000Y-96707165D01*
G75*
G02*
X213127750Y-96437915I0J269250D01*
G01*
X213127750Y-95899415D01*
G75*
G02*
X213397000Y-95630165I269250J0D01*
G01*
G37*
G36*
G01*
X213397000Y-93755165D02*
X214360500Y-93755165D01*
G75*
G02*
X214629750Y-94024415I0J-269250D01*
G01*
X214629750Y-94562915D01*
G75*
G02*
X214360500Y-94832165I-269250J0D01*
G01*
X213397000Y-94832165D01*
G75*
G02*
X213127750Y-94562915I0J269250D01*
G01*
X213127750Y-94024415D01*
G75*
G02*
X213397000Y-93755165I269250J0D01*
G01*
G37*
G36*
G01*
X215880750Y-90455165D02*
X216276750Y-90455165D01*
G75*
G02*
X216449750Y-90628165I0J-173000D01*
G01*
X216449750Y-90974165D01*
G75*
G02*
X216276750Y-91147165I-173000J0D01*
G01*
X215880750Y-91147165D01*
G75*
G02*
X215707750Y-90974165I0J173000D01*
G01*
X215707750Y-90628165D01*
G75*
G02*
X215880750Y-90455165I173000J0D01*
G01*
G37*
G36*
G01*
X215880750Y-89485165D02*
X216276750Y-89485165D01*
G75*
G02*
X216449750Y-89658165I0J-173000D01*
G01*
X216449750Y-90004165D01*
G75*
G02*
X216276750Y-90177165I-173000J0D01*
G01*
X215880750Y-90177165D01*
G75*
G02*
X215707750Y-90004165I0J173000D01*
G01*
X215707750Y-89658165D01*
G75*
G02*
X215880750Y-89485165I173000J0D01*
G01*
G37*
G36*
G01*
X216939750Y-83633165D02*
X216939750Y-84029165D01*
G75*
G02*
X216766750Y-84202165I-173000J0D01*
G01*
X216420750Y-84202165D01*
G75*
G02*
X216247750Y-84029165I0J173000D01*
G01*
X216247750Y-83633165D01*
G75*
G02*
X216420750Y-83460165I173000J0D01*
G01*
X216766750Y-83460165D01*
G75*
G02*
X216939750Y-83633165I0J-173000D01*
G01*
G37*
G36*
G01*
X217909750Y-83633165D02*
X217909750Y-84029165D01*
G75*
G02*
X217736750Y-84202165I-173000J0D01*
G01*
X217390750Y-84202165D01*
G75*
G02*
X217217750Y-84029165I0J173000D01*
G01*
X217217750Y-83633165D01*
G75*
G02*
X217390750Y-83460165I173000J0D01*
G01*
X217736750Y-83460165D01*
G75*
G02*
X217909750Y-83633165I0J-173000D01*
G01*
G37*
G36*
G01*
X211624750Y-78033165D02*
X211624750Y-78429165D01*
G75*
G02*
X211451750Y-78602165I-173000J0D01*
G01*
X211105750Y-78602165D01*
G75*
G02*
X210932750Y-78429165I0J173000D01*
G01*
X210932750Y-78033165D01*
G75*
G02*
X211105750Y-77860165I173000J0D01*
G01*
X211451750Y-77860165D01*
G75*
G02*
X211624750Y-78033165I0J-173000D01*
G01*
G37*
G36*
G01*
X212594750Y-78033165D02*
X212594750Y-78429165D01*
G75*
G02*
X212421750Y-78602165I-173000J0D01*
G01*
X212075750Y-78602165D01*
G75*
G02*
X211902750Y-78429165I0J173000D01*
G01*
X211902750Y-78033165D01*
G75*
G02*
X212075750Y-77860165I173000J0D01*
G01*
X212421750Y-77860165D01*
G75*
G02*
X212594750Y-78033165I0J-173000D01*
G01*
G37*
G36*
G01*
X205817750Y-77529165D02*
X205817750Y-77133165D01*
G75*
G02*
X205990750Y-76960165I173000J0D01*
G01*
X206336750Y-76960165D01*
G75*
G02*
X206509750Y-77133165I0J-173000D01*
G01*
X206509750Y-77529165D01*
G75*
G02*
X206336750Y-77702165I-173000J0D01*
G01*
X205990750Y-77702165D01*
G75*
G02*
X205817750Y-77529165I0J173000D01*
G01*
G37*
G36*
G01*
X204847750Y-77529165D02*
X204847750Y-77133165D01*
G75*
G02*
X205020750Y-76960165I173000J0D01*
G01*
X205366750Y-76960165D01*
G75*
G02*
X205539750Y-77133165I0J-173000D01*
G01*
X205539750Y-77529165D01*
G75*
G02*
X205366750Y-77702165I-173000J0D01*
G01*
X205020750Y-77702165D01*
G75*
G02*
X204847750Y-77529165I0J173000D01*
G01*
G37*
G36*
G01*
X204260500Y-69632165D02*
X203297000Y-69632165D01*
G75*
G02*
X203027750Y-69362915I0J269250D01*
G01*
X203027750Y-68824415D01*
G75*
G02*
X203297000Y-68555165I269250J0D01*
G01*
X204260500Y-68555165D01*
G75*
G02*
X204529750Y-68824415I0J-269250D01*
G01*
X204529750Y-69362915D01*
G75*
G02*
X204260500Y-69632165I-269250J0D01*
G01*
G37*
G36*
G01*
X204260500Y-71507165D02*
X203297000Y-71507165D01*
G75*
G02*
X203027750Y-71237915I0J269250D01*
G01*
X203027750Y-70699415D01*
G75*
G02*
X203297000Y-70430165I269250J0D01*
G01*
X204260500Y-70430165D01*
G75*
G02*
X204529750Y-70699415I0J-269250D01*
G01*
X204529750Y-71237915D01*
G75*
G02*
X204260500Y-71507165I-269250J0D01*
G01*
G37*
G36*
G01*
X209880750Y-74670165D02*
X210276750Y-74670165D01*
G75*
G02*
X210449750Y-74843165I0J-173000D01*
G01*
X210449750Y-75189165D01*
G75*
G02*
X210276750Y-75362165I-173000J0D01*
G01*
X209880750Y-75362165D01*
G75*
G02*
X209707750Y-75189165I0J173000D01*
G01*
X209707750Y-74843165D01*
G75*
G02*
X209880750Y-74670165I173000J0D01*
G01*
G37*
G36*
G01*
X209880750Y-73700165D02*
X210276750Y-73700165D01*
G75*
G02*
X210449750Y-73873165I0J-173000D01*
G01*
X210449750Y-74219165D01*
G75*
G02*
X210276750Y-74392165I-173000J0D01*
G01*
X209880750Y-74392165D01*
G75*
G02*
X209707750Y-74219165I0J173000D01*
G01*
X209707750Y-73873165D01*
G75*
G02*
X209880750Y-73700165I173000J0D01*
G01*
G37*
G36*
G01*
X206839750Y-73933165D02*
X206839750Y-74329165D01*
G75*
G02*
X206666750Y-74502165I-173000J0D01*
G01*
X206320750Y-74502165D01*
G75*
G02*
X206147750Y-74329165I0J173000D01*
G01*
X206147750Y-73933165D01*
G75*
G02*
X206320750Y-73760165I173000J0D01*
G01*
X206666750Y-73760165D01*
G75*
G02*
X206839750Y-73933165I0J-173000D01*
G01*
G37*
G36*
G01*
X207809750Y-73933165D02*
X207809750Y-74329165D01*
G75*
G02*
X207636750Y-74502165I-173000J0D01*
G01*
X207290750Y-74502165D01*
G75*
G02*
X207117750Y-74329165I0J173000D01*
G01*
X207117750Y-73933165D01*
G75*
G02*
X207290750Y-73760165I173000J0D01*
G01*
X207636750Y-73760165D01*
G75*
G02*
X207809750Y-73933165I0J-173000D01*
G01*
G37*
G36*
G01*
X205480750Y-91570165D02*
X205876750Y-91570165D01*
G75*
G02*
X206049750Y-91743165I0J-173000D01*
G01*
X206049750Y-92089165D01*
G75*
G02*
X205876750Y-92262165I-173000J0D01*
G01*
X205480750Y-92262165D01*
G75*
G02*
X205307750Y-92089165I0J173000D01*
G01*
X205307750Y-91743165D01*
G75*
G02*
X205480750Y-91570165I173000J0D01*
G01*
G37*
G36*
G01*
X205480750Y-90600165D02*
X205876750Y-90600165D01*
G75*
G02*
X206049750Y-90773165I0J-173000D01*
G01*
X206049750Y-91119165D01*
G75*
G02*
X205876750Y-91292165I-173000J0D01*
G01*
X205480750Y-91292165D01*
G75*
G02*
X205307750Y-91119165I0J173000D01*
G01*
X205307750Y-90773165D01*
G75*
G02*
X205480750Y-90600165I173000J0D01*
G01*
G37*
G36*
G01*
X206080750Y-87170165D02*
X206476750Y-87170165D01*
G75*
G02*
X206649750Y-87343165I0J-173000D01*
G01*
X206649750Y-87689165D01*
G75*
G02*
X206476750Y-87862165I-173000J0D01*
G01*
X206080750Y-87862165D01*
G75*
G02*
X205907750Y-87689165I0J173000D01*
G01*
X205907750Y-87343165D01*
G75*
G02*
X206080750Y-87170165I173000J0D01*
G01*
G37*
G36*
G01*
X206080750Y-86200165D02*
X206476750Y-86200165D01*
G75*
G02*
X206649750Y-86373165I0J-173000D01*
G01*
X206649750Y-86719165D01*
G75*
G02*
X206476750Y-86892165I-173000J0D01*
G01*
X206080750Y-86892165D01*
G75*
G02*
X205907750Y-86719165I0J173000D01*
G01*
X205907750Y-86373165D01*
G75*
G02*
X206080750Y-86200165I173000J0D01*
G01*
G37*
D11*
X365778750Y-26731165D03*
X47778750Y-26731165D03*
X47778750Y-225731165D03*
X206778750Y-225731165D03*
X127778750Y-225731165D03*
X285778750Y-225731165D03*
X365778750Y-225731165D03*
G36*
G01*
X166326750Y-137207165D02*
X165930750Y-137207165D01*
G75*
G02*
X165757750Y-137034165I0J173000D01*
G01*
X165757750Y-136688165D01*
G75*
G02*
X165930750Y-136515165I173000J0D01*
G01*
X166326750Y-136515165D01*
G75*
G02*
X166499750Y-136688165I0J-173000D01*
G01*
X166499750Y-137034165D01*
G75*
G02*
X166326750Y-137207165I-173000J0D01*
G01*
G37*
G36*
G01*
X166326750Y-138177165D02*
X165930750Y-138177165D01*
G75*
G02*
X165757750Y-138004165I0J173000D01*
G01*
X165757750Y-137658165D01*
G75*
G02*
X165930750Y-137485165I173000J0D01*
G01*
X166326750Y-137485165D01*
G75*
G02*
X166499750Y-137658165I0J-173000D01*
G01*
X166499750Y-138004165D01*
G75*
G02*
X166326750Y-138177165I-173000J0D01*
G01*
G37*
D12*
X202378750Y-100781165D03*
X199838750Y-100781165D03*
X197298750Y-100781165D03*
X194758750Y-100781165D03*
X192218750Y-100781165D03*
G36*
G01*
X190528750Y-101682165D02*
X188828750Y-101682165D01*
G75*
G02*
X188777750Y-101631165I0J51000D01*
G01*
X188777750Y-99931165D01*
G75*
G02*
X188828750Y-99880165I51000J0D01*
G01*
X190528750Y-99880165D01*
G75*
G02*
X190579750Y-99931165I0J-51000D01*
G01*
X190579750Y-101631165D01*
G75*
G02*
X190528750Y-101682165I-51000J0D01*
G01*
G37*
D13*
X218428750Y-112781165D03*
X218428750Y-114781165D03*
X216428750Y-112781165D03*
X216428750Y-114781165D03*
X214428750Y-112781165D03*
X214428750Y-114781165D03*
X212428750Y-112781165D03*
X212428750Y-114781165D03*
X210428750Y-112781165D03*
X210428750Y-114781165D03*
X208428750Y-112781165D03*
X208428750Y-114781165D03*
X206428750Y-112781165D03*
G36*
G01*
X207103750Y-115507165D02*
X205753750Y-115507165D01*
G75*
G02*
X205702750Y-115456165I0J51000D01*
G01*
X205702750Y-114106165D01*
G75*
G02*
X205753750Y-114055165I51000J0D01*
G01*
X207103750Y-114055165D01*
G75*
G02*
X207154750Y-114106165I0J-51000D01*
G01*
X207154750Y-115456165D01*
G75*
G02*
X207103750Y-115507165I-51000J0D01*
G01*
G37*
D14*
X357148400Y-213703015D03*
X357148400Y-222085015D03*
X293648400Y-213703015D03*
X293648400Y-222085015D03*
D15*
X326433880Y-208250995D03*
X340153880Y-208250995D03*
X337613880Y-208250995D03*
X328848880Y-214720995D03*
X332658880Y-218410995D03*
G36*
G01*
X328098880Y-221649995D02*
X328098880Y-220251995D01*
G75*
G02*
X328149880Y-220200995I51000J0D01*
G01*
X329547880Y-220200995D01*
G75*
G02*
X329598880Y-220251995I0J-51000D01*
G01*
X329598880Y-221649995D01*
G75*
G02*
X329547880Y-221700995I-51000J0D01*
G01*
X328149880Y-221700995D01*
G75*
G02*
X328098880Y-221649995I0J51000D01*
G01*
G37*
X344608900Y-214717015D03*
X347148900Y-220947015D03*
G36*
G01*
X352748900Y-212876015D02*
X352748900Y-211478015D01*
G75*
G02*
X352799900Y-211427015I51000J0D01*
G01*
X354197900Y-211427015D01*
G75*
G02*
X354248900Y-211478015I0J-51000D01*
G01*
X354248900Y-212876015D01*
G75*
G02*
X354197900Y-212927015I-51000J0D01*
G01*
X352799900Y-212927015D01*
G75*
G02*
X352748900Y-212876015I0J51000D01*
G01*
G37*
X342193900Y-225007015D03*
X335198880Y-212180995D03*
X344733900Y-225007015D03*
X348418900Y-218407015D03*
X350958900Y-218407015D03*
X352228900Y-220947015D03*
X348418900Y-212177015D03*
X353498900Y-218407015D03*
X326433880Y-225010995D03*
X333928880Y-220950995D03*
G36*
G01*
X343858900Y-221646015D02*
X343858900Y-220248015D01*
G75*
G02*
X343909900Y-220197015I51000J0D01*
G01*
X345307900Y-220197015D01*
G75*
G02*
X345358900Y-220248015I0J-51000D01*
G01*
X345358900Y-221646015D01*
G75*
G02*
X345307900Y-221697015I-51000J0D01*
G01*
X343909900Y-221697015D01*
G75*
G02*
X343858900Y-221646015I0J51000D01*
G01*
G37*
X344733900Y-208247015D03*
X350958900Y-212177015D03*
X353373900Y-225007015D03*
X349688900Y-220947015D03*
X345878900Y-212177015D03*
X355913900Y-208247015D03*
X330118880Y-212180995D03*
X345878900Y-218407015D03*
X330118880Y-218410995D03*
X335198880Y-218410995D03*
X337613880Y-225010995D03*
X328973880Y-225010995D03*
X328973880Y-208250995D03*
X347148900Y-214717015D03*
D16*
X355403900Y-229197015D03*
D15*
X336468880Y-214720995D03*
X331388880Y-220950995D03*
X331388880Y-214720995D03*
X355913900Y-225007015D03*
X349688900Y-214717015D03*
X342193900Y-208247015D03*
X353373900Y-208247015D03*
X337738880Y-218410995D03*
X352228900Y-214717015D03*
X336468880Y-220950995D03*
X332658880Y-212180995D03*
X340153880Y-225010995D03*
X333928880Y-214720995D03*
G36*
G01*
X336988880Y-212879995D02*
X336988880Y-211481995D01*
G75*
G02*
X337039880Y-211430995I51000J0D01*
G01*
X338437880Y-211430995D01*
G75*
G02*
X338488880Y-211481995I0J-51000D01*
G01*
X338488880Y-212879995D01*
G75*
G02*
X338437880Y-212930995I-51000J0D01*
G01*
X337039880Y-212930995D01*
G75*
G02*
X336988880Y-212879995I0J51000D01*
G01*
G37*
X310646400Y-208247015D03*
X324366400Y-208247015D03*
X321826400Y-208247015D03*
X313061400Y-214717015D03*
X316871400Y-218407015D03*
G36*
G01*
X312311400Y-221646015D02*
X312311400Y-220248015D01*
G75*
G02*
X312362400Y-220197015I51000J0D01*
G01*
X313760400Y-220197015D01*
G75*
G02*
X313811400Y-220248015I0J-51000D01*
G01*
X313811400Y-221646015D01*
G75*
G02*
X313760400Y-221697015I-51000J0D01*
G01*
X312362400Y-221697015D01*
G75*
G02*
X312311400Y-221646015I0J51000D01*
G01*
G37*
X319411400Y-212177015D03*
X310646400Y-225007015D03*
X318141400Y-220947015D03*
X314331400Y-212177015D03*
X314331400Y-218407015D03*
X319411400Y-218407015D03*
X321826400Y-225007015D03*
X313186400Y-225007015D03*
X313186400Y-208247015D03*
X320681400Y-214717015D03*
X315601400Y-220947015D03*
X315601400Y-214717015D03*
X321951400Y-218407015D03*
X320681400Y-220947015D03*
X316871400Y-212177015D03*
X324366400Y-225007015D03*
X318141400Y-214717015D03*
G36*
G01*
X321201400Y-212876015D02*
X321201400Y-211478015D01*
G75*
G02*
X321252400Y-211427015I51000J0D01*
G01*
X322650400Y-211427015D01*
G75*
G02*
X322701400Y-211478015I0J-51000D01*
G01*
X322701400Y-212876015D01*
G75*
G02*
X322650400Y-212927015I-51000J0D01*
G01*
X321252400Y-212927015D01*
G75*
G02*
X321201400Y-212876015I0J51000D01*
G01*
G37*
D16*
X295426400Y-229197015D03*
G36*
G01*
X296581400Y-221646015D02*
X296581400Y-220248015D01*
G75*
G02*
X296632400Y-220197015I51000J0D01*
G01*
X298030400Y-220197015D01*
G75*
G02*
X298081400Y-220248015I0J-51000D01*
G01*
X298081400Y-221646015D01*
G75*
G02*
X298030400Y-221697015I-51000J0D01*
G01*
X296632400Y-221697015D01*
G75*
G02*
X296581400Y-221646015I0J51000D01*
G01*
G37*
D15*
X298601400Y-218407015D03*
X299871400Y-220947015D03*
X301141400Y-218407015D03*
X302411400Y-220947015D03*
X303681400Y-218407015D03*
X304951400Y-220947015D03*
X306221400Y-218407015D03*
X297331400Y-214717015D03*
X298601400Y-212177015D03*
X299871400Y-214717015D03*
X301141400Y-212177015D03*
X302411400Y-214717015D03*
X303681400Y-212177015D03*
X304951400Y-214717015D03*
G36*
G01*
X305471400Y-212876015D02*
X305471400Y-211478015D01*
G75*
G02*
X305522400Y-211427015I51000J0D01*
G01*
X306920400Y-211427015D01*
G75*
G02*
X306971400Y-211478015I0J-51000D01*
G01*
X306971400Y-212876015D01*
G75*
G02*
X306920400Y-212927015I-51000J0D01*
G01*
X305522400Y-212927015D01*
G75*
G02*
X305471400Y-212876015I0J51000D01*
G01*
G37*
X308636400Y-225007015D03*
X306096400Y-225007015D03*
X297456400Y-225007015D03*
X294916400Y-225007015D03*
X308636400Y-208247015D03*
X306096400Y-208247015D03*
X297456400Y-208247015D03*
X294916400Y-208247015D03*
D12*
X364923377Y-135236602D03*
X364923377Y-132696602D03*
X364923377Y-130156602D03*
X364923377Y-127616602D03*
X364923377Y-125076602D03*
X364923377Y-122536602D03*
G36*
G01*
X364022377Y-120846602D02*
X364022377Y-119146602D01*
G75*
G02*
X364073377Y-119095602I51000J0D01*
G01*
X365773377Y-119095602D01*
G75*
G02*
X365824377Y-119146602I0J-51000D01*
G01*
X365824377Y-120846602D01*
G75*
G02*
X365773377Y-120897602I-51000J0D01*
G01*
X364073377Y-120897602D01*
G75*
G02*
X364022377Y-120846602I0J51000D01*
G01*
G37*
D14*
X277999550Y-213674865D03*
X277999550Y-222056865D03*
X214499550Y-213674865D03*
X214499550Y-222056865D03*
D15*
X247285030Y-208222845D03*
X261005030Y-208222845D03*
X258465030Y-208222845D03*
X249700030Y-214692845D03*
X253510030Y-218382845D03*
G36*
G01*
X248950030Y-221621845D02*
X248950030Y-220223845D01*
G75*
G02*
X249001030Y-220172845I51000J0D01*
G01*
X250399030Y-220172845D01*
G75*
G02*
X250450030Y-220223845I0J-51000D01*
G01*
X250450030Y-221621845D01*
G75*
G02*
X250399030Y-221672845I-51000J0D01*
G01*
X249001030Y-221672845D01*
G75*
G02*
X248950030Y-221621845I0J51000D01*
G01*
G37*
X265460050Y-214688865D03*
X268000050Y-220918865D03*
G36*
G01*
X273600050Y-212847865D02*
X273600050Y-211449865D01*
G75*
G02*
X273651050Y-211398865I51000J0D01*
G01*
X275049050Y-211398865D01*
G75*
G02*
X275100050Y-211449865I0J-51000D01*
G01*
X275100050Y-212847865D01*
G75*
G02*
X275049050Y-212898865I-51000J0D01*
G01*
X273651050Y-212898865D01*
G75*
G02*
X273600050Y-212847865I0J51000D01*
G01*
G37*
X263045050Y-224978865D03*
X256050030Y-212152845D03*
X265585050Y-224978865D03*
X269270050Y-218378865D03*
X271810050Y-218378865D03*
X273080050Y-220918865D03*
X269270050Y-212148865D03*
X274350050Y-218378865D03*
X247285030Y-224982845D03*
X254780030Y-220922845D03*
G36*
G01*
X264710050Y-221617865D02*
X264710050Y-220219865D01*
G75*
G02*
X264761050Y-220168865I51000J0D01*
G01*
X266159050Y-220168865D01*
G75*
G02*
X266210050Y-220219865I0J-51000D01*
G01*
X266210050Y-221617865D01*
G75*
G02*
X266159050Y-221668865I-51000J0D01*
G01*
X264761050Y-221668865D01*
G75*
G02*
X264710050Y-221617865I0J51000D01*
G01*
G37*
X265585050Y-208218865D03*
X271810050Y-212148865D03*
X274225050Y-224978865D03*
X270540050Y-220918865D03*
X266730050Y-212148865D03*
X276765050Y-208218865D03*
X250970030Y-212152845D03*
X266730050Y-218378865D03*
X250970030Y-218382845D03*
X256050030Y-218382845D03*
X258465030Y-224982845D03*
X249825030Y-224982845D03*
X249825030Y-208222845D03*
X268000050Y-214688865D03*
D16*
X276255050Y-229168865D03*
D15*
X257320030Y-214692845D03*
X252240030Y-220922845D03*
X252240030Y-214692845D03*
X276765050Y-224978865D03*
X270540050Y-214688865D03*
X263045050Y-208218865D03*
X274225050Y-208218865D03*
X258590030Y-218382845D03*
X273080050Y-214688865D03*
X257320030Y-220922845D03*
X253510030Y-212152845D03*
X261005030Y-224982845D03*
X254780030Y-214692845D03*
G36*
G01*
X257840030Y-212851845D02*
X257840030Y-211453845D01*
G75*
G02*
X257891030Y-211402845I51000J0D01*
G01*
X259289030Y-211402845D01*
G75*
G02*
X259340030Y-211453845I0J-51000D01*
G01*
X259340030Y-212851845D01*
G75*
G02*
X259289030Y-212902845I-51000J0D01*
G01*
X257891030Y-212902845D01*
G75*
G02*
X257840030Y-212851845I0J51000D01*
G01*
G37*
X231497550Y-208218865D03*
X245217550Y-208218865D03*
X242677550Y-208218865D03*
X233912550Y-214688865D03*
X237722550Y-218378865D03*
G36*
G01*
X233162550Y-221617865D02*
X233162550Y-220219865D01*
G75*
G02*
X233213550Y-220168865I51000J0D01*
G01*
X234611550Y-220168865D01*
G75*
G02*
X234662550Y-220219865I0J-51000D01*
G01*
X234662550Y-221617865D01*
G75*
G02*
X234611550Y-221668865I-51000J0D01*
G01*
X233213550Y-221668865D01*
G75*
G02*
X233162550Y-221617865I0J51000D01*
G01*
G37*
X240262550Y-212148865D03*
X231497550Y-224978865D03*
X238992550Y-220918865D03*
X235182550Y-212148865D03*
X235182550Y-218378865D03*
X240262550Y-218378865D03*
X242677550Y-224978865D03*
X234037550Y-224978865D03*
X234037550Y-208218865D03*
X241532550Y-214688865D03*
X236452550Y-220918865D03*
X236452550Y-214688865D03*
X242802550Y-218378865D03*
X241532550Y-220918865D03*
X237722550Y-212148865D03*
X245217550Y-224978865D03*
X238992550Y-214688865D03*
G36*
G01*
X242052550Y-212847865D02*
X242052550Y-211449865D01*
G75*
G02*
X242103550Y-211398865I51000J0D01*
G01*
X243501550Y-211398865D01*
G75*
G02*
X243552550Y-211449865I0J-51000D01*
G01*
X243552550Y-212847865D01*
G75*
G02*
X243501550Y-212898865I-51000J0D01*
G01*
X242103550Y-212898865D01*
G75*
G02*
X242052550Y-212847865I0J51000D01*
G01*
G37*
D16*
X216277550Y-229168865D03*
G36*
G01*
X217432550Y-221617865D02*
X217432550Y-220219865D01*
G75*
G02*
X217483550Y-220168865I51000J0D01*
G01*
X218881550Y-220168865D01*
G75*
G02*
X218932550Y-220219865I0J-51000D01*
G01*
X218932550Y-221617865D01*
G75*
G02*
X218881550Y-221668865I-51000J0D01*
G01*
X217483550Y-221668865D01*
G75*
G02*
X217432550Y-221617865I0J51000D01*
G01*
G37*
D15*
X219452550Y-218378865D03*
X220722550Y-220918865D03*
X221992550Y-218378865D03*
X223262550Y-220918865D03*
X224532550Y-218378865D03*
X225802550Y-220918865D03*
X227072550Y-218378865D03*
X218182550Y-214688865D03*
X219452550Y-212148865D03*
X220722550Y-214688865D03*
X221992550Y-212148865D03*
X223262550Y-214688865D03*
X224532550Y-212148865D03*
X225802550Y-214688865D03*
G36*
G01*
X226322550Y-212847865D02*
X226322550Y-211449865D01*
G75*
G02*
X226373550Y-211398865I51000J0D01*
G01*
X227771550Y-211398865D01*
G75*
G02*
X227822550Y-211449865I0J-51000D01*
G01*
X227822550Y-212847865D01*
G75*
G02*
X227771550Y-212898865I-51000J0D01*
G01*
X226373550Y-212898865D01*
G75*
G02*
X226322550Y-212847865I0J51000D01*
G01*
G37*
X229487550Y-224978865D03*
X226947550Y-224978865D03*
X218307550Y-224978865D03*
X215767550Y-224978865D03*
X229487550Y-208218865D03*
X226947550Y-208218865D03*
X218307550Y-208218865D03*
X215767550Y-208218865D03*
D12*
X285774527Y-135208452D03*
X285774527Y-132668452D03*
X285774527Y-130128452D03*
X285774527Y-127588452D03*
X285774527Y-125048452D03*
X285774527Y-122508452D03*
G36*
G01*
X284873527Y-120818452D02*
X284873527Y-119118452D01*
G75*
G02*
X284924527Y-119067452I51000J0D01*
G01*
X286624527Y-119067452D01*
G75*
G02*
X286675527Y-119118452I0J-51000D01*
G01*
X286675527Y-120818452D01*
G75*
G02*
X286624527Y-120869452I-51000J0D01*
G01*
X284924527Y-120869452D01*
G75*
G02*
X284873527Y-120818452I0J51000D01*
G01*
G37*
G36*
G01*
X320501000Y-131390615D02*
X320501000Y-130994615D01*
G75*
G02*
X320674000Y-130821615I173000J0D01*
G01*
X321020000Y-130821615D01*
G75*
G02*
X321193000Y-130994615I0J-173000D01*
G01*
X321193000Y-131390615D01*
G75*
G02*
X321020000Y-131563615I-173000J0D01*
G01*
X320674000Y-131563615D01*
G75*
G02*
X320501000Y-131390615I0J173000D01*
G01*
G37*
G36*
G01*
X319531000Y-131390615D02*
X319531000Y-130994615D01*
G75*
G02*
X319704000Y-130821615I173000J0D01*
G01*
X320050000Y-130821615D01*
G75*
G02*
X320223000Y-130994615I0J-173000D01*
G01*
X320223000Y-131390615D01*
G75*
G02*
X320050000Y-131563615I-173000J0D01*
G01*
X319704000Y-131563615D01*
G75*
G02*
X319531000Y-131390615I0J173000D01*
G01*
G37*
G36*
G01*
X332245000Y-137273615D02*
X331849000Y-137273615D01*
G75*
G02*
X331676000Y-137100615I0J173000D01*
G01*
X331676000Y-136754615D01*
G75*
G02*
X331849000Y-136581615I173000J0D01*
G01*
X332245000Y-136581615D01*
G75*
G02*
X332418000Y-136754615I0J-173000D01*
G01*
X332418000Y-137100615D01*
G75*
G02*
X332245000Y-137273615I-173000J0D01*
G01*
G37*
G36*
G01*
X332245000Y-138243615D02*
X331849000Y-138243615D01*
G75*
G02*
X331676000Y-138070615I0J173000D01*
G01*
X331676000Y-137724615D01*
G75*
G02*
X331849000Y-137551615I173000J0D01*
G01*
X332245000Y-137551615D01*
G75*
G02*
X332418000Y-137724615I0J-173000D01*
G01*
X332418000Y-138070615D01*
G75*
G02*
X332245000Y-138243615I-173000J0D01*
G01*
G37*
G36*
G01*
X324595000Y-137268615D02*
X324199000Y-137268615D01*
G75*
G02*
X324026000Y-137095615I0J173000D01*
G01*
X324026000Y-136749615D01*
G75*
G02*
X324199000Y-136576615I173000J0D01*
G01*
X324595000Y-136576615D01*
G75*
G02*
X324768000Y-136749615I0J-173000D01*
G01*
X324768000Y-137095615D01*
G75*
G02*
X324595000Y-137268615I-173000J0D01*
G01*
G37*
G36*
G01*
X324595000Y-138238615D02*
X324199000Y-138238615D01*
G75*
G02*
X324026000Y-138065615I0J173000D01*
G01*
X324026000Y-137719615D01*
G75*
G02*
X324199000Y-137546615I173000J0D01*
G01*
X324595000Y-137546615D01*
G75*
G02*
X324768000Y-137719615I0J-173000D01*
G01*
X324768000Y-138065615D01*
G75*
G02*
X324595000Y-138238615I-173000J0D01*
G01*
G37*
G36*
G01*
X320109000Y-122291615D02*
X320505000Y-122291615D01*
G75*
G02*
X320678000Y-122464615I0J-173000D01*
G01*
X320678000Y-122810615D01*
G75*
G02*
X320505000Y-122983615I-173000J0D01*
G01*
X320109000Y-122983615D01*
G75*
G02*
X319936000Y-122810615I0J173000D01*
G01*
X319936000Y-122464615D01*
G75*
G02*
X320109000Y-122291615I173000J0D01*
G01*
G37*
G36*
G01*
X320109000Y-121321615D02*
X320505000Y-121321615D01*
G75*
G02*
X320678000Y-121494615I0J-173000D01*
G01*
X320678000Y-121840615D01*
G75*
G02*
X320505000Y-122013615I-173000J0D01*
G01*
X320109000Y-122013615D01*
G75*
G02*
X319936000Y-121840615I0J173000D01*
G01*
X319936000Y-121494615D01*
G75*
G02*
X320109000Y-121321615I173000J0D01*
G01*
G37*
G36*
G01*
X336413000Y-129944615D02*
X336413000Y-130340615D01*
G75*
G02*
X336240000Y-130513615I-173000J0D01*
G01*
X335894000Y-130513615D01*
G75*
G02*
X335721000Y-130340615I0J173000D01*
G01*
X335721000Y-129944615D01*
G75*
G02*
X335894000Y-129771615I173000J0D01*
G01*
X336240000Y-129771615D01*
G75*
G02*
X336413000Y-129944615I0J-173000D01*
G01*
G37*
G36*
G01*
X337383000Y-129944615D02*
X337383000Y-130340615D01*
G75*
G02*
X337210000Y-130513615I-173000J0D01*
G01*
X336864000Y-130513615D01*
G75*
G02*
X336691000Y-130340615I0J173000D01*
G01*
X336691000Y-129944615D01*
G75*
G02*
X336864000Y-129771615I173000J0D01*
G01*
X337210000Y-129771615D01*
G75*
G02*
X337383000Y-129944615I0J-173000D01*
G01*
G37*
G36*
G01*
X336729000Y-123186615D02*
X337125000Y-123186615D01*
G75*
G02*
X337298000Y-123359615I0J-173000D01*
G01*
X337298000Y-123705615D01*
G75*
G02*
X337125000Y-123878615I-173000J0D01*
G01*
X336729000Y-123878615D01*
G75*
G02*
X336556000Y-123705615I0J173000D01*
G01*
X336556000Y-123359615D01*
G75*
G02*
X336729000Y-123186615I173000J0D01*
G01*
G37*
G36*
G01*
X336729000Y-122216615D02*
X337125000Y-122216615D01*
G75*
G02*
X337298000Y-122389615I0J-173000D01*
G01*
X337298000Y-122735615D01*
G75*
G02*
X337125000Y-122908615I-173000J0D01*
G01*
X336729000Y-122908615D01*
G75*
G02*
X336556000Y-122735615I0J173000D01*
G01*
X336556000Y-122389615D01*
G75*
G02*
X336729000Y-122216615I173000J0D01*
G01*
G37*
G36*
G01*
X331165000Y-137268615D02*
X330769000Y-137268615D01*
G75*
G02*
X330596000Y-137095615I0J173000D01*
G01*
X330596000Y-136749615D01*
G75*
G02*
X330769000Y-136576615I173000J0D01*
G01*
X331165000Y-136576615D01*
G75*
G02*
X331338000Y-136749615I0J-173000D01*
G01*
X331338000Y-137095615D01*
G75*
G02*
X331165000Y-137268615I-173000J0D01*
G01*
G37*
G36*
G01*
X331165000Y-138238615D02*
X330769000Y-138238615D01*
G75*
G02*
X330596000Y-138065615I0J173000D01*
G01*
X330596000Y-137719615D01*
G75*
G02*
X330769000Y-137546615I173000J0D01*
G01*
X331165000Y-137546615D01*
G75*
G02*
X331338000Y-137719615I0J-173000D01*
G01*
X331338000Y-138065615D01*
G75*
G02*
X331165000Y-138238615I-173000J0D01*
G01*
G37*
G36*
G01*
X326635000Y-137278615D02*
X326239000Y-137278615D01*
G75*
G02*
X326066000Y-137105615I0J173000D01*
G01*
X326066000Y-136759615D01*
G75*
G02*
X326239000Y-136586615I173000J0D01*
G01*
X326635000Y-136586615D01*
G75*
G02*
X326808000Y-136759615I0J-173000D01*
G01*
X326808000Y-137105615D01*
G75*
G02*
X326635000Y-137278615I-173000J0D01*
G01*
G37*
G36*
G01*
X326635000Y-138248615D02*
X326239000Y-138248615D01*
G75*
G02*
X326066000Y-138075615I0J173000D01*
G01*
X326066000Y-137729615D01*
G75*
G02*
X326239000Y-137556615I173000J0D01*
G01*
X326635000Y-137556615D01*
G75*
G02*
X326808000Y-137729615I0J-173000D01*
G01*
X326808000Y-138075615D01*
G75*
G02*
X326635000Y-138248615I-173000J0D01*
G01*
G37*
G36*
G01*
X324136000Y-134690615D02*
X324136000Y-134294615D01*
G75*
G02*
X324309000Y-134121615I173000J0D01*
G01*
X324655000Y-134121615D01*
G75*
G02*
X324828000Y-134294615I0J-173000D01*
G01*
X324828000Y-134690615D01*
G75*
G02*
X324655000Y-134863615I-173000J0D01*
G01*
X324309000Y-134863615D01*
G75*
G02*
X324136000Y-134690615I0J173000D01*
G01*
G37*
G36*
G01*
X323166000Y-134690615D02*
X323166000Y-134294615D01*
G75*
G02*
X323339000Y-134121615I173000J0D01*
G01*
X323685000Y-134121615D01*
G75*
G02*
X323858000Y-134294615I0J-173000D01*
G01*
X323858000Y-134690615D01*
G75*
G02*
X323685000Y-134863615I-173000J0D01*
G01*
X323339000Y-134863615D01*
G75*
G02*
X323166000Y-134690615I0J173000D01*
G01*
G37*
G36*
G01*
X321073000Y-126394615D02*
X321073000Y-126790615D01*
G75*
G02*
X320900000Y-126963615I-173000J0D01*
G01*
X320554000Y-126963615D01*
G75*
G02*
X320381000Y-126790615I0J173000D01*
G01*
X320381000Y-126394615D01*
G75*
G02*
X320554000Y-126221615I173000J0D01*
G01*
X320900000Y-126221615D01*
G75*
G02*
X321073000Y-126394615I0J-173000D01*
G01*
G37*
G36*
G01*
X322043000Y-126394615D02*
X322043000Y-126790615D01*
G75*
G02*
X321870000Y-126963615I-173000J0D01*
G01*
X321524000Y-126963615D01*
G75*
G02*
X321351000Y-126790615I0J173000D01*
G01*
X321351000Y-126394615D01*
G75*
G02*
X321524000Y-126221615I173000J0D01*
G01*
X321870000Y-126221615D01*
G75*
G02*
X322043000Y-126394615I0J-173000D01*
G01*
G37*
G36*
G01*
X324615000Y-124133615D02*
X324219000Y-124133615D01*
G75*
G02*
X324046000Y-123960615I0J173000D01*
G01*
X324046000Y-123614615D01*
G75*
G02*
X324219000Y-123441615I173000J0D01*
G01*
X324615000Y-123441615D01*
G75*
G02*
X324788000Y-123614615I0J-173000D01*
G01*
X324788000Y-123960615D01*
G75*
G02*
X324615000Y-124133615I-173000J0D01*
G01*
G37*
G36*
G01*
X324615000Y-125103615D02*
X324219000Y-125103615D01*
G75*
G02*
X324046000Y-124930615I0J173000D01*
G01*
X324046000Y-124584615D01*
G75*
G02*
X324219000Y-124411615I173000J0D01*
G01*
X324615000Y-124411615D01*
G75*
G02*
X324788000Y-124584615I0J-173000D01*
G01*
X324788000Y-124930615D01*
G75*
G02*
X324615000Y-125103615I-173000J0D01*
G01*
G37*
G36*
G01*
X328635000Y-124133615D02*
X328239000Y-124133615D01*
G75*
G02*
X328066000Y-123960615I0J173000D01*
G01*
X328066000Y-123614615D01*
G75*
G02*
X328239000Y-123441615I173000J0D01*
G01*
X328635000Y-123441615D01*
G75*
G02*
X328808000Y-123614615I0J-173000D01*
G01*
X328808000Y-123960615D01*
G75*
G02*
X328635000Y-124133615I-173000J0D01*
G01*
G37*
G36*
G01*
X328635000Y-125103615D02*
X328239000Y-125103615D01*
G75*
G02*
X328066000Y-124930615I0J173000D01*
G01*
X328066000Y-124584615D01*
G75*
G02*
X328239000Y-124411615I173000J0D01*
G01*
X328635000Y-124411615D01*
G75*
G02*
X328808000Y-124584615I0J-173000D01*
G01*
X328808000Y-124930615D01*
G75*
G02*
X328635000Y-125103615I-173000J0D01*
G01*
G37*
G36*
G01*
X332605000Y-124138615D02*
X332209000Y-124138615D01*
G75*
G02*
X332036000Y-123965615I0J173000D01*
G01*
X332036000Y-123619615D01*
G75*
G02*
X332209000Y-123446615I173000J0D01*
G01*
X332605000Y-123446615D01*
G75*
G02*
X332778000Y-123619615I0J-173000D01*
G01*
X332778000Y-123965615D01*
G75*
G02*
X332605000Y-124138615I-173000J0D01*
G01*
G37*
G36*
G01*
X332605000Y-125108615D02*
X332209000Y-125108615D01*
G75*
G02*
X332036000Y-124935615I0J173000D01*
G01*
X332036000Y-124589615D01*
G75*
G02*
X332209000Y-124416615I173000J0D01*
G01*
X332605000Y-124416615D01*
G75*
G02*
X332778000Y-124589615I0J-173000D01*
G01*
X332778000Y-124935615D01*
G75*
G02*
X332605000Y-125108615I-173000J0D01*
G01*
G37*
G36*
G01*
X330655000Y-124133615D02*
X330259000Y-124133615D01*
G75*
G02*
X330086000Y-123960615I0J173000D01*
G01*
X330086000Y-123614615D01*
G75*
G02*
X330259000Y-123441615I173000J0D01*
G01*
X330655000Y-123441615D01*
G75*
G02*
X330828000Y-123614615I0J-173000D01*
G01*
X330828000Y-123960615D01*
G75*
G02*
X330655000Y-124133615I-173000J0D01*
G01*
G37*
G36*
G01*
X330655000Y-125103615D02*
X330259000Y-125103615D01*
G75*
G02*
X330086000Y-124930615I0J173000D01*
G01*
X330086000Y-124584615D01*
G75*
G02*
X330259000Y-124411615I173000J0D01*
G01*
X330655000Y-124411615D01*
G75*
G02*
X330828000Y-124584615I0J-173000D01*
G01*
X330828000Y-124930615D01*
G75*
G02*
X330655000Y-125103615I-173000J0D01*
G01*
G37*
G36*
G01*
X326635000Y-124133615D02*
X326239000Y-124133615D01*
G75*
G02*
X326066000Y-123960615I0J173000D01*
G01*
X326066000Y-123614615D01*
G75*
G02*
X326239000Y-123441615I173000J0D01*
G01*
X326635000Y-123441615D01*
G75*
G02*
X326808000Y-123614615I0J-173000D01*
G01*
X326808000Y-123960615D01*
G75*
G02*
X326635000Y-124133615I-173000J0D01*
G01*
G37*
G36*
G01*
X326635000Y-125103615D02*
X326239000Y-125103615D01*
G75*
G02*
X326066000Y-124930615I0J173000D01*
G01*
X326066000Y-124584615D01*
G75*
G02*
X326239000Y-124411615I173000J0D01*
G01*
X326635000Y-124411615D01*
G75*
G02*
X326808000Y-124584615I0J-173000D01*
G01*
X326808000Y-124930615D01*
G75*
G02*
X326635000Y-125103615I-173000J0D01*
G01*
G37*
G36*
G01*
X335941000Y-126820615D02*
X335941000Y-126424615D01*
G75*
G02*
X336114000Y-126251615I173000J0D01*
G01*
X336460000Y-126251615D01*
G75*
G02*
X336633000Y-126424615I0J-173000D01*
G01*
X336633000Y-126820615D01*
G75*
G02*
X336460000Y-126993615I-173000J0D01*
G01*
X336114000Y-126993615D01*
G75*
G02*
X335941000Y-126820615I0J173000D01*
G01*
G37*
G36*
G01*
X334971000Y-126820615D02*
X334971000Y-126424615D01*
G75*
G02*
X335144000Y-126251615I173000J0D01*
G01*
X335490000Y-126251615D01*
G75*
G02*
X335663000Y-126424615I0J-173000D01*
G01*
X335663000Y-126820615D01*
G75*
G02*
X335490000Y-126993615I-173000J0D01*
G01*
X335144000Y-126993615D01*
G75*
G02*
X334971000Y-126820615I0J173000D01*
G01*
G37*
G36*
G01*
X332808000Y-134284615D02*
X332808000Y-134680615D01*
G75*
G02*
X332635000Y-134853615I-173000J0D01*
G01*
X332289000Y-134853615D01*
G75*
G02*
X332116000Y-134680615I0J173000D01*
G01*
X332116000Y-134284615D01*
G75*
G02*
X332289000Y-134111615I173000J0D01*
G01*
X332635000Y-134111615D01*
G75*
G02*
X332808000Y-134284615I0J-173000D01*
G01*
G37*
G36*
G01*
X333778000Y-134284615D02*
X333778000Y-134680615D01*
G75*
G02*
X333605000Y-134853615I-173000J0D01*
G01*
X333259000Y-134853615D01*
G75*
G02*
X333086000Y-134680615I0J173000D01*
G01*
X333086000Y-134284615D01*
G75*
G02*
X333259000Y-134111615I173000J0D01*
G01*
X333605000Y-134111615D01*
G75*
G02*
X333778000Y-134284615I0J-173000D01*
G01*
G37*
G36*
G01*
X322309000Y-122166615D02*
X322705000Y-122166615D01*
G75*
G02*
X322878000Y-122339615I0J-173000D01*
G01*
X322878000Y-122685615D01*
G75*
G02*
X322705000Y-122858615I-173000J0D01*
G01*
X322309000Y-122858615D01*
G75*
G02*
X322136000Y-122685615I0J173000D01*
G01*
X322136000Y-122339615D01*
G75*
G02*
X322309000Y-122166615I173000J0D01*
G01*
G37*
G36*
G01*
X322309000Y-121196615D02*
X322705000Y-121196615D01*
G75*
G02*
X322878000Y-121369615I0J-173000D01*
G01*
X322878000Y-121715615D01*
G75*
G02*
X322705000Y-121888615I-173000J0D01*
G01*
X322309000Y-121888615D01*
G75*
G02*
X322136000Y-121715615I0J173000D01*
G01*
X322136000Y-121369615D01*
G75*
G02*
X322309000Y-121196615I173000J0D01*
G01*
G37*
G36*
G01*
X335399000Y-122181615D02*
X335795000Y-122181615D01*
G75*
G02*
X335968000Y-122354615I0J-173000D01*
G01*
X335968000Y-122700615D01*
G75*
G02*
X335795000Y-122873615I-173000J0D01*
G01*
X335399000Y-122873615D01*
G75*
G02*
X335226000Y-122700615I0J173000D01*
G01*
X335226000Y-122354615D01*
G75*
G02*
X335399000Y-122181615I173000J0D01*
G01*
G37*
G36*
G01*
X335399000Y-121211615D02*
X335795000Y-121211615D01*
G75*
G02*
X335968000Y-121384615I0J-173000D01*
G01*
X335968000Y-121730615D01*
G75*
G02*
X335795000Y-121903615I-173000J0D01*
G01*
X335399000Y-121903615D01*
G75*
G02*
X335226000Y-121730615I0J173000D01*
G01*
X335226000Y-121384615D01*
G75*
G02*
X335399000Y-121211615I173000J0D01*
G01*
G37*
G36*
G01*
X322685000Y-137268615D02*
X322289000Y-137268615D01*
G75*
G02*
X322116000Y-137095615I0J173000D01*
G01*
X322116000Y-136749615D01*
G75*
G02*
X322289000Y-136576615I173000J0D01*
G01*
X322685000Y-136576615D01*
G75*
G02*
X322858000Y-136749615I0J-173000D01*
G01*
X322858000Y-137095615D01*
G75*
G02*
X322685000Y-137268615I-173000J0D01*
G01*
G37*
G36*
G01*
X322685000Y-138238615D02*
X322289000Y-138238615D01*
G75*
G02*
X322116000Y-138065615I0J173000D01*
G01*
X322116000Y-137719615D01*
G75*
G02*
X322289000Y-137546615I173000J0D01*
G01*
X322685000Y-137546615D01*
G75*
G02*
X322858000Y-137719615I0J-173000D01*
G01*
X322858000Y-138065615D01*
G75*
G02*
X322685000Y-138238615I-173000J0D01*
G01*
G37*
G36*
G01*
X328279000Y-122181615D02*
X328675000Y-122181615D01*
G75*
G02*
X328848000Y-122354615I0J-173000D01*
G01*
X328848000Y-122700615D01*
G75*
G02*
X328675000Y-122873615I-173000J0D01*
G01*
X328279000Y-122873615D01*
G75*
G02*
X328106000Y-122700615I0J173000D01*
G01*
X328106000Y-122354615D01*
G75*
G02*
X328279000Y-122181615I173000J0D01*
G01*
G37*
G36*
G01*
X328279000Y-121211615D02*
X328675000Y-121211615D01*
G75*
G02*
X328848000Y-121384615I0J-173000D01*
G01*
X328848000Y-121730615D01*
G75*
G02*
X328675000Y-121903615I-173000J0D01*
G01*
X328279000Y-121903615D01*
G75*
G02*
X328106000Y-121730615I0J173000D01*
G01*
X328106000Y-121384615D01*
G75*
G02*
X328279000Y-121211615I173000J0D01*
G01*
G37*
G36*
G01*
X324299000Y-122181615D02*
X324695000Y-122181615D01*
G75*
G02*
X324868000Y-122354615I0J-173000D01*
G01*
X324868000Y-122700615D01*
G75*
G02*
X324695000Y-122873615I-173000J0D01*
G01*
X324299000Y-122873615D01*
G75*
G02*
X324126000Y-122700615I0J173000D01*
G01*
X324126000Y-122354615D01*
G75*
G02*
X324299000Y-122181615I173000J0D01*
G01*
G37*
G36*
G01*
X324299000Y-121211615D02*
X324695000Y-121211615D01*
G75*
G02*
X324868000Y-121384615I0J-173000D01*
G01*
X324868000Y-121730615D01*
G75*
G02*
X324695000Y-121903615I-173000J0D01*
G01*
X324299000Y-121903615D01*
G75*
G02*
X324126000Y-121730615I0J173000D01*
G01*
X324126000Y-121384615D01*
G75*
G02*
X324299000Y-121211615I173000J0D01*
G01*
G37*
G36*
G01*
X326289000Y-122181615D02*
X326685000Y-122181615D01*
G75*
G02*
X326858000Y-122354615I0J-173000D01*
G01*
X326858000Y-122700615D01*
G75*
G02*
X326685000Y-122873615I-173000J0D01*
G01*
X326289000Y-122873615D01*
G75*
G02*
X326116000Y-122700615I0J173000D01*
G01*
X326116000Y-122354615D01*
G75*
G02*
X326289000Y-122181615I173000J0D01*
G01*
G37*
G36*
G01*
X326289000Y-121211615D02*
X326685000Y-121211615D01*
G75*
G02*
X326858000Y-121384615I0J-173000D01*
G01*
X326858000Y-121730615D01*
G75*
G02*
X326685000Y-121903615I-173000J0D01*
G01*
X326289000Y-121903615D01*
G75*
G02*
X326116000Y-121730615I0J173000D01*
G01*
X326116000Y-121384615D01*
G75*
G02*
X326289000Y-121211615I173000J0D01*
G01*
G37*
G36*
G01*
X329215000Y-137268615D02*
X328819000Y-137268615D01*
G75*
G02*
X328646000Y-137095615I0J173000D01*
G01*
X328646000Y-136749615D01*
G75*
G02*
X328819000Y-136576615I173000J0D01*
G01*
X329215000Y-136576615D01*
G75*
G02*
X329388000Y-136749615I0J-173000D01*
G01*
X329388000Y-137095615D01*
G75*
G02*
X329215000Y-137268615I-173000J0D01*
G01*
G37*
G36*
G01*
X329215000Y-138238615D02*
X328819000Y-138238615D01*
G75*
G02*
X328646000Y-138065615I0J173000D01*
G01*
X328646000Y-137719615D01*
G75*
G02*
X328819000Y-137546615I173000J0D01*
G01*
X329215000Y-137546615D01*
G75*
G02*
X329388000Y-137719615I0J-173000D01*
G01*
X329388000Y-138065615D01*
G75*
G02*
X329215000Y-138238615I-173000J0D01*
G01*
G37*
G36*
G01*
X330269000Y-122181615D02*
X330665000Y-122181615D01*
G75*
G02*
X330838000Y-122354615I0J-173000D01*
G01*
X330838000Y-122700615D01*
G75*
G02*
X330665000Y-122873615I-173000J0D01*
G01*
X330269000Y-122873615D01*
G75*
G02*
X330096000Y-122700615I0J173000D01*
G01*
X330096000Y-122354615D01*
G75*
G02*
X330269000Y-122181615I173000J0D01*
G01*
G37*
G36*
G01*
X330269000Y-121211615D02*
X330665000Y-121211615D01*
G75*
G02*
X330838000Y-121384615I0J-173000D01*
G01*
X330838000Y-121730615D01*
G75*
G02*
X330665000Y-121903615I-173000J0D01*
G01*
X330269000Y-121903615D01*
G75*
G02*
X330096000Y-121730615I0J173000D01*
G01*
X330096000Y-121384615D01*
G75*
G02*
X330269000Y-121211615I173000J0D01*
G01*
G37*
G36*
G01*
X335655000Y-137268615D02*
X335259000Y-137268615D01*
G75*
G02*
X335086000Y-137095615I0J173000D01*
G01*
X335086000Y-136749615D01*
G75*
G02*
X335259000Y-136576615I173000J0D01*
G01*
X335655000Y-136576615D01*
G75*
G02*
X335828000Y-136749615I0J-173000D01*
G01*
X335828000Y-137095615D01*
G75*
G02*
X335655000Y-137268615I-173000J0D01*
G01*
G37*
G36*
G01*
X335655000Y-138238615D02*
X335259000Y-138238615D01*
G75*
G02*
X335086000Y-138065615I0J173000D01*
G01*
X335086000Y-137719615D01*
G75*
G02*
X335259000Y-137546615I173000J0D01*
G01*
X335655000Y-137546615D01*
G75*
G02*
X335828000Y-137719615I0J-173000D01*
G01*
X335828000Y-138065615D01*
G75*
G02*
X335655000Y-138238615I-173000J0D01*
G01*
G37*
G36*
G01*
X333319000Y-122181615D02*
X333715000Y-122181615D01*
G75*
G02*
X333888000Y-122354615I0J-173000D01*
G01*
X333888000Y-122700615D01*
G75*
G02*
X333715000Y-122873615I-173000J0D01*
G01*
X333319000Y-122873615D01*
G75*
G02*
X333146000Y-122700615I0J173000D01*
G01*
X333146000Y-122354615D01*
G75*
G02*
X333319000Y-122181615I173000J0D01*
G01*
G37*
G36*
G01*
X333319000Y-121211615D02*
X333715000Y-121211615D01*
G75*
G02*
X333888000Y-121384615I0J-173000D01*
G01*
X333888000Y-121730615D01*
G75*
G02*
X333715000Y-121903615I-173000J0D01*
G01*
X333319000Y-121903615D01*
G75*
G02*
X333146000Y-121730615I0J173000D01*
G01*
X333146000Y-121384615D01*
G75*
G02*
X333319000Y-121211615I173000J0D01*
G01*
G37*
G36*
G01*
X241352150Y-131362465D02*
X241352150Y-130966465D01*
G75*
G02*
X241525150Y-130793465I173000J0D01*
G01*
X241871150Y-130793465D01*
G75*
G02*
X242044150Y-130966465I0J-173000D01*
G01*
X242044150Y-131362465D01*
G75*
G02*
X241871150Y-131535465I-173000J0D01*
G01*
X241525150Y-131535465D01*
G75*
G02*
X241352150Y-131362465I0J173000D01*
G01*
G37*
G36*
G01*
X240382150Y-131362465D02*
X240382150Y-130966465D01*
G75*
G02*
X240555150Y-130793465I173000J0D01*
G01*
X240901150Y-130793465D01*
G75*
G02*
X241074150Y-130966465I0J-173000D01*
G01*
X241074150Y-131362465D01*
G75*
G02*
X240901150Y-131535465I-173000J0D01*
G01*
X240555150Y-131535465D01*
G75*
G02*
X240382150Y-131362465I0J173000D01*
G01*
G37*
G36*
G01*
X253096150Y-137245465D02*
X252700150Y-137245465D01*
G75*
G02*
X252527150Y-137072465I0J173000D01*
G01*
X252527150Y-136726465D01*
G75*
G02*
X252700150Y-136553465I173000J0D01*
G01*
X253096150Y-136553465D01*
G75*
G02*
X253269150Y-136726465I0J-173000D01*
G01*
X253269150Y-137072465D01*
G75*
G02*
X253096150Y-137245465I-173000J0D01*
G01*
G37*
G36*
G01*
X253096150Y-138215465D02*
X252700150Y-138215465D01*
G75*
G02*
X252527150Y-138042465I0J173000D01*
G01*
X252527150Y-137696465D01*
G75*
G02*
X252700150Y-137523465I173000J0D01*
G01*
X253096150Y-137523465D01*
G75*
G02*
X253269150Y-137696465I0J-173000D01*
G01*
X253269150Y-138042465D01*
G75*
G02*
X253096150Y-138215465I-173000J0D01*
G01*
G37*
G36*
G01*
X245446150Y-137240465D02*
X245050150Y-137240465D01*
G75*
G02*
X244877150Y-137067465I0J173000D01*
G01*
X244877150Y-136721465D01*
G75*
G02*
X245050150Y-136548465I173000J0D01*
G01*
X245446150Y-136548465D01*
G75*
G02*
X245619150Y-136721465I0J-173000D01*
G01*
X245619150Y-137067465D01*
G75*
G02*
X245446150Y-137240465I-173000J0D01*
G01*
G37*
G36*
G01*
X245446150Y-138210465D02*
X245050150Y-138210465D01*
G75*
G02*
X244877150Y-138037465I0J173000D01*
G01*
X244877150Y-137691465D01*
G75*
G02*
X245050150Y-137518465I173000J0D01*
G01*
X245446150Y-137518465D01*
G75*
G02*
X245619150Y-137691465I0J-173000D01*
G01*
X245619150Y-138037465D01*
G75*
G02*
X245446150Y-138210465I-173000J0D01*
G01*
G37*
G36*
G01*
X240960150Y-122263465D02*
X241356150Y-122263465D01*
G75*
G02*
X241529150Y-122436465I0J-173000D01*
G01*
X241529150Y-122782465D01*
G75*
G02*
X241356150Y-122955465I-173000J0D01*
G01*
X240960150Y-122955465D01*
G75*
G02*
X240787150Y-122782465I0J173000D01*
G01*
X240787150Y-122436465D01*
G75*
G02*
X240960150Y-122263465I173000J0D01*
G01*
G37*
G36*
G01*
X240960150Y-121293465D02*
X241356150Y-121293465D01*
G75*
G02*
X241529150Y-121466465I0J-173000D01*
G01*
X241529150Y-121812465D01*
G75*
G02*
X241356150Y-121985465I-173000J0D01*
G01*
X240960150Y-121985465D01*
G75*
G02*
X240787150Y-121812465I0J173000D01*
G01*
X240787150Y-121466465D01*
G75*
G02*
X240960150Y-121293465I173000J0D01*
G01*
G37*
G36*
G01*
X257264150Y-129916465D02*
X257264150Y-130312465D01*
G75*
G02*
X257091150Y-130485465I-173000J0D01*
G01*
X256745150Y-130485465D01*
G75*
G02*
X256572150Y-130312465I0J173000D01*
G01*
X256572150Y-129916465D01*
G75*
G02*
X256745150Y-129743465I173000J0D01*
G01*
X257091150Y-129743465D01*
G75*
G02*
X257264150Y-129916465I0J-173000D01*
G01*
G37*
G36*
G01*
X258234150Y-129916465D02*
X258234150Y-130312465D01*
G75*
G02*
X258061150Y-130485465I-173000J0D01*
G01*
X257715150Y-130485465D01*
G75*
G02*
X257542150Y-130312465I0J173000D01*
G01*
X257542150Y-129916465D01*
G75*
G02*
X257715150Y-129743465I173000J0D01*
G01*
X258061150Y-129743465D01*
G75*
G02*
X258234150Y-129916465I0J-173000D01*
G01*
G37*
G36*
G01*
X257580150Y-123158465D02*
X257976150Y-123158465D01*
G75*
G02*
X258149150Y-123331465I0J-173000D01*
G01*
X258149150Y-123677465D01*
G75*
G02*
X257976150Y-123850465I-173000J0D01*
G01*
X257580150Y-123850465D01*
G75*
G02*
X257407150Y-123677465I0J173000D01*
G01*
X257407150Y-123331465D01*
G75*
G02*
X257580150Y-123158465I173000J0D01*
G01*
G37*
G36*
G01*
X257580150Y-122188465D02*
X257976150Y-122188465D01*
G75*
G02*
X258149150Y-122361465I0J-173000D01*
G01*
X258149150Y-122707465D01*
G75*
G02*
X257976150Y-122880465I-173000J0D01*
G01*
X257580150Y-122880465D01*
G75*
G02*
X257407150Y-122707465I0J173000D01*
G01*
X257407150Y-122361465D01*
G75*
G02*
X257580150Y-122188465I173000J0D01*
G01*
G37*
G36*
G01*
X252016150Y-137240465D02*
X251620150Y-137240465D01*
G75*
G02*
X251447150Y-137067465I0J173000D01*
G01*
X251447150Y-136721465D01*
G75*
G02*
X251620150Y-136548465I173000J0D01*
G01*
X252016150Y-136548465D01*
G75*
G02*
X252189150Y-136721465I0J-173000D01*
G01*
X252189150Y-137067465D01*
G75*
G02*
X252016150Y-137240465I-173000J0D01*
G01*
G37*
G36*
G01*
X252016150Y-138210465D02*
X251620150Y-138210465D01*
G75*
G02*
X251447150Y-138037465I0J173000D01*
G01*
X251447150Y-137691465D01*
G75*
G02*
X251620150Y-137518465I173000J0D01*
G01*
X252016150Y-137518465D01*
G75*
G02*
X252189150Y-137691465I0J-173000D01*
G01*
X252189150Y-138037465D01*
G75*
G02*
X252016150Y-138210465I-173000J0D01*
G01*
G37*
G36*
G01*
X247486150Y-137250465D02*
X247090150Y-137250465D01*
G75*
G02*
X246917150Y-137077465I0J173000D01*
G01*
X246917150Y-136731465D01*
G75*
G02*
X247090150Y-136558465I173000J0D01*
G01*
X247486150Y-136558465D01*
G75*
G02*
X247659150Y-136731465I0J-173000D01*
G01*
X247659150Y-137077465D01*
G75*
G02*
X247486150Y-137250465I-173000J0D01*
G01*
G37*
G36*
G01*
X247486150Y-138220465D02*
X247090150Y-138220465D01*
G75*
G02*
X246917150Y-138047465I0J173000D01*
G01*
X246917150Y-137701465D01*
G75*
G02*
X247090150Y-137528465I173000J0D01*
G01*
X247486150Y-137528465D01*
G75*
G02*
X247659150Y-137701465I0J-173000D01*
G01*
X247659150Y-138047465D01*
G75*
G02*
X247486150Y-138220465I-173000J0D01*
G01*
G37*
G36*
G01*
X244987150Y-134662465D02*
X244987150Y-134266465D01*
G75*
G02*
X245160150Y-134093465I173000J0D01*
G01*
X245506150Y-134093465D01*
G75*
G02*
X245679150Y-134266465I0J-173000D01*
G01*
X245679150Y-134662465D01*
G75*
G02*
X245506150Y-134835465I-173000J0D01*
G01*
X245160150Y-134835465D01*
G75*
G02*
X244987150Y-134662465I0J173000D01*
G01*
G37*
G36*
G01*
X244017150Y-134662465D02*
X244017150Y-134266465D01*
G75*
G02*
X244190150Y-134093465I173000J0D01*
G01*
X244536150Y-134093465D01*
G75*
G02*
X244709150Y-134266465I0J-173000D01*
G01*
X244709150Y-134662465D01*
G75*
G02*
X244536150Y-134835465I-173000J0D01*
G01*
X244190150Y-134835465D01*
G75*
G02*
X244017150Y-134662465I0J173000D01*
G01*
G37*
G36*
G01*
X241924150Y-126366465D02*
X241924150Y-126762465D01*
G75*
G02*
X241751150Y-126935465I-173000J0D01*
G01*
X241405150Y-126935465D01*
G75*
G02*
X241232150Y-126762465I0J173000D01*
G01*
X241232150Y-126366465D01*
G75*
G02*
X241405150Y-126193465I173000J0D01*
G01*
X241751150Y-126193465D01*
G75*
G02*
X241924150Y-126366465I0J-173000D01*
G01*
G37*
G36*
G01*
X242894150Y-126366465D02*
X242894150Y-126762465D01*
G75*
G02*
X242721150Y-126935465I-173000J0D01*
G01*
X242375150Y-126935465D01*
G75*
G02*
X242202150Y-126762465I0J173000D01*
G01*
X242202150Y-126366465D01*
G75*
G02*
X242375150Y-126193465I173000J0D01*
G01*
X242721150Y-126193465D01*
G75*
G02*
X242894150Y-126366465I0J-173000D01*
G01*
G37*
G36*
G01*
X245466150Y-124105465D02*
X245070150Y-124105465D01*
G75*
G02*
X244897150Y-123932465I0J173000D01*
G01*
X244897150Y-123586465D01*
G75*
G02*
X245070150Y-123413465I173000J0D01*
G01*
X245466150Y-123413465D01*
G75*
G02*
X245639150Y-123586465I0J-173000D01*
G01*
X245639150Y-123932465D01*
G75*
G02*
X245466150Y-124105465I-173000J0D01*
G01*
G37*
G36*
G01*
X245466150Y-125075465D02*
X245070150Y-125075465D01*
G75*
G02*
X244897150Y-124902465I0J173000D01*
G01*
X244897150Y-124556465D01*
G75*
G02*
X245070150Y-124383465I173000J0D01*
G01*
X245466150Y-124383465D01*
G75*
G02*
X245639150Y-124556465I0J-173000D01*
G01*
X245639150Y-124902465D01*
G75*
G02*
X245466150Y-125075465I-173000J0D01*
G01*
G37*
G36*
G01*
X249486150Y-124105465D02*
X249090150Y-124105465D01*
G75*
G02*
X248917150Y-123932465I0J173000D01*
G01*
X248917150Y-123586465D01*
G75*
G02*
X249090150Y-123413465I173000J0D01*
G01*
X249486150Y-123413465D01*
G75*
G02*
X249659150Y-123586465I0J-173000D01*
G01*
X249659150Y-123932465D01*
G75*
G02*
X249486150Y-124105465I-173000J0D01*
G01*
G37*
G36*
G01*
X249486150Y-125075465D02*
X249090150Y-125075465D01*
G75*
G02*
X248917150Y-124902465I0J173000D01*
G01*
X248917150Y-124556465D01*
G75*
G02*
X249090150Y-124383465I173000J0D01*
G01*
X249486150Y-124383465D01*
G75*
G02*
X249659150Y-124556465I0J-173000D01*
G01*
X249659150Y-124902465D01*
G75*
G02*
X249486150Y-125075465I-173000J0D01*
G01*
G37*
G36*
G01*
X253456150Y-124110465D02*
X253060150Y-124110465D01*
G75*
G02*
X252887150Y-123937465I0J173000D01*
G01*
X252887150Y-123591465D01*
G75*
G02*
X253060150Y-123418465I173000J0D01*
G01*
X253456150Y-123418465D01*
G75*
G02*
X253629150Y-123591465I0J-173000D01*
G01*
X253629150Y-123937465D01*
G75*
G02*
X253456150Y-124110465I-173000J0D01*
G01*
G37*
G36*
G01*
X253456150Y-125080465D02*
X253060150Y-125080465D01*
G75*
G02*
X252887150Y-124907465I0J173000D01*
G01*
X252887150Y-124561465D01*
G75*
G02*
X253060150Y-124388465I173000J0D01*
G01*
X253456150Y-124388465D01*
G75*
G02*
X253629150Y-124561465I0J-173000D01*
G01*
X253629150Y-124907465D01*
G75*
G02*
X253456150Y-125080465I-173000J0D01*
G01*
G37*
G36*
G01*
X251506150Y-124105465D02*
X251110150Y-124105465D01*
G75*
G02*
X250937150Y-123932465I0J173000D01*
G01*
X250937150Y-123586465D01*
G75*
G02*
X251110150Y-123413465I173000J0D01*
G01*
X251506150Y-123413465D01*
G75*
G02*
X251679150Y-123586465I0J-173000D01*
G01*
X251679150Y-123932465D01*
G75*
G02*
X251506150Y-124105465I-173000J0D01*
G01*
G37*
G36*
G01*
X251506150Y-125075465D02*
X251110150Y-125075465D01*
G75*
G02*
X250937150Y-124902465I0J173000D01*
G01*
X250937150Y-124556465D01*
G75*
G02*
X251110150Y-124383465I173000J0D01*
G01*
X251506150Y-124383465D01*
G75*
G02*
X251679150Y-124556465I0J-173000D01*
G01*
X251679150Y-124902465D01*
G75*
G02*
X251506150Y-125075465I-173000J0D01*
G01*
G37*
G36*
G01*
X247486150Y-124105465D02*
X247090150Y-124105465D01*
G75*
G02*
X246917150Y-123932465I0J173000D01*
G01*
X246917150Y-123586465D01*
G75*
G02*
X247090150Y-123413465I173000J0D01*
G01*
X247486150Y-123413465D01*
G75*
G02*
X247659150Y-123586465I0J-173000D01*
G01*
X247659150Y-123932465D01*
G75*
G02*
X247486150Y-124105465I-173000J0D01*
G01*
G37*
G36*
G01*
X247486150Y-125075465D02*
X247090150Y-125075465D01*
G75*
G02*
X246917150Y-124902465I0J173000D01*
G01*
X246917150Y-124556465D01*
G75*
G02*
X247090150Y-124383465I173000J0D01*
G01*
X247486150Y-124383465D01*
G75*
G02*
X247659150Y-124556465I0J-173000D01*
G01*
X247659150Y-124902465D01*
G75*
G02*
X247486150Y-125075465I-173000J0D01*
G01*
G37*
G36*
G01*
X256792150Y-126792465D02*
X256792150Y-126396465D01*
G75*
G02*
X256965150Y-126223465I173000J0D01*
G01*
X257311150Y-126223465D01*
G75*
G02*
X257484150Y-126396465I0J-173000D01*
G01*
X257484150Y-126792465D01*
G75*
G02*
X257311150Y-126965465I-173000J0D01*
G01*
X256965150Y-126965465D01*
G75*
G02*
X256792150Y-126792465I0J173000D01*
G01*
G37*
G36*
G01*
X255822150Y-126792465D02*
X255822150Y-126396465D01*
G75*
G02*
X255995150Y-126223465I173000J0D01*
G01*
X256341150Y-126223465D01*
G75*
G02*
X256514150Y-126396465I0J-173000D01*
G01*
X256514150Y-126792465D01*
G75*
G02*
X256341150Y-126965465I-173000J0D01*
G01*
X255995150Y-126965465D01*
G75*
G02*
X255822150Y-126792465I0J173000D01*
G01*
G37*
G36*
G01*
X253659150Y-134256465D02*
X253659150Y-134652465D01*
G75*
G02*
X253486150Y-134825465I-173000J0D01*
G01*
X253140150Y-134825465D01*
G75*
G02*
X252967150Y-134652465I0J173000D01*
G01*
X252967150Y-134256465D01*
G75*
G02*
X253140150Y-134083465I173000J0D01*
G01*
X253486150Y-134083465D01*
G75*
G02*
X253659150Y-134256465I0J-173000D01*
G01*
G37*
G36*
G01*
X254629150Y-134256465D02*
X254629150Y-134652465D01*
G75*
G02*
X254456150Y-134825465I-173000J0D01*
G01*
X254110150Y-134825465D01*
G75*
G02*
X253937150Y-134652465I0J173000D01*
G01*
X253937150Y-134256465D01*
G75*
G02*
X254110150Y-134083465I173000J0D01*
G01*
X254456150Y-134083465D01*
G75*
G02*
X254629150Y-134256465I0J-173000D01*
G01*
G37*
G36*
G01*
X243160150Y-122138465D02*
X243556150Y-122138465D01*
G75*
G02*
X243729150Y-122311465I0J-173000D01*
G01*
X243729150Y-122657465D01*
G75*
G02*
X243556150Y-122830465I-173000J0D01*
G01*
X243160150Y-122830465D01*
G75*
G02*
X242987150Y-122657465I0J173000D01*
G01*
X242987150Y-122311465D01*
G75*
G02*
X243160150Y-122138465I173000J0D01*
G01*
G37*
G36*
G01*
X243160150Y-121168465D02*
X243556150Y-121168465D01*
G75*
G02*
X243729150Y-121341465I0J-173000D01*
G01*
X243729150Y-121687465D01*
G75*
G02*
X243556150Y-121860465I-173000J0D01*
G01*
X243160150Y-121860465D01*
G75*
G02*
X242987150Y-121687465I0J173000D01*
G01*
X242987150Y-121341465D01*
G75*
G02*
X243160150Y-121168465I173000J0D01*
G01*
G37*
G36*
G01*
X256250150Y-122153465D02*
X256646150Y-122153465D01*
G75*
G02*
X256819150Y-122326465I0J-173000D01*
G01*
X256819150Y-122672465D01*
G75*
G02*
X256646150Y-122845465I-173000J0D01*
G01*
X256250150Y-122845465D01*
G75*
G02*
X256077150Y-122672465I0J173000D01*
G01*
X256077150Y-122326465D01*
G75*
G02*
X256250150Y-122153465I173000J0D01*
G01*
G37*
G36*
G01*
X256250150Y-121183465D02*
X256646150Y-121183465D01*
G75*
G02*
X256819150Y-121356465I0J-173000D01*
G01*
X256819150Y-121702465D01*
G75*
G02*
X256646150Y-121875465I-173000J0D01*
G01*
X256250150Y-121875465D01*
G75*
G02*
X256077150Y-121702465I0J173000D01*
G01*
X256077150Y-121356465D01*
G75*
G02*
X256250150Y-121183465I173000J0D01*
G01*
G37*
G36*
G01*
X243536150Y-137240465D02*
X243140150Y-137240465D01*
G75*
G02*
X242967150Y-137067465I0J173000D01*
G01*
X242967150Y-136721465D01*
G75*
G02*
X243140150Y-136548465I173000J0D01*
G01*
X243536150Y-136548465D01*
G75*
G02*
X243709150Y-136721465I0J-173000D01*
G01*
X243709150Y-137067465D01*
G75*
G02*
X243536150Y-137240465I-173000J0D01*
G01*
G37*
G36*
G01*
X243536150Y-138210465D02*
X243140150Y-138210465D01*
G75*
G02*
X242967150Y-138037465I0J173000D01*
G01*
X242967150Y-137691465D01*
G75*
G02*
X243140150Y-137518465I173000J0D01*
G01*
X243536150Y-137518465D01*
G75*
G02*
X243709150Y-137691465I0J-173000D01*
G01*
X243709150Y-138037465D01*
G75*
G02*
X243536150Y-138210465I-173000J0D01*
G01*
G37*
G36*
G01*
X249130150Y-122153465D02*
X249526150Y-122153465D01*
G75*
G02*
X249699150Y-122326465I0J-173000D01*
G01*
X249699150Y-122672465D01*
G75*
G02*
X249526150Y-122845465I-173000J0D01*
G01*
X249130150Y-122845465D01*
G75*
G02*
X248957150Y-122672465I0J173000D01*
G01*
X248957150Y-122326465D01*
G75*
G02*
X249130150Y-122153465I173000J0D01*
G01*
G37*
G36*
G01*
X249130150Y-121183465D02*
X249526150Y-121183465D01*
G75*
G02*
X249699150Y-121356465I0J-173000D01*
G01*
X249699150Y-121702465D01*
G75*
G02*
X249526150Y-121875465I-173000J0D01*
G01*
X249130150Y-121875465D01*
G75*
G02*
X248957150Y-121702465I0J173000D01*
G01*
X248957150Y-121356465D01*
G75*
G02*
X249130150Y-121183465I173000J0D01*
G01*
G37*
G36*
G01*
X245150150Y-122153465D02*
X245546150Y-122153465D01*
G75*
G02*
X245719150Y-122326465I0J-173000D01*
G01*
X245719150Y-122672465D01*
G75*
G02*
X245546150Y-122845465I-173000J0D01*
G01*
X245150150Y-122845465D01*
G75*
G02*
X244977150Y-122672465I0J173000D01*
G01*
X244977150Y-122326465D01*
G75*
G02*
X245150150Y-122153465I173000J0D01*
G01*
G37*
G36*
G01*
X245150150Y-121183465D02*
X245546150Y-121183465D01*
G75*
G02*
X245719150Y-121356465I0J-173000D01*
G01*
X245719150Y-121702465D01*
G75*
G02*
X245546150Y-121875465I-173000J0D01*
G01*
X245150150Y-121875465D01*
G75*
G02*
X244977150Y-121702465I0J173000D01*
G01*
X244977150Y-121356465D01*
G75*
G02*
X245150150Y-121183465I173000J0D01*
G01*
G37*
G36*
G01*
X247140150Y-122153465D02*
X247536150Y-122153465D01*
G75*
G02*
X247709150Y-122326465I0J-173000D01*
G01*
X247709150Y-122672465D01*
G75*
G02*
X247536150Y-122845465I-173000J0D01*
G01*
X247140150Y-122845465D01*
G75*
G02*
X246967150Y-122672465I0J173000D01*
G01*
X246967150Y-122326465D01*
G75*
G02*
X247140150Y-122153465I173000J0D01*
G01*
G37*
G36*
G01*
X247140150Y-121183465D02*
X247536150Y-121183465D01*
G75*
G02*
X247709150Y-121356465I0J-173000D01*
G01*
X247709150Y-121702465D01*
G75*
G02*
X247536150Y-121875465I-173000J0D01*
G01*
X247140150Y-121875465D01*
G75*
G02*
X246967150Y-121702465I0J173000D01*
G01*
X246967150Y-121356465D01*
G75*
G02*
X247140150Y-121183465I173000J0D01*
G01*
G37*
G36*
G01*
X250066150Y-137240465D02*
X249670150Y-137240465D01*
G75*
G02*
X249497150Y-137067465I0J173000D01*
G01*
X249497150Y-136721465D01*
G75*
G02*
X249670150Y-136548465I173000J0D01*
G01*
X250066150Y-136548465D01*
G75*
G02*
X250239150Y-136721465I0J-173000D01*
G01*
X250239150Y-137067465D01*
G75*
G02*
X250066150Y-137240465I-173000J0D01*
G01*
G37*
G36*
G01*
X250066150Y-138210465D02*
X249670150Y-138210465D01*
G75*
G02*
X249497150Y-138037465I0J173000D01*
G01*
X249497150Y-137691465D01*
G75*
G02*
X249670150Y-137518465I173000J0D01*
G01*
X250066150Y-137518465D01*
G75*
G02*
X250239150Y-137691465I0J-173000D01*
G01*
X250239150Y-138037465D01*
G75*
G02*
X250066150Y-138210465I-173000J0D01*
G01*
G37*
G36*
G01*
X251120150Y-122153465D02*
X251516150Y-122153465D01*
G75*
G02*
X251689150Y-122326465I0J-173000D01*
G01*
X251689150Y-122672465D01*
G75*
G02*
X251516150Y-122845465I-173000J0D01*
G01*
X251120150Y-122845465D01*
G75*
G02*
X250947150Y-122672465I0J173000D01*
G01*
X250947150Y-122326465D01*
G75*
G02*
X251120150Y-122153465I173000J0D01*
G01*
G37*
G36*
G01*
X251120150Y-121183465D02*
X251516150Y-121183465D01*
G75*
G02*
X251689150Y-121356465I0J-173000D01*
G01*
X251689150Y-121702465D01*
G75*
G02*
X251516150Y-121875465I-173000J0D01*
G01*
X251120150Y-121875465D01*
G75*
G02*
X250947150Y-121702465I0J173000D01*
G01*
X250947150Y-121356465D01*
G75*
G02*
X251120150Y-121183465I173000J0D01*
G01*
G37*
G36*
G01*
X256506150Y-137240465D02*
X256110150Y-137240465D01*
G75*
G02*
X255937150Y-137067465I0J173000D01*
G01*
X255937150Y-136721465D01*
G75*
G02*
X256110150Y-136548465I173000J0D01*
G01*
X256506150Y-136548465D01*
G75*
G02*
X256679150Y-136721465I0J-173000D01*
G01*
X256679150Y-137067465D01*
G75*
G02*
X256506150Y-137240465I-173000J0D01*
G01*
G37*
G36*
G01*
X256506150Y-138210465D02*
X256110150Y-138210465D01*
G75*
G02*
X255937150Y-138037465I0J173000D01*
G01*
X255937150Y-137691465D01*
G75*
G02*
X256110150Y-137518465I173000J0D01*
G01*
X256506150Y-137518465D01*
G75*
G02*
X256679150Y-137691465I0J-173000D01*
G01*
X256679150Y-138037465D01*
G75*
G02*
X256506150Y-138210465I-173000J0D01*
G01*
G37*
G36*
G01*
X254170150Y-122153465D02*
X254566150Y-122153465D01*
G75*
G02*
X254739150Y-122326465I0J-173000D01*
G01*
X254739150Y-122672465D01*
G75*
G02*
X254566150Y-122845465I-173000J0D01*
G01*
X254170150Y-122845465D01*
G75*
G02*
X253997150Y-122672465I0J173000D01*
G01*
X253997150Y-122326465D01*
G75*
G02*
X254170150Y-122153465I173000J0D01*
G01*
G37*
G36*
G01*
X254170150Y-121183465D02*
X254566150Y-121183465D01*
G75*
G02*
X254739150Y-121356465I0J-173000D01*
G01*
X254739150Y-121702465D01*
G75*
G02*
X254566150Y-121875465I-173000J0D01*
G01*
X254170150Y-121875465D01*
G75*
G02*
X253997150Y-121702465I0J173000D01*
G01*
X253997150Y-121356465D01*
G75*
G02*
X254170150Y-121183465I173000J0D01*
G01*
G37*
D14*
X198868400Y-213693015D03*
X198868400Y-222075015D03*
X135368400Y-213693015D03*
X135368400Y-222075015D03*
D15*
X168153880Y-208240995D03*
X181873880Y-208240995D03*
X179333880Y-208240995D03*
X170568880Y-214710995D03*
X174378880Y-218400995D03*
G36*
G01*
X169818880Y-221639995D02*
X169818880Y-220241995D01*
G75*
G02*
X169869880Y-220190995I51000J0D01*
G01*
X171267880Y-220190995D01*
G75*
G02*
X171318880Y-220241995I0J-51000D01*
G01*
X171318880Y-221639995D01*
G75*
G02*
X171267880Y-221690995I-51000J0D01*
G01*
X169869880Y-221690995D01*
G75*
G02*
X169818880Y-221639995I0J51000D01*
G01*
G37*
X186328900Y-214707015D03*
X188868900Y-220937015D03*
G36*
G01*
X194468900Y-212866015D02*
X194468900Y-211468015D01*
G75*
G02*
X194519900Y-211417015I51000J0D01*
G01*
X195917900Y-211417015D01*
G75*
G02*
X195968900Y-211468015I0J-51000D01*
G01*
X195968900Y-212866015D01*
G75*
G02*
X195917900Y-212917015I-51000J0D01*
G01*
X194519900Y-212917015D01*
G75*
G02*
X194468900Y-212866015I0J51000D01*
G01*
G37*
X183913900Y-224997015D03*
X176918880Y-212170995D03*
X186453900Y-224997015D03*
X190138900Y-218397015D03*
X192678900Y-218397015D03*
X193948900Y-220937015D03*
X190138900Y-212167015D03*
X195218900Y-218397015D03*
X168153880Y-225000995D03*
X175648880Y-220940995D03*
G36*
G01*
X185578900Y-221636015D02*
X185578900Y-220238015D01*
G75*
G02*
X185629900Y-220187015I51000J0D01*
G01*
X187027900Y-220187015D01*
G75*
G02*
X187078900Y-220238015I0J-51000D01*
G01*
X187078900Y-221636015D01*
G75*
G02*
X187027900Y-221687015I-51000J0D01*
G01*
X185629900Y-221687015D01*
G75*
G02*
X185578900Y-221636015I0J51000D01*
G01*
G37*
X186453900Y-208237015D03*
X192678900Y-212167015D03*
X195093900Y-224997015D03*
X191408900Y-220937015D03*
X187598900Y-212167015D03*
X197633900Y-208237015D03*
X171838880Y-212170995D03*
X187598900Y-218397015D03*
X171838880Y-218400995D03*
X176918880Y-218400995D03*
X179333880Y-225000995D03*
X170693880Y-225000995D03*
X170693880Y-208240995D03*
X188868900Y-214707015D03*
D16*
X197123900Y-229187015D03*
D15*
X178188880Y-214710995D03*
X173108880Y-220940995D03*
X173108880Y-214710995D03*
X197633900Y-224997015D03*
X191408900Y-214707015D03*
X183913900Y-208237015D03*
X195093900Y-208237015D03*
X179458880Y-218400995D03*
X193948900Y-214707015D03*
X178188880Y-220940995D03*
X174378880Y-212170995D03*
X181873880Y-225000995D03*
X175648880Y-214710995D03*
G36*
G01*
X178708880Y-212869995D02*
X178708880Y-211471995D01*
G75*
G02*
X178759880Y-211420995I51000J0D01*
G01*
X180157880Y-211420995D01*
G75*
G02*
X180208880Y-211471995I0J-51000D01*
G01*
X180208880Y-212869995D01*
G75*
G02*
X180157880Y-212920995I-51000J0D01*
G01*
X178759880Y-212920995D01*
G75*
G02*
X178708880Y-212869995I0J51000D01*
G01*
G37*
X152366400Y-208237015D03*
X166086400Y-208237015D03*
X163546400Y-208237015D03*
X154781400Y-214707015D03*
X158591400Y-218397015D03*
G36*
G01*
X154031400Y-221636015D02*
X154031400Y-220238015D01*
G75*
G02*
X154082400Y-220187015I51000J0D01*
G01*
X155480400Y-220187015D01*
G75*
G02*
X155531400Y-220238015I0J-51000D01*
G01*
X155531400Y-221636015D01*
G75*
G02*
X155480400Y-221687015I-51000J0D01*
G01*
X154082400Y-221687015D01*
G75*
G02*
X154031400Y-221636015I0J51000D01*
G01*
G37*
X161131400Y-212167015D03*
X152366400Y-224997015D03*
X159861400Y-220937015D03*
X156051400Y-212167015D03*
X156051400Y-218397015D03*
X161131400Y-218397015D03*
X163546400Y-224997015D03*
X154906400Y-224997015D03*
X154906400Y-208237015D03*
X162401400Y-214707015D03*
X157321400Y-220937015D03*
X157321400Y-214707015D03*
X163671400Y-218397015D03*
X162401400Y-220937015D03*
X158591400Y-212167015D03*
X166086400Y-224997015D03*
X159861400Y-214707015D03*
G36*
G01*
X162921400Y-212866015D02*
X162921400Y-211468015D01*
G75*
G02*
X162972400Y-211417015I51000J0D01*
G01*
X164370400Y-211417015D01*
G75*
G02*
X164421400Y-211468015I0J-51000D01*
G01*
X164421400Y-212866015D01*
G75*
G02*
X164370400Y-212917015I-51000J0D01*
G01*
X162972400Y-212917015D01*
G75*
G02*
X162921400Y-212866015I0J51000D01*
G01*
G37*
D16*
X137146400Y-229187015D03*
G36*
G01*
X138301400Y-221636015D02*
X138301400Y-220238015D01*
G75*
G02*
X138352400Y-220187015I51000J0D01*
G01*
X139750400Y-220187015D01*
G75*
G02*
X139801400Y-220238015I0J-51000D01*
G01*
X139801400Y-221636015D01*
G75*
G02*
X139750400Y-221687015I-51000J0D01*
G01*
X138352400Y-221687015D01*
G75*
G02*
X138301400Y-221636015I0J51000D01*
G01*
G37*
D15*
X140321400Y-218397015D03*
X141591400Y-220937015D03*
X142861400Y-218397015D03*
X144131400Y-220937015D03*
X145401400Y-218397015D03*
X146671400Y-220937015D03*
X147941400Y-218397015D03*
X139051400Y-214707015D03*
X140321400Y-212167015D03*
X141591400Y-214707015D03*
X142861400Y-212167015D03*
X144131400Y-214707015D03*
X145401400Y-212167015D03*
X146671400Y-214707015D03*
G36*
G01*
X147191400Y-212866015D02*
X147191400Y-211468015D01*
G75*
G02*
X147242400Y-211417015I51000J0D01*
G01*
X148640400Y-211417015D01*
G75*
G02*
X148691400Y-211468015I0J-51000D01*
G01*
X148691400Y-212866015D01*
G75*
G02*
X148640400Y-212917015I-51000J0D01*
G01*
X147242400Y-212917015D01*
G75*
G02*
X147191400Y-212866015I0J51000D01*
G01*
G37*
X150356400Y-224997015D03*
X147816400Y-224997015D03*
X139176400Y-224997015D03*
X136636400Y-224997015D03*
X150356400Y-208237015D03*
X147816400Y-208237015D03*
X139176400Y-208237015D03*
X136636400Y-208237015D03*
D12*
X206643377Y-135226602D03*
X206643377Y-132686602D03*
X206643377Y-130146602D03*
X206643377Y-127606602D03*
X206643377Y-125066602D03*
X206643377Y-122526602D03*
G36*
G01*
X205742377Y-120836602D02*
X205742377Y-119136602D01*
G75*
G02*
X205793377Y-119085602I51000J0D01*
G01*
X207493377Y-119085602D01*
G75*
G02*
X207544377Y-119136602I0J-51000D01*
G01*
X207544377Y-120836602D01*
G75*
G02*
X207493377Y-120887602I-51000J0D01*
G01*
X205793377Y-120887602D01*
G75*
G02*
X205742377Y-120836602I0J51000D01*
G01*
G37*
G36*
G01*
X162221000Y-131380615D02*
X162221000Y-130984615D01*
G75*
G02*
X162394000Y-130811615I173000J0D01*
G01*
X162740000Y-130811615D01*
G75*
G02*
X162913000Y-130984615I0J-173000D01*
G01*
X162913000Y-131380615D01*
G75*
G02*
X162740000Y-131553615I-173000J0D01*
G01*
X162394000Y-131553615D01*
G75*
G02*
X162221000Y-131380615I0J173000D01*
G01*
G37*
G36*
G01*
X161251000Y-131380615D02*
X161251000Y-130984615D01*
G75*
G02*
X161424000Y-130811615I173000J0D01*
G01*
X161770000Y-130811615D01*
G75*
G02*
X161943000Y-130984615I0J-173000D01*
G01*
X161943000Y-131380615D01*
G75*
G02*
X161770000Y-131553615I-173000J0D01*
G01*
X161424000Y-131553615D01*
G75*
G02*
X161251000Y-131380615I0J173000D01*
G01*
G37*
G36*
G01*
X173421000Y-137115615D02*
X173421000Y-136719615D01*
G75*
G02*
X173594000Y-136546615I173000J0D01*
G01*
X173940000Y-136546615D01*
G75*
G02*
X174113000Y-136719615I0J-173000D01*
G01*
X174113000Y-137115615D01*
G75*
G02*
X173940000Y-137288615I-173000J0D01*
G01*
X173594000Y-137288615D01*
G75*
G02*
X173421000Y-137115615I0J173000D01*
G01*
G37*
G36*
G01*
X173965000Y-138233615D02*
X173569000Y-138233615D01*
G75*
G02*
X173396000Y-138060615I0J173000D01*
G01*
X173396000Y-137714615D01*
G75*
G02*
X173569000Y-137541615I173000J0D01*
G01*
X173965000Y-137541615D01*
G75*
G02*
X174138000Y-137714615I0J-173000D01*
G01*
X174138000Y-138060615D01*
G75*
G02*
X173965000Y-138233615I-173000J0D01*
G01*
G37*
G36*
G01*
X161829000Y-122281615D02*
X162225000Y-122281615D01*
G75*
G02*
X162398000Y-122454615I0J-173000D01*
G01*
X162398000Y-122800615D01*
G75*
G02*
X162225000Y-122973615I-173000J0D01*
G01*
X161829000Y-122973615D01*
G75*
G02*
X161656000Y-122800615I0J173000D01*
G01*
X161656000Y-122454615D01*
G75*
G02*
X161829000Y-122281615I173000J0D01*
G01*
G37*
G36*
G01*
X161829000Y-121311615D02*
X162225000Y-121311615D01*
G75*
G02*
X162398000Y-121484615I0J-173000D01*
G01*
X162398000Y-121830615D01*
G75*
G02*
X162225000Y-122003615I-173000J0D01*
G01*
X161829000Y-122003615D01*
G75*
G02*
X161656000Y-121830615I0J173000D01*
G01*
X161656000Y-121484615D01*
G75*
G02*
X161829000Y-121311615I173000J0D01*
G01*
G37*
G36*
G01*
X178133000Y-129934615D02*
X178133000Y-130330615D01*
G75*
G02*
X177960000Y-130503615I-173000J0D01*
G01*
X177614000Y-130503615D01*
G75*
G02*
X177441000Y-130330615I0J173000D01*
G01*
X177441000Y-129934615D01*
G75*
G02*
X177614000Y-129761615I173000J0D01*
G01*
X177960000Y-129761615D01*
G75*
G02*
X178133000Y-129934615I0J-173000D01*
G01*
G37*
G36*
G01*
X179103000Y-129934615D02*
X179103000Y-130330615D01*
G75*
G02*
X178930000Y-130503615I-173000J0D01*
G01*
X178584000Y-130503615D01*
G75*
G02*
X178411000Y-130330615I0J173000D01*
G01*
X178411000Y-129934615D01*
G75*
G02*
X178584000Y-129761615I173000J0D01*
G01*
X178930000Y-129761615D01*
G75*
G02*
X179103000Y-129934615I0J-173000D01*
G01*
G37*
G36*
G01*
X178449000Y-123176615D02*
X178845000Y-123176615D01*
G75*
G02*
X179018000Y-123349615I0J-173000D01*
G01*
X179018000Y-123695615D01*
G75*
G02*
X178845000Y-123868615I-173000J0D01*
G01*
X178449000Y-123868615D01*
G75*
G02*
X178276000Y-123695615I0J173000D01*
G01*
X178276000Y-123349615D01*
G75*
G02*
X178449000Y-123176615I173000J0D01*
G01*
G37*
G36*
G01*
X178449000Y-122206615D02*
X178845000Y-122206615D01*
G75*
G02*
X179018000Y-122379615I0J-173000D01*
G01*
X179018000Y-122725615D01*
G75*
G02*
X178845000Y-122898615I-173000J0D01*
G01*
X178449000Y-122898615D01*
G75*
G02*
X178276000Y-122725615I0J173000D01*
G01*
X178276000Y-122379615D01*
G75*
G02*
X178449000Y-122206615I173000J0D01*
G01*
G37*
G36*
G01*
X172341000Y-137110615D02*
X172341000Y-136714615D01*
G75*
G02*
X172514000Y-136541615I173000J0D01*
G01*
X172860000Y-136541615D01*
G75*
G02*
X173033000Y-136714615I0J-173000D01*
G01*
X173033000Y-137110615D01*
G75*
G02*
X172860000Y-137283615I-173000J0D01*
G01*
X172514000Y-137283615D01*
G75*
G02*
X172341000Y-137110615I0J173000D01*
G01*
G37*
G36*
G01*
X172885000Y-138228615D02*
X172489000Y-138228615D01*
G75*
G02*
X172316000Y-138055615I0J173000D01*
G01*
X172316000Y-137709615D01*
G75*
G02*
X172489000Y-137536615I173000J0D01*
G01*
X172885000Y-137536615D01*
G75*
G02*
X173058000Y-137709615I0J-173000D01*
G01*
X173058000Y-138055615D01*
G75*
G02*
X172885000Y-138228615I-173000J0D01*
G01*
G37*
G36*
G01*
X168355000Y-137268615D02*
X167959000Y-137268615D01*
G75*
G02*
X167786000Y-137095615I0J173000D01*
G01*
X167786000Y-136749615D01*
G75*
G02*
X167959000Y-136576615I173000J0D01*
G01*
X168355000Y-136576615D01*
G75*
G02*
X168528000Y-136749615I0J-173000D01*
G01*
X168528000Y-137095615D01*
G75*
G02*
X168355000Y-137268615I-173000J0D01*
G01*
G37*
G36*
G01*
X168355000Y-138238615D02*
X167959000Y-138238615D01*
G75*
G02*
X167786000Y-138065615I0J173000D01*
G01*
X167786000Y-137719615D01*
G75*
G02*
X167959000Y-137546615I173000J0D01*
G01*
X168355000Y-137546615D01*
G75*
G02*
X168528000Y-137719615I0J-173000D01*
G01*
X168528000Y-138065615D01*
G75*
G02*
X168355000Y-138238615I-173000J0D01*
G01*
G37*
G36*
G01*
X165856000Y-134680615D02*
X165856000Y-134284615D01*
G75*
G02*
X166029000Y-134111615I173000J0D01*
G01*
X166375000Y-134111615D01*
G75*
G02*
X166548000Y-134284615I0J-173000D01*
G01*
X166548000Y-134680615D01*
G75*
G02*
X166375000Y-134853615I-173000J0D01*
G01*
X166029000Y-134853615D01*
G75*
G02*
X165856000Y-134680615I0J173000D01*
G01*
G37*
G36*
G01*
X164886000Y-134680615D02*
X164886000Y-134284615D01*
G75*
G02*
X165059000Y-134111615I173000J0D01*
G01*
X165405000Y-134111615D01*
G75*
G02*
X165578000Y-134284615I0J-173000D01*
G01*
X165578000Y-134680615D01*
G75*
G02*
X165405000Y-134853615I-173000J0D01*
G01*
X165059000Y-134853615D01*
G75*
G02*
X164886000Y-134680615I0J173000D01*
G01*
G37*
G36*
G01*
X162793000Y-126384615D02*
X162793000Y-126780615D01*
G75*
G02*
X162620000Y-126953615I-173000J0D01*
G01*
X162274000Y-126953615D01*
G75*
G02*
X162101000Y-126780615I0J173000D01*
G01*
X162101000Y-126384615D01*
G75*
G02*
X162274000Y-126211615I173000J0D01*
G01*
X162620000Y-126211615D01*
G75*
G02*
X162793000Y-126384615I0J-173000D01*
G01*
G37*
G36*
G01*
X163763000Y-126384615D02*
X163763000Y-126780615D01*
G75*
G02*
X163590000Y-126953615I-173000J0D01*
G01*
X163244000Y-126953615D01*
G75*
G02*
X163071000Y-126780615I0J173000D01*
G01*
X163071000Y-126384615D01*
G75*
G02*
X163244000Y-126211615I173000J0D01*
G01*
X163590000Y-126211615D01*
G75*
G02*
X163763000Y-126384615I0J-173000D01*
G01*
G37*
G36*
G01*
X166335000Y-124123615D02*
X165939000Y-124123615D01*
G75*
G02*
X165766000Y-123950615I0J173000D01*
G01*
X165766000Y-123604615D01*
G75*
G02*
X165939000Y-123431615I173000J0D01*
G01*
X166335000Y-123431615D01*
G75*
G02*
X166508000Y-123604615I0J-173000D01*
G01*
X166508000Y-123950615D01*
G75*
G02*
X166335000Y-124123615I-173000J0D01*
G01*
G37*
G36*
G01*
X166335000Y-125093615D02*
X165939000Y-125093615D01*
G75*
G02*
X165766000Y-124920615I0J173000D01*
G01*
X165766000Y-124574615D01*
G75*
G02*
X165939000Y-124401615I173000J0D01*
G01*
X166335000Y-124401615D01*
G75*
G02*
X166508000Y-124574615I0J-173000D01*
G01*
X166508000Y-124920615D01*
G75*
G02*
X166335000Y-125093615I-173000J0D01*
G01*
G37*
G36*
G01*
X170355000Y-124123615D02*
X169959000Y-124123615D01*
G75*
G02*
X169786000Y-123950615I0J173000D01*
G01*
X169786000Y-123604615D01*
G75*
G02*
X169959000Y-123431615I173000J0D01*
G01*
X170355000Y-123431615D01*
G75*
G02*
X170528000Y-123604615I0J-173000D01*
G01*
X170528000Y-123950615D01*
G75*
G02*
X170355000Y-124123615I-173000J0D01*
G01*
G37*
G36*
G01*
X170355000Y-125093615D02*
X169959000Y-125093615D01*
G75*
G02*
X169786000Y-124920615I0J173000D01*
G01*
X169786000Y-124574615D01*
G75*
G02*
X169959000Y-124401615I173000J0D01*
G01*
X170355000Y-124401615D01*
G75*
G02*
X170528000Y-124574615I0J-173000D01*
G01*
X170528000Y-124920615D01*
G75*
G02*
X170355000Y-125093615I-173000J0D01*
G01*
G37*
G36*
G01*
X174325000Y-124128615D02*
X173929000Y-124128615D01*
G75*
G02*
X173756000Y-123955615I0J173000D01*
G01*
X173756000Y-123609615D01*
G75*
G02*
X173929000Y-123436615I173000J0D01*
G01*
X174325000Y-123436615D01*
G75*
G02*
X174498000Y-123609615I0J-173000D01*
G01*
X174498000Y-123955615D01*
G75*
G02*
X174325000Y-124128615I-173000J0D01*
G01*
G37*
G36*
G01*
X174325000Y-125098615D02*
X173929000Y-125098615D01*
G75*
G02*
X173756000Y-124925615I0J173000D01*
G01*
X173756000Y-124579615D01*
G75*
G02*
X173929000Y-124406615I173000J0D01*
G01*
X174325000Y-124406615D01*
G75*
G02*
X174498000Y-124579615I0J-173000D01*
G01*
X174498000Y-124925615D01*
G75*
G02*
X174325000Y-125098615I-173000J0D01*
G01*
G37*
G36*
G01*
X172375000Y-124123615D02*
X171979000Y-124123615D01*
G75*
G02*
X171806000Y-123950615I0J173000D01*
G01*
X171806000Y-123604615D01*
G75*
G02*
X171979000Y-123431615I173000J0D01*
G01*
X172375000Y-123431615D01*
G75*
G02*
X172548000Y-123604615I0J-173000D01*
G01*
X172548000Y-123950615D01*
G75*
G02*
X172375000Y-124123615I-173000J0D01*
G01*
G37*
G36*
G01*
X172375000Y-125093615D02*
X171979000Y-125093615D01*
G75*
G02*
X171806000Y-124920615I0J173000D01*
G01*
X171806000Y-124574615D01*
G75*
G02*
X171979000Y-124401615I173000J0D01*
G01*
X172375000Y-124401615D01*
G75*
G02*
X172548000Y-124574615I0J-173000D01*
G01*
X172548000Y-124920615D01*
G75*
G02*
X172375000Y-125093615I-173000J0D01*
G01*
G37*
G36*
G01*
X168355000Y-124123615D02*
X167959000Y-124123615D01*
G75*
G02*
X167786000Y-123950615I0J173000D01*
G01*
X167786000Y-123604615D01*
G75*
G02*
X167959000Y-123431615I173000J0D01*
G01*
X168355000Y-123431615D01*
G75*
G02*
X168528000Y-123604615I0J-173000D01*
G01*
X168528000Y-123950615D01*
G75*
G02*
X168355000Y-124123615I-173000J0D01*
G01*
G37*
G36*
G01*
X168355000Y-125093615D02*
X167959000Y-125093615D01*
G75*
G02*
X167786000Y-124920615I0J173000D01*
G01*
X167786000Y-124574615D01*
G75*
G02*
X167959000Y-124401615I173000J0D01*
G01*
X168355000Y-124401615D01*
G75*
G02*
X168528000Y-124574615I0J-173000D01*
G01*
X168528000Y-124920615D01*
G75*
G02*
X168355000Y-125093615I-173000J0D01*
G01*
G37*
G36*
G01*
X177661000Y-126810615D02*
X177661000Y-126414615D01*
G75*
G02*
X177834000Y-126241615I173000J0D01*
G01*
X178180000Y-126241615D01*
G75*
G02*
X178353000Y-126414615I0J-173000D01*
G01*
X178353000Y-126810615D01*
G75*
G02*
X178180000Y-126983615I-173000J0D01*
G01*
X177834000Y-126983615D01*
G75*
G02*
X177661000Y-126810615I0J173000D01*
G01*
G37*
G36*
G01*
X176691000Y-126810615D02*
X176691000Y-126414615D01*
G75*
G02*
X176864000Y-126241615I173000J0D01*
G01*
X177210000Y-126241615D01*
G75*
G02*
X177383000Y-126414615I0J-173000D01*
G01*
X177383000Y-126810615D01*
G75*
G02*
X177210000Y-126983615I-173000J0D01*
G01*
X176864000Y-126983615D01*
G75*
G02*
X176691000Y-126810615I0J173000D01*
G01*
G37*
G36*
G01*
X174528000Y-134274615D02*
X174528000Y-134670615D01*
G75*
G02*
X174355000Y-134843615I-173000J0D01*
G01*
X174009000Y-134843615D01*
G75*
G02*
X173836000Y-134670615I0J173000D01*
G01*
X173836000Y-134274615D01*
G75*
G02*
X174009000Y-134101615I173000J0D01*
G01*
X174355000Y-134101615D01*
G75*
G02*
X174528000Y-134274615I0J-173000D01*
G01*
G37*
G36*
G01*
X175498000Y-134274615D02*
X175498000Y-134670615D01*
G75*
G02*
X175325000Y-134843615I-173000J0D01*
G01*
X174979000Y-134843615D01*
G75*
G02*
X174806000Y-134670615I0J173000D01*
G01*
X174806000Y-134274615D01*
G75*
G02*
X174979000Y-134101615I173000J0D01*
G01*
X175325000Y-134101615D01*
G75*
G02*
X175498000Y-134274615I0J-173000D01*
G01*
G37*
G36*
G01*
X164029000Y-122156615D02*
X164425000Y-122156615D01*
G75*
G02*
X164598000Y-122329615I0J-173000D01*
G01*
X164598000Y-122675615D01*
G75*
G02*
X164425000Y-122848615I-173000J0D01*
G01*
X164029000Y-122848615D01*
G75*
G02*
X163856000Y-122675615I0J173000D01*
G01*
X163856000Y-122329615D01*
G75*
G02*
X164029000Y-122156615I173000J0D01*
G01*
G37*
G36*
G01*
X164029000Y-121186615D02*
X164425000Y-121186615D01*
G75*
G02*
X164598000Y-121359615I0J-173000D01*
G01*
X164598000Y-121705615D01*
G75*
G02*
X164425000Y-121878615I-173000J0D01*
G01*
X164029000Y-121878615D01*
G75*
G02*
X163856000Y-121705615I0J173000D01*
G01*
X163856000Y-121359615D01*
G75*
G02*
X164029000Y-121186615I173000J0D01*
G01*
G37*
G36*
G01*
X177119000Y-122171615D02*
X177515000Y-122171615D01*
G75*
G02*
X177688000Y-122344615I0J-173000D01*
G01*
X177688000Y-122690615D01*
G75*
G02*
X177515000Y-122863615I-173000J0D01*
G01*
X177119000Y-122863615D01*
G75*
G02*
X176946000Y-122690615I0J173000D01*
G01*
X176946000Y-122344615D01*
G75*
G02*
X177119000Y-122171615I173000J0D01*
G01*
G37*
G36*
G01*
X177119000Y-121201615D02*
X177515000Y-121201615D01*
G75*
G02*
X177688000Y-121374615I0J-173000D01*
G01*
X177688000Y-121720615D01*
G75*
G02*
X177515000Y-121893615I-173000J0D01*
G01*
X177119000Y-121893615D01*
G75*
G02*
X176946000Y-121720615I0J173000D01*
G01*
X176946000Y-121374615D01*
G75*
G02*
X177119000Y-121201615I173000J0D01*
G01*
G37*
G36*
G01*
X164405000Y-137258615D02*
X164009000Y-137258615D01*
G75*
G02*
X163836000Y-137085615I0J173000D01*
G01*
X163836000Y-136739615D01*
G75*
G02*
X164009000Y-136566615I173000J0D01*
G01*
X164405000Y-136566615D01*
G75*
G02*
X164578000Y-136739615I0J-173000D01*
G01*
X164578000Y-137085615D01*
G75*
G02*
X164405000Y-137258615I-173000J0D01*
G01*
G37*
G36*
G01*
X164405000Y-138228615D02*
X164009000Y-138228615D01*
G75*
G02*
X163836000Y-138055615I0J173000D01*
G01*
X163836000Y-137709615D01*
G75*
G02*
X164009000Y-137536615I173000J0D01*
G01*
X164405000Y-137536615D01*
G75*
G02*
X164578000Y-137709615I0J-173000D01*
G01*
X164578000Y-138055615D01*
G75*
G02*
X164405000Y-138228615I-173000J0D01*
G01*
G37*
G36*
G01*
X169999000Y-122171615D02*
X170395000Y-122171615D01*
G75*
G02*
X170568000Y-122344615I0J-173000D01*
G01*
X170568000Y-122690615D01*
G75*
G02*
X170395000Y-122863615I-173000J0D01*
G01*
X169999000Y-122863615D01*
G75*
G02*
X169826000Y-122690615I0J173000D01*
G01*
X169826000Y-122344615D01*
G75*
G02*
X169999000Y-122171615I173000J0D01*
G01*
G37*
G36*
G01*
X169999000Y-121201615D02*
X170395000Y-121201615D01*
G75*
G02*
X170568000Y-121374615I0J-173000D01*
G01*
X170568000Y-121720615D01*
G75*
G02*
X170395000Y-121893615I-173000J0D01*
G01*
X169999000Y-121893615D01*
G75*
G02*
X169826000Y-121720615I0J173000D01*
G01*
X169826000Y-121374615D01*
G75*
G02*
X169999000Y-121201615I173000J0D01*
G01*
G37*
G36*
G01*
X166019000Y-122171615D02*
X166415000Y-122171615D01*
G75*
G02*
X166588000Y-122344615I0J-173000D01*
G01*
X166588000Y-122690615D01*
G75*
G02*
X166415000Y-122863615I-173000J0D01*
G01*
X166019000Y-122863615D01*
G75*
G02*
X165846000Y-122690615I0J173000D01*
G01*
X165846000Y-122344615D01*
G75*
G02*
X166019000Y-122171615I173000J0D01*
G01*
G37*
G36*
G01*
X166019000Y-121201615D02*
X166415000Y-121201615D01*
G75*
G02*
X166588000Y-121374615I0J-173000D01*
G01*
X166588000Y-121720615D01*
G75*
G02*
X166415000Y-121893615I-173000J0D01*
G01*
X166019000Y-121893615D01*
G75*
G02*
X165846000Y-121720615I0J173000D01*
G01*
X165846000Y-121374615D01*
G75*
G02*
X166019000Y-121201615I173000J0D01*
G01*
G37*
G36*
G01*
X168009000Y-122171615D02*
X168405000Y-122171615D01*
G75*
G02*
X168578000Y-122344615I0J-173000D01*
G01*
X168578000Y-122690615D01*
G75*
G02*
X168405000Y-122863615I-173000J0D01*
G01*
X168009000Y-122863615D01*
G75*
G02*
X167836000Y-122690615I0J173000D01*
G01*
X167836000Y-122344615D01*
G75*
G02*
X168009000Y-122171615I173000J0D01*
G01*
G37*
G36*
G01*
X168009000Y-121201615D02*
X168405000Y-121201615D01*
G75*
G02*
X168578000Y-121374615I0J-173000D01*
G01*
X168578000Y-121720615D01*
G75*
G02*
X168405000Y-121893615I-173000J0D01*
G01*
X168009000Y-121893615D01*
G75*
G02*
X167836000Y-121720615I0J173000D01*
G01*
X167836000Y-121374615D01*
G75*
G02*
X168009000Y-121201615I173000J0D01*
G01*
G37*
G36*
G01*
X170935000Y-137258615D02*
X170539000Y-137258615D01*
G75*
G02*
X170366000Y-137085615I0J173000D01*
G01*
X170366000Y-136739615D01*
G75*
G02*
X170539000Y-136566615I173000J0D01*
G01*
X170935000Y-136566615D01*
G75*
G02*
X171108000Y-136739615I0J-173000D01*
G01*
X171108000Y-137085615D01*
G75*
G02*
X170935000Y-137258615I-173000J0D01*
G01*
G37*
G36*
G01*
X170935000Y-138228615D02*
X170539000Y-138228615D01*
G75*
G02*
X170366000Y-138055615I0J173000D01*
G01*
X170366000Y-137709615D01*
G75*
G02*
X170539000Y-137536615I173000J0D01*
G01*
X170935000Y-137536615D01*
G75*
G02*
X171108000Y-137709615I0J-173000D01*
G01*
X171108000Y-138055615D01*
G75*
G02*
X170935000Y-138228615I-173000J0D01*
G01*
G37*
G36*
G01*
X171989000Y-122171615D02*
X172385000Y-122171615D01*
G75*
G02*
X172558000Y-122344615I0J-173000D01*
G01*
X172558000Y-122690615D01*
G75*
G02*
X172385000Y-122863615I-173000J0D01*
G01*
X171989000Y-122863615D01*
G75*
G02*
X171816000Y-122690615I0J173000D01*
G01*
X171816000Y-122344615D01*
G75*
G02*
X171989000Y-122171615I173000J0D01*
G01*
G37*
G36*
G01*
X171989000Y-121201615D02*
X172385000Y-121201615D01*
G75*
G02*
X172558000Y-121374615I0J-173000D01*
G01*
X172558000Y-121720615D01*
G75*
G02*
X172385000Y-121893615I-173000J0D01*
G01*
X171989000Y-121893615D01*
G75*
G02*
X171816000Y-121720615I0J173000D01*
G01*
X171816000Y-121374615D01*
G75*
G02*
X171989000Y-121201615I173000J0D01*
G01*
G37*
G36*
G01*
X177375000Y-137258615D02*
X176979000Y-137258615D01*
G75*
G02*
X176806000Y-137085615I0J173000D01*
G01*
X176806000Y-136739615D01*
G75*
G02*
X176979000Y-136566615I173000J0D01*
G01*
X177375000Y-136566615D01*
G75*
G02*
X177548000Y-136739615I0J-173000D01*
G01*
X177548000Y-137085615D01*
G75*
G02*
X177375000Y-137258615I-173000J0D01*
G01*
G37*
G36*
G01*
X177375000Y-138228615D02*
X176979000Y-138228615D01*
G75*
G02*
X176806000Y-138055615I0J173000D01*
G01*
X176806000Y-137709615D01*
G75*
G02*
X176979000Y-137536615I173000J0D01*
G01*
X177375000Y-137536615D01*
G75*
G02*
X177548000Y-137709615I0J-173000D01*
G01*
X177548000Y-138055615D01*
G75*
G02*
X177375000Y-138228615I-173000J0D01*
G01*
G37*
G36*
G01*
X175039000Y-122171615D02*
X175435000Y-122171615D01*
G75*
G02*
X175608000Y-122344615I0J-173000D01*
G01*
X175608000Y-122690615D01*
G75*
G02*
X175435000Y-122863615I-173000J0D01*
G01*
X175039000Y-122863615D01*
G75*
G02*
X174866000Y-122690615I0J173000D01*
G01*
X174866000Y-122344615D01*
G75*
G02*
X175039000Y-122171615I173000J0D01*
G01*
G37*
G36*
G01*
X175039000Y-121201615D02*
X175435000Y-121201615D01*
G75*
G02*
X175608000Y-121374615I0J-173000D01*
G01*
X175608000Y-121720615D01*
G75*
G02*
X175435000Y-121893615I-173000J0D01*
G01*
X175039000Y-121893615D01*
G75*
G02*
X174866000Y-121720615I0J173000D01*
G01*
X174866000Y-121374615D01*
G75*
G02*
X175039000Y-121201615I173000J0D01*
G01*
G37*
G36*
G01*
X95379750Y-134273165D02*
X95379750Y-134669165D01*
G75*
G02*
X95206750Y-134842165I-173000J0D01*
G01*
X94860750Y-134842165D01*
G75*
G02*
X94687750Y-134669165I0J173000D01*
G01*
X94687750Y-134273165D01*
G75*
G02*
X94860750Y-134100165I173000J0D01*
G01*
X95206750Y-134100165D01*
G75*
G02*
X95379750Y-134273165I0J-173000D01*
G01*
G37*
G36*
G01*
X96349750Y-134273165D02*
X96349750Y-134669165D01*
G75*
G02*
X96176750Y-134842165I-173000J0D01*
G01*
X95830750Y-134842165D01*
G75*
G02*
X95657750Y-134669165I0J173000D01*
G01*
X95657750Y-134273165D01*
G75*
G02*
X95830750Y-134100165I173000J0D01*
G01*
X96176750Y-134100165D01*
G75*
G02*
X96349750Y-134273165I0J-173000D01*
G01*
G37*
G36*
G01*
X84880750Y-122155165D02*
X85276750Y-122155165D01*
G75*
G02*
X85449750Y-122328165I0J-173000D01*
G01*
X85449750Y-122674165D01*
G75*
G02*
X85276750Y-122847165I-173000J0D01*
G01*
X84880750Y-122847165D01*
G75*
G02*
X84707750Y-122674165I0J173000D01*
G01*
X84707750Y-122328165D01*
G75*
G02*
X84880750Y-122155165I173000J0D01*
G01*
G37*
G36*
G01*
X84880750Y-121185165D02*
X85276750Y-121185165D01*
G75*
G02*
X85449750Y-121358165I0J-173000D01*
G01*
X85449750Y-121704165D01*
G75*
G02*
X85276750Y-121877165I-173000J0D01*
G01*
X84880750Y-121877165D01*
G75*
G02*
X84707750Y-121704165I0J173000D01*
G01*
X84707750Y-121358165D01*
G75*
G02*
X84880750Y-121185165I173000J0D01*
G01*
G37*
G36*
G01*
X97970750Y-122170165D02*
X98366750Y-122170165D01*
G75*
G02*
X98539750Y-122343165I0J-173000D01*
G01*
X98539750Y-122689165D01*
G75*
G02*
X98366750Y-122862165I-173000J0D01*
G01*
X97970750Y-122862165D01*
G75*
G02*
X97797750Y-122689165I0J173000D01*
G01*
X97797750Y-122343165D01*
G75*
G02*
X97970750Y-122170165I173000J0D01*
G01*
G37*
G36*
G01*
X97970750Y-121200165D02*
X98366750Y-121200165D01*
G75*
G02*
X98539750Y-121373165I0J-173000D01*
G01*
X98539750Y-121719165D01*
G75*
G02*
X98366750Y-121892165I-173000J0D01*
G01*
X97970750Y-121892165D01*
G75*
G02*
X97797750Y-121719165I0J173000D01*
G01*
X97797750Y-121373165D01*
G75*
G02*
X97970750Y-121200165I173000J0D01*
G01*
G37*
G36*
G01*
X83072750Y-131379165D02*
X83072750Y-130983165D01*
G75*
G02*
X83245750Y-130810165I173000J0D01*
G01*
X83591750Y-130810165D01*
G75*
G02*
X83764750Y-130983165I0J-173000D01*
G01*
X83764750Y-131379165D01*
G75*
G02*
X83591750Y-131552165I-173000J0D01*
G01*
X83245750Y-131552165D01*
G75*
G02*
X83072750Y-131379165I0J173000D01*
G01*
G37*
G36*
G01*
X82102750Y-131379165D02*
X82102750Y-130983165D01*
G75*
G02*
X82275750Y-130810165I173000J0D01*
G01*
X82621750Y-130810165D01*
G75*
G02*
X82794750Y-130983165I0J-173000D01*
G01*
X82794750Y-131379165D01*
G75*
G02*
X82621750Y-131552165I-173000J0D01*
G01*
X82275750Y-131552165D01*
G75*
G02*
X82102750Y-131379165I0J173000D01*
G01*
G37*
G36*
G01*
X94816750Y-137262165D02*
X94420750Y-137262165D01*
G75*
G02*
X94247750Y-137089165I0J173000D01*
G01*
X94247750Y-136743165D01*
G75*
G02*
X94420750Y-136570165I173000J0D01*
G01*
X94816750Y-136570165D01*
G75*
G02*
X94989750Y-136743165I0J-173000D01*
G01*
X94989750Y-137089165D01*
G75*
G02*
X94816750Y-137262165I-173000J0D01*
G01*
G37*
G36*
G01*
X94816750Y-138232165D02*
X94420750Y-138232165D01*
G75*
G02*
X94247750Y-138059165I0J173000D01*
G01*
X94247750Y-137713165D01*
G75*
G02*
X94420750Y-137540165I173000J0D01*
G01*
X94816750Y-137540165D01*
G75*
G02*
X94989750Y-137713165I0J-173000D01*
G01*
X94989750Y-138059165D01*
G75*
G02*
X94816750Y-138232165I-173000J0D01*
G01*
G37*
G36*
G01*
X87166750Y-137257165D02*
X86770750Y-137257165D01*
G75*
G02*
X86597750Y-137084165I0J173000D01*
G01*
X86597750Y-136738165D01*
G75*
G02*
X86770750Y-136565165I173000J0D01*
G01*
X87166750Y-136565165D01*
G75*
G02*
X87339750Y-136738165I0J-173000D01*
G01*
X87339750Y-137084165D01*
G75*
G02*
X87166750Y-137257165I-173000J0D01*
G01*
G37*
G36*
G01*
X87166750Y-138227165D02*
X86770750Y-138227165D01*
G75*
G02*
X86597750Y-138054165I0J173000D01*
G01*
X86597750Y-137708165D01*
G75*
G02*
X86770750Y-137535165I173000J0D01*
G01*
X87166750Y-137535165D01*
G75*
G02*
X87339750Y-137708165I0J-173000D01*
G01*
X87339750Y-138054165D01*
G75*
G02*
X87166750Y-138227165I-173000J0D01*
G01*
G37*
G36*
G01*
X82680750Y-122280165D02*
X83076750Y-122280165D01*
G75*
G02*
X83249750Y-122453165I0J-173000D01*
G01*
X83249750Y-122799165D01*
G75*
G02*
X83076750Y-122972165I-173000J0D01*
G01*
X82680750Y-122972165D01*
G75*
G02*
X82507750Y-122799165I0J173000D01*
G01*
X82507750Y-122453165D01*
G75*
G02*
X82680750Y-122280165I173000J0D01*
G01*
G37*
G36*
G01*
X82680750Y-121310165D02*
X83076750Y-121310165D01*
G75*
G02*
X83249750Y-121483165I0J-173000D01*
G01*
X83249750Y-121829165D01*
G75*
G02*
X83076750Y-122002165I-173000J0D01*
G01*
X82680750Y-122002165D01*
G75*
G02*
X82507750Y-121829165I0J173000D01*
G01*
X82507750Y-121483165D01*
G75*
G02*
X82680750Y-121310165I173000J0D01*
G01*
G37*
G36*
G01*
X98984750Y-129933165D02*
X98984750Y-130329165D01*
G75*
G02*
X98811750Y-130502165I-173000J0D01*
G01*
X98465750Y-130502165D01*
G75*
G02*
X98292750Y-130329165I0J173000D01*
G01*
X98292750Y-129933165D01*
G75*
G02*
X98465750Y-129760165I173000J0D01*
G01*
X98811750Y-129760165D01*
G75*
G02*
X98984750Y-129933165I0J-173000D01*
G01*
G37*
G36*
G01*
X99954750Y-129933165D02*
X99954750Y-130329165D01*
G75*
G02*
X99781750Y-130502165I-173000J0D01*
G01*
X99435750Y-130502165D01*
G75*
G02*
X99262750Y-130329165I0J173000D01*
G01*
X99262750Y-129933165D01*
G75*
G02*
X99435750Y-129760165I173000J0D01*
G01*
X99781750Y-129760165D01*
G75*
G02*
X99954750Y-129933165I0J-173000D01*
G01*
G37*
G36*
G01*
X99300750Y-123175165D02*
X99696750Y-123175165D01*
G75*
G02*
X99869750Y-123348165I0J-173000D01*
G01*
X99869750Y-123694165D01*
G75*
G02*
X99696750Y-123867165I-173000J0D01*
G01*
X99300750Y-123867165D01*
G75*
G02*
X99127750Y-123694165I0J173000D01*
G01*
X99127750Y-123348165D01*
G75*
G02*
X99300750Y-123175165I173000J0D01*
G01*
G37*
G36*
G01*
X99300750Y-122205165D02*
X99696750Y-122205165D01*
G75*
G02*
X99869750Y-122378165I0J-173000D01*
G01*
X99869750Y-122724165D01*
G75*
G02*
X99696750Y-122897165I-173000J0D01*
G01*
X99300750Y-122897165D01*
G75*
G02*
X99127750Y-122724165I0J173000D01*
G01*
X99127750Y-122378165D01*
G75*
G02*
X99300750Y-122205165I173000J0D01*
G01*
G37*
G36*
G01*
X93736750Y-137257165D02*
X93340750Y-137257165D01*
G75*
G02*
X93167750Y-137084165I0J173000D01*
G01*
X93167750Y-136738165D01*
G75*
G02*
X93340750Y-136565165I173000J0D01*
G01*
X93736750Y-136565165D01*
G75*
G02*
X93909750Y-136738165I0J-173000D01*
G01*
X93909750Y-137084165D01*
G75*
G02*
X93736750Y-137257165I-173000J0D01*
G01*
G37*
G36*
G01*
X93736750Y-138227165D02*
X93340750Y-138227165D01*
G75*
G02*
X93167750Y-138054165I0J173000D01*
G01*
X93167750Y-137708165D01*
G75*
G02*
X93340750Y-137535165I173000J0D01*
G01*
X93736750Y-137535165D01*
G75*
G02*
X93909750Y-137708165I0J-173000D01*
G01*
X93909750Y-138054165D01*
G75*
G02*
X93736750Y-138227165I-173000J0D01*
G01*
G37*
G36*
G01*
X89206750Y-137267165D02*
X88810750Y-137267165D01*
G75*
G02*
X88637750Y-137094165I0J173000D01*
G01*
X88637750Y-136748165D01*
G75*
G02*
X88810750Y-136575165I173000J0D01*
G01*
X89206750Y-136575165D01*
G75*
G02*
X89379750Y-136748165I0J-173000D01*
G01*
X89379750Y-137094165D01*
G75*
G02*
X89206750Y-137267165I-173000J0D01*
G01*
G37*
G36*
G01*
X89206750Y-138237165D02*
X88810750Y-138237165D01*
G75*
G02*
X88637750Y-138064165I0J173000D01*
G01*
X88637750Y-137718165D01*
G75*
G02*
X88810750Y-137545165I173000J0D01*
G01*
X89206750Y-137545165D01*
G75*
G02*
X89379750Y-137718165I0J-173000D01*
G01*
X89379750Y-138064165D01*
G75*
G02*
X89206750Y-138237165I-173000J0D01*
G01*
G37*
G36*
G01*
X86707750Y-134679165D02*
X86707750Y-134283165D01*
G75*
G02*
X86880750Y-134110165I173000J0D01*
G01*
X87226750Y-134110165D01*
G75*
G02*
X87399750Y-134283165I0J-173000D01*
G01*
X87399750Y-134679165D01*
G75*
G02*
X87226750Y-134852165I-173000J0D01*
G01*
X86880750Y-134852165D01*
G75*
G02*
X86707750Y-134679165I0J173000D01*
G01*
G37*
G36*
G01*
X85737750Y-134679165D02*
X85737750Y-134283165D01*
G75*
G02*
X85910750Y-134110165I173000J0D01*
G01*
X86256750Y-134110165D01*
G75*
G02*
X86429750Y-134283165I0J-173000D01*
G01*
X86429750Y-134679165D01*
G75*
G02*
X86256750Y-134852165I-173000J0D01*
G01*
X85910750Y-134852165D01*
G75*
G02*
X85737750Y-134679165I0J173000D01*
G01*
G37*
G36*
G01*
X83644750Y-126383165D02*
X83644750Y-126779165D01*
G75*
G02*
X83471750Y-126952165I-173000J0D01*
G01*
X83125750Y-126952165D01*
G75*
G02*
X82952750Y-126779165I0J173000D01*
G01*
X82952750Y-126383165D01*
G75*
G02*
X83125750Y-126210165I173000J0D01*
G01*
X83471750Y-126210165D01*
G75*
G02*
X83644750Y-126383165I0J-173000D01*
G01*
G37*
G36*
G01*
X84614750Y-126383165D02*
X84614750Y-126779165D01*
G75*
G02*
X84441750Y-126952165I-173000J0D01*
G01*
X84095750Y-126952165D01*
G75*
G02*
X83922750Y-126779165I0J173000D01*
G01*
X83922750Y-126383165D01*
G75*
G02*
X84095750Y-126210165I173000J0D01*
G01*
X84441750Y-126210165D01*
G75*
G02*
X84614750Y-126383165I0J-173000D01*
G01*
G37*
G36*
G01*
X87186750Y-124122165D02*
X86790750Y-124122165D01*
G75*
G02*
X86617750Y-123949165I0J173000D01*
G01*
X86617750Y-123603165D01*
G75*
G02*
X86790750Y-123430165I173000J0D01*
G01*
X87186750Y-123430165D01*
G75*
G02*
X87359750Y-123603165I0J-173000D01*
G01*
X87359750Y-123949165D01*
G75*
G02*
X87186750Y-124122165I-173000J0D01*
G01*
G37*
G36*
G01*
X87186750Y-125092165D02*
X86790750Y-125092165D01*
G75*
G02*
X86617750Y-124919165I0J173000D01*
G01*
X86617750Y-124573165D01*
G75*
G02*
X86790750Y-124400165I173000J0D01*
G01*
X87186750Y-124400165D01*
G75*
G02*
X87359750Y-124573165I0J-173000D01*
G01*
X87359750Y-124919165D01*
G75*
G02*
X87186750Y-125092165I-173000J0D01*
G01*
G37*
G36*
G01*
X91206750Y-124122165D02*
X90810750Y-124122165D01*
G75*
G02*
X90637750Y-123949165I0J173000D01*
G01*
X90637750Y-123603165D01*
G75*
G02*
X90810750Y-123430165I173000J0D01*
G01*
X91206750Y-123430165D01*
G75*
G02*
X91379750Y-123603165I0J-173000D01*
G01*
X91379750Y-123949165D01*
G75*
G02*
X91206750Y-124122165I-173000J0D01*
G01*
G37*
G36*
G01*
X91206750Y-125092165D02*
X90810750Y-125092165D01*
G75*
G02*
X90637750Y-124919165I0J173000D01*
G01*
X90637750Y-124573165D01*
G75*
G02*
X90810750Y-124400165I173000J0D01*
G01*
X91206750Y-124400165D01*
G75*
G02*
X91379750Y-124573165I0J-173000D01*
G01*
X91379750Y-124919165D01*
G75*
G02*
X91206750Y-125092165I-173000J0D01*
G01*
G37*
G36*
G01*
X95176750Y-124127165D02*
X94780750Y-124127165D01*
G75*
G02*
X94607750Y-123954165I0J173000D01*
G01*
X94607750Y-123608165D01*
G75*
G02*
X94780750Y-123435165I173000J0D01*
G01*
X95176750Y-123435165D01*
G75*
G02*
X95349750Y-123608165I0J-173000D01*
G01*
X95349750Y-123954165D01*
G75*
G02*
X95176750Y-124127165I-173000J0D01*
G01*
G37*
G36*
G01*
X95176750Y-125097165D02*
X94780750Y-125097165D01*
G75*
G02*
X94607750Y-124924165I0J173000D01*
G01*
X94607750Y-124578165D01*
G75*
G02*
X94780750Y-124405165I173000J0D01*
G01*
X95176750Y-124405165D01*
G75*
G02*
X95349750Y-124578165I0J-173000D01*
G01*
X95349750Y-124924165D01*
G75*
G02*
X95176750Y-125097165I-173000J0D01*
G01*
G37*
G36*
G01*
X93226750Y-124122165D02*
X92830750Y-124122165D01*
G75*
G02*
X92657750Y-123949165I0J173000D01*
G01*
X92657750Y-123603165D01*
G75*
G02*
X92830750Y-123430165I173000J0D01*
G01*
X93226750Y-123430165D01*
G75*
G02*
X93399750Y-123603165I0J-173000D01*
G01*
X93399750Y-123949165D01*
G75*
G02*
X93226750Y-124122165I-173000J0D01*
G01*
G37*
G36*
G01*
X93226750Y-125092165D02*
X92830750Y-125092165D01*
G75*
G02*
X92657750Y-124919165I0J173000D01*
G01*
X92657750Y-124573165D01*
G75*
G02*
X92830750Y-124400165I173000J0D01*
G01*
X93226750Y-124400165D01*
G75*
G02*
X93399750Y-124573165I0J-173000D01*
G01*
X93399750Y-124919165D01*
G75*
G02*
X93226750Y-125092165I-173000J0D01*
G01*
G37*
G36*
G01*
X89206750Y-124122165D02*
X88810750Y-124122165D01*
G75*
G02*
X88637750Y-123949165I0J173000D01*
G01*
X88637750Y-123603165D01*
G75*
G02*
X88810750Y-123430165I173000J0D01*
G01*
X89206750Y-123430165D01*
G75*
G02*
X89379750Y-123603165I0J-173000D01*
G01*
X89379750Y-123949165D01*
G75*
G02*
X89206750Y-124122165I-173000J0D01*
G01*
G37*
G36*
G01*
X89206750Y-125092165D02*
X88810750Y-125092165D01*
G75*
G02*
X88637750Y-124919165I0J173000D01*
G01*
X88637750Y-124573165D01*
G75*
G02*
X88810750Y-124400165I173000J0D01*
G01*
X89206750Y-124400165D01*
G75*
G02*
X89379750Y-124573165I0J-173000D01*
G01*
X89379750Y-124919165D01*
G75*
G02*
X89206750Y-125092165I-173000J0D01*
G01*
G37*
G36*
G01*
X98512750Y-126809165D02*
X98512750Y-126413165D01*
G75*
G02*
X98685750Y-126240165I173000J0D01*
G01*
X99031750Y-126240165D01*
G75*
G02*
X99204750Y-126413165I0J-173000D01*
G01*
X99204750Y-126809165D01*
G75*
G02*
X99031750Y-126982165I-173000J0D01*
G01*
X98685750Y-126982165D01*
G75*
G02*
X98512750Y-126809165I0J173000D01*
G01*
G37*
G36*
G01*
X97542750Y-126809165D02*
X97542750Y-126413165D01*
G75*
G02*
X97715750Y-126240165I173000J0D01*
G01*
X98061750Y-126240165D01*
G75*
G02*
X98234750Y-126413165I0J-173000D01*
G01*
X98234750Y-126809165D01*
G75*
G02*
X98061750Y-126982165I-173000J0D01*
G01*
X97715750Y-126982165D01*
G75*
G02*
X97542750Y-126809165I0J173000D01*
G01*
G37*
G36*
G01*
X85256750Y-137257165D02*
X84860750Y-137257165D01*
G75*
G02*
X84687750Y-137084165I0J173000D01*
G01*
X84687750Y-136738165D01*
G75*
G02*
X84860750Y-136565165I173000J0D01*
G01*
X85256750Y-136565165D01*
G75*
G02*
X85429750Y-136738165I0J-173000D01*
G01*
X85429750Y-137084165D01*
G75*
G02*
X85256750Y-137257165I-173000J0D01*
G01*
G37*
G36*
G01*
X85256750Y-138227165D02*
X84860750Y-138227165D01*
G75*
G02*
X84687750Y-138054165I0J173000D01*
G01*
X84687750Y-137708165D01*
G75*
G02*
X84860750Y-137535165I173000J0D01*
G01*
X85256750Y-137535165D01*
G75*
G02*
X85429750Y-137708165I0J-173000D01*
G01*
X85429750Y-138054165D01*
G75*
G02*
X85256750Y-138227165I-173000J0D01*
G01*
G37*
G36*
G01*
X90850750Y-122170165D02*
X91246750Y-122170165D01*
G75*
G02*
X91419750Y-122343165I0J-173000D01*
G01*
X91419750Y-122689165D01*
G75*
G02*
X91246750Y-122862165I-173000J0D01*
G01*
X90850750Y-122862165D01*
G75*
G02*
X90677750Y-122689165I0J173000D01*
G01*
X90677750Y-122343165D01*
G75*
G02*
X90850750Y-122170165I173000J0D01*
G01*
G37*
G36*
G01*
X90850750Y-121200165D02*
X91246750Y-121200165D01*
G75*
G02*
X91419750Y-121373165I0J-173000D01*
G01*
X91419750Y-121719165D01*
G75*
G02*
X91246750Y-121892165I-173000J0D01*
G01*
X90850750Y-121892165D01*
G75*
G02*
X90677750Y-121719165I0J173000D01*
G01*
X90677750Y-121373165D01*
G75*
G02*
X90850750Y-121200165I173000J0D01*
G01*
G37*
G36*
G01*
X86870750Y-122170165D02*
X87266750Y-122170165D01*
G75*
G02*
X87439750Y-122343165I0J-173000D01*
G01*
X87439750Y-122689165D01*
G75*
G02*
X87266750Y-122862165I-173000J0D01*
G01*
X86870750Y-122862165D01*
G75*
G02*
X86697750Y-122689165I0J173000D01*
G01*
X86697750Y-122343165D01*
G75*
G02*
X86870750Y-122170165I173000J0D01*
G01*
G37*
G36*
G01*
X86870750Y-121200165D02*
X87266750Y-121200165D01*
G75*
G02*
X87439750Y-121373165I0J-173000D01*
G01*
X87439750Y-121719165D01*
G75*
G02*
X87266750Y-121892165I-173000J0D01*
G01*
X86870750Y-121892165D01*
G75*
G02*
X86697750Y-121719165I0J173000D01*
G01*
X86697750Y-121373165D01*
G75*
G02*
X86870750Y-121200165I173000J0D01*
G01*
G37*
G36*
G01*
X88860750Y-122170165D02*
X89256750Y-122170165D01*
G75*
G02*
X89429750Y-122343165I0J-173000D01*
G01*
X89429750Y-122689165D01*
G75*
G02*
X89256750Y-122862165I-173000J0D01*
G01*
X88860750Y-122862165D01*
G75*
G02*
X88687750Y-122689165I0J173000D01*
G01*
X88687750Y-122343165D01*
G75*
G02*
X88860750Y-122170165I173000J0D01*
G01*
G37*
G36*
G01*
X88860750Y-121200165D02*
X89256750Y-121200165D01*
G75*
G02*
X89429750Y-121373165I0J-173000D01*
G01*
X89429750Y-121719165D01*
G75*
G02*
X89256750Y-121892165I-173000J0D01*
G01*
X88860750Y-121892165D01*
G75*
G02*
X88687750Y-121719165I0J173000D01*
G01*
X88687750Y-121373165D01*
G75*
G02*
X88860750Y-121200165I173000J0D01*
G01*
G37*
G36*
G01*
X91786750Y-137257165D02*
X91390750Y-137257165D01*
G75*
G02*
X91217750Y-137084165I0J173000D01*
G01*
X91217750Y-136738165D01*
G75*
G02*
X91390750Y-136565165I173000J0D01*
G01*
X91786750Y-136565165D01*
G75*
G02*
X91959750Y-136738165I0J-173000D01*
G01*
X91959750Y-137084165D01*
G75*
G02*
X91786750Y-137257165I-173000J0D01*
G01*
G37*
G36*
G01*
X91786750Y-138227165D02*
X91390750Y-138227165D01*
G75*
G02*
X91217750Y-138054165I0J173000D01*
G01*
X91217750Y-137708165D01*
G75*
G02*
X91390750Y-137535165I173000J0D01*
G01*
X91786750Y-137535165D01*
G75*
G02*
X91959750Y-137708165I0J-173000D01*
G01*
X91959750Y-138054165D01*
G75*
G02*
X91786750Y-138227165I-173000J0D01*
G01*
G37*
G36*
G01*
X92840750Y-122170165D02*
X93236750Y-122170165D01*
G75*
G02*
X93409750Y-122343165I0J-173000D01*
G01*
X93409750Y-122689165D01*
G75*
G02*
X93236750Y-122862165I-173000J0D01*
G01*
X92840750Y-122862165D01*
G75*
G02*
X92667750Y-122689165I0J173000D01*
G01*
X92667750Y-122343165D01*
G75*
G02*
X92840750Y-122170165I173000J0D01*
G01*
G37*
G36*
G01*
X92840750Y-121200165D02*
X93236750Y-121200165D01*
G75*
G02*
X93409750Y-121373165I0J-173000D01*
G01*
X93409750Y-121719165D01*
G75*
G02*
X93236750Y-121892165I-173000J0D01*
G01*
X92840750Y-121892165D01*
G75*
G02*
X92667750Y-121719165I0J173000D01*
G01*
X92667750Y-121373165D01*
G75*
G02*
X92840750Y-121200165I173000J0D01*
G01*
G37*
G36*
G01*
X98226750Y-137257165D02*
X97830750Y-137257165D01*
G75*
G02*
X97657750Y-137084165I0J173000D01*
G01*
X97657750Y-136738165D01*
G75*
G02*
X97830750Y-136565165I173000J0D01*
G01*
X98226750Y-136565165D01*
G75*
G02*
X98399750Y-136738165I0J-173000D01*
G01*
X98399750Y-137084165D01*
G75*
G02*
X98226750Y-137257165I-173000J0D01*
G01*
G37*
G36*
G01*
X98226750Y-138227165D02*
X97830750Y-138227165D01*
G75*
G02*
X97657750Y-138054165I0J173000D01*
G01*
X97657750Y-137708165D01*
G75*
G02*
X97830750Y-137535165I173000J0D01*
G01*
X98226750Y-137535165D01*
G75*
G02*
X98399750Y-137708165I0J-173000D01*
G01*
X98399750Y-138054165D01*
G75*
G02*
X98226750Y-138227165I-173000J0D01*
G01*
G37*
G36*
G01*
X95890750Y-122170165D02*
X96286750Y-122170165D01*
G75*
G02*
X96459750Y-122343165I0J-173000D01*
G01*
X96459750Y-122689165D01*
G75*
G02*
X96286750Y-122862165I-173000J0D01*
G01*
X95890750Y-122862165D01*
G75*
G02*
X95717750Y-122689165I0J173000D01*
G01*
X95717750Y-122343165D01*
G75*
G02*
X95890750Y-122170165I173000J0D01*
G01*
G37*
G36*
G01*
X95890750Y-121200165D02*
X96286750Y-121200165D01*
G75*
G02*
X96459750Y-121373165I0J-173000D01*
G01*
X96459750Y-121719165D01*
G75*
G02*
X96286750Y-121892165I-173000J0D01*
G01*
X95890750Y-121892165D01*
G75*
G02*
X95717750Y-121719165I0J173000D01*
G01*
X95717750Y-121373165D01*
G75*
G02*
X95890750Y-121200165I173000J0D01*
G01*
G37*
G36*
G01*
X256772139Y-26849899D02*
X256772139Y-28649899D01*
G75*
G02*
X256721139Y-28700899I-51000J0D01*
G01*
X252321139Y-28700899D01*
G75*
G02*
X252270139Y-28649899I0J51000D01*
G01*
X252270139Y-26849899D01*
G75*
G02*
X252321139Y-26798899I51000J0D01*
G01*
X256721139Y-26798899D01*
G75*
G02*
X256772139Y-26849899I0J-51000D01*
G01*
G37*
D17*
X254521139Y-21749899D03*
D18*
X249621139Y-24749899D03*
D12*
X127495127Y-135225152D03*
X127495127Y-132685152D03*
X127495127Y-130145152D03*
X127495127Y-127605152D03*
X127495127Y-125065152D03*
X127495127Y-122525152D03*
G36*
G01*
X126594127Y-120835152D02*
X126594127Y-119135152D01*
G75*
G02*
X126645127Y-119084152I51000J0D01*
G01*
X128345127Y-119084152D01*
G75*
G02*
X128396127Y-119135152I0J-51000D01*
G01*
X128396127Y-120835152D01*
G75*
G02*
X128345127Y-120886152I-51000J0D01*
G01*
X126645127Y-120886152D01*
G75*
G02*
X126594127Y-120835152I0J51000D01*
G01*
G37*
D14*
X119720150Y-213691565D03*
X119720150Y-222073565D03*
X56220150Y-213691565D03*
X56220150Y-222073565D03*
D15*
X89005630Y-208239545D03*
X102725630Y-208239545D03*
X100185630Y-208239545D03*
X91420630Y-214709545D03*
X95230630Y-218399545D03*
G36*
G01*
X90670630Y-221638545D02*
X90670630Y-220240545D01*
G75*
G02*
X90721630Y-220189545I51000J0D01*
G01*
X92119630Y-220189545D01*
G75*
G02*
X92170630Y-220240545I0J-51000D01*
G01*
X92170630Y-221638545D01*
G75*
G02*
X92119630Y-221689545I-51000J0D01*
G01*
X90721630Y-221689545D01*
G75*
G02*
X90670630Y-221638545I0J51000D01*
G01*
G37*
X107180650Y-214705565D03*
X109720650Y-220935565D03*
G36*
G01*
X115320650Y-212864565D02*
X115320650Y-211466565D01*
G75*
G02*
X115371650Y-211415565I51000J0D01*
G01*
X116769650Y-211415565D01*
G75*
G02*
X116820650Y-211466565I0J-51000D01*
G01*
X116820650Y-212864565D01*
G75*
G02*
X116769650Y-212915565I-51000J0D01*
G01*
X115371650Y-212915565D01*
G75*
G02*
X115320650Y-212864565I0J51000D01*
G01*
G37*
X104765650Y-224995565D03*
X97770630Y-212169545D03*
X107305650Y-224995565D03*
X110990650Y-218395565D03*
X113530650Y-218395565D03*
X114800650Y-220935565D03*
X110990650Y-212165565D03*
X116070650Y-218395565D03*
X89005630Y-224999545D03*
X96500630Y-220939545D03*
G36*
G01*
X106430650Y-221634565D02*
X106430650Y-220236565D01*
G75*
G02*
X106481650Y-220185565I51000J0D01*
G01*
X107879650Y-220185565D01*
G75*
G02*
X107930650Y-220236565I0J-51000D01*
G01*
X107930650Y-221634565D01*
G75*
G02*
X107879650Y-221685565I-51000J0D01*
G01*
X106481650Y-221685565D01*
G75*
G02*
X106430650Y-221634565I0J51000D01*
G01*
G37*
X107305650Y-208235565D03*
X113530650Y-212165565D03*
X115945650Y-224995565D03*
X112260650Y-220935565D03*
X108450650Y-212165565D03*
X118485650Y-208235565D03*
X92690630Y-212169545D03*
X108450650Y-218395565D03*
X92690630Y-218399545D03*
X97770630Y-218399545D03*
X100185630Y-224999545D03*
X91545630Y-224999545D03*
X91545630Y-208239545D03*
X109720650Y-214705565D03*
D16*
X117975650Y-229185565D03*
D15*
X99040630Y-214709545D03*
X93960630Y-220939545D03*
X93960630Y-214709545D03*
X118485650Y-224995565D03*
X112260650Y-214705565D03*
X104765650Y-208235565D03*
X115945650Y-208235565D03*
X100310630Y-218399545D03*
X114800650Y-214705565D03*
X99040630Y-220939545D03*
X95230630Y-212169545D03*
X102725630Y-224999545D03*
X96500630Y-214709545D03*
G36*
G01*
X99560630Y-212868545D02*
X99560630Y-211470545D01*
G75*
G02*
X99611630Y-211419545I51000J0D01*
G01*
X101009630Y-211419545D01*
G75*
G02*
X101060630Y-211470545I0J-51000D01*
G01*
X101060630Y-212868545D01*
G75*
G02*
X101009630Y-212919545I-51000J0D01*
G01*
X99611630Y-212919545D01*
G75*
G02*
X99560630Y-212868545I0J51000D01*
G01*
G37*
X73218150Y-208235565D03*
X86938150Y-208235565D03*
X84398150Y-208235565D03*
X75633150Y-214705565D03*
X79443150Y-218395565D03*
G36*
G01*
X74883150Y-221634565D02*
X74883150Y-220236565D01*
G75*
G02*
X74934150Y-220185565I51000J0D01*
G01*
X76332150Y-220185565D01*
G75*
G02*
X76383150Y-220236565I0J-51000D01*
G01*
X76383150Y-221634565D01*
G75*
G02*
X76332150Y-221685565I-51000J0D01*
G01*
X74934150Y-221685565D01*
G75*
G02*
X74883150Y-221634565I0J51000D01*
G01*
G37*
X81983150Y-212165565D03*
X73218150Y-224995565D03*
X80713150Y-220935565D03*
X76903150Y-212165565D03*
X76903150Y-218395565D03*
X81983150Y-218395565D03*
X84398150Y-224995565D03*
X75758150Y-224995565D03*
X75758150Y-208235565D03*
X83253150Y-214705565D03*
X78173150Y-220935565D03*
X78173150Y-214705565D03*
X84523150Y-218395565D03*
X83253150Y-220935565D03*
X79443150Y-212165565D03*
X86938150Y-224995565D03*
X80713150Y-214705565D03*
G36*
G01*
X83773150Y-212864565D02*
X83773150Y-211466565D01*
G75*
G02*
X83824150Y-211415565I51000J0D01*
G01*
X85222150Y-211415565D01*
G75*
G02*
X85273150Y-211466565I0J-51000D01*
G01*
X85273150Y-212864565D01*
G75*
G02*
X85222150Y-212915565I-51000J0D01*
G01*
X83824150Y-212915565D01*
G75*
G02*
X83773150Y-212864565I0J51000D01*
G01*
G37*
D16*
X57998150Y-229185565D03*
G36*
G01*
X59153150Y-221634565D02*
X59153150Y-220236565D01*
G75*
G02*
X59204150Y-220185565I51000J0D01*
G01*
X60602150Y-220185565D01*
G75*
G02*
X60653150Y-220236565I0J-51000D01*
G01*
X60653150Y-221634565D01*
G75*
G02*
X60602150Y-221685565I-51000J0D01*
G01*
X59204150Y-221685565D01*
G75*
G02*
X59153150Y-221634565I0J51000D01*
G01*
G37*
D15*
X61173150Y-218395565D03*
X62443150Y-220935565D03*
X63713150Y-218395565D03*
X64983150Y-220935565D03*
X66253150Y-218395565D03*
X67523150Y-220935565D03*
X68793150Y-218395565D03*
X59903150Y-214705565D03*
X61173150Y-212165565D03*
X62443150Y-214705565D03*
X63713150Y-212165565D03*
X64983150Y-214705565D03*
X66253150Y-212165565D03*
X67523150Y-214705565D03*
G36*
G01*
X68043150Y-212864565D02*
X68043150Y-211466565D01*
G75*
G02*
X68094150Y-211415565I51000J0D01*
G01*
X69492150Y-211415565D01*
G75*
G02*
X69543150Y-211466565I0J-51000D01*
G01*
X69543150Y-212864565D01*
G75*
G02*
X69492150Y-212915565I-51000J0D01*
G01*
X68094150Y-212915565D01*
G75*
G02*
X68043150Y-212864565I0J51000D01*
G01*
G37*
X71208150Y-224995565D03*
X68668150Y-224995565D03*
X60028150Y-224995565D03*
X57488150Y-224995565D03*
X71208150Y-208235565D03*
X68668150Y-208235565D03*
X60028150Y-208235565D03*
X57488150Y-208235565D03*
M02*
